<?xml version="1.0" standalone="no"?>
<!DOCTYPE svg PUBLIC "-//W3C//DTD SVG 1.1//EN" "http://www.w3.org/Graphics/SVG/1.1/DTD/svg11.dtd" >
<svg xmlns="http://www.w3.org/2000/svg">
<metadata>
Created by FontPrep 20130207 at Mon Nov 30 14:56:17 2015
 By Menglin Xu
Copyright (c) 2012 by Dino dos Santos. All rights reserved.
</metadata>
<defs>
<font id="9c466b8e24dfbf7c8505f0e06a43f189" horiz-adv-x='1024' >
  <font-face 
    font-family="Solido-Light"
    font-weight="300"
    font-stretch="normal"
    units-per-em="2048"
    panose-1="0 0 4 0 0 0 0 0 0 0"
    ascent="1536"
    descent="-512"
    x-height="1024"
    cap-height="1434"
    bbox="-233 -612 2165 1884"
    underline-thickness="102"
    underline-position="-102"
    unicode-range="U+0020-FB02"
  />
<missing-glyph horiz-adv-x="880" 
d="M123 532v-40q0 -162 92 -235t225 -73t226 73q92 73 92 235v40q0 162 -92 235t-226 73t-225 -73q-92 -73 -92 -235zM778 532v-40q0 -199 -145 -281l74 -119h-21l-68 111q-80 -39 -178 -39t-178 39l-67 -111h-21l72 119q-143 84 -144 281v40q0 197 144 281l-72 119h21
l67 -111q80 39 178 39t178 -39l68 111h21l-74 -119q145 -86 145 -281z" />
    <glyph glyph-name="fi" unicode="fi" horiz-adv-x="980" 
d="M739 0v1024h103v-1024h-103zM412 1475h430v-297h-103v217h-297q-84 0 -116 -38t-31 -118v-215h260v-74h-260v-950h-102v950h-148v74h148v225q1 129 57 177t162 49z" />
    <glyph glyph-name="fl" unicode="fl" horiz-adv-x="980" 
d="M412 1475h430v-1475h-103v1395h-297q-84 0 -116 -38t-31 -118v-215h260v-74h-260v-950h-102v950h-148v74h148v225q1 129 57 177t162 49z" />
    <glyph glyph-name="f_f" unicode="ff" horiz-adv-x="1146" 
d="M972 1415q-70 0 -100 -38q-31 -38 -30 -117v-236h260v-74h-260v-950h-103v950h-444v-950h-102v950h-148v74h148v246q0 129 56 177q57 48 147 48t177 -20l-8 -78q-71 18 -139 18t-100 -38t-31 -117v-236h444v246q1 129 57 177t146 48t178 -20l-10 -78q-68 18 -138 18z" />
    <glyph glyph-name="f_f_i" unicode="ffi" horiz-adv-x="1525" 
d="M1284 0v1024h102v-1024h-102zM956 1475h430v-297h-102v217h-297q-84 0 -115 -38t-30 -118v-215h260v-74h-260v-950h-103v950h-444v-950h-102v950h-148v74h148v246q0 129 56 177q57 48 147 48t177 -20l-8 -78q-71 18 -139 18t-100 -38t-31 -117v-236h444v225q1 129 57 177
t160 49z" />
    <glyph glyph-name="f_f_l" unicode="ffl" horiz-adv-x="1525" 
d="M956 1475h430v-1475h-102v1395h-297q-84 0 -115 -38t-30 -118v-215h260v-74h-260v-950h-103v950h-444v-950h-102v950h-148v74h148v246q0 129 56 177q57 48 147 48t177 -20l-8 -78q-71 18 -139 18t-100 -38t-31 -117v-236h444v225q1 129 57 177t160 49z" />
    <glyph glyph-name=".notdef" horiz-adv-x="880" 
d="M123 532v-40q0 -162 92 -235t225 -73t226 73q92 73 92 235v40q0 162 -92 235t-226 73t-225 -73q-92 -73 -92 -235zM778 532v-40q0 -199 -145 -281l74 -119h-21l-68 111q-80 -39 -178 -39t-178 39l-67 -111h-21l72 119q-143 84 -144 281v40q0 197 144 281l-72 119h21
l67 -111q80 39 178 39t178 -39l68 111h21l-74 -119q145 -86 145 -281z" />
    <glyph glyph-name=".null" horiz-adv-x="0" 
 />
    <glyph glyph-name="nonmarkingreturn" horiz-adv-x="681" 
 />
    <glyph glyph-name="space" unicode=" " horiz-adv-x="409" 
 />
    <glyph glyph-name="exclam" unicode="!" horiz-adv-x="440" 
d="M274 0h-108v182h108v-182zM274 1434v-615l-14 -473h-78l-16 473v615h108z" />
    <glyph glyph-name="quotedbl" unicode="&#x22;" horiz-adv-x="784" 
d="M649 1434v-183l-14 -276h-64l-14 276v183h92zM227 1434v-183l-14 -276h-66l-14 276v183h94z" />
    <glyph glyph-name="numbersign" unicode="#" horiz-adv-x="1257" 
d="M838 543v370h-416v-370h416zM1163 913h-264v-370h264v-62h-264v-481h-61v481h-416v-481h-62v481h-266v62h266v370h-266v60h266v461h62v-461h416v461h61v-461h264v-60z" />
    <glyph glyph-name="dollar" unicode="$" horiz-adv-x="1095" 
d="M223 1108v-18q-1 -88 57 -153t144 -99q227 -91 375 -163q86 -42 143 -121t57 -187v-21q-1 -174 -121 -266t-300 -100v-185h-62v185q-178 8 -299 108t-121 279v145h103v-145q0 -143 101 -221t249 -78t245 68t97 206v18q0 102 -80 174t-194 114q-113 42 -227 90t-194 135
t-79 214v21q0 158 113 248q114 90 286 98v184h62v-184q174 -10 288 -109t113 -278v-145h-102v145q1 143 -93 221t-235 78t-233 -70t-93 -188z" />
    <glyph glyph-name="percent" unicode="%" horiz-adv-x="1574" 
d="M997 639v-418q-1 -82 59 -129t144 -47t143 47t60 129v418q1 82 -59 129t-144 47t-144 -47t-59 -129zM1473 639v-418q0 -111 -80 -172t-194 -61q-113 0 -193 61t-80 172v418q0 111 80 172t194 61t193 -61q80 -61 80 -172zM174 1219v-416q0 -84 58 -130t144 -46t143 46
q58 46 59 130v416q0 84 -58 130t-144 46t-144 -46t-58 -130zM426 0h-61l778 1434h61zM649 1219v-416q0 -113 -80 -174q-79 -61 -193 -61t-194 60q-80 62 -80 175v416q0 111 81 173t194 62t193 -62t79 -173z" />
    <glyph glyph-name="ampersand" unicode="&#x26;" horiz-adv-x="1296" 
d="M213 451v-84q0 -143 100 -221q101 -78 231 -78q269 1 343 163l-529 482q-145 -96 -145 -262zM1010 627v-281q0 -49 -9 -82l207 -188v-76h-67l-178 162q-55 -90 -163 -136t-239 -46q-186 0 -318 101t-132 286v84q0 115 50 189t136 132q-145 145 -145 315v21q0 164 122 255
t306 91t306 -100t122 -287v-145h-101v145q0 143 -92 221t-233 78q-142 0 -234 -70t-92 -188v-18q0 -74 41 -150t102 -131l508 -461v367h301v-88h-198z" />
    <glyph glyph-name="quotesingle" unicode="'" horiz-adv-x="360" 
d="M227 1434v-183l-14 -276h-66l-14 276v183h94z" />
    <glyph glyph-name="parenleft" unicode="(" horiz-adv-x="557" 
d="M197 717q0 -520 317 -1024h-72q-158 213 -250 491t-92 533t92 533t250 491h72q-317 -504 -317 -1024z" />
    <glyph glyph-name="parenright" unicode=")" horiz-adv-x="557" 
d="M459 716q0 -254 -92 -532q-92 -279 -250 -491h-72q315 504 315 1024t-315 1024h72q158 -213 250 -492t92 -533z" />
    <glyph glyph-name="asterisk" unicode="*" horiz-adv-x="681" 
d="M315 1237l-6 213h60l-7 -213l185 111l31 -52l-193 -100l193 -102l-31 -52l-185 113l7 -215h-60l6 215l-180 -113l-31 52l189 102l-189 100l31 52z" />
    <glyph glyph-name="plus" unicode="+" horiz-adv-x="909" 
d="M813 768v-82h-317v-317h-82v317h-318v82h318v317h82v-317h317z" />
    <glyph glyph-name="comma" unicode="," horiz-adv-x="368" 
d="M139 182h92v-182l-86 -276h-77l71 276v182z" />
    <glyph glyph-name="hyphen" unicode="-" horiz-adv-x="909" 
d="M803 471h-697v82h697v-82z" />
    <glyph glyph-name="period" unicode="." horiz-adv-x="368" 
d="M231 0h-92v182h92v-182z" />
    <glyph glyph-name="slash" unicode="/" horiz-adv-x="933" 
d="M109 0h-60l778 1434h60z" />
    <glyph glyph-name="zero" unicode="0" horiz-adv-x="1171" 
d="M242 1067v-700q0 -141 100 -221t244 -78q144 0 243 78q100 78 101 221v700q0 141 -100 220t-244 79t-244 -79t-100 -220zM1036 1067v-700q0 -183 -132 -285t-318 -102t-319 101q-132 101 -132 286v700q0 183 132 285q133 102 319 102t318 -102t132 -285z" />
    <glyph glyph-name="one" unicode="1" horiz-adv-x="872" 
d="M510 88h317v-88h-741v88h317v1258h-317v88h424v-1346z" />
    <glyph glyph-name="two" unicode="2" horiz-adv-x="1105" 
d="M999 1067v-20q0 -93 -44 -177t-124 -156t-240 -176q-159 -104 -229 -160q-157 -126 -157 -272v-18h794v-88h-903v104q0 92 44 176t114 146q70 64 155 122t170 114t155 113q158 127 157 274v18q0 141 -99 220q-98 79 -242 79t-238 -78t-93 -221v-68h-102v68q0 187 124 287
t308 100t317 -102t133 -285z" />
    <glyph glyph-name="three" unicode="3" horiz-adv-x="1112" 
d="M123 999v68q0 187 124 287t307 100t305 -93t124 -267q-2 -121 -73 -208t-185 -126q125 -37 203 -127t78 -221v-54q0 -184 -132 -281t-318 -97q-187 0 -320 101t-134 286v67h109v-67q0 -141 99 -221q98 -80 244 -78q146 0 246 77q99 78 99 220v53q0 133 -101 215t-243 82
h-102v88h102q135 0 230 80t98 202q-1 133 -95 207t-235 74t-235 -78t-93 -221v-68h-102z" />
    <glyph glyph-name="four" unicode="4" horiz-adv-x="1142" 
d="M756 494v784l-584 -784h584zM1083 494v-86h-221v-408h-106v408h-703v86l703 940h106v-940h221z" />
    <glyph glyph-name="five" unicode="5" horiz-adv-x="1105" 
d="M252 905h307q187 0 319 -100t132 -287v-151q0 -183 -132 -285t-318 -102t-317 101q-130 101 -130 286v67h102v-67q0 -141 100 -221q99 -80 243 -78q144 0 245 78q100 79 100 221v151q0 143 -99 221t-245 78h-409v617h792v-88h-690v-441z" />
    <glyph glyph-name="six" unicode="6" horiz-adv-x="1142" 
d="M930 367v49q0 143 -100 221t-244 78h-344v-348q0 -141 100 -221t244 -78q144 0 244 79t100 220zM242 803h344q188 -1 319 -101t131 -286v-49q0 -183 -132 -285t-318 -102t-319 101q-132 101 -132 286v700q0 183 132 285q131 102 317 102t309 -100t123 -287v-68h-103v68
q0 143 -93 221t-235 78q-143 0 -243 -79t-100 -220v-264z" />
    <glyph glyph-name="seven" unicode="7" horiz-adv-x="970" 
d="M57 1434h869v-88q-555 -653 -555 -1346h-113q0 348 151 702t410 644h-762v88z" />
    <glyph glyph-name="eight" unicode="8" horiz-adv-x="1116" 
d="M903 365v26q0 133 -101 215q-102 82 -244 82t-242 -82t-101 -215v-26q0 -141 99 -219q98 -78 244 -78t246 77q99 79 99 220zM229 1077v-10q1 -125 97 -208t233 -83t233 83q95 83 95 208v10q0 137 -93 213q-94 76 -236 76t-236 -76t-93 -213zM987 1085v-12
q0 -125 -73 -213t-191 -127q129 -37 208 -125t79 -221v-29q0 -184 -131 -281t-319 -97t-321 97q-132 97 -133 281v29q0 133 80 221t209 125q-119 39 -193 129t-73 211v12q0 177 123 273t307 96t306 -96t122 -273z" />
    <glyph glyph-name="nine" unicode="9" horiz-adv-x="1142" 
d="M557 719h344v348q0 141 -100 220q-99 79 -243 79t-244 -79t-101 -220v-49q-1 -143 99 -221t245 -78zM106 1018v49q0 183 132 285t319 102t319 -101t132 -286v-700q0 -183 -132 -285t-316 -102t-309 100q-124 100 -124 287v67h102v-67q-1 -143 93 -221t236 -78t243 78
q100 79 100 221v264h-344q-187 1 -319 101t-132 286z" />
    <glyph glyph-name="colon" unicode=":" horiz-adv-x="376" 
d="M236 141h-93v183h93v-183zM236 639h-93v182h93v-182z" />
    <glyph glyph-name="semicolon" unicode=";" horiz-adv-x="448" 
d="M190 182h93v-182l-86 -276h-78l71 276v182zM283 639h-93v182h93v-182z" />
    <glyph glyph-name="less" unicode="&#x3c;" horiz-adv-x="800" 
d="M653 553v-84l-557 209v80l557 213v-86l-434 -166v-4z" />
    <glyph glyph-name="equal" unicode="=" horiz-adv-x="980" 
d="M840 543h-697v84h697v-84zM840 827h-697v84h697v-84z" />
    <glyph glyph-name="greater" unicode="&#x3e;" horiz-adv-x="800" 
d="M147 553l437 162v4l-437 166v86l558 -213v-80l-558 -209v84z" />
    <glyph glyph-name="question" unicode="?" horiz-adv-x="1046" 
d="M451 0v182h108v-182h-108zM74 999v68q0 187 124 287t309 100t317 -101t132 -286v-100q0 -170 -113 -271q-114 -100 -282 -114l-14 -246h-84v332h43q143 0 244 78q100 79 100 221v100q0 141 -100 220t-244 79t-236 -78q-94 -78 -94 -221v-68h-102z" />
    <glyph glyph-name="at" unicode="@" horiz-adv-x="1323" 
d="M819 385v201q0 70 -46 118t-117 48q-72 0 -110 -43t-38 -107v-233q0 -63 39 -107t109 -43q70 0 117 48q46 48 46 118zM131 217v590q0 199 143 321q142 122 394 121q252 0 395 -122t143 -320v-631h-377l-10 103q-53 -113 -184 -113q-96 0 -146 57q-49 57 -49 137v250
q0 80 49 138t146 57q135 0 188 -117l6 105h58v-562h246v576q0 170 -123 271q-123 102 -341 102t-341 -102t-123 -271v-590q0 -170 123 -271t342 -102v-69q-252 -1 -396 121t-143 321z" />
    <glyph glyph-name="A" unicode="A" horiz-adv-x="1136" 
d="M309 500h512l-256 794zM983 0l-133 412h-567l-133 -412h-113l479 1444h107l475 -1444h-115z" />
    <glyph glyph-name="B" unicode="B" horiz-adv-x="1173" 
d="M981 367v36q0 139 -96 210t-240 71h-373v-596h373q145 0 241 69q95 69 95 210zM590 1346h-318v-576h318q139 0 234 68t96 209v24q0 139 -96 207t-234 68zM1026 1077v-20q0 -238 -231 -318q131 -31 212 -115t80 -225v-37q1 -184 -125 -273t-317 -89h-481v1434h430
q184 0 308 -88t124 -269z" />
    <glyph glyph-name="C" unicode="C" horiz-adv-x="1148" 
d="M1034 512v-145q0 -183 -132 -285t-318 -102t-320 101q-133 101 -133 286v700q0 183 133 285q134 102 320 102t318 -101t132 -286v-145h-102v145q0 141 -102 220t-245 79q-145 0 -245 -79t-100 -220v-700q0 -143 99 -221t245 -78t246 78q101 78 102 221v145h102z" />
    <glyph glyph-name="D" unicode="D" horiz-adv-x="1198" 
d="M961 387v660q-1 141 -99 220t-241 79h-349v-1258h349q143 0 241 78t99 221zM164 1434h457q186 0 316 -102t130 -285v-660q0 -183 -130 -285t-316 -102h-457v1434z" />
    <glyph glyph-name="E" unicode="E" horiz-adv-x="1069" 
d="M993 1346h-721v-576h574v-86h-574v-596h721v-88h-829v1434h829v-88z" />
    <glyph glyph-name="F" unicode="F" horiz-adv-x="1048" 
d="M993 1346h-721v-621h574v-88h-574v-637h-108v1434h829v-88z" />
    <glyph glyph-name="G" unicode="G" horiz-adv-x="1155" 
d="M1034 922h-102v145q0 141 -102 220t-245 79q-145 0 -245 -79t-100 -220v-700q0 -143 99 -221t245 -78t246 78q101 78 102 221v245h-367v88h469v-333q0 -183 -132 -285t-318 -102t-320 101q-133 101 -133 286v700q0 183 133 285q134 102 320 102t318 -101t132 -286v-145z
" />
    <glyph glyph-name="H" unicode="H" horiz-adv-x="1253" 
d="M981 1434h106v-1434h-106v684h-709v-684h-108v1434h108v-664h709v664z" />
    <glyph glyph-name="I" unicode="I" horiz-adv-x="436" 
d="M164 0v1434h108v-1434h-108z" />
    <glyph glyph-name="J" unicode="J" horiz-adv-x="612" 
d="M51 88q158 0 227 47t68 191v1108h107v-1117q1 -185 -97 -251t-305 -66v88z" />
    <glyph glyph-name="K" unicode="K" horiz-adv-x="1015" 
d="M272 0h-108v1434h108v-691l605 691h127l-623 -703l635 -731h-131l-613 711v-711z" />
    <glyph glyph-name="L" unicode="L" horiz-adv-x="1032" 
d="M276 88h703v-88h-809v1434h106v-1346z" />
    <glyph glyph-name="M" unicode="M" horiz-adv-x="1390" 
d="M1225 1434v-1434h-107v879q0 152 8 389l-389 -688h-88l-393 698q10 -244 10 -399v-879h-102v1434h115l421 -732l416 732h109z" />
    <glyph glyph-name="N" unicode="N" horiz-adv-x="1294" 
d="M1026 1434h102v-1434h-106l-764 1257q8 -236 8 -378v-879h-102v1434h112l758 -1256q-8 223 -8 377v879z" />
    <glyph glyph-name="O" unicode="O" horiz-adv-x="1167" 
d="M928 1067q0 141 -100 220t-244 79t-244 -79t-100 -220v-700q0 -141 100 -221t244 -78q144 0 243 78q100 78 101 221v700zM131 1067q0 183 133 285q134 102 320 102t318 -101t132 -286v-700q0 -183 -132 -285t-318 -102t-320 101q-133 101 -133 286v700z" />
    <glyph glyph-name="P" unicode="P" horiz-adv-x="1116" 
d="M940 938v109q0 141 -98 220t-242 79h-328v-709h328q143 0 242 78q98 78 98 223zM164 1434h436q186 0 316 -102t131 -285v-109q-1 -186 -131 -288t-316 -101h-328v-549h-108v1434z" />
    <glyph glyph-name="Q" unicode="Q" horiz-adv-x="1167" 
d="M928 367v700q0 141 -100 220t-244 79t-244 -79t-100 -220v-700q0 -141 100 -221t244 -78q144 0 244 79t100 220zM131 367v700q0 183 133 285q134 102 320 102t318 -101t132 -286v-700q0 -170 -114 -271q-115 -100 -283 -114v-76q0 -140 69 -184t226 -44v-88
q-207 0 -304 65t-98 245v82q-170 14 -284 114t-115 271z" />
    <glyph glyph-name="R" unicode="R" horiz-adv-x="1167" 
d="M637 1346h-365v-605h365q143 0 223 69t80 210v47q0 137 -81 208t-222 71zM561 653h-289v-653h-108v1434h481q182 0 292 -90t110 -273v-37q0 -281 -265 -336q187 -49 226 -309l61 -389h-106l-60 381q-29 174 -106 223q-78 49 -236 49z" />
    <glyph glyph-name="S" unicode="S" horiz-adv-x="1105" 
d="M1006 346q0 -182 -132 -274t-321 -92q-188 0 -320 101q-131 101 -131 286v145h103v-145q0 -143 101 -221q102 -78 248 -78t245 68q98 69 98 206v18q0 102 -80 174q-79 72 -193 114t-228 90t-194 135t-79 214v21q0 164 124 255t307 91t307 -100t124 -287v-145h-102v145
q0 143 -93 221q-92 78 -234 78t-234 -70t-93 -188v-18q-1 -88 57 -153t144 -99q227 -91 375 -163q86 -42 143 -121t58 -187v-21z" />
    <glyph glyph-name="T" unicode="T" horiz-adv-x="915" 
d="M868 1434v-88h-350v-1346h-106v1346h-365v88h821z" />
    <glyph glyph-name="U" unicode="U" horiz-adv-x="1216" 
d="M952 1434h107v-1067q0 -183 -132 -285q-133 -102 -319 -102t-318 101t-132 286v1067h106v-1067q0 -143 100 -221t244 -78q145 0 245 77q99 78 99 222v1067z" />
    <glyph glyph-name="V" unicode="V" horiz-adv-x="1136" 
d="M985 1434h115l-479 -1444h-107l-475 1444h115l415 -1303z" />
    <glyph glyph-name="W" unicode="W" horiz-adv-x="1724" 
d="M1569 1434h108l-379 -1444h-110l-326 1265l-327 -1265h-107l-383 1444h115l323 -1272l328 1272h109l325 -1280z" />
    <glyph glyph-name="X" unicode="X" horiz-adv-x="1079" 
d="M1069 0h-117l-411 641l-414 -641h-117l473 727l-463 707h117l404 -619l401 619h117l-463 -707z" />
    <glyph glyph-name="Y" unicode="Y" horiz-adv-x="1101" 
d="M602 0h-106v553l-473 881h114l414 -777l416 777h114l-479 -881v-553z" />
    <glyph glyph-name="Z" unicode="Z" horiz-adv-x="985" 
d="M928 88v-88h-873v88l738 1258h-717v88h842v-88l-738 -1258h748z" />
    <glyph glyph-name="bracketleft" unicode="[" horiz-adv-x="600" 
d="M537 1671h-299v-1909h299v-69h-377v2048h377v-70z" />
    <glyph glyph-name="backslash" unicode="\" horiz-adv-x="933" 
d="M825 0l-778 1434h59l779 -1434h-60z" />
    <glyph glyph-name="bracketright" unicode="]" horiz-adv-x="600" 
d="M63 1741h377v-2048h-377v69h297v1909h-297v70z" />
    <glyph glyph-name="asciicircum" unicode="^" horiz-adv-x="980" 
d="M492 821l-168 -227h-84l211 287h79l213 -287h-84z" />
    <glyph glyph-name="underscore" unicode="_" horiz-adv-x="880" 
d="M788 -125h-696v84h696v-84z" />
    <glyph glyph-name="grave" unicode="`" horiz-adv-x="770" 
d="M455 1126l-215 287h88l202 -287h-75z" />
    <glyph glyph-name="a" unicode="a" horiz-adv-x="948" 
d="M713 389v154q-207 -4 -331 -42t-164 -90t-40 -126v-19q0 -86 60 -146t184 -60q123 0 207 81q84 82 84 248zM815 725v-725h-88l-10 197q-88 -217 -334 -217q-155 0 -231 82t-76 188v24q0 319 637 330v117q0 152 -90 201q-69 37 -194 38q-124 1 -292 -67l-20 76
q162 76 342 75q356 0 356 -319z" />
    <glyph glyph-name="b" unicode="b" horiz-adv-x="989" 
d="M242 342q0 -117 79 -200t199 -83t189 75q68 75 67 183v390q0 109 -68 183t-188 75q-122 0 -200 -83t-78 -200v-340zM139 0v1475h103v-633q47 102 134 152t177 50q160 0 243 -95t83 -228v-418q0 -133 -83 -228t-243 -95q-90 0 -179 51t-136 155l-11 -186h-88z" />
    <glyph glyph-name="c" unicode="c" horiz-adv-x="858" 
d="M111 715q0 330 358 329q164 0 326 -61l-19 -80q-150 61 -289 62q-274 0 -274 -258v-390q0 -258 274 -258q139 0 289 62l19 -80q-162 -61 -326 -61q-358 0 -358 329v406z" />
    <glyph glyph-name="d" unicode="d" horiz-adv-x="989" 
d="M748 342v340q0 117 -79 200t-200 83t-187 -74t-67 -184v-390q0 -111 67 -185q68 -74 188 -73q120 0 199 83t79 200zM436 -20q-160 0 -242 95t-81 228v418q0 133 82 228t241 95q90 0 177 -50t135 -152v633h102v-1475h-88l-8 186q-48 -104 -138 -155t-180 -51z" />
    <glyph glyph-name="e" unicode="e" horiz-adv-x="940" 
d="M745 571v138q0 133 -75 195q-76 62 -191 62t-191 -62q-76 -64 -75 -197v-136h532zM840 502h-627v-176q0 -266 289 -267q172 0 321 62l19 -80q-162 -61 -355 -61q-269 0 -351 198q-26 63 -25 146v378q0 180 108 262q109 80 259 80t256 -80q105 -80 106 -259v-203z" />
    <glyph glyph-name="f" unicode="f" horiz-adv-x="600" 
d="M295 1024h260v-74h-260v-950h-102v950h-148v74h148v246q0 129 56 177q57 48 147 48t177 -20l-8 -78q-71 18 -139 18t-100 -38t-31 -117v-236z" />
    <glyph glyph-name="g" unicode="g" horiz-adv-x="989" 
d="M748 682q0 117 -79 200t-200 83t-189 -75t-67 -183v-349q0 -110 68 -184q69 -74 189 -74t199 83t79 200v299zM850 -96q0 -334 -381 -334q-170 0 -338 61l19 80q154 -61 307 -61q291 0 291 254v319q-46 -102 -134 -152t-178 -51q-160 0 -242 96t-83 228v377q0 133 83 228
t242 95q90 0 179 -51t137 -155l10 186h88v-1120z" />
    <glyph glyph-name="h" unicode="h" horiz-adv-x="1011" 
d="M776 0v707q0 109 -68 183t-188 75q-122 0 -200 -83t-78 -200v-682h-103v1475h103v-633q47 102 134 152t177 50q160 0 243 -95t83 -228v-721h-103z" />
    <glyph glyph-name="i" unicode="i" horiz-adv-x="380" 
d="M242 0h-103v1024h103v-1024zM242 1178h-103v260h103v-260z" />
    <glyph glyph-name="j" unicode="j" horiz-adv-x="380" 
d="M139 1024h103v-1229q0 -129 -56 -177t-147 -48q-90 0 -178 20l8 78q71 -18 139 -18q133 0 131 155v1219zM242 1178h-103v260h103v-260z" />
    <glyph glyph-name="k" unicode="k" horiz-adv-x="919" 
d="M242 0h-103v1475h103v-940l530 489h123l-547 -498l559 -526h-127l-538 508v-508z" />
    <glyph glyph-name="l" unicode="l" horiz-adv-x="380" 
d="M242 0h-103v1475h103v-1475z" />
    <glyph glyph-name="m" unicode="m" horiz-adv-x="1646" 
d="M572 1044q108 0 186 -61t106 -160q48 115 142 168t182 53q160 0 243 -95t82 -228v-721h-102v707q0 109 -68 183q-67 74 -187 75q-120 0 -199 -83t-78 -200v-682h-103v707q0 109 -68 183t-188 75q-122 0 -200 -83t-78 -200v-682h-103v1024h88l11 -186q47 104 136 155
q90 51 198 51z" />
    <glyph glyph-name="n" unicode="n" horiz-adv-x="1011" 
d="M776 0v707q0 109 -68 183t-188 75q-122 0 -200 -83t-78 -200v-682h-103v1024h88l11 -186q47 104 136 155t179 51q160 0 243 -95t83 -228v-721h-103z" />
    <glyph glyph-name="o" unicode="o" horiz-adv-x="958" 
d="M213 707v-390q0 -133 76 -196q77 -63 191 -63t190 62q76 64 75 197v390q0 133 -75 196q-76 63 -191 63t-191 -62q-76 -64 -75 -197zM848 702v-380q0 -180 -109 -262t-261 -80q-152 0 -260 80t-107 262v380q0 180 108 262q109 80 261 80t260 -81t108 -261z" />
    <glyph glyph-name="p" unicode="p" horiz-adv-x="989" 
d="M242 682v-340q0 -117 79 -200t199 -83t189 75q68 75 67 183v390q0 109 -68 183t-188 75q-122 0 -200 -83t-78 -200zM553 1044q160 0 243 -95t83 -228v-418q0 -133 -83 -228t-243 -95q-90 0 -177 50t-134 152v-592h-103v1434h88l11 -186q47 104 136 155t179 51z" />
    <glyph glyph-name="q" unicode="q" horiz-adv-x="989" 
d="M748 682q0 117 -79 200t-200 83t-187 -74t-67 -184v-390q0 -111 67 -185q68 -74 188 -73q120 0 199 83t79 200v340zM850 1024v-1434h-102v592q-46 -102 -134 -152t-178 -50q-160 0 -242 95t-81 228v418q0 133 82 228t241 95q90 0 179 -51t139 -155l8 186h88z" />
    <glyph glyph-name="r" unicode="r" horiz-adv-x="604" 
d="M553 944q-135 0 -223 -80t-88 -196v-668h-103v1024h88l11 -207q39 115 131 171t184 56v-100z" />
    <glyph glyph-name="s" unicode="s" horiz-adv-x="882" 
d="M700 274q0 134 -215 193q-90 25 -179 53t-151 89q-62 62 -63 161v23q0 109 90 181t260 70q170 0 332 -61l-16 -80q-160 63 -290 63t-201 -45q-71 -46 -70 -130v-17q1 -138 215 -194q90 -24 179 -51q89 -28 151 -89t63 -159v-23q1 -133 -103 -206q-104 -72 -282 -72
t-338 61l20 80q156 -63 336 -64q125 1 194 57t68 144v16z" />
    <glyph glyph-name="t" unicode="t" horiz-adv-x="610" 
d="M303 950v-735q0 -80 31 -118q30 -38 100 -38t137 19l11 -78q-90 -20 -179 -20t-146 48q-56 48 -56 177v745h-148v74h148v205h102v-205h258v-74h-258z" />
    <glyph glyph-name="u" unicode="u" horiz-adv-x="1011" 
d="M236 1024v-707q0 -109 68 -183t187 -75q119 0 199 83t80 200v682h102v-1024h-88l-10 186q-47 -104 -136 -155t-179 -51q-160 0 -243 95t-83 228v721h103z" />
    <glyph glyph-name="v" unicode="v" horiz-adv-x="903" 
d="M760 1024h102l-360 -1034h-101l-360 1034h104l308 -907z" />
    <glyph glyph-name="w" unicode="w" horiz-adv-x="1353" 
d="M1204 1024h103l-285 -1034h-111l-233 907l-236 -907h-110l-283 1034h101l239 -909l238 909h102l238 -909z" />
    <glyph glyph-name="x" unicode="x" horiz-adv-x="874" 
d="M848 1024l-361 -512l361 -512h-103l-307 432l-307 -432h-104l358 512l-358 512h104l307 -432l307 432h103z" />
    <glyph glyph-name="y" unicode="y" horiz-adv-x="899" 
d="M178 -430q-80 0 -170 20l8 80q86 -20 150 -20t103 37q40 37 75 129l64 174h-11l-358 1034h104l312 -909l303 909h102l-420 -1200q-50 -152 -116 -203t-146 -51z" />
    <glyph glyph-name="z" unicode="z" horiz-adv-x="845" 
d="M791 74v-74h-736v74l604 876h-581v74h692v-74l-604 -876h625z" />
    <glyph glyph-name="braceleft" unicode="{" horiz-adv-x="579" 
d="M516 -238v-69q-162 0 -241 61t-78 238l20 428q0 189 -61 226q-31 19 -82 28v86q51 8 82 27q61 37 61 227l-20 428q0 176 78 237q79 61 241 62v-70q-144 0 -192 -55t-50 -176l21 -479q0 -115 -41 -169t-121 -73v-4q80 -19 121 -73t41 -169l-21 -479q0 -124 52 -178
q37 -42 120 -52q27 -2 70 -2z" />
    <glyph glyph-name="bar" unicode="|" horiz-adv-x="380" 
d="M160 -307v2048h61v-2048h-61z" />
    <glyph glyph-name="braceright" unicode="}" horiz-adv-x="579" 
d="M63 1671v70q162 1 242 -61t80 -238l-20 -428q0 -188 61 -227q31 -19 82 -27v-86q-51 -8 -82 -28q-61 -38 -61 -226l20 -428q0 -176 -80 -238t-242 -61v69q181 0 223 102q20 50 21 130l-20 479q0 115 40 169t122 73v4q-82 19 -122 73t-40 169l20 479q0 161 -82 200
q-64 31 -162 31z" />
    <glyph glyph-name="asciitilde" unicode="~" horiz-adv-x="868" 
d="M672 823h63q0 -94 -41 -138t-97 -44q-57 0 -161 57q-104 58 -142 58t-65 -28t-26 -87h-64q0 94 41 138q42 44 98 44t161 -57t143 -57q38 -1 64 27t26 87z" />
    <glyph glyph-name="exclamdown" unicode="&#xa1;" horiz-adv-x="405" 
d="M256 -410h-106v256l14 832h78l14 -832v-256zM256 1024v-182h-106v182h106z" />
    <glyph glyph-name="cent" unicode="&#xa2;" horiz-adv-x="905" 
d="M502 -205h-62v185q-326 14 -325 329v406q0 315 325 329v185h62v-185q147 -6 295 -61l-17 -80q-154 61 -291 62q-272 0 -272 -258v-390q0 -258 272 -258q137 1 291 62l17 -80q-147 -55 -295 -61v-185z" />
    <glyph glyph-name="sterling" unicode="&#xa3;" 
d="M293 88h760v-88h-949v88h82v487h-84v89h84v444q0 164 123 255t307 91t308 -100t123 -287v-145h-103v145q0 143 -93 221t-233 78t-233 -70q-92 -70 -92 -188v-444h323v-89h-323v-487z" />
    <glyph glyph-name="currency" unicode="&#xa4;" horiz-adv-x="913" 
d="M141 532v-40q0 -162 92 -235q91 -73 225 -73t226 73t92 235v40q0 162 -92 235t-225 73t-225 -73t-93 -235zM797 532v-40q0 -199 -146 -281l74 -119h-20l-68 111q-80 -39 -178 -39t-178 39l-68 -111h-20l71 119q-143 84 -143 281v40q0 197 143 281l-71 119h20l68 -111
q80 39 178 39t178 -39l68 111h20l-74 -119q146 -86 146 -281z" />
    <glyph glyph-name="yen" unicode="&#xa5;" horiz-adv-x="1159" 
d="M938 592v-84h-307v-508h-107v508h-307v84h287l-453 842h115l414 -777l415 777h115l-459 -842h287z" />
    <glyph glyph-name="brokenbar" unicode="&#xa6;" horiz-adv-x="385" 
d="M162 -307v921h61v-921h-61zM162 819v922h61v-922h-61z" />
    <glyph glyph-name="section" unicode="&#xa7;" horiz-adv-x="1128" 
d="M133 623v57h862v-346q0 -164 -123 -255t-307 -91t-307 100t-123 287v123h103v-123q0 -143 93 -221t233 -78t233 69q92 70 92 189v289h-756zM995 936h-102v131q0 143 -93 221q-92 78 -234 78t-234 -70t-92 -188v-281h755v-59h-862v340q0 164 124 255t307 91t307 -100
t124 -287v-131z" />
    <glyph glyph-name="dieresis" unicode="&#xa8;" horiz-adv-x="1015" 
d="M776 1178h-102v260h102v-260zM342 1178h-102v260h102v-260z" />
    <glyph glyph-name="copyright" unicode="&#xa9;" horiz-adv-x="1615" 
d="M1081 594v-86q0 -111 -80 -172q-79 -62 -193 -62t-194 62t-79 172v418q0 111 79 172q80 61 194 61t194 -61t79 -172v-86h-67v86q0 82 -60 129t-146 47q-85 0 -144 -47t-60 -129v-418q0 -86 58 -131t146 -45q87 0 146 45t60 131v86h67zM125 716q0 -312 198 -508
q197 -196 485 -196t486 196t199 508q0 312 -199 509q-200 197 -486 197t-484 -198q-198 -196 -199 -508zM1526 716q0 -312 -205 -524t-512 -212t-512 212t-205 524t206 525t511 213t511 -213t206 -525z" />
    <glyph glyph-name="ordfeminine" unicode="&#xaa;" horiz-adv-x="739" 
d="M586 662h-447v55h447v-55zM518 1061v88q-311 -2 -311 -150v-12q0 -49 35 -84q36 -35 108 -35t120 48t48 145zM371 1454q215 0 215 -192v-435h-58l-6 117q-51 -129 -198 -129q-92 0 -139 49q-46 49 -46 113v14q0 193 379 199v67q0 141 -156 142q-88 0 -186 -41l-12 49
q94 47 207 47z" />
    <glyph glyph-name="guillemotleft" unicode="&#xab;" horiz-adv-x="1200" 
d="M1087 162v-92l-505 401v78l505 405v-92l-409 -350v-4zM571 162v-92l-505 401v78l505 405v-92l-407 -350v-4z" />
    <glyph glyph-name="logicalnot" unicode="&#xac;" horiz-adv-x="1007" 
d="M160 768h702v-244h-106v162h-596v82z" />
    <glyph glyph-name="softhyphen" unicode="&#xad;" horiz-adv-x="909" 
d="M803 471h-697v82h697v-82z" />
    <glyph glyph-name="registered" unicode="&#xae;" horiz-adv-x="1615" 
d="M850 1090h-215v-357h215q178 0 178 164v27q0 82 -47 124t-131 42zM1098 928v-21q0 -168 -158 -202q111 -29 135 -185l37 -233h-70l-36 229q-16 100 -62 130t-137 30h-172v-389h-70v860h291q110 0 176 -55t66 -164zM125 716q-1 -312 197 -508t486 -196t486 196t199 508
q0 312 -199 509q-200 197 -486 197t-484 -198q-198 -196 -199 -508zM809 1454q305 0 511 -213t206 -525t-205 -524t-512 -212t-512 212t-205 524t206 525t511 213z" />
    <glyph glyph-name="macron" unicode="&#xaf;" horiz-adv-x="1079" 
d="M840 1194h-600v68h600v-68z" />
    <glyph glyph-name="degree" unicode="&#xb0;" horiz-adv-x="555" 
d="M147 1280q0 -57 37 -94q38 -37 94 -37t93 37t37 94t-37 94t-93 37t-94 -37t-37 -94zM104 1280q0 72 50 123t124 51t124 -51t50 -123t-50 -123q-52 -51 -124 -51t-124 51q-50 51 -50 123z" />
    <glyph glyph-name="plusminus" unicode="&#xb1;" horiz-adv-x="903" 
d="M98 360v84h707v-84h-707zM494 911h311v-84h-311v-311h-84v311h-312v84h312v312h84v-312z" />
    <glyph glyph-name="twosuperior" unicode="&#xb2;" horiz-adv-x="679" 
d="M610 1473v-13q0 -76 -49 -142t-119 -111q-70 -46 -140 -91q-168 -108 -167 -215v-10h475v-57h-547v67q-1 75 49 141t120 112t139 91q166 107 168 215v13q-1 82 -59 129t-142 47t-139 -47t-56 -129v-41h-67v41q0 113 75 173t187 60t192 -61t80 -172z" />
    <glyph glyph-name="threesuperior" unicode="&#xb3;" horiz-adv-x="688" 
d="M600 1493v-10q0 -145 -147 -195q160 -53 159 -207v-32q0 -111 -78 -169t-193 -58q-114 0 -194 60q-80 62 -79 173v41h69v-41q-1 -82 59 -129t145 -47t143 46t59 130v28q1 78 -59 127t-144 50h-61v57h61q82 0 137 44t55 118v8q0 80 -54 121t-138 41t-138 -46t-55 -130v-41
h-67v41q0 113 74 173t188 60t186 -54t72 -159z" />
    <glyph glyph-name="acute" unicode="&#xb4;" horiz-adv-x="770" 
d="M315 1126h-75l202 287h88z" />
    <glyph glyph-name="paragraph" unicode="&#xb6;" horiz-adv-x="1214" 
d="M1133 1364h-205v-1294h205v-70h-283v1434h283v-70zM135 387v660q0 184 130 285t317 102h180v-1434h-180q-186 0 -317 101q-130 102 -130 286z" />
    <glyph glyph-name="periodcentered" unicode="&#xb7;" horiz-adv-x="376" 
d="M236 446h-93v183h93v-183z" />
    <glyph glyph-name="cedilla" unicode="&#xb8;" horiz-adv-x="890" 
d="M653 -285q-1 -186 -223 -186q-108 0 -190 41l16 49q94 -39 175 -39q153 0 153 135v11q0 119 -156 118h-51v158h51v-104h21q205 0 204 -168v-15z" />
    <glyph glyph-name="onesuperior" unicode="&#xb9;" horiz-adv-x="534" 
d="M317 891h191v-57h-451v57h191v745h-191v58h260v-803z" />
    <glyph glyph-name="ordmasculine" unicode="&#xba;" horiz-adv-x="747" 
d="M598 662h-448v55h448v-55zM217 1251v-233q0 -76 45 -114t112 -38q68 0 112 38t44 114v233q0 76 -45 114t-111 38t-112 -38q-45 -38 -45 -114zM598 1247v-225q0 -109 -66 -158t-158 -49t-159 49q-66 49 -65 158v225q0 109 65 158q66 49 159 49q92 0 158 -49t66 -158z" />
    <glyph glyph-name="guillemotright" unicode="&#xbb;" horiz-adv-x="1200" 
d="M629 162l409 346v4l-409 350v92l508 -405v-78l-508 -401v92zM115 162l407 346v4l-407 350v92l506 -405v-78l-506 -401v92z" />
    <glyph glyph-name="onequarter" unicode="&#xbc;" horiz-adv-x="1515" 
d="M1274 299v459l-342 -459h342zM1477 299v-57h-131v-242h-72v242h-420v57l420 561h72v-561h131zM1079 1434h62l-779 -1434h-61zM508 573h-451v58h191v745h-191v58h260v-803h191v-58z" />
    <glyph glyph-name="onehalf" unicode="&#xbd;" horiz-adv-x="1585" 
d="M1516 639v-12q0 -76 -50 -142q-50 -65 -118 -111q-70 -46 -140 -91q-166 -107 -168 -215v-11h476v-57h-547v68q0 76 49 142t119 111q69 46 139 91q168 108 168 215v12q0 82 -58 129t-143 47q-84 0 -139 -47t-55 -129v-41h-68v41q0 113 75 173q76 60 188 60t192 -61
t80 -172zM1079 1434h62l-779 -1434h-61zM508 573h-451v58h191v745h-191v58h260v-803h191v-58z" />
    <glyph glyph-name="threequarters" unicode="&#xbe;" horiz-adv-x="1669" 
d="M1427 299v459l-342 -459h342zM1630 299v-57h-131v-242h-72v242h-419v57l419 561h72v-561h131zM1233 1434h61l-778 -1434h-61zM612 821v-33q0 -110 -78 -168t-193 -58q-114 0 -194 60q-80 62 -79 173v41h69v-41q-1 -82 59 -129q60 -48 145 -48t143 46t59 131v28
q1 78 -59 127t-144 49h-61v58h61q82 0 137 44t55 118v8q0 80 -54 121t-138 41q-84 -1 -138 -47t-55 -130v-41h-67v41q0 113 74 173q74 61 188 61t186 -53t72 -160v-10q0 -145 -147 -195q159 -53 159 -207z" />
    <glyph glyph-name="questiondown" unicode="&#xbf;" horiz-adv-x="1034" 
d="M864 25h103v-68q0 -187 -124 -287t-309 -100t-318 101q-132 101 -132 286v100q0 171 114 271t281 114l15 246h84v-332h-43q-143 0 -244 -78q-100 -79 -101 -221v-100q0 -141 100 -220t244 -79t237 78t93 221v68zM588 1024v-182h-107v182h107z" />
    <glyph glyph-name="Agrave" unicode="&#xc0;" horiz-adv-x="1136" 
d="M309 500h512l-256 794zM983 0l-133 412h-567l-133 -412h-113l479 1444h107l475 -1444h-115zM532 1536l-215 287h89l202 -287h-76z" />
    <glyph glyph-name="Aacute" unicode="&#xc1;" horiz-adv-x="1136" 
d="M309 500h512l-256 794zM983 0l-133 412h-567l-133 -412h-113l479 1444h107l475 -1444h-115zM606 1536h-76l203 287h88z" />
    <glyph glyph-name="Acircumflex" unicode="&#xc2;" horiz-adv-x="1136" 
d="M309 500h512l-256 794zM983 0l-133 412h-567l-133 -412h-113l479 1444h107l475 -1444h-115zM569 1763l-168 -227h-84l211 287h80l213 -287h-84z" />
    <glyph glyph-name="Atilde" unicode="&#xc3;" horiz-adv-x="1136" 
d="M309 500h512l-256 794zM983 0l-133 412h-567l-133 -412h-113l479 1444h107l475 -1444h-115zM805 1735h63q0 -95 -42 -139t-98 -44t-160 56t-143 57q-38 0 -65 -28t-26 -85h-64q0 94 42 138t98 45t160 -57t142 -58t66 28t27 87z" />
    <glyph glyph-name="Adieresis" unicode="&#xc4;" horiz-adv-x="1136" 
d="M309 500h512l-256 794zM983 0l-133 412h-567l-133 -412h-113l479 1444h107l475 -1444h-115zM838 1587h-103v260h103v-260zM403 1587h-102v260h102v-260z" />
    <glyph glyph-name="Aring" unicode="&#xc5;" horiz-adv-x="1136" 
d="M309 500h512l-256 794zM983 0l-133 412h-567l-133 -412h-113l479 1444h107l475 -1444h-115zM568 1839q-81 0 -122 -38q-40 -38 -40 -101t40 -102q41 -38 122 -38t122 38t41 102t-41 101q-41 38 -122 38zM569 1516q-106 0 -167 47q-60 47 -60 137t60 137t166 47t168 -47
q60 -47 60 -137t-60 -137q-61 -47 -167 -47z" />
    <glyph glyph-name="AE" unicode="&#xc6;" horiz-adv-x="1646" 
d="M743 500v809l-372 -809h372zM1573 1346h-723v-576h573v-86h-573v-596h723v-88h-830v412h-413l-189 -412h-114l659 1434h887v-88z" />
    <glyph glyph-name="Ccedilla" unicode="&#xc7;" horiz-adv-x="1148" 
d="M834 -287q0 -186 -224 -186q-108 0 -190 41l16 49q94 -39 176 -39q152 0 152 135v11q0 119 -156 118h-51v138q-178 8 -302 108t-124 279v700q0 183 133 285q134 102 320 102t318 -101t132 -286v-145h-102v145q0 141 -102 220t-245 79q-145 0 -245 -79t-100 -220v-700
q0 -143 99 -221t245 -78t246 78q101 78 102 221v145h102v-145q0 -179 -124 -279t-302 -108v-84h21q205 0 205 -168v-15z" />
    <glyph glyph-name="Egrave" unicode="&#xc8;" horiz-adv-x="1069" 
d="M993 1346h-721v-576h574v-86h-574v-596h721v-88h-829v1434h829v-88zM520 1536l-215 287h88l203 -287h-76z" />
    <glyph glyph-name="Eacute" unicode="&#xc9;" horiz-adv-x="1069" 
d="M993 1346h-721v-576h574v-86h-574v-596h721v-88h-829v1434h829v-88zM594 1536h-76l203 287h88z" />
    <glyph glyph-name="Ecircumflex" unicode="&#xca;" horiz-adv-x="1069" 
d="M993 1346h-721v-576h574v-86h-574v-596h721v-88h-829v1434h829v-88zM557 1763l-168 -227h-84l211 287h80l213 -287h-84z" />
    <glyph glyph-name="Edieresis" unicode="&#xcb;" horiz-adv-x="1069" 
d="M993 1346h-721v-576h574v-86h-574v-596h721v-88h-829v1434h829v-88zM823 1587h-102v260h102v-260zM389 1587h-102v260h102v-260z" />
    <glyph glyph-name="Igrave" unicode="&#xcc;" horiz-adv-x="436" 
d="M164 0v1434h108v-1434h-108zM182 1536l-215 287h88l203 -287h-76z" />
    <glyph glyph-name="Iacute" unicode="&#xcd;" horiz-adv-x="436" 
d="M164 0v1434h108v-1434h-108zM256 1536h-76l203 287h88z" />
    <glyph glyph-name="Icircumflex" unicode="&#xce;" horiz-adv-x="436" 
d="M164 0v1434h108v-1434h-108zM219 1763l-168 -227h-84l211 287h80l213 -287h-84z" />
    <glyph glyph-name="Idieresis" unicode="&#xcf;" horiz-adv-x="436" 
d="M164 0v1434h108v-1434h-108zM487 1587h-102v260h102v-260zM53 1587h-102v260h102v-260z" />
    <glyph glyph-name="Eth" unicode="&#xd0;" horiz-adv-x="1212" 
d="M975 387v660q0 141 -98 220t-242 79h-348v-576h211v-86h-211v-596h348q143 0 242 78q98 78 98 221zM178 1434h457q186 0 316 -102t130 -285v-660q0 -183 -130 -285t-316 -102h-457v684h-170v86h170v664z" />
    <glyph glyph-name="Ntilde" unicode="&#xd1;" horiz-adv-x="1294" 
d="M1026 1434h102v-1434h-106l-764 1257q8 -236 8 -378v-879h-102v1434h112l758 -1256q-8 223 -8 377v879zM883 1735h63q0 -95 -42 -139t-98 -44t-160 56t-143 57q-38 0 -65 -28t-26 -85h-64q0 94 42 138t97 45t161 -57t142 -58q38 0 66 28t27 87z" />
    <glyph glyph-name="Ograve" unicode="&#xd2;" horiz-adv-x="1167" 
d="M928 1067q0 141 -100 220t-244 79t-244 -79t-100 -220v-700q0 -141 100 -221t244 -78q144 0 243 78q100 78 101 221v700zM131 1067q0 183 133 285q134 102 320 102t318 -101t132 -286v-700q0 -183 -132 -285t-318 -102t-320 101q-133 101 -133 286v700zM547 1536
l-215 287h88l203 -287h-76z" />
    <glyph glyph-name="Oacute" unicode="&#xd3;" horiz-adv-x="1167" 
d="M928 1067q0 141 -100 220t-244 79t-244 -79t-100 -220v-700q0 -141 100 -221t244 -78q144 0 243 78q100 78 101 221v700zM131 1067q0 183 133 285q134 102 320 102t318 -101t132 -286v-700q0 -183 -132 -285t-318 -102t-320 101q-133 101 -133 286v700zM621 1536h-76
l203 287h88z" />
    <glyph glyph-name="Ocircumflex" unicode="&#xd4;" horiz-adv-x="1167" 
d="M928 1067q0 141 -100 220t-244 79t-244 -79t-100 -220v-700q0 -141 100 -221t244 -78q144 0 243 78q100 78 101 221v700zM131 1067q0 183 133 285q134 102 320 102t318 -101t132 -286v-700q0 -183 -132 -285t-318 -102t-320 101q-133 101 -133 286v700zM584 1763
l-168 -227h-84l211 287h80l213 -287h-84z" />
    <glyph glyph-name="Otilde" unicode="&#xd5;" horiz-adv-x="1167" 
d="M928 1067q0 141 -100 220t-244 79t-244 -79t-100 -220v-700q0 -141 100 -221t244 -78q144 0 243 78q100 78 101 221v700zM131 1067q0 183 133 285q134 102 320 102t318 -101t132 -286v-700q0 -183 -132 -285t-318 -102t-320 101q-133 101 -133 286v700zM819 1735h64
q0 -95 -42 -139q-43 -44 -99 -44t-160 56t-142 57q-38 0 -66 -28q-26 -28 -26 -85h-63q0 94 42 138t97 45q54 1 160 -57t143 -58t65 28q27 28 27 87z" />
    <glyph glyph-name="Odieresis" unicode="&#xd6;" horiz-adv-x="1167" 
d="M928 1067q0 141 -100 220t-244 79t-244 -79t-100 -220v-700q0 -141 100 -221t244 -78q144 0 243 78q100 78 101 221v700zM131 1067q0 183 133 285q134 102 320 102t318 -101t132 -286v-700q0 -183 -132 -285t-318 -102t-320 101q-133 101 -133 286v700zM852 1587h-102
v260h102v-260zM418 1587h-103v260h103v-260z" />
    <glyph glyph-name="multiply" unicode="&#xd7;" horiz-adv-x="909" 
d="M809 1022l-649 -649l-60 59l650 649z" />
    <glyph glyph-name="Oslash" unicode="&#xd8;" horiz-adv-x="1167" 
d="M928 367v700q0 80 -37 147l-576 -1044q96 -102 254 -102q159 0 259 79t100 220zM240 1067v-700q0 -84 39 -152l577 1047q-98 104 -256 104t-260 -79q-100 -79 -100 -220zM1034 1067v-700q0 -183 -132 -285t-322 -102t-316 100l-65 -121h-62l88 158q-94 98 -94 250v700
q0 183 133 285t323 102t318 -104l68 125h61l-90 -162q90 -100 90 -246z" />
    <glyph glyph-name="Ugrave" unicode="&#xd9;" horiz-adv-x="1216" 
d="M952 1434h107v-1067q0 -183 -132 -285q-133 -102 -319 -102t-318 101t-132 286v1067h106v-1067q0 -143 100 -221t244 -78q145 0 245 77q99 78 99 222v1067zM571 1536l-215 287h88l203 -287h-76z" />
    <glyph glyph-name="Uacute" unicode="&#xda;" horiz-adv-x="1216" 
d="M952 1434h107v-1067q0 -183 -132 -285q-133 -102 -319 -102t-318 101t-132 286v1067h106v-1067q0 -143 100 -221t244 -78q145 0 245 77q99 78 99 222v1067zM645 1536h-76l203 287h88z" />
    <glyph glyph-name="Ucircumflex" unicode="&#xdb;" horiz-adv-x="1216" 
d="M952 1434h107v-1067q0 -183 -132 -285q-133 -102 -319 -102t-318 101t-132 286v1067h106v-1067q0 -143 100 -221t244 -78q145 0 245 77q99 78 99 222v1067zM608 1763l-168 -227h-84l211 287h80l213 -287h-84z" />
    <glyph glyph-name="Udieresis" unicode="&#xdc;" horiz-adv-x="1216" 
d="M952 1434h107v-1067q0 -183 -132 -285q-133 -102 -319 -102t-318 101t-132 286v1067h106v-1067q0 -143 100 -221t244 -78q145 0 245 77q99 78 99 222v1067zM877 1587h-103v260h103v-260zM442 1587h-102v260h102v-260z" />
    <glyph glyph-name="Yacute" unicode="&#xdd;" horiz-adv-x="1101" 
d="M602 0h-106v553l-473 881h114l414 -777l416 777h114l-479 -881v-553zM588 1536h-76l203 287h88z" />
    <glyph glyph-name="Thorn" unicode="&#xde;" horiz-adv-x="1116" 
d="M940 674v108q0 142 -98 222t-242 79h-328v-708h328q143 0 242 78q98 78 98 221zM272 1171h328q186 0 316 -101t131 -288v-108q-1 -184 -131 -286t-316 -101h-328v-287h-108v1434h108v-263z" />
    <glyph glyph-name="germandbls" unicode="&#xdf;" horiz-adv-x="1120" 
d="M936 1153v-70q0 -229 -207 -307q139 -28 224 -112t85 -234v-68q0 -124 -63 -208q-116 -153 -363 -154h-209v88h203q145 0 241 69q95 69 95 210v67q0 141 -96 211t-240 70h-203v88h101q141 -1 235 67t95 207v80q0 133 -76 197t-193 63q-117 0 -193 -63t-77 -197v-1157
h-102v950h-148v74h148v129q0 180 109 261q110 81 264 81t262 -81t108 -261z" />
    <glyph glyph-name="agrave" unicode="&#xe0;" horiz-adv-x="948" 
d="M713 389v154q-207 -4 -331 -42t-164 -90t-40 -126v-19q0 -86 60 -146t184 -60q123 0 207 81q84 82 84 248zM815 725v-725h-88l-10 197q-88 -217 -334 -217q-155 0 -231 82t-76 188v24q0 319 637 330v117q0 152 -90 201q-69 37 -194 38q-124 1 -292 -67l-20 76
q162 76 342 75q356 0 356 -319zM422 1126l-215 287h88l203 -287h-76z" />
    <glyph glyph-name="aacute" unicode="&#xe1;" horiz-adv-x="948" 
d="M713 389v154q-207 -4 -331 -42t-164 -90t-40 -126v-19q0 -86 60 -146t184 -60q123 0 207 81q84 82 84 248zM815 725v-725h-88l-10 197q-88 -217 -334 -217q-155 0 -231 82t-76 188v24q0 319 637 330v117q0 152 -90 201q-69 37 -194 38q-124 1 -292 -67l-20 76
q162 76 342 75q356 0 356 -319zM496 1126h-76l203 287h88z" />
    <glyph glyph-name="acircumflex" unicode="&#xe2;" horiz-adv-x="948" 
d="M713 389v154q-207 -4 -331 -42t-164 -90t-40 -126v-19q0 -86 60 -146t184 -60q123 0 207 81q84 82 84 248zM815 725v-725h-88l-10 197q-88 -217 -334 -217q-155 0 -231 82t-76 188v24q0 319 637 330v117q0 152 -90 201q-69 37 -194 38q-124 1 -292 -67l-20 76
q162 76 342 75q356 0 356 -319zM459 1354l-168 -228h-84l211 287h80l213 -287h-84z" />
    <glyph glyph-name="atilde" unicode="&#xe3;" horiz-adv-x="948" 
d="M713 389v154q-207 -4 -331 -42t-164 -90t-40 -126v-19q0 -86 60 -146t184 -60q123 0 207 81q84 82 84 248zM815 725v-725h-88l-10 197q-88 -217 -334 -217q-155 0 -231 82t-76 188v24q0 319 637 330v117q0 152 -90 201q-69 37 -194 38q-124 1 -292 -67l-20 76
q162 76 342 75q356 0 356 -319zM694 1325h64q0 -94 -42 -138t-98 -44t-161 56t-143 56q-38 1 -64 -27t-27 -85h-63q0 94 42 138t97 44t161 -57q106 -58 142 -58q37 0 65 28q27 28 27 87z" />
    <glyph glyph-name="adieresis" unicode="&#xe4;" horiz-adv-x="948" 
d="M713 389v154q-207 -4 -331 -42t-164 -90t-40 -126v-19q0 -86 60 -146t184 -60q123 0 207 81q84 82 84 248zM815 725v-725h-88l-10 197q-88 -217 -334 -217q-155 0 -231 82t-76 188v24q0 319 637 330v117q0 152 -90 201q-69 37 -194 38q-124 1 -292 -67l-20 76
q162 76 342 75q356 0 356 -319zM727 1178h-102v260h102v-260zM293 1178h-103v260h103v-260z" />
    <glyph glyph-name="aring" unicode="&#xe5;" horiz-adv-x="948" 
d="M713 389v154q-207 -4 -331 -42t-164 -90t-40 -126v-19q0 -86 60 -146t184 -60q123 0 207 81q84 82 84 248zM815 725v-725h-88l-10 197q-88 -217 -334 -217q-155 0 -231 82t-76 188v24q0 319 637 330v117q0 152 -90 201q-69 37 -194 38q-124 1 -292 -67l-20 76
q162 76 342 75q356 0 356 -319zM621 1290q0 64 -41 102t-122 38t-122 -38t-41 -102t41 -101q41 -38 122 -38t122 38t41 101zM459 1106q-106 0 -167 47q-60 47 -61 137q1 90 61 137t166 47t168 -46q60 -48 60 -138t-60 -137t-167 -47z" />
    <glyph glyph-name="ae" unicode="&#xe6;" horiz-adv-x="1540" 
d="M713 389v146q-301 -6 -418 -74t-117 -182v-13q0 -86 60 -146t184 -60q123 0 207 81q84 82 84 248zM1348 596v113q0 133 -76 195t-191 62t-191 -62q-76 -64 -75 -197v-111h533zM1090 -20q-108 0 -187 33t-121 80q-41 48 -57 114q-51 -127 -146 -177t-196 -50
q-155 0 -231 82t-76 188v16q0 319 637 330v125q0 152 -90 201q-69 37 -193 38t-293 -67l-20 76q162 76 342 75q233 0 311 -133q100 133 311 133q150 0 255 -80t106 -259v-170h-627v-209q0 -266 289 -267q171 1 321 62l19 -80q-162 -61 -354 -61z" />
    <glyph glyph-name="ccedilla" unicode="&#xe7;" horiz-adv-x="858" 
d="M719 -287q0 -186 -223 -186q-109 0 -191 41l17 49q94 -39 175 -39q152 0 152 135v11q0 119 -155 118h-52v138q-332 14 -331 329v406q0 330 358 329q164 0 326 -61l-19 -80q-150 61 -289 62q-274 0 -274 -258v-390q0 -258 274 -258q139 1 289 62l19 -80q-154 -57 -301 -61
v-84h20q205 0 205 -168v-15z" />
    <glyph glyph-name="egrave" unicode="&#xe8;" horiz-adv-x="940" 
d="M745 571v138q0 133 -75 195q-76 62 -191 62t-191 -62q-76 -64 -75 -197v-136h532zM840 502h-627v-176q0 -266 289 -267q172 0 321 62l19 -80q-162 -61 -355 -61q-269 0 -351 198q-26 63 -25 146v378q0 180 108 262q109 80 259 80t256 -80q105 -80 106 -259v-203z
M442 1126l-215 287h88l203 -287h-76z" />
    <glyph glyph-name="eacute" unicode="&#xe9;" horiz-adv-x="940" 
d="M745 571v138q0 133 -75 195q-76 62 -191 62t-191 -62q-76 -64 -75 -197v-136h532zM840 502h-627v-176q0 -266 289 -267q172 0 321 62l19 -80q-162 -61 -355 -61q-269 0 -351 198q-26 63 -25 146v378q0 180 108 262q109 80 259 80t256 -80q105 -80 106 -259v-203z
M516 1126h-76l203 287h88z" />
    <glyph glyph-name="ecircumflex" unicode="&#xea;" horiz-adv-x="940" 
d="M745 571v138q0 133 -75 195q-76 62 -191 62t-191 -62q-76 -64 -75 -197v-136h532zM840 502h-627v-176q0 -266 289 -267q172 0 321 62l19 -80q-162 -61 -355 -61q-269 0 -351 198q-26 63 -25 146v378q0 180 108 262q109 80 259 80t256 -80q105 -80 106 -259v-203z
M479 1354l-168 -228h-84l211 287h80l213 -287h-84z" />
    <glyph glyph-name="edieresis" unicode="&#xeb;" horiz-adv-x="940" 
d="M745 571v138q0 133 -75 195q-76 62 -191 62t-191 -62q-76 -64 -75 -197v-136h532zM840 502h-627v-176q0 -266 289 -267q172 0 321 62l19 -80q-162 -61 -355 -61q-269 0 -351 198q-26 63 -25 146v378q0 180 108 262q109 80 259 80t256 -80q105 -80 106 -259v-203z
M748 1178h-103v260h103v-260zM313 1178h-102v260h102v-260z" />
    <glyph glyph-name="igrave" unicode="&#xec;" horiz-adv-x="380" 
d="M242 0h-103v1024h103v-1024zM154 1126l-215 287h88l202 -287h-75z" />
    <glyph glyph-name="iacute" unicode="&#xed;" horiz-adv-x="380" 
d="M242 0h-103v1024h103v-1024zM227 1126h-75l202 287h88z" />
    <glyph glyph-name="icircumflex" unicode="&#xee;" horiz-adv-x="380" 
d="M242 0h-103v1024h103v-1024zM190 1354l-167 -228h-84l211 287h79l213 -287h-84z" />
    <glyph glyph-name="idieresis" unicode="&#xef;" horiz-adv-x="380" 
d="M242 0h-103v1024h103v-1024zM459 1178h-103v260h103v-260zM25 1178h-103v260h103v-260z" />
    <glyph glyph-name="eth" unicode="&#xf0;" horiz-adv-x="1097" 
d="M178 416v-49q0 -141 100 -221t244 -78q143 0 244 78q100 79 100 221v348h-344q-144 0 -244 -78t-100 -221zM547 1638v-184q180 -6 304 -107t124 -280v-700q0 -183 -133 -285q-134 -102 -320 -102t-318 101t-132 286v49q0 186 132 286t318 101h344v264q0 135 -91 213
t-228 86v-190h-62v190h-327v88h327v184h62z" />
    <glyph glyph-name="ntilde" unicode="&#xf1;" horiz-adv-x="1011" 
d="M776 0v707q0 109 -68 183t-188 75q-122 0 -200 -83t-78 -200v-682h-103v1024h88l11 -186q47 104 136 155t179 51q160 0 243 -95t83 -228v-721h-103zM752 1325h63q0 -94 -42 -138t-98 -44q-57 0 -161 56t-142 56q-38 1 -65 -27t-26 -85h-64q0 94 42 138t97 44
q54 0 160 -57q106 -58 143 -58t65 28t28 87z" />
    <glyph glyph-name="ograve" unicode="&#xf2;" horiz-adv-x="958" 
d="M213 707v-390q0 -133 76 -196q77 -63 191 -63t190 62q76 64 75 197v390q0 133 -75 196q-76 63 -191 63t-191 -62q-76 -64 -75 -197zM848 702v-380q0 -180 -109 -262t-261 -80q-152 0 -260 80t-107 262v380q0 180 108 262q109 80 261 80t260 -81t108 -261zM442 1126
l-215 287h88l203 -287h-76z" />
    <glyph glyph-name="oacute" unicode="&#xf3;" horiz-adv-x="958" 
d="M213 707v-390q0 -133 76 -196q77 -63 191 -63t190 62q76 64 75 197v390q0 133 -75 196q-76 63 -191 63t-191 -62q-76 -64 -75 -197zM848 702v-380q0 -180 -109 -262t-261 -80q-152 0 -260 80t-107 262v380q0 180 108 262q109 80 261 80t260 -81t108 -261zM516 1126h-76
l203 287h88z" />
    <glyph glyph-name="ocircumflex" unicode="&#xf4;" horiz-adv-x="958" 
d="M213 707v-390q0 -133 76 -196q77 -63 191 -63t190 62q76 64 75 197v390q0 133 -75 196q-76 63 -191 63t-191 -62q-76 -64 -75 -197zM848 702v-380q0 -180 -109 -262t-261 -80q-152 0 -260 80t-107 262v380q0 180 108 262q109 80 261 80t260 -81t108 -261zM479 1354
l-168 -228h-84l211 287h80l213 -287h-84z" />
    <glyph glyph-name="otilde" unicode="&#xf5;" horiz-adv-x="958" 
d="M213 707v-390q0 -133 76 -196q77 -63 191 -63t190 62q76 64 75 197v390q0 133 -75 196q-76 63 -191 63t-191 -62q-76 -64 -75 -197zM848 702v-380q0 -180 -109 -262t-261 -80q-152 0 -260 80t-107 262v380q0 180 108 262q109 80 261 80t260 -81t108 -261zM715 1325h63
q0 -94 -42 -138t-98 -44t-160 56t-143 56q-38 1 -65 -27t-26 -85h-64q0 94 42 138t98 44t160 -57q104 -58 142 -58t66 28t27 87z" />
    <glyph glyph-name="odieresis" unicode="&#xf6;" horiz-adv-x="958" 
d="M213 707v-390q0 -133 76 -196q77 -63 191 -63t190 62q76 64 75 197v390q0 133 -75 196q-76 63 -191 63t-191 -62q-76 -64 -75 -197zM848 702v-380q0 -180 -109 -262t-261 -80q-152 0 -260 80t-107 262v380q0 180 108 262q109 80 261 80t260 -81t108 -261zM748 1178h-103
v260h103v-260zM313 1178h-102v260h102v-260z" />
    <glyph glyph-name="divide" unicode="&#xf7;" horiz-adv-x="985" 
d="M539 379h-93v182h93v-182zM850 686h-715v82h715v-82zM539 893h-93v182h93v-182z" />
    <glyph glyph-name="oslash" unicode="&#xf8;" horiz-adv-x="958" 
d="M745 317v390q0 78 -30 139l-439 -713q74 -76 196 -76q122 -1 198 63t75 197zM213 707v-390q0 -78 31 -139l438 713q-74 76 -196 76q-122 1 -198 -63t-75 -197zM848 702v-380q0 -180 -109 -262t-261 -80q-152 0 -251 73l-57 -94h-59l79 129q-80 86 -79 234v380
q0 180 108 262q109 80 261 80t251 -73l57 94h60l-80 -129q80 -86 80 -234z" />
    <glyph glyph-name="ugrave" unicode="&#xf9;" horiz-adv-x="1011" 
d="M236 1024v-707q0 -109 68 -183t187 -75q119 0 199 83t80 200v682h102v-1024h-88l-10 186q-47 -104 -136 -155t-179 -51q-160 0 -243 95t-83 228v721h103zM471 1126l-215 287h88l203 -287h-76z" />
    <glyph glyph-name="uacute" unicode="&#xfa;" horiz-adv-x="1011" 
d="M236 1024v-707q0 -109 68 -183t187 -75q119 0 199 83t80 200v682h102v-1024h-88l-10 186q-47 -104 -136 -155t-179 -51q-160 0 -243 95t-83 228v721h103zM543 1126h-76l203 287h88z" />
    <glyph glyph-name="ucircumflex" unicode="&#xfb;" horiz-adv-x="1011" 
d="M236 1024v-707q0 -109 68 -183t187 -75q119 0 199 83t80 200v682h102v-1024h-88l-10 186q-47 -104 -136 -155t-179 -51q-160 0 -243 95t-83 228v721h103zM508 1354l-168 -228h-84l211 287h80l213 -287h-84z" />
    <glyph glyph-name="udieresis" unicode="&#xfc;" horiz-adv-x="1011" 
d="M236 1024v-707q0 -109 68 -183t187 -75q119 0 199 83t80 200v682h102v-1024h-88l-10 186q-47 -104 -136 -155t-179 -51q-160 0 -243 95t-83 228v721h103zM774 1178h-102v260h102v-260zM340 1178h-102v260h102v-260z" />
    <glyph glyph-name="yacute" unicode="&#xfd;" horiz-adv-x="899" 
d="M178 -430q-80 0 -170 20l8 80q86 -20 150 -20t103 37q40 37 75 129l64 174h-11l-358 1034h104l312 -909l303 909h102l-420 -1200q-50 -152 -116 -203t-146 -51zM487 1126h-75l202 287h88z" />
    <glyph glyph-name="thorn" unicode="&#xfe;" horiz-adv-x="989" 
d="M242 682v-340q0 -117 79 -200t199 -83t189 75q68 75 67 183v390q0 109 -68 183t-188 75q-122 0 -200 -83t-78 -200zM242 1475v-633q47 102 134 152t177 50q160 0 243 -95t83 -228v-418q0 -133 -83 -228t-243 -95q-90 0 -177 50t-134 152v-592h-103v1885h103z" />
    <glyph glyph-name="ydieresis" unicode="&#xff;" horiz-adv-x="899" 
d="M178 -430q-80 0 -170 20l8 80q86 -20 150 -20t103 37q40 37 75 129l64 174h-11l-358 1034h104l312 -909l303 909h102l-420 -1200q-50 -152 -116 -203t-146 -51zM717 1178h-103v260h103v-260zM283 1178h-103v260h103v-260z" />
    <glyph glyph-name="Amacron" unicode="&#x100;" horiz-adv-x="1136" 
d="M309 500h512l-256 794zM983 0l-133 412h-567l-133 -412h-113l479 1444h107l475 -1444h-115zM868 1604h-600v67h600v-67z" />
    <glyph glyph-name="amacron" unicode="&#x101;" horiz-adv-x="948" 
d="M713 389v154q-207 -4 -331 -42t-164 -90t-40 -126v-19q0 -86 60 -146t184 -60q123 0 207 81q84 82 84 248zM815 725v-725h-88l-10 197q-88 -217 -334 -217q-155 0 -231 82t-76 188v24q0 319 637 330v117q0 152 -90 201q-69 37 -194 38q-124 1 -292 -67l-20 76
q162 76 342 75q356 0 356 -319zM758 1194h-600v68h600v-68z" />
    <glyph glyph-name="Abreve" unicode="&#x102;" horiz-adv-x="1136" 
d="M309 500h512l-256 794zM983 0l-133 412h-567l-133 -412h-113l479 1444h107l475 -1444h-115zM367 1823q0 -92 48 -159t153 -67t154 67q48 67 48 159h53q1 -137 -71 -212t-184 -75t-184 75t-71 212h54z" />
    <glyph glyph-name="abreve" unicode="&#x103;" horiz-adv-x="948" 
d="M713 389v154q-207 -4 -331 -42t-164 -90t-40 -126v-19q0 -86 60 -146t184 -60q123 0 207 81q84 82 84 248zM815 725v-725h-88l-10 197q-88 -217 -334 -217q-155 0 -231 82t-76 188v24q0 319 637 330v117q0 152 -90 201q-69 37 -194 38q-124 1 -292 -67l-20 76
q162 76 342 75q356 0 356 -319zM256 1413q0 -92 48 -159q48 -66 154 -66t153 66q48 66 48 159h54q0 -137 -72 -212q-71 -75 -183 -75t-184 75t-71 212h53z" />
    <glyph glyph-name="Aogonek" unicode="&#x104;" horiz-adv-x="1136" 
d="M309 500h512l-256 794zM842 -282q0 70 50 149q50 78 128 133h-37l-133 412h-567l-133 -412h-113l479 1444h107l475 -1444h-25q-61 -47 -109 -125t-49 -135q0 -104 109 -105q59 1 133 46l14 -41q-77 -60 -157 -60t-126 34t-46 104z" />
    <glyph glyph-name="aogonek" unicode="&#x105;" horiz-adv-x="948" 
d="M713 389v154q-207 -4 -331 -42t-164 -90t-40 -126v-19q0 -86 60 -146t184 -60q123 0 207 81q84 82 84 248zM569 -282q0 70 51 149q50 78 128 133h-21l-10 197q-88 -217 -334 -217q-155 0 -231 82t-76 188v24q0 319 637 330v117q0 152 -90 201q-69 37 -193 38t-293 -67
l-20 76q162 76 342 75q356 0 356 -319v-725h-14q-61 -47 -109 -125t-49 -135q0 -104 109 -105q59 1 133 46l14 -41q-77 -60 -157 -60q-174 -2 -173 138z" />
    <glyph glyph-name="Cacute" unicode="&#x106;" horiz-adv-x="1148" 
d="M1034 512v-145q0 -183 -132 -285t-318 -102t-320 101q-133 101 -133 286v700q0 183 133 285q134 102 320 102t318 -101t132 -286v-145h-102v145q0 141 -102 220t-245 79q-145 0 -245 -79t-100 -220v-700q0 -143 99 -221t245 -78t246 78q101 78 102 221v145h102zM621 1536
h-76l203 287h88z" />
    <glyph glyph-name="cacute" unicode="&#x107;" horiz-adv-x="858" 
d="M111 715q0 330 358 329q164 0 326 -61l-19 -80q-150 61 -289 62q-274 0 -274 -258v-390q0 -258 274 -258q139 0 289 62l19 -80q-162 -61 -326 -61q-358 0 -358 329v406zM504 1126h-76l203 287h88z" />
    <glyph glyph-name="Ccircumflex" unicode="&#x108;" horiz-adv-x="1148" 
d="M1034 512v-145q0 -183 -132 -285t-318 -102t-320 101q-133 101 -133 286v700q0 183 133 285q134 102 320 102t318 -101t132 -286v-145h-102v145q0 141 -102 220t-245 79q-145 0 -245 -79t-100 -220v-700q0 -143 99 -221t245 -78t246 78q101 78 102 221v145h102zM584 1763
l-168 -227h-84l211 287h80l213 -287h-84z" />
    <glyph glyph-name="ccircumflex" unicode="&#x109;" horiz-adv-x="858" 
d="M111 715q0 330 358 329q164 0 326 -61l-19 -80q-150 61 -289 62q-274 0 -274 -258v-390q0 -258 274 -258q139 0 289 62l19 -80q-162 -61 -326 -61q-358 0 -358 329v406zM467 1354l-168 -228h-84l211 287h80l213 -287h-84z" />
    <glyph glyph-name="Cdotaccent" unicode="&#x10a;" horiz-adv-x="1148" 
d="M1034 512v-145q0 -183 -132 -285t-318 -102t-320 101q-133 101 -133 286v700q0 183 133 285q134 102 320 102t318 -101t132 -286v-145h-102v145q0 141 -102 220t-245 79q-145 0 -245 -79t-100 -220v-700q0 -143 99 -221t245 -78t246 78q101 78 102 221v145h102zM635 1587
h-103v260h103v-260z" />
    <glyph glyph-name="cdotaccent" unicode="&#x10b;" horiz-adv-x="858" 
d="M111 715q0 330 358 329q164 0 326 -61l-19 -80q-150 61 -289 62q-274 0 -274 -258v-390q0 -258 274 -258q139 0 289 62l19 -80q-162 -61 -326 -61q-358 0 -358 329v406zM518 1178h-102v260h102v-260z" />
    <glyph glyph-name="Ccaron" unicode="&#x10c;" horiz-adv-x="1148" 
d="M1034 512v-145q0 -183 -132 -285t-318 -102t-320 101q-133 101 -133 286v700q0 183 133 285q134 102 320 102t318 -101t132 -286v-145h-102v145q0 141 -102 220t-245 79q-145 0 -245 -79t-100 -220v-700q0 -143 99 -221t245 -78t246 78q101 78 102 221v145h102zM584 1595
l168 228h84l-213 -287h-80l-211 287h84z" />
    <glyph glyph-name="ccaron" unicode="&#x10d;" horiz-adv-x="858" 
d="M111 715q0 330 358 329q164 0 326 -61l-19 -80q-150 61 -289 62q-274 0 -274 -258v-390q0 -258 274 -258q139 0 289 62l19 -80q-162 -61 -326 -61q-358 0 -358 329v406zM467 1186l168 227h84l-213 -287h-80l-211 287h84z" />
    <glyph glyph-name="Dcaron" unicode="&#x10e;" horiz-adv-x="1198" 
d="M961 387v660q-1 141 -99 220t-241 79h-349v-1258h349q143 0 241 78t99 221zM164 1434h457q186 0 316 -102t130 -285v-660q0 -183 -130 -285t-316 -102h-457v1434zM604 1595l168 228h84l-213 -287h-80l-211 287h84z" />
    <glyph glyph-name="dcaron" unicode="&#x10f;" horiz-adv-x="1159" 
d="M748 342v340q0 117 -79 200t-200 83t-187 -74t-67 -184v-390q0 -111 67 -185q68 -74 188 -73q120 0 199 83t79 200zM1094 1475v-408h-56l-28 231v177h84zM436 -20q-160 0 -242 95t-81 228v418q0 133 82 228t241 95q90 0 177 -50t135 -152v633h102v-1475h-88l-8 186
q-48 -104 -138 -155t-180 -51z" />
    <glyph glyph-name="Dcroat" unicode="&#x110;" horiz-adv-x="1212" 
d="M975 387v660q0 141 -98 220t-242 79h-348v-576h211v-86h-211v-596h348q143 0 242 78q98 78 98 221zM178 1434h457q186 0 316 -102t130 -285v-660q0 -183 -130 -285t-316 -102h-457v684h-170v86h170v664z" />
    <glyph glyph-name="dcroat" unicode="&#x111;" horiz-adv-x="989" 
d="M748 342v340q0 117 -79 200t-200 83t-187 -74t-67 -184v-390q0 -111 67 -185q68 -74 188 -73q120 0 199 83t79 200zM1010 1262v-68h-160v-1194h-88l-8 186q-48 -104 -138 -155t-180 -51q-160 0 -242 95t-81 228v418q0 133 82 228t241 95q90 0 177 -50t135 -152v352h-164
v68h164v213h102v-213h160z" />
    <glyph glyph-name="Emacron" unicode="&#x112;" horiz-adv-x="1069" 
d="M993 1346h-721v-576h574v-86h-574v-596h721v-88h-829v1434h829v-88zM856 1604h-600v67h600v-67z" />
    <glyph glyph-name="emacron" unicode="&#x113;" horiz-adv-x="940" 
d="M745 571v138q0 133 -75 195q-76 62 -191 62t-191 -62q-76 -64 -75 -197v-136h532zM840 502h-627v-176q0 -266 289 -267q172 0 321 62l19 -80q-162 -61 -355 -61q-269 0 -351 198q-26 63 -25 146v378q0 180 108 262q109 80 259 80t256 -80q105 -80 106 -259v-203z
M778 1194h-600v68h600v-68z" />
    <glyph glyph-name="Ebreve" unicode="&#x114;" horiz-adv-x="1069" 
d="M993 1346h-721v-576h574v-86h-574v-596h721v-88h-829v1434h829v-88zM338 1823q0 -92 48 -159t154 -67t153 67q48 67 48 159h54q0 -137 -72 -212q-71 -75 -183 -75t-184 75t-71 212h53z" />
    <glyph glyph-name="ebreve" unicode="&#x115;" horiz-adv-x="940" 
d="M745 571v138q0 133 -75 195q-76 62 -191 62t-191 -62q-76 -64 -75 -197v-136h532zM840 502h-627v-176q0 -266 289 -267q172 0 321 62l19 -80q-162 -61 -355 -61q-269 0 -351 198q-26 63 -25 146v378q0 180 108 262q109 80 259 80t256 -80q105 -80 106 -259v-203z
M279 1413q0 -92 48 -159q48 -66 153 -66t154 66q48 67 48 159h53q1 -137 -71 -212t-184 -75t-184 75t-71 212h54z" />
    <glyph glyph-name="Edotaccent" unicode="&#x116;" horiz-adv-x="1069" 
d="M993 1346h-721v-576h574v-86h-574v-596h721v-88h-829v1434h829v-88zM608 1587h-102v260h102v-260z" />
    <glyph glyph-name="edotaccent" unicode="&#x117;" horiz-adv-x="940" 
d="M745 571v138q0 133 -75 195q-76 62 -191 62t-191 -62q-76 -64 -75 -197v-136h532zM840 502h-627v-176q0 -266 289 -267q172 0 321 62l19 -80q-162 -61 -355 -61q-269 0 -351 198q-26 63 -25 146v378q0 180 108 262q109 80 259 80t256 -80q105 -80 106 -259v-203z
M530 1178h-102v260h102v-260z" />
    <glyph glyph-name="Eogonek" unicode="&#x118;" horiz-adv-x="1069" 
d="M762 -282q0 70 50 149q50 78 128 133h-776v1434h829v-88h-721v-576h574v-86h-574v-596h721v-88q-61 -47 -109 -125t-48 -135q0 -104 108 -105q59 1 133 46l15 -41q-76 -60 -156 -60q-174 -2 -174 138z" />
    <glyph glyph-name="eogonek" unicode="&#x119;" horiz-adv-x="940" 
d="M213 707v-136h532v138q0 133 -75 195q-76 62 -191 62t-191 -62q-76 -64 -75 -197zM610 -244q0 66 40 134t104 124q-279 -74 -464 4q-108 48 -154 160q-26 63 -25 146v378q0 180 108 262q109 80 259 80t256 -80q105 -80 106 -259v-203h-627v-176q0 -266 289 -267
q172 0 321 62l19 -80q-62 -47 -110 -125t-48 -135q0 -104 109 -105q59 0 133 45l14 -40q-76 -59 -156 -59t-128 33q-46 35 -46 101z" />
    <glyph glyph-name="Ecaron" unicode="&#x11a;" horiz-adv-x="1069" 
d="M993 1346h-721v-576h574v-86h-574v-596h721v-88h-829v1434h829v-88zM557 1595l168 228h84l-213 -287h-80l-211 287h84z" />
    <glyph glyph-name="ecaron" unicode="&#x11b;" horiz-adv-x="940" 
d="M745 571v138q0 133 -75 195q-76 62 -191 62t-191 -62q-76 -64 -75 -197v-136h532zM840 502h-627v-176q0 -266 289 -267q172 0 321 62l19 -80q-162 -61 -355 -61q-269 0 -351 198q-26 63 -25 146v378q0 180 108 262q109 80 259 80t256 -80q105 -80 106 -259v-203z
M479 1186l168 227h84l-213 -287h-80l-211 287h84z" />
    <glyph glyph-name="Gcircumflex" unicode="&#x11c;" horiz-adv-x="1155" 
d="M1034 922h-102v145q0 141 -102 220t-245 79q-145 0 -245 -79t-100 -220v-700q0 -143 99 -221t245 -78t246 78q101 78 102 221v245h-367v88h469v-333q0 -183 -132 -285t-318 -102t-320 101q-133 101 -133 286v700q0 183 133 285q134 102 320 102t318 -101t132 -286v-145z
M584 1763l-168 -227h-84l211 287h80l213 -287h-84z" />
    <glyph glyph-name="gcircumflex" unicode="&#x11d;" horiz-adv-x="989" 
d="M748 682q0 117 -79 200t-200 83t-189 -75t-67 -183v-349q0 -110 68 -184q69 -74 189 -74t199 83t79 200v299zM850 -96q0 -334 -381 -334q-170 0 -338 61l19 80q154 -61 307 -61q291 0 291 254v319q-46 -102 -134 -152t-178 -51q-160 0 -242 96t-83 228v377q0 133 83 228
t242 95q90 0 179 -51t137 -155l10 186h88v-1120zM471 1354l-168 -228h-84l211 287h80l213 -287h-84z" />
    <glyph glyph-name="Gbreve" unicode="&#x11e;" horiz-adv-x="1155" 
d="M1034 922h-102v145q0 141 -102 220t-245 79q-145 0 -245 -79t-100 -220v-700q0 -143 99 -221t245 -78t246 78q101 78 102 221v245h-367v88h469v-333q0 -183 -132 -285t-318 -102t-320 101q-133 101 -133 286v700q0 183 133 285q134 102 320 102t318 -101t132 -286v-145z
M381 1823q0 -92 48 -159q47 -67 153 -67t154 67t48 159h54q0 -137 -72 -212t-184 -75t-183 75q-72 75 -71 212h53z" />
    <glyph glyph-name="gbreve" unicode="&#x11f;" horiz-adv-x="989" 
d="M748 682q0 117 -79 200t-200 83t-189 -75t-67 -183v-349q0 -110 68 -184q69 -74 189 -74t199 83t79 200v299zM850 -96q0 -334 -381 -334q-170 0 -338 61l19 80q154 -61 307 -61q291 0 291 254v319q-46 -102 -134 -152t-178 -51q-160 0 -242 96t-83 228v377q0 133 83 228
t242 95q90 0 179 -51t137 -155l10 186h88v-1120zM268 1413q0 -92 48 -159q48 -66 154 -66t154 66q48 67 48 159h53q0 -137 -72 -212q-71 -75 -183 -75t-184 75t-71 212h53z" />
    <glyph glyph-name="Gdotaccent" unicode="&#x120;" horiz-adv-x="1155" 
d="M1034 922h-102v145q0 141 -102 220t-245 79q-145 0 -245 -79t-100 -220v-700q0 -143 99 -221t245 -78t246 78q101 78 102 221v245h-367v88h469v-333q0 -183 -132 -285t-318 -102t-320 101q-133 101 -133 286v700q0 183 133 285q134 102 320 102t318 -101t132 -286v-145z
M635 1587h-103v260h103v-260z" />
    <glyph glyph-name="gdotaccent" unicode="&#x121;" horiz-adv-x="989" 
d="M748 682q0 117 -79 200t-200 83t-189 -75t-67 -183v-349q0 -110 68 -184q69 -74 189 -74t199 83t79 200v299zM850 -96q0 -334 -381 -334q-170 0 -338 61l19 80q154 -61 307 -61q291 0 291 254v319q-46 -102 -134 -152t-178 -51q-160 0 -242 96t-83 228v377q0 133 83 228
t242 95q90 0 179 -51t137 -155l10 186h88v-1120zM522 1178h-102v260h102v-260z" />
    <glyph glyph-name="Gcommaaccent" unicode="&#x122;" horiz-adv-x="1155" 
d="M537 -154h92v-182l-86 -276h-78l72 276v182zM1034 922h-102v145q0 141 -102 220t-245 79q-145 0 -245 -79t-100 -220v-700q0 -143 99 -221t245 -78t246 78q101 78 102 221v245h-367v88h469v-333q0 -183 -132 -285t-318 -102t-320 101q-133 101 -133 286v700
q0 183 133 285q134 102 320 102t318 -101t132 -286v-145z" />
    <glyph glyph-name="gcommaaccent" unicode="&#x123;" horiz-adv-x="989" 
d="M748 682q0 117 -79 200t-200 83t-189 -75t-67 -183v-349q0 -110 68 -184q69 -74 189 -74t199 83t79 200v299zM850 -96q0 -334 -381 -334q-170 0 -338 61l19 80q154 -61 307 -61q291 0 291 254v319q-46 -102 -134 -152t-178 -51q-160 0 -242 96t-83 228v377q0 133 83 228
t242 95q90 0 179 -51t137 -155l10 186h88v-1120zM518 1180h-92v180l86 276h78l-72 -276v-180z" />
    <glyph glyph-name="Hcircumflex" unicode="&#x124;" horiz-adv-x="1253" 
d="M981 1434h106v-1434h-106v684h-709v-684h-108v1434h108v-664h709v664zM627 1763l-168 -227h-84l211 287h80l213 -287h-84z" />
    <glyph glyph-name="hcircumflex" unicode="&#x125;" horiz-adv-x="1011" 
d="M776 0v707q0 109 -68 183t-188 75q-122 0 -200 -83t-78 -200v-682h-103v1475h103v-633q47 102 134 152t177 50q160 0 243 -95t83 -228v-721h-103zM188 1804l-168 -227h-83l210 287h80l213 -287h-84z" />
    <glyph glyph-name="Hbar" unicode="&#x126;" horiz-adv-x="1253" 
d="M981 770v285h-709v-285h709zM1174 1124v-69h-87v-1055h-106v684h-709v-684h-108v1055h-84v69h84v310h108v-310h709v310h106v-310h87z" />
    <glyph glyph-name="hbar" unicode="&#x127;" horiz-adv-x="1011" 
d="M242 1194v-352q47 102 134 152t177 50q160 0 243 -95t83 -228v-721h-103v707q0 109 -68 183t-188 75q-122 0 -200 -83t-78 -200v-682h-103v1194h-162v68h162v213h103v-213h161v-68h-161z" />
    <glyph glyph-name="Itilde" unicode="&#x128;" horiz-adv-x="436" 
d="M164 0v1434h108v-1434h-108zM455 1735h63q0 -95 -42 -139t-98 -44t-160 56t-143 57q-38 0 -65 -28t-26 -85h-64q0 94 42 138t97 45t161 -57t142 -58q37 0 65 28t28 87z" />
    <glyph glyph-name="itilde" unicode="&#x129;" horiz-adv-x="380" 
d="M242 0h-103v1024h103v-1024zM426 1325h63q0 -94 -42 -138t-98 -44q-57 0 -161 56t-142 56q-38 1 -64 -27t-27 -85h-64q0 94 42 138q41 44 97 44t161 -57q105 -58 143 -58t64 28q28 28 28 87z" />
    <glyph glyph-name="Imacron" unicode="&#x12a;" horiz-adv-x="436" 
d="M164 0v1434h108v-1434h-108zM518 1604h-600v67h600v-67z" />
    <glyph glyph-name="imacron" unicode="&#x12b;" horiz-adv-x="380" 
d="M242 0h-103v1024h103v-1024zM489 1194h-600v68h600v-68z" />
    <glyph glyph-name="Ibreve" unicode="&#x12c;" horiz-adv-x="436" 
d="M164 0v1434h108v-1434h-108zM16 1823q0 -92 48 -159t154 -67q105 0 154 67q48 67 48 159h53q0 -137 -72 -212q-71 -75 -183 -75t-184 75t-71 212h53z" />
    <glyph glyph-name="ibreve" unicode="&#x12d;" horiz-adv-x="380" 
d="M242 0h-103v1024h103v-1024zM-12 1413q0 -92 48 -159q48 -66 153 -66t154 66q48 67 48 159h53q0 -137 -72 -212t-183 -75t-183 75t-72 212h54z" />
    <glyph glyph-name="Iogonek" unicode="&#x12e;" horiz-adv-x="436" 
d="M164 0v1434h108v-1434h-20q-62 -47 -110 -125t-48 -135q0 -104 109 -105q59 1 133 46l14 -41q-76 -60 -156 -60t-127 34t-47 104t51 149q50 78 128 133h-35z" />
    <glyph glyph-name="iogonek" unicode="&#x12f;" horiz-adv-x="380" 
d="M-8 -282q0 70 50 149q50 78 128 133h-31v1024h103v-1024h-19q-61 -47 -109 -125t-48 -135q0 -104 108 -105q59 1 133 46l15 -41q-76 -60 -157 -60t-127 34t-46 104zM242 1438v-260h-103v260h103z" />
    <glyph glyph-name="Idotaccent" unicode="&#x130;" horiz-adv-x="436" 
d="M164 0v1434h108v-1434h-108zM270 1587h-102v260h102v-260z" />
    <glyph glyph-name="dotlessi" unicode="&#x131;" horiz-adv-x="380" 
d="M242 0h-103v1024h103v-1024z" />
    <glyph glyph-name="IJ" unicode="&#x132;" horiz-adv-x="1048" 
d="M487 88q158 0 227 47t68 191v1108h107v-1117q0 -185 -97 -251t-305 -66v88zM164 0v1434h108v-1434h-108z" />
    <glyph glyph-name="ij" unicode="&#x133;" horiz-adv-x="761" 
d="M520 1024h103v-1229q-1 -129 -57 -177t-146 -48t-178 20l8 78q70 -18 138 -18t100 38t32 117v1219zM242 0h-103v1024h103v-1024zM623 1178h-103v260h103v-260zM242 1178h-103v260h103v-260z" />
    <glyph glyph-name="Jcircumflex" unicode="&#x134;" horiz-adv-x="612" 
d="M51 88q158 0 227 47t68 191v1108h107v-1117q1 -185 -97 -251t-305 -66v88zM326 1763l-168 -227h-84l211 287h80l213 -287h-84z" />
    <glyph glyph-name="jcircumflex" unicode="&#x135;" horiz-adv-x="380" 
d="M139 1024h103v-1229q0 -129 -56 -177t-147 -48q-90 0 -178 20l8 78q71 -18 139 -18q133 0 131 155v1219zM190 1354l-167 -228h-84l211 287h79l213 -287h-84z" />
    <glyph glyph-name="Kcommaaccent" unicode="&#x136;" horiz-adv-x="1015" 
d="M463 -154h92v-182l-86 -276h-78l72 276v182zM272 0h-108v1434h108v-691l605 691h127l-623 -703l635 -731h-131l-613 711v-711z" />
    <glyph glyph-name="kcommaaccent" unicode="&#x137;" horiz-adv-x="919" 
d="M414 -154h92v-182l-86 -276h-78l72 276v182zM242 0h-103v1475h103v-940l530 489h123l-547 -498l559 -526h-127l-538 508v-508z" />
    <glyph glyph-name="Lacute" unicode="&#x139;" horiz-adv-x="1032" 
d="M276 88h703v-88h-809v1434h106v-1346zM260 1536h-76l203 287h88z" />
    <glyph glyph-name="lacute" unicode="&#x13a;" horiz-adv-x="380" 
d="M242 0h-103v1475h103v-1475zM227 1536h-75l202 287h88z" />
    <glyph glyph-name="Lcommaaccent" unicode="&#x13b;" horiz-adv-x="1032" 
d="M469 -154h92v-182l-86 -276h-78l72 276v182zM276 88h703v-88h-809v1434h106v-1346z" />
    <glyph glyph-name="lcommaaccent" unicode="&#x13c;" horiz-adv-x="380" 
d="M143 -154h93v-182l-86 -276h-78l71 276v182zM242 0h-103v1475h103v-1475z" />
    <glyph glyph-name="Lcaron" unicode="&#x13d;" horiz-adv-x="1032" 
d="M608 1434v-459h-65l-29 276v183h94zM276 88h703v-88h-809v1434h106v-1346z" />
    <glyph glyph-name="lcaron" unicode="&#x13e;" horiz-adv-x="548" 
d="M483 1475v-408h-53l-29 231v177h82zM242 0h-103v1475h103v-1475z" />
    <glyph glyph-name="Ldot" unicode="&#x13f;" horiz-adv-x="1032" 
d="M664 666h-93v182h93v-182zM276 88h703v-88h-809v1434h106v-1346z" />
    <glyph glyph-name="ldot" unicode="&#x140;" horiz-adv-x="471" 
d="M455 592h-93v182h93v-182zM242 0h-103v1475h103v-1475z" />
    <glyph glyph-name="Lslash" unicode="&#x141;" horiz-adv-x="1034" 
d="M279 88h702v-88h-809v657l-160 -55v86l160 55v691h107v-654l206 72v-86l-206 -72v-606z" />
    <glyph glyph-name="lslash" unicode="&#x142;" horiz-adv-x="432" 
d="M266 0h-102v659l-146 -57v86l146 60v727h102v-687l146 60v-88l-146 -58v-702z" />
    <glyph glyph-name="Nacute" unicode="&#x143;" horiz-adv-x="1294" 
d="M1026 1434h102v-1434h-106l-764 1257q8 -236 8 -378v-879h-102v1434h112l758 -1256q-8 223 -8 377v879zM684 1536h-76l203 287h88z" />
    <glyph glyph-name="nacute" unicode="&#x144;" horiz-adv-x="1011" 
d="M776 0v707q0 109 -68 183t-188 75q-122 0 -200 -83t-78 -200v-682h-103v1024h88l11 -186q47 104 136 155t179 51q160 0 243 -95t83 -228v-721h-103zM553 1126h-76l203 287h88z" />
    <glyph glyph-name="Ncommaaccent" unicode="&#x145;" horiz-adv-x="1294" 
d="M600 -154h92v-182l-86 -276h-78l72 276v182zM1026 1434h102v-1434h-106l-764 1257q8 -236 8 -378v-879h-102v1434h112l758 -1256q-8 223 -8 377v879z" />
    <glyph glyph-name="ncommaaccent" unicode="&#x146;" horiz-adv-x="1011" 
d="M461 -154h92v-182l-86 -276h-78l72 276v182zM776 0v707q0 109 -68 183t-188 75q-122 0 -200 -83t-78 -200v-682h-103v1024h88l11 -186q47 104 136 155t179 51q160 0 243 -95t83 -228v-721h-103z" />
    <glyph glyph-name="Ncaron" unicode="&#x147;" horiz-adv-x="1294" 
d="M1026 1434h102v-1434h-106l-764 1257q8 -236 8 -378v-879h-102v1434h112l758 -1256q-8 223 -8 377v879zM647 1595l168 228h84l-213 -287h-80l-211 287h84z" />
    <glyph glyph-name="ncaron" unicode="&#x148;" horiz-adv-x="1011" 
d="M776 0v707q0 109 -68 183t-188 75q-122 0 -200 -83t-78 -200v-682h-103v1024h88l11 -186q47 104 136 155t179 51q160 0 243 -95t83 -228v-721h-103zM516 1186l168 227h84l-213 -287h-80l-211 287h84z" />
    <glyph glyph-name="Eng" unicode="&#x14a;" horiz-adv-x="1294" 
d="M1026 1434h102v-1547q0 -186 -98 -252t-305 -65v88q157 0 227 45t70 182v115l-764 1257q8 -236 8 -378v-879h-102v1434h112l758 -1256q-8 223 -8 377v879z" />
    <glyph glyph-name="eng" unicode="&#x14b;" horiz-adv-x="1011" 
d="M553 1044q160 0 243 -95t83 -228v-926q1 -129 -57 -177t-148 -48t-176 20l8 78q68 -18 138 -18t100 38q32 38 32 117v902q0 109 -68 183t-188 75q-122 0 -200 -83t-78 -200v-682h-103v1024h88l11 -186q47 104 136 155t179 51z" />
    <glyph glyph-name="Omacron" unicode="&#x14c;" horiz-adv-x="1167" 
d="M928 1067q0 141 -100 220t-244 79t-244 -79t-100 -220v-700q0 -141 100 -221t244 -78q144 0 243 78q100 78 101 221v700zM131 1067q0 183 133 285q134 102 320 102t318 -101t132 -286v-700q0 -183 -132 -285t-318 -102t-320 101q-133 101 -133 286v700zM883 1604h-600v67
h600v-67z" />
    <glyph glyph-name="omacron" unicode="&#x14d;" horiz-adv-x="958" 
d="M213 707v-390q0 -133 76 -196q77 -63 191 -63t190 62q76 64 75 197v390q0 133 -75 196q-76 63 -191 63t-191 -62q-76 -64 -75 -197zM848 702v-380q0 -180 -109 -262t-261 -80q-152 0 -260 80t-107 262v380q0 180 108 262q109 80 261 80t260 -81t108 -261zM778 1194h-600
v68h600v-68z" />
    <glyph glyph-name="Obreve" unicode="&#x14e;" horiz-adv-x="1167" 
d="M928 1067q0 141 -100 220t-244 79t-244 -79t-100 -220v-700q0 -141 100 -221t244 -78q144 0 243 78q100 78 101 221v700zM131 1067q0 183 133 285q134 102 320 102t318 -101t132 -286v-700q0 -183 -132 -285t-318 -102t-320 101q-133 101 -133 286v700zM381 1823
q0 -92 48 -159q47 -67 153 -67t154 67t48 159h54q0 -137 -72 -212t-184 -75t-183 75q-72 75 -71 212h53z" />
    <glyph glyph-name="obreve" unicode="&#x14f;" horiz-adv-x="958" 
d="M213 707v-390q0 -133 76 -196q77 -63 191 -63t190 62q76 64 75 197v390q0 133 -75 196q-76 63 -191 63t-191 -62q-76 -64 -75 -197zM848 702v-380q0 -180 -109 -262t-261 -80q-152 0 -260 80t-107 262v380q0 180 108 262q109 80 261 80t260 -81t108 -261zM279 1413
q0 -92 48 -159q48 -66 153 -66t154 66q48 67 48 159h53q1 -137 -71 -212t-184 -75t-184 75t-71 212h54z" />
    <glyph glyph-name="Ohungarumlaut" unicode="&#x150;" horiz-adv-x="1167" 
d="M928 1067q0 141 -100 220t-244 79t-244 -79t-100 -220v-700q0 -141 100 -221t244 -78q144 0 243 78q100 78 101 221v700zM131 1067q0 183 133 285q134 102 320 102t318 -101t132 -286v-700q0 -183 -132 -285t-318 -102t-320 101q-133 101 -133 286v700zM715 1536h-62
l203 287h74zM502 1536h-62l203 287h74z" />
    <glyph glyph-name="ohungarumlaut" unicode="&#x151;" horiz-adv-x="958" 
d="M213 707v-390q0 -133 76 -196q77 -63 191 -63t190 62q76 64 75 197v390q0 133 -75 196q-76 63 -191 63t-191 -62q-76 -64 -75 -197zM848 702v-380q0 -180 -109 -262t-261 -80q-152 0 -260 80t-107 262v380q0 180 108 262q109 80 261 80t260 -81t108 -261zM612 1126h-61
l203 287h73zM399 1126h-61l203 287h73z" />
    <glyph glyph-name="OE" unicode="&#x152;" horiz-adv-x="1830" 
d="M928 367v700q0 141 -100 220t-244 79t-244 -79t-100 -220v-700q0 -141 100 -221t244 -78q144 0 244 79t100 220zM1757 1346h-723v-576h574v-86h-574v-596h723v-88h-790v207q-43 -113 -149 -170t-245 -57q-184 0 -312 101t-128 286v700q0 183 128 285t312 102
q139 0 245 -57t149 -170v207h790v-88z" />
    <glyph glyph-name="oe" unicode="&#x153;" horiz-adv-x="1576" 
d="M1382 571v138q0 133 -76 195q-77 62 -191 62q-115 0 -191 -62q-76 -64 -76 -197v-136h534zM745 317v390q0 133 -75 196q-76 63 -191 63t-191 -62q-76 -64 -75 -197v-390q0 -133 76 -196q77 -63 191 -63t190 62q76 64 75 197zM848 326q0 -262 289 -267q169 1 323 62
l17 -80q-162 -61 -355 -61q-229 0 -323 147q-92 -147 -320 -147q-153 0 -261 80t-107 262v380q0 180 108 262q109 81 260 80q227 0 318 -145q94 145 319 145q147 0 253 -79q105 -80 106 -260v-203h-627v-176z" />
    <glyph glyph-name="Racute" unicode="&#x154;" horiz-adv-x="1167" 
d="M637 1346h-365v-605h365q143 0 223 69t80 210v47q0 137 -81 208t-222 71zM561 653h-289v-653h-108v1434h481q182 0 292 -90t110 -273v-37q0 -281 -265 -336q187 -49 226 -309l61 -389h-106l-60 381q-29 174 -106 223q-78 49 -236 49zM621 1536h-76l203 287h88z" />
    <glyph glyph-name="racute" unicode="&#x155;" horiz-adv-x="604" 
d="M553 944q-135 0 -223 -80t-88 -196v-668h-103v1024h88l11 -207q39 115 131 171t184 56v-100zM340 1126h-76l203 287h88z" />
    <glyph glyph-name="Rcommaaccent" unicode="&#x156;" horiz-adv-x="1167" 
d="M543 -154h92v-182l-86 -276h-78l72 276v182zM637 1346h-365v-605h365q143 0 223 69t80 210v47q0 137 -81 208t-222 71zM561 653h-289v-653h-108v1434h481q182 0 292 -90t110 -273v-37q0 -281 -265 -336q187 -49 226 -309l61 -389h-106l-60 381q-29 174 -106 223
q-78 49 -236 49z" />
    <glyph glyph-name="rcommaaccent" unicode="&#x157;" horiz-adv-x="604" 
d="M143 -154h93v-182l-86 -276h-78l71 276v182zM553 944q-135 0 -223 -80t-88 -196v-668h-103v1024h88l11 -207q39 115 131 171t184 56v-100z" />
    <glyph glyph-name="Rcaron" unicode="&#x158;" horiz-adv-x="1167" 
d="M637 1346h-365v-605h365q143 0 223 69t80 210v47q0 137 -81 208t-222 71zM561 653h-289v-653h-108v1434h481q182 0 292 -90t110 -273v-37q0 -281 -265 -336q187 -49 226 -309l61 -389h-106l-60 381q-29 174 -106 223q-78 49 -236 49zM584 1595l168 228h84l-213 -287h-80
l-211 287h84z" />
    <glyph glyph-name="rcaron" unicode="&#x159;" horiz-adv-x="604" 
d="M553 944q-135 0 -223 -80t-88 -196v-668h-103v1024h88l11 -207q39 115 131 171t184 56v-100zM303 1186l168 227h84l-213 -287h-80l-211 287h84z" />
    <glyph glyph-name="Sacute" unicode="&#x15a;" horiz-adv-x="1105" 
d="M1006 346q0 -182 -132 -274t-321 -92q-188 0 -320 101q-131 101 -131 286v145h103v-145q0 -143 101 -221q102 -78 248 -78t245 68q98 69 98 206v18q0 102 -80 174q-79 72 -193 114t-228 90t-194 135t-79 214v21q0 164 124 255t307 91t307 -100t124 -287v-145h-102v145
q0 143 -93 221q-92 78 -234 78t-234 -70t-93 -188v-18q-1 -88 57 -153t144 -99q227 -91 375 -163q86 -42 143 -121t58 -187v-21zM590 1536h-76l203 287h88z" />
    <glyph glyph-name="sacute" unicode="&#x15b;" horiz-adv-x="882" 
d="M700 274q0 134 -215 193q-90 25 -179 53t-151 89q-62 62 -63 161v23q0 109 90 181t260 70q170 0 332 -61l-16 -80q-160 63 -290 63t-201 -45q-71 -46 -70 -130v-17q1 -138 215 -194q90 -24 179 -51q89 -28 151 -89t63 -159v-23q1 -133 -103 -206q-104 -72 -282 -72
t-338 61l20 80q156 -63 336 -64q125 1 194 57t68 144v16zM479 1126h-76l203 287h88z" />
    <glyph glyph-name="Scircumflex" unicode="&#x15c;" horiz-adv-x="1105" 
d="M1006 346q0 -182 -132 -274t-321 -92q-188 0 -320 101q-131 101 -131 286v145h103v-145q0 -143 101 -221q102 -78 248 -78t245 68q98 69 98 206v18q0 102 -80 174q-79 72 -193 114t-228 90t-194 135t-79 214v21q0 164 124 255t307 91t307 -100t124 -287v-145h-102v145
q0 143 -93 221q-92 78 -234 78t-234 -70t-93 -188v-18q-1 -88 57 -153t144 -99q227 -91 375 -163q86 -42 143 -121t58 -187v-21zM555 1763l-168 -227h-84l211 287h80l213 -287h-84z" />
    <glyph glyph-name="scircumflex" unicode="&#x15d;" horiz-adv-x="882" 
d="M700 274q0 134 -215 193q-90 25 -179 53t-151 89q-62 62 -63 161v23q0 109 90 181t260 70q170 0 332 -61l-16 -80q-160 63 -290 63t-201 -45q-71 -46 -70 -130v-17q1 -138 215 -194q90 -24 179 -51q89 -28 151 -89t63 -159v-23q1 -133 -103 -206q-104 -72 -282 -72
t-338 61l20 80q156 -63 336 -64q125 1 194 57t68 144v16zM444 1354l-168 -228h-83l210 287h80l213 -287h-84z" />
    <glyph glyph-name="Scedilla" unicode="&#x15e;" horiz-adv-x="1107" 
d="M801 -285q-1 -186 -223 -186q-110 0 -191 41l16 49q97 -39 177 -39q152 0 153 135v11q0 119 -155 118h-52v136q-178 6 -301 107t-123 280v145h103v-145q0 -143 101 -221q102 -78 248 -78t245 68q98 69 98 206v18q0 102 -80 174q-79 72 -193 114t-228 90t-194 135t-79 214
v21q0 164 124 255t307 91t307 -100t124 -287v-145h-102v145q0 143 -93 221q-92 78 -234 78t-234 -70t-93 -188v-18q-1 -88 57 -153t144 -99q227 -91 375 -163q86 -42 143 -121t58 -187v-21q0 -176 -123 -268t-308 -98v-82h21q205 0 205 -168v-15z" />
    <glyph glyph-name="scedilla" unicode="&#x15f;" horiz-adv-x="882" 
d="M694 -287q0 -186 -222 -186q-108 0 -191 41l16 49q94 -39 175 -39q153 0 153 135v11q0 119 -156 118h-51v138q-184 4 -336 61l20 80q156 -63 336 -64q125 1 194 57t68 144v16q0 134 -214 193q-89 25 -179 53t-152 89q-62 62 -63 161v23q0 109 90 181t260 70
q170 0 332 -61l-16 -80q-160 63 -290 63t-200 -45q-70 -46 -71 -130v-17q-1 -138 213 -194q90 -24 180 -51q90 -28 152 -89t63 -159v-23q0 -127 -95 -200t-241 -78v-84h20q205 0 205 -168v-15z" />
    <glyph glyph-name="Scaron" unicode="&#x160;" horiz-adv-x="1105" 
d="M1006 346q0 -182 -132 -274t-321 -92q-188 0 -320 101q-131 101 -131 286v145h103v-145q0 -143 101 -221q102 -78 248 -78t245 68q98 69 98 206v18q0 102 -80 174q-79 72 -193 114t-228 90t-194 135t-79 214v21q0 164 124 255t307 91t307 -100t124 -287v-145h-102v145
q0 143 -93 221q-92 78 -234 78t-234 -70t-93 -188v-18q-1 -88 57 -153t144 -99q227 -91 375 -163q86 -42 143 -121t58 -187v-21zM555 1595l168 228h84l-213 -287h-80l-211 287h84z" />
    <glyph glyph-name="scaron" unicode="&#x161;" horiz-adv-x="882" 
d="M700 274q0 134 -215 193q-90 25 -179 53t-151 89q-62 62 -63 161v23q0 109 90 181t260 70q170 0 332 -61l-16 -80q-160 63 -290 63t-201 -45q-71 -46 -70 -130v-17q1 -138 215 -194q90 -24 179 -51q89 -28 151 -89t63 -159v-23q1 -133 -103 -206q-104 -72 -282 -72
t-338 61l20 80q156 -63 336 -64q125 1 194 57t68 144v16zM444 1186l168 227h84l-213 -287h-80l-210 287h83z" />
    <glyph glyph-name="Tcedilla" unicode="&#x162;" horiz-adv-x="915" 
d="M717 -287q1 -186 -223 -186q-108 0 -191 41l16 49q93 -39 175 -39q152 0 153 135v11q0 119 -155 118h-52v158h-28v1346h-365v88h821v-88h-350v-1346h-26v-104h20q205 0 205 -168v-15z" />
    <glyph glyph-name="tcedilla" unicode="&#x163;" horiz-adv-x="610" 
d="M670 -287q0 -186 -224 -186q-108 0 -190 41l16 49q94 -39 176 -39q152 0 152 135v11q0 119 -156 118h-51v138h51v-84h21q205 0 205 -168v-15zM444 0h-51v-20q-92 6 -142 55t-50 170v745h-148v74h148v205h102v-205h258v-74h-258v-735q0 -80 31 -118q30 -38 100 -38t137 19
l11 -78q-78 -18 -138 -20v20z" />
    <glyph glyph-name="Tcaron" unicode="&#x164;" horiz-adv-x="915" 
d="M868 1434v-88h-350v-1346h-106v1346h-365v88h821zM459 1595l168 228h84l-213 -287h-80l-211 287h84z" />
    <glyph glyph-name="tcaron" unicode="&#x165;" horiz-adv-x="745" 
d="M303 950v-735q0 -80 31 -118q30 -38 100 -38t137 19l11 -78q-90 -20 -179 -20t-146 48q-56 48 -56 177v745h-148v74h148v205h102v-205h258v-74h-258zM694 1475v-408h-53l-29 231v177h82z" />
    <glyph glyph-name="Tbar" unicode="&#x166;" horiz-adv-x="919" 
d="M870 1346h-350v-576h293v-86h-293v-684h-106v684h-310v86h310v576h-365v88h821v-88z" />
    <glyph glyph-name="tbar" unicode="&#x167;" horiz-adv-x="614" 
d="M407 -20q-89 0 -147 48q-57 48 -57 177v350h-140v70h140v325h-146v74h146v205h102v-205h258v-74h-258v-325h170v-70h-170v-340q0 -80 32 -118q56 -67 238 -19l9 -78q-88 -20 -177 -20z" />
    <glyph glyph-name="Utilde" unicode="&#x168;" horiz-adv-x="1216" 
d="M952 1434h107v-1067q0 -183 -132 -285q-133 -102 -319 -102t-318 101t-132 286v1067h106v-1067q0 -143 100 -221t244 -78q145 0 245 77q99 78 99 222v1067zM844 1735h63q0 -95 -42 -139t-98 -44q-57 0 -161 56t-142 57q-38 0 -65 -28t-26 -85h-64q0 94 42 138
q41 44 97 45t161 -57t143 -58t64 28q28 28 28 87z" />
    <glyph glyph-name="utilde" unicode="&#x169;" horiz-adv-x="1011" 
d="M236 1024v-707q0 -109 68 -183t187 -75q119 0 199 83t80 200v682h102v-1024h-88l-10 186q-47 -104 -136 -155t-179 -51q-160 0 -243 95t-83 228v721h103zM741 1325h64q0 -94 -42 -138t-98 -44q-57 0 -161 56t-142 56q-38 1 -66 -27q-26 -28 -26 -85h-63q0 94 42 138
t97 44q54 0 160 -57q106 -58 143 -58t65 28q27 28 27 87z" />
    <glyph glyph-name="Umacron" unicode="&#x16a;" horiz-adv-x="1216" 
d="M952 1434h107v-1067q0 -183 -132 -285q-133 -102 -319 -102t-318 101t-132 286v1067h106v-1067q0 -143 100 -221t244 -78q145 0 245 77q99 78 99 222v1067zM907 1604h-600v67h600v-67z" />
    <glyph glyph-name="umacron" unicode="&#x16b;" horiz-adv-x="1011" 
d="M236 1024v-707q0 -109 68 -183t187 -75q119 0 199 83t80 200v682h102v-1024h-88l-10 186q-47 -104 -136 -155t-179 -51q-160 0 -243 95t-83 228v721h103zM807 1194h-600v68h600v-68z" />
    <glyph glyph-name="Ubreve" unicode="&#x16c;" horiz-adv-x="1216" 
d="M952 1434h107v-1067q0 -183 -132 -285q-133 -102 -319 -102t-318 101t-132 286v1067h106v-1067q0 -143 100 -221t244 -78q145 0 245 77q99 78 99 222v1067zM408 1823q0 -92 48 -159t153 -67t154 67q48 67 48 159h53q0 -137 -72 -212t-183 -75t-183 75t-72 212h54z" />
    <glyph glyph-name="ubreve" unicode="&#x16d;" horiz-adv-x="1011" 
d="M236 1024v-707q0 -109 68 -183t187 -75q119 0 199 83t80 200v682h102v-1024h-88l-10 186q-47 -104 -136 -155t-179 -51q-160 0 -243 95t-83 228v721h103zM305 1413q0 -92 48 -159q47 -66 153 -66t154 66t49 159h53q0 -137 -72 -212t-184 -75t-182 75q-72 75 -72 212h53z
" />
    <glyph glyph-name="Uring" unicode="&#x16e;" horiz-adv-x="1216" 
d="M952 1434h107v-1067q0 -183 -132 -285q-133 -102 -319 -102t-318 101t-132 286v1067h106v-1067q0 -143 100 -221t244 -78q145 0 245 77q99 78 99 222v1067zM607 1839q-81 0 -122 -38t-41 -101q0 -64 41 -102t122 -38t122 38t41 102t-41 101q-41 38 -122 38zM608 1516
q-106 0 -167 47q-60 47 -60 137t60 137q61 47 167 47t166 -47t62 -137q0 -90 -61 -137t-167 -47z" />
    <glyph glyph-name="uring" unicode="&#x16f;" horiz-adv-x="1011" 
d="M236 1024v-707q0 -109 68 -183t187 -75q119 0 199 83t80 200v682h102v-1024h-88l-10 186q-47 -104 -136 -155t-179 -51q-160 0 -243 95t-83 228v721h103zM670 1290q0 64 -41 102t-122 38t-122 -38t-41 -102t41 -101q41 -38 122 -38t122 38t41 101zM508 1106
q-106 0 -167 47q-60 47 -60 137t60 137q61 47 167 47t166 -46q60 -48 61 -138q-1 -90 -61 -137t-166 -47z" />
    <glyph glyph-name="Uhungarumlaut" unicode="&#x170;" horiz-adv-x="1216" 
d="M952 1434h107v-1067q0 -183 -132 -285q-133 -102 -319 -102t-318 101t-132 286v1067h106v-1067q0 -143 100 -221t244 -78q145 0 245 77q99 78 99 222v1067zM741 1536h-61l203 287h73zM528 1536h-61l203 287h73z" />
    <glyph glyph-name="uhungarumlaut" unicode="&#x171;" horiz-adv-x="1011" 
d="M236 1024v-707q0 -109 68 -183t187 -75q119 0 199 83t80 200v682h102v-1024h-88l-10 186q-47 -104 -136 -155t-179 -51q-160 0 -243 95t-83 228v721h103zM639 1126h-61l202 287h74zM426 1126h-61l202 287h74z" />
    <glyph glyph-name="Uogonek" unicode="&#x172;" horiz-adv-x="1216" 
d="M591 -430q-173 0 -173 138q0 70 47 142q47 74 119 130q-180 8 -303 108t-123 279v1067h106v-1067q0 -143 100 -221t244 -78q145 0 245 77q99 78 99 222v1067h107v-1067q0 -179 -122 -279t-300 -108q-59 -49 -102 -122t-43 -128q0 -104 108 -105q59 0 133 45l15 -41
q-76 -59 -157 -59z" />
    <glyph glyph-name="uogonek" unicode="&#x173;" horiz-adv-x="1011" 
d="M627 -282q0 70 50 149q50 78 128 133h-21l-10 186q-47 -104 -136 -155t-179 -51q-160 0 -243 95t-83 228v721h103v-707q0 -109 68 -183t187 -75q119 0 199 83t80 200v682h102v-1024h-14q-61 -47 -109 -125t-49 -135q0 -104 109 -105q59 1 133 46l14 -41q-76 -60 -156 -60
t-127 34q-46 34 -46 104z" />
    <glyph glyph-name="Wcircumflex" unicode="&#x174;" horiz-adv-x="1724" 
d="M1569 1434h108l-379 -1444h-110l-326 1265l-327 -1265h-107l-383 1444h115l323 -1272l328 1272h109l325 -1280zM864 1763l-168 -227h-84l211 287h80l213 -287h-84z" />
    <glyph glyph-name="wcircumflex" unicode="&#x175;" horiz-adv-x="1353" 
d="M1204 1024h103l-285 -1034h-111l-233 907l-236 -907h-110l-283 1034h101l239 -909l238 909h102l238 -909zM680 1354l-168 -228h-84l211 287h80l213 -287h-84z" />
    <glyph glyph-name="Ycircumflex" unicode="&#x176;" horiz-adv-x="1101" 
d="M602 0h-106v553l-473 881h114l414 -777l416 777h114l-479 -881v-553zM551 1763l-168 -227h-84l211 287h80l213 -287h-84z" />
    <glyph glyph-name="ycircumflex" unicode="&#x177;" horiz-adv-x="899" 
d="M178 -430q-80 0 -170 20l8 80q86 -20 150 -20t103 37q40 37 75 129l64 174h-11l-358 1034h104l312 -909l303 909h102l-420 -1200q-50 -152 -116 -203t-146 -51zM451 1354l-168 -228h-84l211 287h79l213 -287h-84z" />
    <glyph glyph-name="Ydieresis" unicode="&#x178;" horiz-adv-x="1101" 
d="M602 0h-106v553l-473 881h114l414 -777l416 777h114l-479 -881v-553zM819 1587h-102v260h102v-260zM385 1587h-102v260h102v-260z" />
    <glyph glyph-name="Zacute" unicode="&#x179;" horiz-adv-x="985" 
d="M928 88v-88h-873v88l738 1258h-717v88h842v-88l-738 -1258h748zM530 1536h-75l202 287h88z" />
    <glyph glyph-name="zacute" unicode="&#x17a;" horiz-adv-x="845" 
d="M791 74v-74h-736v74l604 876h-581v74h692v-74l-604 -876h625zM461 1126h-76l203 287h88z" />
    <glyph glyph-name="Zdotaccent" unicode="&#x17b;" horiz-adv-x="985" 
d="M928 88v-88h-873v88l738 1258h-717v88h842v-88l-738 -1258h748zM545 1587h-103v260h103v-260z" />
    <glyph glyph-name="zdotaccent" unicode="&#x17c;" horiz-adv-x="845" 
d="M791 74v-74h-736v74l604 876h-581v74h692v-74l-604 -876h625zM475 1178h-102v260h102v-260z" />
    <glyph glyph-name="Zcaron" unicode="&#x17d;" horiz-adv-x="985" 
d="M928 88v-88h-873v88l738 1258h-717v88h842v-88l-738 -1258h748zM494 1595l168 228h83l-213 -287h-79l-211 287h84z" />
    <glyph glyph-name="zcaron" unicode="&#x17e;" horiz-adv-x="845" 
d="M791 74v-74h-736v74l604 876h-581v74h692v-74l-604 -876h625zM424 1186l168 227h84l-213 -287h-80l-211 287h84z" />
    <glyph glyph-name="Schwa" unicode="&#x18f;" horiz-adv-x="1157" 
d="M225 664v-297q-1 -141 101 -221t246 -78q144 0 245 78q100 79 101 221v297h-693zM123 922v145q0 183 132 285t318 102q187 0 319 -101t132 -286v-700q0 -183 -132 -285t-318 -102t-319 101q-132 101 -132 286v374h795v326q0 143 -100 221t-244 78q-146 0 -247 -78
t-102 -221v-145h-102z" />
    <glyph glyph-name="florin" unicode="&#x192;" horiz-adv-x="600" 
d="M193 950h-148v74h148v246q0 129 56 177q57 48 147 48t177 -20l-8 -78q-71 18 -139 18t-100 -38t-31 -117v-236h260v-74h-260v-1155q0 -129 -56 -177q-57 -48 -147 -48t-178 20l8 78q72 -18 140 -18t100 38q31 38 31 117v1145z" />
    <glyph glyph-name="AEacute" unicode="&#x1fc;" horiz-adv-x="1646" 
d="M743 500v809l-372 -809h372zM1573 1346h-723v-576h573v-86h-573v-596h723v-88h-830v412h-413l-189 -412h-114l659 1434h887v-88zM836 1536h-76l203 287h88z" />
    <glyph glyph-name="aeacute" unicode="&#x1fd;" horiz-adv-x="1540" 
d="M713 389v146q-301 -6 -418 -74t-117 -182v-13q0 -86 60 -146t184 -60q123 0 207 81q84 82 84 248zM1348 596v113q0 133 -76 195t-191 62t-191 -62q-76 -64 -75 -197v-111h533zM1090 -20q-108 0 -187 33t-121 80q-41 48 -57 114q-51 -127 -146 -177t-196 -50
q-155 0 -231 82t-76 188v16q0 319 637 330v125q0 152 -90 201q-69 37 -193 38t-293 -67l-20 76q162 76 342 75q233 0 311 -133q100 133 311 133q150 0 255 -80t106 -259v-170h-627v-209q0 -266 289 -267q171 1 321 62l19 -80q-162 -61 -354 -61zM809 1126h-76l203 287h88z
" />
    <glyph glyph-name="Oslashacute" unicode="&#x1fe;" horiz-adv-x="1167" 
d="M928 367v700q0 90 -41 154l-572 -1053q96 -100 254 -100q159 0 259 79t100 220zM240 1067v-700q0 -88 41 -152l571 1051q-98 100 -254 100t-258 -79q-100 -79 -100 -220zM1034 1067v-700q0 -183 -132 -285t-322 -102t-314 100l-43 -80h-59l63 115q-96 102 -96 252v700
q0 183 133 285q134 102 322 102t313 -100l43 80h59l-63 -115q96 -102 96 -252zM836 1823l-215 -287h-76l203 287h88z" />
    <glyph glyph-name="oslashacute" unicode="&#x1ff;" horiz-adv-x="958" 
d="M745 317v390q0 78 -30 139l-439 -713q74 -76 196 -76q122 -1 198 63t75 197zM213 707v-390q0 -78 31 -139l438 713q-74 76 -196 76q-122 1 -198 -63t-75 -197zM848 702v-380q0 -180 -109 -262t-261 -80q-152 0 -251 73l-57 -94h-59l79 129q-80 86 -79 234v380
q0 180 108 262q109 80 261 80t251 -73l57 94h60l-80 -129q80 -86 80 -234zM516 1126h-76l203 287h88z" />
    <glyph glyph-name="Scommaaccent" unicode="&#x218;" horiz-adv-x="1105" 
d="M504 -154h92v-182l-86 -276h-78l72 276v182zM1006 346q0 -182 -132 -274t-321 -92q-188 0 -320 101q-131 101 -131 286v145h103v-145q0 -143 101 -221q102 -78 248 -78t245 68q98 69 98 206v18q0 102 -80 174q-79 72 -193 114t-228 90t-194 135t-79 214v21q0 164 124 255
t307 91t307 -100t124 -287v-145h-102v145q0 143 -93 221q-92 78 -234 78t-234 -70t-93 -188v-18q-1 -88 57 -153t144 -99q227 -91 375 -163q86 -42 143 -121t58 -187v-21z" />
    <glyph glyph-name="scommaaccent" unicode="&#x219;" horiz-adv-x="882" 
d="M395 -154h92v-182l-86 -276h-77l71 276v182zM700 274q0 134 -215 193q-90 25 -179 53t-151 89q-62 62 -63 161v23q0 109 90 181t260 70q170 0 332 -61l-16 -80q-160 63 -290 63t-201 -45q-71 -46 -70 -130v-17q1 -138 215 -194q90 -24 179 -51q89 -28 151 -89t63 -159
v-23q1 -133 -103 -206q-104 -72 -282 -72t-338 61l20 80q156 -63 336 -64q125 1 194 57t68 144v16z" />
    <glyph glyph-name="uni021A" unicode="&#x21a;" horiz-adv-x="915" 
d="M420 -154h92v-182l-86 -276h-78l72 276v182zM868 1434v-88h-350v-1346h-106v1346h-365v88h821z" />
    <glyph glyph-name="uni021B" unicode="&#x21b;" horiz-adv-x="610" 
d="M373 -154h92v-182l-86 -276h-78l72 276v182zM303 950v-735q0 -80 31 -118q30 -38 100 -38t137 19l11 -78q-90 -20 -179 -20t-146 48q-56 48 -56 177v745h-148v74h148v205h102v-205h258v-74h-258z" />
    <glyph glyph-name="dotlessj" unicode="&#x237;" horiz-adv-x="380" 
d="M139 1024h103v-1229q0 -129 -56 -177t-147 -48q-90 0 -178 20l8 78q71 -18 139 -18q133 0 131 155v1219z" />
    <glyph glyph-name="schwa" unicode="&#x259;" horiz-adv-x="940" 
d="M195 453v-138q1 -133 77 -195t190 -62t190 62q76 64 77 197v136h-534zM729 698q0 262 -289 267q-169 -1 -323 -62l-17 80q162 61 326 61q280 0 368 -170q38 -72 37 -174v-378q0 -123 -58 -204t-137 -110t-175 -28q-147 0 -253 79q-105 80 -106 260v203h627v176z" />
    <glyph glyph-name="circumflex" unicode="&#x2c6;" horiz-adv-x="980" 
d="M492 1354l-168 -228h-84l211 287h79l213 -287h-84z" />
    <glyph glyph-name="caron" unicode="&#x2c7;" horiz-adv-x="980" 
d="M492 1186l167 227h84l-213 -287h-79l-211 287h84z" />
    <glyph glyph-name="breve" unicode="&#x2d8;" horiz-adv-x="989" 
d="M293 1413q0 -92 48 -159q47 -66 153 -66t154 66t48 159h54q0 -137 -72 -212t-184 -75t-183 75q-72 75 -71 212h53z" />
    <glyph glyph-name="dotaccent" unicode="&#x2d9;" horiz-adv-x="581" 
d="M342 1178h-102v260h102v-260z" />
    <glyph glyph-name="ring" unicode="&#x2da;" horiz-adv-x="931" 
d="M629 1290q0 64 -41 102t-122 38t-122 -38t-41 -102t41 -101q41 -38 122 -38t122 38t41 101zM467 1106q-106 0 -167 47q-60 47 -60 137t60 137t166 47t168 -46q60 -48 60 -138t-60 -137t-167 -47z" />
    <glyph glyph-name="ogonek" unicode="&#x2db;" horiz-adv-x="808" 
d="M240 -282q0 70 50 149q50 78 128 133h53q-61 -47 -109 -125t-49 -135q0 -104 109 -105q59 1 133 46l14 -41q-77 -60 -157 -60t-126 34t-46 104z" />
    <glyph glyph-name="tilde" unicode="&#x2dc;" horiz-adv-x="663" 
d="M664 1325h63q0 -94 -42 -138t-98 -44q-57 0 -161 56t-142 56q-38 1 -65 -27t-26 -85h-64q0 94 42 138t97 44q54 0 160 -57q106 -58 143 -58t65 28t28 87z" />
    <glyph glyph-name="hungarumlaut" unicode="&#x2dd;" horiz-adv-x="968" 
d="M514 1126h-61l202 287h74zM301 1126h-61l202 287h74z" />
    <glyph glyph-name="commaaccentcomb" unicode="&#x326;" horiz-adv-x="0" 
d="M170 -154h92v-182l-86 -276h-78l72 276v182z" />
    <glyph glyph-name="uni037E" unicode="&#x37e;" horiz-adv-x="448" 
d="M190 182h93v-182l-86 -276h-78l71 276v182zM283 639h-93v182h93v-182z" />
    <glyph glyph-name="Delta" unicode="&#x394;" 
d="M195 88h776l-389 1206zM639 1444l473 -1444h-1059l479 1444h107z" />
    <glyph glyph-name="Omega" unicode="&#x3a9;" horiz-adv-x="1161" 
d="M1032 1067v-455q0 -229 -215 -334q-43 -22 -82 -30v-174h297v-74h-366v303q96 14 178 86t82 205v473q0 141 -100 220t-245 79q-143 0 -243 -79t-100 -220v-473q0 -133 82 -205t176 -86v-303h-367v74h299v174q-75 15 -178 91q-53 40 -87 112t-34 161v455q0 183 133 285
q134 102 320 102t318 -102t132 -285z" />
    <glyph glyph-name="mu" unicode="&#x3bc;" horiz-adv-x="1193" 
d="M965 1024h102v-1024h-88l-8 186q-49 -104 -138 -155t-180 -51q-152 0 -241 96v-281q0 -131 -52 -178t-136 -47q-85 0 -173 20l8 78q67 -18 137 -18t102 38t32 117v1219h102v-707q0 -111 67 -185t187 -73q120 0 200 83q79 83 79 200v682z" />
    <glyph glyph-name="pi" unicode="&#x3c0;" horiz-adv-x="1124" 
d="M295 950v-950h-102v950h-148v74h1034v-74h-147v-950h-103v950h-534z" />
    <glyph glyph-name="sigma" unicode="&#x3c3;" horiz-adv-x="1007" 
d="M760 317v369q0 132 -76 196t-190 64t-191 -63q-76 -63 -76 -197v-369q0 -133 76 -196t191 -63q114 0 190 62q76 64 76 197zM909 1024v-78h-184q137 -98 137 -274v-350q0 -180 -108 -262q-108 -80 -260 -80t-261 80t-108 262v360q0 180 108 261q109 81 261 81h415z" />
    <glyph glyph-name="Wgrave" unicode="&#x1e80;" horiz-adv-x="1724" 
d="M1569 1434h108l-379 -1444h-110l-326 1265l-327 -1265h-107l-383 1444h115l323 -1272l328 1272h109l325 -1280zM827 1536l-215 287h88l203 -287h-76z" />
    <glyph glyph-name="wgrave" unicode="&#x1e81;" horiz-adv-x="1353" 
d="M1204 1024h103l-285 -1034h-111l-233 907l-236 -907h-110l-283 1034h101l239 -909l238 909h102l238 -909zM643 1126l-215 287h88l203 -287h-76z" />
    <glyph glyph-name="Wacute" unicode="&#x1e82;" horiz-adv-x="1724" 
d="M1569 1434h108l-379 -1444h-110l-326 1265l-327 -1265h-107l-383 1444h115l323 -1272l328 1272h109l325 -1280zM899 1536h-76l203 287h88z" />
    <glyph glyph-name="wacute" unicode="&#x1e83;" horiz-adv-x="1353" 
d="M1204 1024h103l-285 -1034h-111l-233 907l-236 -907h-110l-283 1034h101l239 -909l238 909h102l238 -909zM715 1126h-76l203 287h88z" />
    <glyph glyph-name="Wdieresis" unicode="&#x1e84;" horiz-adv-x="1724" 
d="M1569 1434h108l-379 -1444h-110l-326 1265l-327 -1265h-107l-383 1444h115l323 -1272l328 1272h109l325 -1280zM1130 1587h-102v260h102v-260zM696 1587h-102v260h102v-260z" />
    <glyph glyph-name="wdieresis" unicode="&#x1e85;" horiz-adv-x="1353" 
d="M1204 1024h103l-285 -1034h-111l-233 907l-236 -907h-110l-283 1034h101l239 -909l238 909h102l238 -909zM946 1178h-102v260h102v-260zM512 1178h-102v260h102v-260z" />
    <glyph glyph-name="Germandbls" unicode="&#x1e9e;" horiz-adv-x="1128" 
d="M940 1153v-70q0 -229 -207 -307q139 -28 224 -112t85 -234v-68q0 -124 -63 -208q-116 -154 -363 -154h-208v88h202q145 0 241 69q95 69 95 210v67q0 141 -96 211t-240 70h-202v88h100q141 -1 235 67t95 207v80q0 133 -76 197t-193 63q-117 0 -193 -63t-77 -197v-1157
h-102v950h-148v74h148v129q0 180 109 261q110 81 264 81t262 -81t108 -261z" />
    <glyph glyph-name="Ygrave" unicode="&#x1ef2;" horiz-adv-x="1101" 
d="M602 0h-106v553l-473 881h114l414 -777l416 777h114l-479 -881v-553zM514 1536l-215 287h88l203 -287h-76z" />
    <glyph glyph-name="ygrave" unicode="&#x1ef3;" horiz-adv-x="899" 
d="M178 -430q-80 0 -170 20l8 80q86 -20 150 -20t103 37q40 37 75 129l64 174h-11l-358 1034h104l312 -909l303 909h102l-420 -1200q-50 -152 -116 -203t-146 -51zM414 1126l-215 287h88l202 -287h-75z" />
    <glyph glyph-name="figuredash" unicode="&#x2012;" horiz-adv-x="1228" 
d="M1116 686h-1003v82h1003v-82z" />
    <glyph glyph-name="endash" unicode="&#x2013;" horiz-adv-x="1216" 
d="M1110 471h-1004v82h1004v-82z" />
    <glyph glyph-name="emdash" unicode="&#x2014;" horiz-adv-x="1421" 
d="M1315 471h-1209v82h1209v-82z" />
    <glyph glyph-name="quoteleft" unicode="&#x2018;" horiz-adv-x="364" 
d="M139 1434h64l28 -277v-182h-92v459z" />
    <glyph glyph-name="quoteright" unicode="&#x2019;" horiz-adv-x="362" 
d="M225 1434v-459h-65l-29 276v183h94z" />
    <glyph glyph-name="quotesinglbase" unicode="&#x201a;" horiz-adv-x="368" 
d="M231 182v-458h-63l-29 276v182h92z" />
    <glyph glyph-name="quotedblleft" unicode="&#x201c;" horiz-adv-x="788" 
d="M561 975v459h64l28 -277v-182h-92zM139 975v459h64l28 -277v-182h-92z" />
    <glyph glyph-name="quotedblright" unicode="&#x201d;" horiz-adv-x="786" 
d="M647 1434v-459h-63l-29 276v183h92zM225 1434v-459h-65l-29 276v183h94z" />
    <glyph glyph-name="quotedblbase" unicode="&#x201e;" horiz-adv-x="792" 
d="M653 182v-458h-63l-29 276v182h92zM231 182v-458h-63l-29 276v182h92z" />
    <glyph glyph-name="dagger" unicode="&#x2020;" horiz-adv-x="684" 
d="M604 1178v-78h-209v-1100h-106v1100h-211v78h211v256h106v-256h209z" />
    <glyph glyph-name="daggerdbl" unicode="&#x2021;" horiz-adv-x="724" 
d="M627 1100h-211v-766h211v-78h-211v-256h-107v256h-209v78h209v766h-209v78h209v256h107v-256h211v-78z" />
    <glyph glyph-name="bullet" unicode="&#x2022;" horiz-adv-x="387" 
d="M246 641h-103v193h103v-193z" />
    <glyph glyph-name="onedotenleader" unicode="&#x2024;" horiz-adv-x="368" 
d="M231 0h-92v182h92v-182z" />
    <glyph glyph-name="twodotenleader" unicode="&#x2025;" horiz-adv-x="792" 
d="M653 0h-92v182h92v-182zM231 0h-92v182h92v-182z" />
    <glyph glyph-name="ellipsis" unicode="&#x2026;" horiz-adv-x="1214" 
d="M1077 0h-92v182h92v-182zM653 0h-92v182h92v-182zM231 0h-92v182h92v-182z" />
    <glyph glyph-name="perthousand" unicode="&#x2030;" horiz-adv-x="2265" 
d="M1690 639v-418q0 -82 59 -129t143 -47t143 47q58 47 58 129v418q0 82 -58 129q-59 47 -143 47t-143 -47t-59 -129zM997 639v-418q-1 -82 59 -129t144 -47t143 47t60 129v418q1 82 -59 129t-144 47t-144 -47t-59 -129zM2165 639v-418q0 -111 -80 -172t-194 -61
q-113 0 -193 61t-80 172v418q0 111 80 172t194 61t193 -61q80 -61 80 -172zM1473 639v-418q0 -111 -80 -172t-194 -61q-113 0 -193 61t-80 172v418q0 111 80 172t194 61t193 -61q80 -61 80 -172zM174 1219v-416q0 -84 58 -130t144 -46t143 46q58 46 59 130v416q0 84 -58 130
t-144 46t-144 -46t-58 -130zM426 0h-61l778 1434h61zM649 1219v-416q0 -113 -80 -174q-79 -61 -193 -61t-194 60q-80 62 -80 175v416q0 111 81 173t194 62t193 -62t79 -173z" />
    <glyph glyph-name="guilsinglleft" unicode="&#x2039;" horiz-adv-x="686" 
d="M571 162v-92l-505 401v78l505 405v-92l-407 -350v-4z" />
    <glyph glyph-name="guilsinglright" unicode="&#x203a;" horiz-adv-x="686" 
d="M115 162l407 346v4l-407 350v92l506 -405v-78l-506 -401v92z" />
    <glyph glyph-name="exclamdbl" unicode="&#x203c;" horiz-adv-x="868" 
d="M702 0h-108v182h108v-182zM274 0h-108v182h108v-182zM702 1434v-615l-14 -473h-80l-14 473v615h108zM274 1434v-615l-14 -473h-78l-16 473v615h108z" />
    <glyph glyph-name="fraction" unicode="&#x2044;" horiz-adv-x="368" 
d="M-172 0h-61l778 1434h61z" />
    <glyph glyph-name="zerosuperior" unicode="&#x2070;" horiz-adv-x="718" 
d="M158 1473v-418q0 -82 59 -129t143 -47t143 47q58 47 58 129v418q0 82 -58 129q-59 47 -143 47t-143 -47t-59 -129zM633 1473v-418q0 -111 -80 -172t-194 -61q-113 0 -193 60q-80 62 -80 173v418q0 111 80 172t194 61t193 -61q80 -61 80 -172z" />
    <glyph glyph-name="foursuperior" unicode="&#x2074;" horiz-adv-x="694" 
d="M453 1133v458l-342 -458h342zM655 1133v-58h-131v-241h-71v241h-420v58l420 561h71v-561h131z" />
    <glyph glyph-name="fivesuperior" unicode="&#x2075;" horiz-adv-x="677" 
d="M162 1364h180q115 0 195 -61t79 -173v-75q0 -111 -80 -172t-193 -61t-191 60q-78 62 -78 173v41h67v-41q1 -82 59 -129t143 -47t144 47t60 129v75q1 84 -59 130t-146 47h-248v387h481v-58h-413v-272z" />
    <glyph glyph-name="sixsuperior" unicode="&#x2076;" horiz-adv-x="700" 
d="M561 1055v28q0 84 -58 130t-143 47h-202v-205q0 -82 59 -129t143 -47t143 47q58 47 58 129zM158 1317h202q113 1 193 -61t80 -173v-28q0 -111 -80 -172t-194 -61q-113 0 -193 60q-80 62 -80 173v418q0 111 80 172t192 61t188 -61q75 -61 75 -172v-41h-68v41q0 82 -55 129
q-54 47 -138 47t-143 -47t-59 -129v-156z" />
    <glyph glyph-name="sevensuperior" unicode="&#x2077;" horiz-adv-x="575" 
d="M35 1694h524v-58q-330 -391 -330 -802h-73q0 210 89 420t242 382h-452v58z" />
    <glyph glyph-name="eightsuperior" unicode="&#x2078;" horiz-adv-x="694" 
d="M551 1055v14q0 78 -59 126q-60 48 -144 48t-143 -48t-60 -126v-14q1 -84 59 -130t144 -46t145 46q58 46 58 130zM154 1479v-6q0 -74 56 -123q56 -50 138 -50t137 50t56 123v6q-1 80 -55 125t-138 45t-139 -45t-55 -125zM606 1485v-8q0 -74 -43 -127t-112 -76
q170 -51 170 -209v-16q0 -111 -80 -169t-194 -58q-113 0 -193 58t-80 169v16q0 80 47 133t125 76q-72 25 -115 78t-43 125v8q0 105 74 163t186 58t184 -58q74 -58 74 -163z" />
    <glyph glyph-name="ninesuperior" unicode="&#x2079;" horiz-adv-x="700" 
d="M342 1268h203v205q1 82 -59 129t-144 47t-143 -47t-60 -129v-29q1 -84 59 -130t144 -46zM70 1444v29q0 111 80 172t192 61t193 -61q80 -61 79 -172v-418q0 -111 -80 -172t-192 -61t-186 60t-74 173v41h68v-41q0 -84 54 -130t138 -46t143 47t60 129v155h-203
q-112 0 -192 62t-80 172z" />
    <glyph glyph-name="colonmonetary" unicode="&#x20a1;" horiz-adv-x="1157" 
d="M242 438l667 750q-31 68 -92 110l-575 -653v-207zM573 1366q-131 0 -231 -79t-100 -220v-369l549 617q-88 51 -218 51zM1036 922h-102v145q0 47 -12 86l-680 -764v-22q0 -143 99 -221t245 -78t247 77q101 78 101 222v145h102v-145q0 -183 -132 -285t-318 -102t-319 101
q-132 101 -132 286v700q0 183 132 285q133 102 319 102t318 -101t132 -286v-145z" />
    <glyph glyph-name="uni20A8" unicode="&#x20a8;" horiz-adv-x="1329" 
d="M1247 1434v-78h-291q92 -70 117 -197h174v-78h-166v-65q0 -274 -258 -338q180 -47 224 -307l57 -371h-107l-55 362q-28 181 -121 231q-49 26 -96 33t-125 7h-453v80h525q143 1 223 69t80 209v90h-828v78h820q-49 197 -295 197h-525v78h1100z" />
    <glyph glyph-name="Euro" unicode="&#x20ac;" horiz-adv-x="1226" 
d="M1106 922h-102v145q0 141 -102 220t-248 79q-144 0 -244 -79t-101 -220v-178h301v-64h-301v-198h301v-64h-301v-196q-1 -143 99 -221t246 -78t248 77q101 78 102 222v145h102v-145q0 -183 -133 -285t-319 -102t-319 101q-132 101 -132 286v196h-119v64h119v198h-119v64
h119v178q0 183 132 285t318 102q185 0 319 -101t134 -286v-145z" />
    <glyph glyph-name="afii61352" unicode="&#x2116;" horiz-adv-x="1947" 
d="M1835 662h-449v55h449v-55zM1454 1251v-233q0 -76 45 -114t112 -38t111 38t45 114v233q0 76 -45 114q-46 38 -112 38t-111 -38t-45 -114zM1026 1434h102v-1434h-106l-764 1257q8 -236 8 -378v-879h-102v1434h112l758 -1256q-8 223 -8 377v879zM1835 1247v-225
q0 -109 -66 -158q-67 -49 -159 -49t-158 49t-66 158v225q0 109 66 158t159 49t159 -49t65 -158z" />
    <glyph glyph-name="trademark" unicode="&#x2122;" horiz-adv-x="1521" 
d="M1368 1434v-861h-72v517q0 78 7 235l-228 -405h-57l-230 409q6 -168 7 -239v-517h-68v861h76l248 -437l245 437h72zM102 1376v58h496v-58h-207v-803h-72v803h-217z" />
    <glyph glyph-name="estimated" unicode="&#x212e;" horiz-adv-x="1564" 
d="M401 813h779v387q-168 158 -392 158t-387 -158v-387zM401 715v-482q166 -160 390 -159q334 0 516 321l94 -53q-137 -197 -271 -280t-339 -82q-307 0 -500 208t-193 528q0 318 194 528t492 210t492 -194t207 -545h-1082z" />
    <glyph glyph-name="oneeighth" unicode="&#x215b;" horiz-adv-x="1597" 
d="M1454 221v15q0 78 -59 126t-143 48t-144 -48q-59 -48 -59 -126v-15q0 -84 58 -130t144 -46t145 46q58 46 58 130zM1057 645v-6q0 -74 56 -123t137 -49t138 49q56 49 56 123v6q0 80 -54 125t-138 45t-140 -45q-55 -45 -55 -125zM1509 651v-8q0 -74 -43 -127t-112 -76
q170 -51 170 -209v-16q0 -111 -80 -169t-194 -58t-194 58t-79 169v16q0 79 47 133t125 76q-72 25 -115 78t-43 125v8q0 105 74 163q73 58 185 58t186 -57q73 -58 73 -164zM1079 1434h62l-779 -1434h-61zM508 573h-451v58h191v745h-191v58h260v-803h191v-58z" />
    <glyph glyph-name="threeeighths" unicode="&#x215c;" horiz-adv-x="1753" 
d="M1608 221v15q0 78 -60 126t-143 48q-84 0 -143 -48t-60 -126v-15q0 -84 58 -130t145 -46t145 46t58 130zM1210 645v-6q0 -74 56 -123t139 -49q82 0 137 49t55 123v6q0 80 -54 125t-138 45q-83 0 -139 -45t-56 -125zM1663 651v-8q0 -74 -43 -127t-113 -76
q170 -51 170 -209v-16q0 -111 -80 -169q-79 -58 -193 -58t-194 58t-80 169v16q0 79 48 133t125 76q-72 25 -115 78t-43 125v8q0 105 74 163q73 58 185 58t186 -58t73 -163zM1233 1434h61l-778 -1434h-61zM612 821v-33q0 -110 -78 -168t-193 -58q-114 0 -194 60
q-80 62 -79 173v41h69v-41q-1 -82 59 -129q60 -48 145 -48t143 46t59 131v28q1 78 -59 127t-144 49h-61v58h61q82 0 137 44t55 118v8q0 80 -54 121t-138 41q-84 -1 -138 -47t-55 -130v-41h-67v41q0 113 74 173q74 61 188 61t186 -53t72 -160v-10q0 -145 -147 -195
q159 -53 159 -207z" />
    <glyph glyph-name="fiveeighths" unicode="&#x215d;" horiz-adv-x="1740" 
d="M1597 221v15q0 78 -59 126t-143 48q-83 0 -143 -48t-60 -126v-15q0 -84 58 -130t144 -46t145 46q58 46 58 130zM1200 645v-6q0 -74 56 -123t138 -49t137 49q56 49 56 123v6q0 80 -54 125t-138 45q-83 0 -139 -45t-56 -125zM1653 651v-8q0 -74 -43 -127t-113 -76
q170 -51 170 -209v-16q0 -111 -80 -169q-79 -58 -193 -58t-194 58t-80 169v16q0 79 47 133t125 76q-72 25 -114 78t-43 125v8q0 106 73 164q74 57 186 57t186 -58t73 -163zM1223 1434h61l-778 -1434h-62zM616 870v-75q0 -111 -80 -172t-193 -61t-191 60q-78 62 -78 173v41
h67v-41q1 -82 59 -129q58 -48 143 -48t144 48t60 129v75q1 84 -59 130t-146 47h-248v387h481v-58h-413v-272h180q114 0 194 -62t80 -172z" />
    <glyph glyph-name="seveneighths" unicode="&#x215e;" horiz-adv-x="1548" 
d="M1405 221v15q0 78 -59 126q-60 48 -144 48t-143 -48t-60 -126v-15q1 -84 59 -130t144 -46t145 46q58 46 58 130zM1008 645v-6q0 -74 56 -123t137 -49t137 49t57 123v6q-1 80 -55 125t-138 45t-139 -45t-55 -125zM1460 651v-8q0 -74 -43 -127t-112 -76q170 -51 170 -209
v-16q0 -111 -80 -169t-194 -58q-113 0 -193 58t-80 169v16q0 79 47 133t125 76q-72 25 -115 78t-43 125v8q0 105 74 163t186 58t184 -58q74 -58 74 -163zM1030 1434h62l-779 -1434h-61zM559 1434v-58q-330 -391 -330 -803h-73q0 209 89 420t242 383h-452v58h524z" />
    <glyph glyph-name="partialdiff" unicode="&#x2202;" horiz-adv-x="1210" 
d="M610 797q-146 0 -258 -78t-139 -221l-23 -131q-24 -141 62 -221t230 -78q144 0 258 78t139 221l75 430h-344zM719 1454q205 0 315 -99t74 -288l-123 -700q-33 -184 -182 -286q-150 -101 -336 -101t-301 101t-82 286l22 131q33 186 183 286t338 101h342l32 182
q25 141 -61 220t-229 79h-365l16 88h357z" />
    <glyph glyph-name="emptyset" unicode="&#x2205;" horiz-adv-x="1171" 
d="M930 367v700q0 84 -39 150l-569 -1051q96 -98 252 -98t256 79t100 220zM242 1067v-700q0 -86 43 -156l571 1053q-98 102 -256 102t-258 -79t-100 -220zM1036 1067v-700q0 -183 -132 -285t-318 -102t-314 96l-41 -76h-61l61 115q-96 100 -96 252v700q0 183 132 285
t322 102t316 -100l43 80h62l-66 -119q92 -98 92 -248z" />
    <glyph glyph-name="product" unicode="&#x220f;" horiz-adv-x="1257" 
d="M168 1434h922v-1434h-107v1346h-709v-1346h-106v1434z" />
    <glyph glyph-name="summation" unicode="&#x2211;" horiz-adv-x="1011" 
d="M913 1434v-88h-723l357 -619l-357 -639h723v-88h-829v88l356 639l-356 619v88h829z" />
    <glyph glyph-name="minus" unicode="&#x2212;" horiz-adv-x="921" 
d="M809 686h-696v82h696v-82z" />
    <glyph glyph-name="radical" unicode="&#x221a;" horiz-adv-x="1357" 
d="M84 768h504l205 -635l415 1301h113l-479 -1444h-107l-229 696h-422v82z" />
    <glyph glyph-name="infinity" unicode="&#x221e;" horiz-adv-x="1503" 
d="M406 279q110 -1 187 71t114 156q-37 94 -118 166t-185 72t-167 -68t-63 -165t60 -165q62 -67 172 -67zM1100 745q-110 -1 -189 -75q-80 -74 -120 -162q35 -92 119 -160t190 -68t169 68q62 68 62 164t-60 165q-61 68 -171 68zM391 217q-127 0 -206 80t-79 214t86 215
t215 81q127 0 211 -74t136 -178q133 252 348 252q135 0 215 -81t80 -211t-83 -214t-229 -84q-97 -1 -191 63t-149 181q-47 -100 -137 -172t-217 -72z" />
    <glyph glyph-name="integral" unicode="&#x222b;" horiz-adv-x="729" 
d="M313 1270q1 129 57 177t146 48t178 -20l-8 -78q-72 18 -140 18q-132 0 -130 -155v-1465q0 -129 -56 -177t-147 -48q-90 0 -178 20l8 78q71 -18 139 -18q132 0 131 155v1465z" />
    <glyph glyph-name="approxequal" unicode="&#x2248;" horiz-adv-x="878" 
d="M678 678h63q0 -94 -41 -138t-97 -44q-55 0 -161 57t-143 57t-63 -28t-27 -86h-64q0 94 41 138q42 44 98 44t160 -56t142 -56t66 27q26 28 26 85zM678 965h63q0 -95 -41 -139t-97 -44q-55 0 -161 58t-143 57q-37 0 -63 -28t-27 -87h-64q0 94 41 138q42 44 98 45
q56 -1 160 -57t142 -56t66 28q26 28 26 85z" />
    <glyph glyph-name="notequal" unicode="&#x2260;" horiz-adv-x="966" 
d="M836 827h-265l-108 -200h373v-84h-416l-170 -318h-60l168 318h-219v84h264l107 200h-371v84h416l168 318h61l-170 -318h222v-84z" />
    <glyph glyph-name="lessequal" unicode="&#x2264;" horiz-adv-x="847" 
d="M700 360h-557v84h557v-84zM700 705v-84l-557 208v80l557 213v-86l-436 -166v-4z" />
    <glyph glyph-name="greaterequal" unicode="&#x2265;" horiz-adv-x="847" 
d="M147 360v84h558v-84h-558zM147 705l437 161v4l-437 166v86l558 -213v-80l-558 -208v84z" />
    <glyph glyph-name="lozenge" unicode="&#x25ca;" horiz-adv-x="958" 
d="M481 78l348 639l-348 639h-4l-350 -639l350 -639h4zM455 -10l-400 727l400 727h49l399 -727l-399 -727h-49z" />
    <glyph glyph-name="a.ss01" horiz-adv-x="948" 
d="M713 389v154q-207 -4 -331 -42t-164 -90t-40 -126v-19q0 -86 60 -146t184 -60q123 0 207 81q84 82 84 248zM815 729v-729h-88l-10 197q-88 -217 -334 -217q-155 0 -231 82t-76 188v24q0 319 637 330v125q0 129 -76 183t-183 54q-108 0 -184 -54t-75 -183v-53h-95v53
q0 170 106 243q106 72 245 72q140 0 242 -62q122 -74 122 -253z" />
    <glyph glyph-name="aacute.ss01" horiz-adv-x="948" 
d="M713 389v154q-207 -4 -331 -42t-164 -90t-40 -126v-19q0 -86 60 -146t184 -60q123 0 207 81q84 82 84 248zM815 729v-729h-88l-10 197q-88 -217 -334 -217q-155 0 -231 82t-76 188v24q0 319 637 330v125q0 129 -76 183t-183 54q-108 0 -184 -54t-75 -183v-53h-95v53
q0 170 106 243q106 72 245 72q140 0 242 -62q122 -74 122 -253zM489 1126h-75l202 287h89z" />
    <glyph glyph-name="abreve.ss01" horiz-adv-x="948" 
d="M713 389v154q-207 -4 -331 -42t-164 -90t-40 -126v-19q0 -86 60 -146t184 -60q123 0 207 81q84 82 84 248zM815 729v-729h-88l-10 197q-88 -217 -334 -217q-155 0 -231 82t-76 188v24q0 319 637 330v125q0 129 -76 183t-183 54q-108 0 -184 -54t-75 -183v-53h-95v53
q0 170 106 243q106 72 245 72q140 0 242 -62q122 -74 122 -253zM252 1413q0 -92 48 -159q48 -66 154 -66t153 66q48 66 48 159h54q0 -137 -72 -212q-71 -75 -183 -75t-184 75t-71 212h53z" />
    <glyph glyph-name="acircumflex.ss01" horiz-adv-x="948" 
d="M713 389v154q-207 -4 -331 -42t-164 -90t-40 -126v-19q0 -86 60 -146t184 -60q123 0 207 81q84 82 84 248zM815 729v-729h-88l-10 197q-88 -217 -334 -217q-155 0 -231 82t-76 188v24q0 319 637 330v125q0 129 -76 183t-183 54q-108 0 -184 -54t-75 -183v-53h-95v53
q0 170 106 243q106 72 245 72q140 0 242 -62q122 -74 122 -253zM455 1354l-168 -228h-84l211 287h80l213 -287h-84z" />
    <glyph glyph-name="adieresis.ss01" horiz-adv-x="948" 
d="M713 389v154q-207 -4 -331 -42t-164 -90t-40 -126v-19q0 -86 60 -146t184 -60q123 0 207 81q84 82 84 248zM815 729v-729h-88l-10 197q-88 -217 -334 -217q-155 0 -231 82t-76 188v24q0 319 637 330v125q0 129 -76 183t-183 54q-108 0 -184 -54t-75 -183v-53h-95v53
q0 170 106 243q106 72 245 72q140 0 242 -62q122 -74 122 -253zM721 1178h-103v260h103v-260zM287 1178h-103v260h103v-260z" />
    <glyph glyph-name="agrave.ss01" horiz-adv-x="948" 
d="M713 389v154q-207 -4 -331 -42t-164 -90t-40 -126v-19q0 -86 60 -146t184 -60q123 0 207 81q84 82 84 248zM815 729v-729h-88l-10 197q-88 -217 -334 -217q-155 0 -231 82t-76 188v24q0 319 637 330v125q0 129 -76 183t-183 54q-108 0 -184 -54t-75 -183v-53h-95v53
q0 170 106 243q106 72 245 72q140 0 242 -62q122 -74 122 -253zM418 1126l-215 287h88l203 -287h-76z" />
    <glyph glyph-name="amacron.ss01" horiz-adv-x="948" 
d="M713 389v154q-207 -4 -331 -42t-164 -90t-40 -126v-19q0 -86 60 -146t184 -60q123 0 207 81q84 82 84 248zM815 729v-729h-88l-10 197q-88 -217 -334 -217q-155 0 -231 82t-76 188v24q0 319 637 330v125q0 129 -76 183t-183 54q-108 0 -184 -54t-75 -183v-53h-95v53
q0 170 106 243q106 72 245 72q140 0 242 -62q122 -74 122 -253zM754 1194h-600v68h600v-68z" />
    <glyph glyph-name="aogonek.ss01" horiz-adv-x="948" 
d="M713 389v154q-207 -4 -331 -42t-164 -90t-40 -126v-19q0 -86 60 -146t184 -60q123 0 207 81q84 82 84 248zM569 -282q0 70 51 149q50 78 128 133h-21l-10 197q-88 -217 -334 -217q-155 0 -231 82t-76 188v24q0 319 637 330v125q0 129 -76 183t-183 54q-108 0 -184 -54
t-75 -183v-53h-95v53q0 170 106 243q106 72 245 72q140 0 242 -62q122 -74 122 -253v-729h-14q-61 -47 -109 -125t-49 -135q0 -104 109 -105q59 1 133 46l14 -41q-77 -60 -157 -60q-174 -2 -173 138z" />
    <glyph glyph-name="aring.ss01" horiz-adv-x="948" 
d="M713 389v154q-207 -4 -331 -42t-164 -90t-40 -126v-19q0 -86 60 -146t184 -60q123 0 207 81q84 82 84 248zM815 729v-729h-88l-10 197q-88 -217 -334 -217q-155 0 -231 82t-76 188v24q0 319 637 330v125q0 129 -76 183t-183 54q-108 0 -184 -54t-75 -183v-53h-95v53
q0 170 106 243q106 72 245 72q140 0 242 -62q122 -74 122 -253zM616 1290q0 64 -40 102t-122 38q-81 0 -122 -38t-41 -102t41 -101q41 -38 122 -38q82 0 122 38t40 101zM455 1106q-106 0 -167 47q-60 47 -61 137q1 90 61 137t166 47t168 -46q60 -48 60 -138t-60 -137
t-167 -47z" />
    <glyph glyph-name="atilde.ss01" horiz-adv-x="948" 
d="M713 389v154q-207 -4 -331 -42t-164 -90t-40 -126v-19q0 -86 60 -146t184 -60q123 0 207 81q84 82 84 248zM815 729v-729h-88l-10 197q-88 -217 -334 -217q-155 0 -231 82t-76 188v24q0 319 637 330v125q0 129 -76 183t-183 54q-108 0 -184 -54t-75 -183v-53h-95v53
q0 170 106 243q106 72 245 72q140 0 242 -62q122 -74 122 -253zM688 1325h64q0 -94 -42 -138t-98 -44t-161 56t-143 56q-38 1 -64 -27t-27 -85h-63q0 94 42 138t97 44t161 -57q106 -58 142 -58t64 28t28 87z" />
    <glyph glyph-name="c.ss01" horiz-adv-x="921" 
d="M840 348v-33q0 -257 -232 -319q-59 -16 -141 -16t-161 28t-137 110q-58 81 -58 204v380q0 123 58 204q100 140 298 138q152 -1 255 -68q54 -36 86 -105t32 -162v-33h-92v33q0 133 -76 195t-191 62t-191 -62q-76 -64 -77 -197v-390q0 -133 77 -196q78 -63 192 -63t190 62
t76 195v33h92z" />
    <glyph glyph-name="cacute.ss01" horiz-adv-x="921" 
d="M840 348v-33q0 -257 -232 -319q-59 -16 -141 -16t-161 28t-137 110q-58 81 -58 204v380q0 123 58 204q100 140 298 138q152 -1 255 -68q54 -36 86 -105t32 -162v-33h-92v33q0 133 -76 195t-191 62t-191 -62q-76 -64 -77 -197v-390q0 -133 77 -196q78 -63 192 -63t190 62
t76 195v33h92zM518 1126h-76l203 287h88z" />
    <glyph glyph-name="ccaron.ss01" horiz-adv-x="921" 
d="M840 348v-33q0 -257 -232 -319q-59 -16 -141 -16t-161 28t-137 110q-58 81 -58 204v380q0 123 58 204q100 140 298 138q152 -1 255 -68q54 -36 86 -105t32 -162v-33h-92v33q0 133 -76 195t-191 62t-191 -62q-76 -64 -77 -197v-390q0 -133 77 -196q78 -63 192 -63t190 62
t76 195v33h92zM481 1186l168 227h84l-213 -287h-80l-211 287h84z" />
    <glyph glyph-name="ccedilla.ss01" horiz-adv-x="921" 
d="M731 -287q0 -186 -223 -186q-109 0 -191 41l17 49q94 -39 175 -39q153 0 153 135v11q0 119 -156 118h-51v138q-145 6 -245 88q-99 82 -99 254v380q0 123 58 204q100 140 298 138q152 -1 255 -68q54 -36 86 -105t32 -162v-33h-92v33q0 133 -76 195t-191 62t-191 -62
q-76 -64 -77 -197v-390q0 -133 77 -196q78 -63 192 -63t190 62t76 195v33h92v-33q0 -171 -96 -249t-238 -86v-84h20q205 0 205 -168v-15z" />
    <glyph glyph-name="ccircumflex.ss01" horiz-adv-x="921" 
d="M840 348v-33q0 -257 -232 -319q-59 -16 -141 -16t-161 28t-137 110q-58 81 -58 204v380q0 123 58 204q100 140 298 138q152 -1 255 -68q54 -36 86 -105t32 -162v-33h-92v33q0 133 -76 195t-191 62t-191 -62q-76 -64 -77 -197v-390q0 -133 77 -196q78 -63 192 -63t190 62
t76 195v33h92zM481 1354l-168 -228h-84l211 287h80l213 -287h-84z" />
    <glyph glyph-name="cdotaccent.ss01" horiz-adv-x="921" 
d="M840 348v-33q0 -257 -232 -319q-59 -16 -141 -16t-161 28t-137 110q-58 81 -58 204v380q0 123 58 204q100 140 298 138q152 -1 255 -68q54 -36 86 -105t32 -162v-33h-92v33q0 133 -76 195t-191 62t-191 -62q-76 -64 -77 -197v-390q0 -133 77 -196q78 -63 192 -63t190 62
t76 195v33h92zM532 1178h-102v260h102v-260z" />
    <glyph glyph-name="e.ss01" horiz-adv-x="940" 
d="M745 575v134q0 133 -75 195q-76 62 -191 62t-191 -62q-76 -64 -75 -197v-132h532zM840 504h-627v-187q0 -133 76 -196q77 -63 191 -63t190 62t75 195v33h95v-33q0 -180 -106 -258q-106 -77 -256 -77q-152 0 -260 80t-107 262v380q0 180 108 262q109 80 259 80t256 -80
q105 -80 106 -259v-201z" />
    <glyph glyph-name="eacute.ss01" horiz-adv-x="940" 
d="M745 575v134q0 133 -75 195q-76 62 -191 62t-191 -62q-76 -64 -75 -197v-132h532zM840 504h-627v-187q0 -133 76 -196q77 -63 191 -63t190 62t75 195v33h95v-33q0 -180 -106 -258q-106 -77 -256 -77q-152 0 -260 80t-107 262v380q0 180 108 262q109 80 259 80t256 -80
q105 -80 106 -259v-201zM508 1126h-76l203 287h88z" />
    <glyph glyph-name="ebreve.ss01" horiz-adv-x="940" 
d="M745 575v134q0 133 -75 195q-76 62 -191 62t-191 -62q-76 -64 -75 -197v-132h532zM840 504h-627v-187q0 -133 76 -196q77 -63 191 -63t190 62t75 195v33h95v-33q0 -180 -106 -258q-106 -77 -256 -77q-152 0 -260 80t-107 262v380q0 180 108 262q109 80 259 80t256 -80
q105 -80 106 -259v-201zM268 1413q0 -92 48 -159q48 -66 154 -66t154 66q48 67 48 159h53q0 -137 -72 -212q-71 -75 -183 -75t-184 75t-71 212h53z" />
    <glyph glyph-name="ecaron.ss01" horiz-adv-x="940" 
d="M745 575v134q0 133 -75 195q-76 62 -191 62t-191 -62q-76 -64 -75 -197v-132h532zM840 504h-627v-187q0 -133 76 -196q77 -63 191 -63t190 62t75 195v33h95v-33q0 -180 -106 -258q-106 -77 -256 -77q-152 0 -260 80t-107 262v380q0 180 108 262q109 80 259 80t256 -80
q105 -80 106 -259v-201zM471 1186l168 227h84l-213 -287h-80l-211 287h84z" />
    <glyph glyph-name="ecircumflex.ss01" horiz-adv-x="940" 
d="M745 575v134q0 133 -75 195q-76 62 -191 62t-191 -62q-76 -64 -75 -197v-132h532zM840 504h-627v-187q0 -133 76 -196q77 -63 191 -63t190 62t75 195v33h95v-33q0 -180 -106 -258q-106 -77 -256 -77q-152 0 -260 80t-107 262v380q0 180 108 262q109 80 259 80t256 -80
q105 -80 106 -259v-201zM471 1354l-168 -228h-84l211 287h80l213 -287h-84z" />
    <glyph glyph-name="edieresis.ss01" horiz-adv-x="940" 
d="M745 575v134q0 133 -75 195q-76 62 -191 62t-191 -62q-76 -64 -75 -197v-132h532zM840 504h-627v-187q0 -133 76 -196q77 -63 191 -63t190 62t75 195v33h95v-33q0 -180 -106 -258q-106 -77 -256 -77q-152 0 -260 80t-107 262v380q0 180 108 262q109 80 259 80t256 -80
q105 -80 106 -259v-201zM739 1178h-102v260h102v-260zM305 1178h-102v260h102v-260z" />
    <glyph glyph-name="edotaccent.ss01" horiz-adv-x="940" 
d="M745 575v134q0 133 -75 195q-76 62 -191 62t-191 -62q-76 -64 -75 -197v-132h532zM840 504h-627v-187q0 -133 76 -196q77 -63 191 -63t190 62t75 195v33h95v-33q0 -180 -106 -258q-106 -77 -256 -77q-152 0 -260 80t-107 262v380q0 180 108 262q109 80 259 80t256 -80
q105 -80 106 -259v-201zM522 1178h-102v260h102v-260z" />
    <glyph glyph-name="egrave.ss01" horiz-adv-x="940" 
d="M745 575v134q0 133 -75 195q-76 62 -191 62t-191 -62q-76 -64 -75 -197v-132h532zM840 504h-627v-187q0 -133 76 -196q77 -63 191 -63t190 62t75 195v33h95v-33q0 -180 -106 -258q-106 -77 -256 -77q-152 0 -260 80t-107 262v380q0 180 108 262q109 80 259 80t256 -80
q105 -80 106 -259v-201zM434 1126l-215 287h88l203 -287h-76z" />
    <glyph glyph-name="emacron.ss01" horiz-adv-x="940" 
d="M745 575v134q0 133 -75 195q-76 62 -191 62t-191 -62q-76 -64 -75 -197v-132h532zM840 504h-627v-187q0 -133 76 -196q77 -63 191 -63t190 62t75 195v33h95v-33q0 -180 -106 -258q-106 -77 -256 -77q-152 0 -260 80t-107 262v380q0 180 108 262q109 80 259 80t256 -80
q105 -80 106 -259v-201zM770 1194h-600v68h600v-68z" />
    <glyph glyph-name="eogonek.ss01" horiz-adv-x="940" 
d="M213 707v-132h532v134q0 133 -75 195q-76 62 -191 62t-191 -62q-76 -64 -75 -197zM840 504h-627v-187q0 -133 76 -196q77 -63 191 -63t190 62t75 195v33h95v-33q0 -173 -96 -251t-240 -84q-53 -49 -93 -119t-40 -121q0 -104 108 -105q59 0 133 46l15 -41
q-77 -60 -157 -60t-127 34q-46 34 -46 101q0 141 152 265q-143 8 -241 90q-97 82 -97 252v380q0 180 108 262q109 80 259 80t256 -80q105 -80 106 -259v-201z" />
    <glyph glyph-name="g.ss01" horiz-adv-x="987" 
d="M745 682q0 117 -78 200q-79 83 -200 83t-187 -74t-67 -184v-349q0 -110 67 -184q68 -74 188 -74t199 83t78 200v299zM111 344v377q0 133 83 228t242 95q88 0 177 -51t139 -155l8 186h88v-1112q0 -180 -109 -261t-259 -81t-256 78q-105 78 -105 258v33h94v-33
q0 -134 76 -196q77 -62 191 -62t190 63t75 197v315q-47 -100 -134 -151t-175 -52q-160 0 -242 96t-83 228z" />
    <glyph glyph-name="gbreve.ss01" horiz-adv-x="987" 
d="M745 682q0 117 -78 200q-79 83 -200 83t-187 -74t-67 -184v-349q0 -110 67 -184q68 -74 188 -74t199 83t78 200v299zM111 344v377q0 133 83 228t242 95q88 0 177 -51t139 -155l8 186h88v-1112q0 -180 -109 -261t-259 -81t-256 78q-105 78 -105 258v33h94v-33
q0 -134 76 -196q77 -62 191 -62t190 63t75 197v315q-47 -100 -134 -151t-175 -52q-160 0 -242 96t-83 228zM293 1413q0 -92 48 -159q47 -66 153 -66t154 66t48 159h54q0 -137 -72 -212t-184 -75t-183 75q-72 75 -71 212h53z" />
    <glyph glyph-name="gcircumflex.ss01" horiz-adv-x="987" 
d="M745 682q0 117 -78 200q-79 83 -200 83t-187 -74t-67 -184v-349q0 -110 67 -184q68 -74 188 -74t199 83t78 200v299zM111 344v377q0 133 83 228t242 95q88 0 177 -51t139 -155l8 186h88v-1112q0 -180 -109 -261t-259 -81t-256 78q-105 78 -105 258v33h94v-33
q0 -134 76 -196q77 -62 191 -62t190 63t75 197v315q-47 -100 -134 -151t-175 -52q-160 0 -242 96t-83 228zM496 1354l-168 -228h-84l211 287h80l213 -287h-84z" />
    <glyph glyph-name="gdotaccent.ss01" horiz-adv-x="987" 
d="M745 682q0 117 -78 200q-79 83 -200 83t-187 -74t-67 -184v-349q0 -110 67 -184q68 -74 188 -74t199 83t78 200v299zM111 344v377q0 133 83 228t242 95q88 0 177 -51t139 -155l8 186h88v-1112q0 -180 -109 -261t-259 -81t-256 78q-105 78 -105 258v33h94v-33
q0 -134 76 -196q77 -62 191 -62t190 63t75 197v315q-47 -100 -134 -151t-175 -52q-160 0 -242 96t-83 228zM545 1178h-103v260h103v-260z" />
    <glyph glyph-name="m.ss01" horiz-adv-x="1642" 
d="M133 0v700q1 178 107 262t254 82q108 0 198 -53t129 -162q37 107 127 161t219 54t235 -80q105 -81 105 -262v-702h-102v707q0 133 -76 196q-77 63 -191 63t-190 -62q-76 -64 -76 -197v-707h-102v707q0 133 -77 196t-191 63t-190 -62q-77 -64 -76 -197v-707h-103z" />
    <glyph glyph-name="n.ss01" horiz-adv-x="1005" 
d="M133 0v702q0 180 109 262t260 80q96 0 175 -28t137 -110q58 -81 58 -204v-702h-102v707q0 133 -77 196t-191 63t-190 -62q-77 -64 -76 -197v-707h-103z" />
    <glyph glyph-name="nacute.ss01" horiz-adv-x="1005" 
d="M133 0v702q0 180 109 262t260 80q96 0 175 -28t137 -110q58 -81 58 -204v-702h-102v707q0 133 -77 196t-191 63t-190 -62q-77 -64 -76 -197v-707h-103zM541 1126h-76l203 287h88z" />
    <glyph glyph-name="ncaron.ss01" horiz-adv-x="1005" 
d="M133 0v702q0 180 109 262t260 80q96 0 175 -28t137 -110q58 -81 58 -204v-702h-102v707q0 133 -77 196t-191 63t-190 -62q-77 -64 -76 -197v-707h-103zM504 1186l168 227h84l-213 -287h-80l-211 287h84z" />
    <glyph glyph-name="ntilde.ss01" horiz-adv-x="1005" 
d="M133 0v702q0 180 109 262t260 80q96 0 175 -28t137 -110q58 -81 58 -204v-702h-102v707q0 133 -77 196t-191 63t-190 -62q-77 -64 -76 -197v-707h-103zM739 1325h64q0 -94 -42 -138q-43 -44 -99 -44t-160 56t-142 56q-38 1 -66 -27q-26 -28 -26 -85h-63q0 94 42 138
t97 44q54 0 160 -57q106 -58 143 -58t65 28q27 28 27 87z" />
    <glyph glyph-name="s.ss01" horiz-adv-x="880" 
d="M100 772q0 141 98 207q98 65 243 65q146 0 248 -77q101 -78 102 -258v-33h-91v33q0 133 -72 195q-73 62 -185 62q-111 0 -177 -46q-66 -47 -65 -146v-10q0 -143 214 -200q89 -24 177 -50t150 -84q62 -59 63 -158v-18q-1 -141 -105 -208q-104 -66 -255 -66t-261 78
t-108 257v33h92v-33q0 -133 81 -195t193 -62t187 47q74 48 73 147v18q0 76 -62 120t-150 67t-177 49q-88 26 -150 89q-62 62 -63 167v10z" />
    <glyph glyph-name="sacute.ss01" horiz-adv-x="880" 
d="M100 772q0 141 98 207q98 65 243 65q146 0 248 -77q101 -78 102 -258v-33h-91v33q0 133 -72 195q-73 62 -185 62q-111 0 -177 -46q-66 -47 -65 -146v-10q0 -143 214 -200q89 -24 177 -50t150 -84q62 -59 63 -158v-18q-1 -141 -105 -208q-104 -66 -255 -66t-261 78
t-108 257v33h92v-33q0 -133 81 -195t193 -62t187 47q74 48 73 147v18q0 76 -62 120t-150 67t-177 49q-88 26 -150 89q-62 62 -63 167v10zM477 1126h-76l203 287h88z" />
    <glyph glyph-name="scaron.ss01" horiz-adv-x="880" 
d="M100 772q0 141 98 207q98 65 243 65q146 0 248 -77q101 -78 102 -258v-33h-91v33q0 133 -72 195q-73 62 -185 62q-111 0 -177 -46q-66 -47 -65 -146v-10q0 -143 214 -200q89 -24 177 -50t150 -84q62 -59 63 -158v-18q-1 -141 -105 -208q-104 -66 -255 -66t-261 78
t-108 257v33h92v-33q0 -133 81 -195t193 -62t187 47q74 48 73 147v18q0 76 -62 120t-150 67t-177 49q-88 26 -150 89q-62 62 -63 167v10zM440 1186l168 227h84l-213 -287h-80l-211 287h84z" />
    <glyph glyph-name="scedilla.ss01" horiz-adv-x="880" 
d="M696 -287q0 -186 -222 -186q-108 0 -191 41l16 49q94 -39 175 -39q153 0 153 135v11q0 119 -156 118h-51v138q-143 8 -244 87q-100 79 -100 248v33h92v-33q0 -133 81 -195t193 -62t187 47q74 48 73 147v18q0 76 -62 120t-150 67t-177 49q-88 26 -150 89q-62 62 -63 167
v10q0 141 98 207q98 65 243 65q146 0 248 -77q101 -78 102 -258v-33h-91v33q0 133 -72 195q-73 62 -185 62t-177 -46q-65 -48 -65 -146v-10q0 -143 213 -200q88 -24 177 -50t151 -84q62 -59 63 -158v-18q0 -135 -96 -202t-238 -72v-84h21q205 0 204 -168v-15z" />
    <glyph glyph-name="scircumflex.ss01" horiz-adv-x="880" 
d="M100 772q0 141 98 207q98 65 243 65q146 0 248 -77q101 -78 102 -258v-33h-91v33q0 133 -72 195q-73 62 -185 62q-111 0 -177 -46q-66 -47 -65 -146v-10q0 -143 214 -200q89 -24 177 -50t150 -84q62 -59 63 -158v-18q-1 -141 -105 -208q-104 -66 -255 -66t-261 78
t-108 257v33h92v-33q0 -133 81 -195t193 -62t187 47q74 48 73 147v18q0 76 -62 120t-150 67t-177 49q-88 26 -150 89q-62 62 -63 167v10zM440 1354l-168 -228h-84l211 287h80l213 -287h-84z" />
    <glyph glyph-name="t.ss01" horiz-adv-x="616" 
d="M358 950v-950h-102v950h-203v74h203v205h102v-205h205v-74h-205z" />
    <glyph glyph-name="tbar.ss01" horiz-adv-x="612" 
d="M565 950h-203v-325h195v-70h-195v-555h-102v555h-197v70h197v325h-205v74h205v205h102v-205h203v-74z" />
    <glyph glyph-name="tcaron.ss01" horiz-adv-x="745" 
d="M358 950v-950h-102v950h-203v74h203v205h102v-205h205v-74h-205zM694 1475v-408h-53l-29 231v177h82z" />
    <glyph glyph-name="tcedilla.ss01" horiz-adv-x="616" 
d="M559 -287q0 -186 -223 -186q-109 0 -191 41l17 49q94 -39 175 -39q154 0 152 135v11q0 119 -155 118h-51v158h-27v950h-203v74h203v205h102v-205h205v-74h-205v-950h-24v-104h20q205 0 205 -168v-15z" />
    <glyph glyph-name="u.ss01" horiz-adv-x="1005" 
d="M133 1024h103v-707q0 -133 76 -196t191 -63t191 62q76 64 76 197v707h102v-702q0 -123 -58 -204t-137 -110t-175 -28q-152 0 -260 80t-109 262v702z" />
    <glyph glyph-name="uacute.ss01" horiz-adv-x="1005" 
d="M133 1024h103v-707q0 -133 76 -196t191 -63t191 62q76 64 76 197v707h102v-702q0 -123 -58 -204t-137 -110t-175 -28q-152 0 -260 80t-109 262v702zM541 1126h-76l203 287h88z" />
    <glyph glyph-name="ubreve.ss01" horiz-adv-x="1005" 
d="M133 1024h103v-707q0 -133 76 -196t191 -63t191 62q76 64 76 197v707h102v-702q0 -123 -58 -204t-137 -110t-175 -28q-152 0 -260 80t-109 262v702zM301 1413q0 -92 48 -159q47 -66 153 -66t154 66t49 159h53q0 -137 -72 -212t-184 -75t-183 75q-72 75 -71 212h53z" />
    <glyph glyph-name="ucircumflex.ss01" horiz-adv-x="1005" 
d="M133 1024h103v-707q0 -133 76 -196t191 -63t191 62q76 64 76 197v707h102v-702q0 -123 -58 -204t-137 -110t-175 -28q-152 0 -260 80t-109 262v702zM504 1354l-168 -228h-84l211 287h80l213 -287h-84z" />
    <glyph glyph-name="udieresis.ss01" horiz-adv-x="1005" 
d="M133 1024h103v-707q0 -133 76 -196t191 -63t191 62q76 64 76 197v707h102v-702q0 -123 -58 -204t-137 -110t-175 -28q-152 0 -260 80t-109 262v702zM772 1178h-102v260h102v-260zM338 1178h-102v260h102v-260z" />
    <glyph glyph-name="ugrave.ss01" horiz-adv-x="1005" 
d="M133 1024h103v-707q0 -133 76 -196t191 -63t191 62q76 64 76 197v707h102v-702q0 -123 -58 -204t-137 -110t-175 -28q-152 0 -260 80t-109 262v702zM467 1126l-215 287h88l203 -287h-76z" />
    <glyph glyph-name="uhungarumlaut.ss01" horiz-adv-x="1005" 
d="M133 1024h103v-707q0 -133 76 -196t191 -63t191 62q76 64 76 197v707h102v-702q0 -123 -58 -204t-137 -110t-175 -28q-152 0 -260 80t-109 262v702zM635 1126h-62l203 287h74zM422 1126h-62l203 287h74z" />
    <glyph glyph-name="umacron.ss01" horiz-adv-x="1005" 
d="M133 1024h103v-707q0 -133 76 -196t191 -63t191 62q76 64 76 197v707h102v-702q0 -123 -58 -204t-137 -110t-175 -28q-152 0 -260 80t-109 262v702zM803 1194h-600v68h600v-68z" />
    <glyph glyph-name="uogonek.ss01" horiz-adv-x="1005" 
d="M770 1024h102v-702q0 -170 -99 -253t-243 -89q-55 -49 -95 -118t-40 -122q0 -104 109 -105q59 0 133 46l14 -41q-77 -60 -157 -60t-126 34t-46 101q0 141 151 265q-143 6 -242 88q-98 82 -98 254v702h103v-707q0 -133 76 -196t191 -63t191 62q76 64 76 197v707z" />
    <glyph glyph-name="uring.ss01" horiz-adv-x="1005" 
d="M133 1024h103v-707q0 -133 76 -196t191 -63t191 62q76 64 76 197v707h102v-702q0 -123 -58 -204t-137 -110t-175 -28q-152 0 -260 80t-109 262v702zM666 1290q0 64 -41 102t-122 38t-122 -38t-41 -102t41 -101q41 -38 122 -38t122 38t41 101zM504 1106q-106 0 -167 47
q-60 47 -61 137q0 90 60 137t168 47q106 0 166 -46q60 -48 61 -138q-1 -90 -61 -137t-166 -47z" />
    <glyph glyph-name="utilde.ss01" horiz-adv-x="1005" 
d="M133 1024h103v-707q0 -133 76 -196t191 -63t191 62q76 64 76 197v707h102v-702q0 -123 -58 -204t-137 -110t-175 -28q-152 0 -260 80t-109 262v702zM739 1325h64q0 -94 -42 -138q-43 -44 -99 -44t-160 56t-142 56q-38 1 -66 -27q-26 -28 -26 -85h-63q0 94 42 138t97 44
q54 0 160 -57q106 -58 143 -58t65 28q27 28 27 87z" />
    <glyph glyph-name="w.ss01" horiz-adv-x="1642" 
d="M821 195q-77 -215 -347 -215q-128 0 -234 82q-106 83 -107 262v700h103v-707q0 -133 76 -196t191 -63t191 62q76 64 76 197v707h102v-707q0 -133 76 -196t191 -63t191 62q76 64 75 197v707h102v-702q0 -180 -105 -262q-104 -82 -234 -80q-130 0 -220 54t-127 161z" />
    <glyph glyph-name="wacute.ss01" horiz-adv-x="1642" 
d="M821 195q-77 -215 -347 -215q-128 0 -234 82q-106 83 -107 262v700h103v-707q0 -133 76 -196t191 -63t191 62q76 64 76 197v707h102v-707q0 -133 76 -196t191 -63t191 62q76 64 75 197v707h102v-702q0 -180 -105 -262q-104 -82 -234 -80q-130 0 -220 54t-127 161z
M858 1126h-76l203 287h88z" />
    <glyph glyph-name="wcircumflex.ss01" horiz-adv-x="1642" 
d="M821 195q-77 -215 -347 -215q-128 0 -234 82q-106 83 -107 262v700h103v-707q0 -133 76 -196t191 -63t191 62q76 64 76 197v707h102v-707q0 -133 76 -196t191 -63t191 62q76 64 75 197v707h102v-702q0 -180 -105 -262q-104 -82 -234 -80q-130 0 -220 54t-127 161z
M821 1354l-168 -228h-84l211 287h80l213 -287h-84z" />
    <glyph glyph-name="wdieresis.ss01" horiz-adv-x="1642" 
d="M821 195q-77 -215 -347 -215q-128 0 -234 82q-106 83 -107 262v700h103v-707q0 -133 76 -196t191 -63t191 62q76 64 76 197v707h102v-707q0 -133 76 -196t191 -63t191 62q76 64 75 197v707h102v-702q0 -180 -105 -262q-104 -82 -234 -80q-130 0 -220 54t-127 161z
M1090 1178h-103v260h103v-260zM655 1178h-102v260h102v-260z" />
    <glyph glyph-name="wgrave.ss01" horiz-adv-x="1642" 
d="M821 195q-77 -215 -347 -215q-128 0 -234 82q-106 83 -107 262v700h103v-707q0 -133 76 -196t191 -63t191 62q76 64 76 197v707h102v-707q0 -133 76 -196t191 -63t191 62q76 64 75 197v707h102v-702q0 -180 -105 -262q-104 -82 -234 -80q-130 0 -220 54t-127 161z
M784 1126l-215 287h88l203 -287h-76z" />
    <glyph glyph-name="y.ss01" horiz-adv-x="1005" 
d="M770 1024h102v-1112q0 -123 -58 -204q-99 -138 -298 -138q-152 0 -255 69q-118 79 -118 267v33h93v-33q0 -133 76 -196q77 -62 191 -62q115 0 191 63t76 197v315q-49 -102 -136 -152t-175 -51q-160 0 -243 96t-83 228v680h103v-666q0 -110 68 -184t187 -74t199 83t80 200
v641z" />
    <glyph glyph-name="yacute.ss01" horiz-adv-x="1005" 
d="M770 1024h102v-1112q0 -123 -58 -204q-99 -138 -298 -138q-152 0 -255 69q-118 79 -118 267v33h93v-33q0 -133 76 -196q77 -62 191 -62q115 0 191 63t76 197v315q-49 -102 -136 -152t-175 -51q-160 0 -243 96t-83 228v680h103v-666q0 -110 68 -184t187 -74t199 83t80 200
v641zM541 1126h-76l203 287h88z" />
    <glyph glyph-name="ycircumflex.ss01" horiz-adv-x="1005" 
d="M770 1024h102v-1112q0 -123 -58 -204q-99 -138 -298 -138q-152 0 -255 69q-118 79 -118 267v33h93v-33q0 -133 76 -196q77 -62 191 -62q115 0 191 63t76 197v315q-49 -102 -136 -152t-175 -51q-160 0 -243 96t-83 228v680h103v-666q0 -110 68 -184t187 -74t199 83t80 200
v641zM504 1354l-168 -228h-84l211 287h80l213 -287h-84z" />
    <glyph glyph-name="ydieresis.ss01" horiz-adv-x="1005" 
d="M770 1024h102v-1112q0 -123 -58 -204q-99 -138 -298 -138q-152 0 -255 69q-118 79 -118 267v33h93v-33q0 -133 76 -196q77 -62 191 -62q115 0 191 63t76 197v315q-49 -102 -136 -152t-175 -51q-160 0 -243 96t-83 228v680h103v-666q0 -110 68 -184t187 -74t199 83t80 200
v641zM772 1178h-102v260h102v-260zM338 1178h-102v260h102v-260z" />
    <glyph glyph-name="ygrave.ss01" horiz-adv-x="1005" 
d="M770 1024h102v-1112q0 -123 -58 -204q-99 -138 -298 -138q-152 0 -255 69q-118 79 -118 267v33h93v-33q0 -133 76 -196q77 -62 191 -62q115 0 191 63t76 197v315q-49 -102 -136 -152t-175 -51q-160 0 -243 96t-83 228v680h103v-666q0 -110 68 -184t187 -74t199 83t80 200
v641zM467 1126l-215 287h88l203 -287h-76z" />
    <glyph glyph-name="a.ss02" horiz-adv-x="987" 
d="M745 682q0 117 -78 200q-79 83 -200 83t-187 -74t-67 -184v-390q0 -111 67 -185q68 -74 188 -73q120 0 199 83t78 200v340zM111 721q0 133 83 228t242 95q88 0 177 -51t139 -155l8 186h88v-1024h-88l-8 197q-34 -83 -96 -135t-115 -67t-105 -15q-160 0 -242 95t-83 228
v418z" />
    <glyph glyph-name="aacute.ss02" horiz-adv-x="987" 
d="M745 682q0 117 -78 200q-79 83 -200 83t-187 -74t-67 -184v-390q0 -111 67 -185q68 -74 188 -73q120 0 199 83t78 200v340zM111 721q0 133 83 228t242 95q88 0 177 -51t139 -155l8 186h88v-1024h-88l-8 197q-34 -83 -96 -135t-115 -67t-105 -15q-160 0 -242 95t-83 228
v418zM530 1126h-75l202 287h88z" />
    <glyph glyph-name="abreve.ss02" horiz-adv-x="987" 
d="M745 682q0 117 -78 200q-79 83 -200 83t-187 -74t-67 -184v-390q0 -111 67 -185q68 -74 188 -73q120 0 199 83t78 200v340zM111 721q0 133 83 228t242 95q88 0 177 -51t139 -155l8 186h88v-1024h-88l-8 197q-34 -83 -96 -135t-115 -67t-105 -15q-160 0 -242 95t-83 228
v418zM293 1413q0 -92 48 -159q47 -66 153 -66t154 66t48 159h54q0 -137 -72 -212t-184 -75t-183 75q-72 75 -71 212h53z" />
    <glyph glyph-name="acircumflex.ss02" horiz-adv-x="987" 
d="M745 682q0 117 -78 200q-79 83 -200 83t-187 -74t-67 -184v-390q0 -111 67 -185q68 -74 188 -73q120 0 199 83t78 200v340zM111 721q0 133 83 228t242 95q88 0 177 -51t139 -155l8 186h88v-1024h-88l-8 197q-34 -83 -96 -135t-115 -67t-105 -15q-160 0 -242 95t-83 228
v418zM496 1354l-168 -228h-84l211 287h80l213 -287h-84z" />
    <glyph glyph-name="adieresis.ss02" horiz-adv-x="987" 
d="M745 682q0 117 -78 200q-79 83 -200 83t-187 -74t-67 -184v-390q0 -111 67 -185q68 -74 188 -73q120 0 199 83t78 200v340zM111 721q0 133 83 228t242 95q88 0 177 -51t139 -155l8 186h88v-1024h-88l-8 197q-34 -83 -96 -135t-115 -67t-105 -15q-160 0 -242 95t-83 228
v418zM762 1178h-103v260h103v-260zM328 1178h-103v260h103v-260z" />
    <glyph glyph-name="agrave.ss02" horiz-adv-x="987" 
d="M745 682q0 117 -78 200q-79 83 -200 83t-187 -74t-67 -184v-390q0 -111 67 -185q68 -74 188 -73q120 0 199 83t78 200v340zM111 721q0 133 83 228t242 95q88 0 177 -51t139 -155l8 186h88v-1024h-88l-8 197q-34 -83 -96 -135t-115 -67t-105 -15q-160 0 -242 95t-83 228
v418zM459 1126l-215 287h88l203 -287h-76z" />
    <glyph glyph-name="amacron.ss02" horiz-adv-x="987" 
d="M745 682q0 117 -78 200q-79 83 -200 83t-187 -74t-67 -184v-390q0 -111 67 -185q68 -74 188 -73q120 0 199 83t78 200v340zM111 721q0 133 83 228t242 95q88 0 177 -51t139 -155l8 186h88v-1024h-88l-8 197q-34 -83 -96 -135t-115 -67t-105 -15q-160 0 -242 95t-83 228
v418zM795 1194h-600v68h600v-68z" />
    <glyph glyph-name="aogonek.ss02" horiz-adv-x="987" 
d="M745 342v340q0 117 -78 200q-79 83 -200 83t-187 -74t-67 -184v-390q0 -111 67 -185q68 -74 188 -73q120 0 199 83q78 83 78 200zM602 -282q0 70 50 149q50 78 128 133h-20l-8 197q-34 -83 -96 -135t-115 -67t-105 -15q-160 0 -242 95t-83 228v418q0 133 83 228t242 95
q88 0 177 -51t139 -155l8 186h88v-1024h-14q-62 -47 -110 -125t-48 -135q0 -104 108 -105q60 1 134 46l14 -41q-76 -60 -156 -60q-174 -2 -174 138z" />
    <glyph glyph-name="aring.ss02" horiz-adv-x="987" 
d="M745 682q0 117 -78 200q-79 83 -200 83t-187 -74t-67 -184v-390q0 -111 67 -185q68 -74 188 -73q120 0 199 83t78 200v340zM111 721q0 133 83 228t242 95q88 0 177 -51t139 -155l8 186h88v-1024h-88l-8 197q-34 -83 -96 -135t-115 -67t-105 -15q-160 0 -242 95t-83 228
v418zM657 1290q-1 64 -41 102t-121 38t-122 -38t-41 -102t41 -101q41 -38 122 -38t121 38t41 101zM496 1106q-106 0 -167 47q-60 47 -61 137q0 90 60 137t168 47q106 0 166 -46q60 -48 61 -138q-1 -90 -61 -137t-166 -47z" />
    <glyph glyph-name="atilde.ss02" horiz-adv-x="987" 
d="M745 682q0 117 -78 200q-79 83 -200 83t-187 -74t-67 -184v-390q0 -111 67 -185q68 -74 188 -73q120 0 199 83t78 200v340zM111 721q0 133 83 228t242 95q88 0 177 -51t139 -155l8 186h88v-1024h-88l-8 197q-34 -83 -96 -135t-115 -67t-105 -15q-160 0 -242 95t-83 228
v418zM729 1325h64q0 -94 -42 -138q-43 -44 -99 -44t-160 56t-142 56q-38 1 -66 -27q-26 -28 -26 -85h-63q0 94 42 138t97 44q54 0 160 -57q106 -58 143 -58t65 28t27 87z" />
    <glyph glyph-name="T_h" horiz-adv-x="1937" 
d="M1167 1434v-592q47 102 135 152t177 50q159 0 241 -95t82 -228v-721h-102v707q0 111 -67 185t-187 73q-120 0 -200 -83q-79 -83 -79 -200v-682h-102v1346h-547v-1346h-106v1346h-365v88h1120z" />
    <glyph glyph-name="Tcaron_h" horiz-adv-x="1937" 
d="M1167 1434v-592q47 102 135 152t177 50q159 0 241 -95t82 -228v-721h-102v707q0 111 -67 185t-187 73q-120 0 -200 -83q-79 -83 -79 -200v-682h-102v1346h-547v-1346h-106v1346h-365v88h1120zM498 1536h-80l-213 287h84l168 -228l168 228h84z" />
    <glyph glyph-name="uni021A_h" horiz-adv-x="1933" 
d="M418 -154h92v-182l-86 -276h-78l72 276v182zM1165 1434v-592q47 102 134 152t178 50q159 0 241 -95t82 -228v-721h-102v707q0 111 -67 185t-187 73q-120 0 -200 -83q-79 -83 -79 -200v-682h-102v1346h-547v-1346h-106v1346h-365v88h1120z" />
    <glyph glyph-name="f_f_j" horiz-adv-x="1525" 
d="M1284 -195v1219h102v-1229q0 -129 -56 -177t-146 -48t-178 20l8 78q72 -18 140 -18t100 38q30 38 30 117zM956 1475h430v-297h-102v217h-297q-84 0 -115 -38t-30 -118v-215h260v-74h-260v-950h-103v950h-444v-950h-102v950h-148v74h148v246q0 129 56 177q57 48 147 48
t177 -20l-8 -78q-71 18 -139 18t-100 -38t-31 -117v-236h444v225q1 129 57 177t160 49z" />
    <glyph glyph-name="f_j" horiz-adv-x="980" 
d="M739 -195v1219h103v-1229q0 -129 -56 -177t-147 -48q-90 0 -178 20l8 78q67 -18 137 -18t102 38t31 117zM412 1475h430v-297h-103v217h-297q-84 0 -116 -38t-31 -118v-215h260v-74h-260v-950h-102v950h-148v74h148v225q1 129 57 177t162 49z" />
    <glyph glyph-name="zero.lf" horiz-adv-x="1171" 
d="M242 1067v-700q0 -141 100 -221t244 -78q144 0 243 78q100 78 101 221v700q0 141 -100 220t-244 79t-244 -79t-100 -220zM1036 1067v-700q0 -183 -132 -285t-318 -102t-319 101q-132 101 -132 286v700q0 183 132 285q133 102 319 102t318 -102t132 -285z" />
    <glyph glyph-name="one.lf" horiz-adv-x="872" 
d="M510 88h317v-88h-741v88h317v1258h-317v88h424v-1346z" />
    <glyph glyph-name="two.lf" horiz-adv-x="1105" 
d="M999 1067v-20q0 -93 -44 -177t-124 -156t-240 -176q-159 -104 -229 -160q-157 -126 -157 -272v-18h794v-88h-903v104q0 92 44 176t114 146q70 64 155 122t170 114t155 113q158 127 157 274v18q0 141 -99 220q-98 79 -242 79t-238 -78t-93 -221v-68h-102v68q0 187 124 287
t308 100t317 -102t133 -285z" />
    <glyph glyph-name="three.lf" horiz-adv-x="1112" 
d="M123 999v68q0 187 124 287t307 100t305 -93t124 -267q-2 -121 -73 -208t-185 -126q125 -37 203 -127t78 -221v-54q0 -184 -132 -281t-318 -97q-187 0 -320 101t-134 286v67h109v-67q0 -141 99 -221q98 -80 244 -78q146 0 246 77q99 78 99 220v53q0 133 -101 215t-243 82
h-102v88h102q135 0 230 80t98 202q-1 133 -95 207t-235 74t-235 -78t-93 -221v-68h-102z" />
    <glyph glyph-name="four.lf" horiz-adv-x="1142" 
d="M756 494v784l-584 -784h584zM1083 494v-86h-221v-408h-106v408h-703v86l703 940h106v-940h221z" />
    <glyph glyph-name="five.lf" horiz-adv-x="1105" 
d="M252 864h307q187 0 319 -100t132 -287v-110q0 -183 -132 -285t-318 -102t-317 101q-130 101 -130 286v67h102v-67q0 -141 100 -221q99 -80 243 -78q144 0 245 78q100 79 100 221v110q0 143 -99 221t-245 78h-409v658h792v-88h-690v-482z" />
    <glyph glyph-name="six.lf" horiz-adv-x="1142" 
d="M930 367v49q0 143 -100 221t-244 78h-344v-348q0 -141 100 -221t244 -78q144 0 244 79t100 220zM242 803h344q188 -1 319 -101t131 -286v-49q0 -183 -132 -285t-318 -102t-319 101q-132 101 -132 286v700q0 183 132 285q131 102 317 102t309 -100t123 -287v-68h-103v68
q0 143 -93 221t-235 78q-143 0 -243 -79t-100 -220v-264z" />
    <glyph glyph-name="seven.lf" horiz-adv-x="970" 
d="M57 1434h869v-88q-555 -653 -555 -1346h-113q0 348 151 702t410 644h-762v88z" />
    <glyph glyph-name="eight.lf" horiz-adv-x="1116" 
d="M903 365v26q0 133 -101 215q-102 82 -244 82t-242 -82t-101 -215v-26q0 -141 99 -219q98 -78 244 -78t246 77q99 79 99 220zM229 1077v-10q1 -125 97 -208t233 -83t233 83q95 83 95 208v10q0 137 -93 213q-94 76 -236 76t-236 -76t-93 -213zM987 1085v-12
q0 -125 -73 -213t-191 -127q129 -37 208 -125t79 -221v-29q0 -184 -131 -281t-319 -97t-321 97q-132 97 -133 281v29q0 133 80 221t209 125q-119 39 -193 129t-73 211v12q0 177 123 273t307 96t306 -96t122 -273z" />
    <glyph glyph-name="nine.lf" horiz-adv-x="1142" 
d="M557 719h344v348q0 141 -100 220q-99 79 -243 79t-244 -79t-101 -220v-49q-1 -143 99 -221t245 -78zM106 1018v49q0 183 132 285t319 102t319 -101t132 -286v-700q0 -183 -132 -285t-316 -102t-309 100q-124 100 -124 287v67h102v-67q-1 -143 93 -221t236 -78t243 78
q100 79 100 221v264h-344q-187 1 -319 101t-132 286z" />
    <glyph glyph-name="zero.osf" horiz-adv-x="1171" 
d="M242 862v-495q0 -141 100 -221t244 -78q144 0 243 78q100 78 101 221v495q0 141 -100 220t-244 79t-244 -79t-100 -220zM1036 862v-495q0 -183 -132 -285t-318 -102t-319 101q-132 101 -132 286v495q0 184 132 286q133 102 319 101q186 1 318 -101t132 -286z" />
    <glyph glyph-name="one.osf" horiz-adv-x="903" 
d="M537 88h317v-88h-743v88h317v1053h-317v88h426v-1141z" />
    <glyph glyph-name="two.osf" horiz-adv-x="1120" 
d="M1008 866v-20q0 -92 -44 -163t-130 -127t-240 -119q-154 -62 -224 -101q-158 -88 -157 -230v-18h795v-88h-904v104q0 127 82 215q82 87 200 137t235 96t199 119t81 177v18q0 141 -100 218q-99 77 -243 77t-237 -78t-94 -221v-67h-102v67q0 186 124 286t309 101
q185 0 318 -98q132 -99 132 -285z" />
    <glyph glyph-name="three.osf" horiz-adv-x="1110" 
d="M121 795v67q0 186 124 286t307 101q183 0 305 -93t124 -267q-2 -121 -73 -208t-185 -126q125 -37 203 -127t78 -221v-53q0 -184 -132 -282t-318 -97q-187 0 -321 101q-133 101 -133 286v67h109v-67q0 -141 99 -220q98 -79 244 -79t246 78q99 78 99 219v53q0 133 -101 215
t-243 82h-102v88h102q135 0 230 80t98 203q-1 133 -95 207t-235 73q-141 0 -235 -78t-93 -221v-67h-102z" />
    <glyph glyph-name="four.osf" horiz-adv-x="1138" 
d="M752 88v985l-594 -985h594zM1079 88v-88h-221v-205h-106v205h-703v88l703 1141h106v-1141h221z" />
    <glyph glyph-name="five.osf" horiz-adv-x="1118" 
d="M252 680h307q187 0 319 -100t132 -287v-131q0 -184 -132 -286t-318 -101q-186 0 -317 101q-130 101 -130 286v67h102v-67q0 -141 100 -220q99 -79 243 -79t245 79q100 79 100 220v131q0 143 -99 221t-245 78h-409v637h792v-88h-690v-461z" />
    <glyph glyph-name="six.osf" horiz-adv-x="1142" 
d="M930 367v49q0 143 -100 221t-244 78h-344v-348q0 -141 100 -221t244 -78q144 0 244 79t100 220zM242 803h344q188 -1 319 -101t131 -286v-49q0 -183 -132 -285t-318 -102t-319 101q-132 101 -132 286v700q0 183 132 285q131 102 317 102t309 -100t123 -287v-68h-103v68
q0 143 -93 221t-235 78q-143 0 -243 -79t-100 -220v-264z" />
    <glyph glyph-name="seven.osf" horiz-adv-x="1019" 
d="M86 1229h868v-88q-555 -653 -555 -1346h-112q1 349 151 703t410 643h-762v88z" />
    <glyph glyph-name="eight.osf" horiz-adv-x="1116" 
d="M903 365v26q0 133 -101 215q-102 82 -244 82t-242 -82t-101 -215v-26q0 -141 99 -219q98 -78 244 -78t246 77q99 79 99 220zM229 1077v-10q1 -125 97 -208t233 -83t233 83q95 83 95 208v10q0 137 -93 213q-94 76 -236 76t-236 -76t-93 -213zM987 1085v-12
q0 -125 -73 -213t-191 -127q129 -37 208 -125t79 -221v-29q0 -184 -131 -281t-319 -97t-321 97q-132 97 -133 281v29q0 133 80 221t209 125q-119 39 -193 129t-73 211v12q0 177 123 273t307 96t306 -96t122 -273z" />
    <glyph glyph-name="nine.osf" horiz-adv-x="1142" 
d="M555 514h344v348q0 141 -99 220q-100 79 -244 79t-244 -79t-101 -220v-49q-1 -143 99 -221t245 -78zM104 813v49q0 184 132 286t319 101q186 0 319 -101t134 -286v-700q0 -184 -134 -286t-317 -101q-184 0 -308 100t-124 287v67h102v-67q-1 -143 93 -221t237 -78t243 79
q99 79 99 220v264h-344q-187 0 -319 100t-132 287z" />
    <glyph glyph-name="zero.subs" horiz-adv-x="718" 
d="M158 379v-418q0 -82 59 -129t143 -47t143 47q58 47 58 129v418q0 82 -58 129q-59 47 -143 47t-143 -47t-59 -129zM633 379v-418q0 -111 -80 -172t-194 -61q-113 0 -193 61t-80 172v418q0 111 80 172t194 61t193 -61q80 -61 80 -172z" />
    <glyph glyph-name="one.subs" horiz-adv-x="534" 
d="M317 -203h191v-57h-451v57h191v746h-191v57h260v-803z" />
    <glyph glyph-name="two.subs" horiz-adv-x="684" 
d="M612 379v-12q0 -76 -49 -142q-49 -65 -119 -111t-140 -91q-168 -108 -167 -216v-10h475v-57h-546v67q0 76 49 142q49 65 119 111t139 92q168 109 168 215v12q-1 82 -59 129t-142 47t-139 -47t-56 -129v-41h-67v41q0 113 75 173t187 60t192 -61t80 -172z" />
    <glyph glyph-name="three.subs" horiz-adv-x="688" 
d="M600 399v-10q0 -145 -147 -194q160 -53 159 -207v-33q0 -111 -78 -169t-193 -58q-114 0 -194 61t-79 172v41h69v-41q-1 -82 59 -129t145 -47t143 46t59 130v29q1 78 -59 127t-144 49h-61v57h61q82 0 137 44t55 118v8q0 80 -54 121t-138 41t-138 -46t-55 -130v-41h-67v41
q0 113 74 173t188 60t186 -54t72 -159z" />
    <glyph glyph-name="four.subs" horiz-adv-x="690" 
d="M451 39v459l-342 -459h342zM653 39v-57h-131v-242h-71v242h-420v57l420 561h71v-561h131z" />
    <glyph glyph-name="five.subs" horiz-adv-x="677" 
d="M162 260h180q115 0 195 -61t79 -172v-66q0 -111 -80 -172t-193 -61t-191 61t-78 172v41h67v-41q1 -82 59 -129t143 -47t144 47t60 129v66q1 84 -59 130t-146 46h-248v397h481v-57h-413v-283z" />
    <glyph glyph-name="six.subs" horiz-adv-x="702" 
d="M561 -39v29q0 84 -58 130t-143 46h-202v-205q0 -82 59 -129t143 -47t143 47q58 47 58 129zM158 223h202q113 0 193 -61t80 -172v-29q0 -111 -80 -172t-194 -61q-113 0 -193 61t-80 172v418q0 111 80 172t192 61t188 -61q75 -61 75 -172v-41h-68v41q0 82 -55 129
q-54 47 -138 47t-143 -47t-59 -129v-156z" />
    <glyph glyph-name="seven.subs" horiz-adv-x="575" 
d="M35 600h522v-57q-330 -391 -330 -803h-73q0 209 89 420t244 383h-452v57z" />
    <glyph glyph-name="eight.subs" horiz-adv-x="694" 
d="M551 -39v14q0 78 -59 126q-60 49 -144 49t-143 -48t-60 -127v-14q1 -84 59 -130t144 -46t145 46q58 46 58 130zM154 385v-6q0 -74 56 -123t138 -49t137 49t56 123v6q-1 80 -55 125t-138 45t-139 -45t-55 -125zM606 391v-8q0 -74 -43 -127t-112 -76q170 -51 170 -209v-16
q0 -111 -80 -169t-194 -58q-113 0 -193 58t-80 169v16q0 80 47 133t125 76q-72 25 -115 78t-43 125v8q0 105 74 163t186 58t184 -58q74 -58 74 -163z" />
    <glyph glyph-name="nine.subs" horiz-adv-x="700" 
d="M342 174h203v205q1 82 -59 129t-144 47t-143 -47t-60 -129v-29q1 -84 59 -130t144 -46zM70 350v29q0 111 80 172t192 61t193 -61q80 -61 79 -172v-418q0 -111 -80 -172t-192 -61t-186 60t-74 173v41h68v-41q0 -84 54 -130t138 -46t143 47t60 129v156h-203q-112 0 -192 61
t-80 172z" />
    <glyph glyph-name="zero.tf" 
d="M238 1067v-700q0 -141 100 -221t244 -78q144 0 244 78q99 78 100 221v700q0 141 -100 220t-243 79q-145 0 -245 -79t-100 -220zM1034 1067v-700q0 -183 -133 -285t-319 -102t-319 101q-132 101 -132 286v700q0 183 132 285q133 102 319 102t319 -102t133 -285z" />
    <glyph glyph-name="one.tf" 
d="M655 88h318v-88h-744v88h320v1258h-320v88h426v-1346z" />
    <glyph glyph-name="two.tf" 
d="M1028 1067v-20q0 -93 -44 -177t-126 -157t-240 -176q-157 -103 -227 -159q-156 -125 -158 -272v-18h795v-88h-901v104q0 92 44 176t122 153q77 70 239 178t232 164q158 126 158 274v18q0 141 -100 220t-243 79q-141 0 -235 -78t-94 -221v-68h-103v68q0 187 123 287
q122 100 308 100t318 -102t132 -285z" />
    <glyph glyph-name="three.tf" 
d="M150 999v68q0 186 122 287q122 100 306 100t306 -93t124 -267q-2 -121 -73 -208t-185 -126q124 -37 202 -127t78 -221v-54q0 -184 -131 -281t-318 -97t-320 101q-132 101 -132 286v67h107v-67q0 -141 100 -221t244 -78q144 0 244 78q99 78 100 219v53q0 133 -102 215
t-242 82h-103v88h103q135 0 230 80q95 79 95 207t-93 202t-233 74q-139 0 -233 -78t-94 -221v-68h-102z" />
    <glyph glyph-name="four.tf" 
d="M764 494v784l-582 -784h582zM1092 494v-86h-220v-408h-108v408h-703v86l703 940h108v-940h220z" />
    <glyph glyph-name="five.tf" 
d="M283 885h307q188 -1 319 -101t131 -286v-131q0 -183 -132 -285t-318 -102t-317 101q-130 101 -130 286v67h103v-67q0 -141 100 -221t244 -78q144 0 244 78q100 79 100 221v131q0 143 -99 221t-245 78h-410v637h793v-88h-690v-461z" />
    <glyph glyph-name="six.tf" 
d="M940 367v49q0 143 -99 221t-245 78h-344v-348q0 -141 100 -221t244 -78q144 0 245 78q99 80 99 221zM252 803h344q188 -1 320 -101t133 -286v-49q1 -183 -133 -285t-320 -102t-318 101t-133 286v700q1 183 133 285t317 102t309 -100t124 -287v-68h-102v68q0 143 -93 221
t-237 78t-244 -79t-100 -220v-264z" />
    <glyph glyph-name="seven.tf" 
d="M162 1434h868v-88q-555 -653 -555 -1346h-113q0 348 151 702t409 644h-760v88z" />
    <glyph glyph-name="eight.tf" 
d="M926 365v26q0 133 -100 215t-243 82q-141 0 -243 -82t-102 -215v-26q0 -141 99 -219t245 -78t244 78q100 78 100 219zM254 1077v-10q0 -125 95 -208t233 -83t233 83q96 83 96 208v10q0 137 -93 213t-235 76q-141 0 -235 -76t-94 -213zM1012 1085v-12q0 -125 -73 -213
t-191 -127q130 -37 208 -125t78 -221v-29q0 -184 -132 -281t-320 -97t-320 97q-131 97 -131 281v29q0 133 80 221t209 125q-119 39 -193 129t-73 211v12q0 178 121 274q123 95 307 95t307 -96t123 -273z" />
    <glyph glyph-name="nine.tf" 
d="M567 719h344v348q0 141 -99 220q-100 79 -244 79t-244 -79t-101 -220v-49q-1 -143 99 -221t245 -78zM117 1018v49q0 183 132 285t318 102q185 0 319 -101t134 -286v-700q0 -183 -133 -285t-317 -102t-309 100q-124 100 -124 287v67h103v-67q0 -143 93 -221t236 -78
t243 78q99 79 99 221v264h-344q-186 1 -318 101t-132 286z" />
    <glyph glyph-name="zero.tosf" 
d="M238 862v-495q0 -141 100 -221t244 -78q144 0 244 78q99 78 100 221v495q0 141 -100 220t-243 79q-145 0 -245 -79t-100 -220zM1034 862v-495q0 -183 -133 -285t-319 -102t-319 101q-132 101 -132 286v495q0 184 132 286q133 102 319 101q186 1 319 -101t133 -286z" />
    <glyph glyph-name="one.tosf" 
d="M666 88h317v-88h-743v88h319v1053h-319v88h426v-1141z" />
    <glyph glyph-name="two.tosf" 
d="M1028 866v-20q0 -92 -44 -163t-130 -128t-240 -118q-153 -62 -223 -101q-156 -87 -158 -230v-18h795v-88h-901v104q0 127 82 215q82 87 199 137q118 50 234 96t198 119t82 177v18q0 141 -100 218t-243 77q-141 0 -235 -78t-94 -221v-67h-103v67q0 186 123 286
q124 100 310 101q186 -1 317 -99t131 -284z" />
    <glyph glyph-name="three.tosf" 
d="M150 795v67q0 186 122 287q122 100 306 100t306 -93t124 -267q-2 -121 -73 -208t-185 -126q124 -37 202 -127t78 -221v-53q0 -184 -131 -282t-318 -97q-187 0 -320 101q-132 101 -132 286v67h107v-67q0 -141 100 -220t244 -79t244 78q99 78 100 219v53q0 133 -102 215
t-242 82h-103v88h103q135 0 230 80t95 208t-93 202t-233 73q-139 0 -233 -78t-94 -221v-67h-102z" />
    <glyph glyph-name="four.tosf" 
d="M762 88v985l-592 -985h592zM1090 88v-88h-220v-205h-108v205h-703v88l703 1141h108v-1141h220z" />
    <glyph glyph-name="five.tosf" 
d="M283 680h307q188 0 319 -100t131 -287v-131q0 -184 -132 -286t-318 -101q-186 0 -317 101q-130 101 -130 286v67h103v-67q0 -141 100 -220t244 -79t244 79t100 220v131q0 143 -99 221t-245 78h-410v637h793v-88h-690v-461z" />
    <glyph glyph-name="six.tosf" 
d="M940 367v49q0 143 -99 221t-245 78h-344v-348q0 -141 100 -221t244 -78q144 0 245 78q99 80 99 221zM252 803h344q188 -1 320 -101t133 -286v-49q1 -183 -133 -285t-320 -102t-318 101t-133 286v700q1 183 133 285t317 102t309 -100t124 -287v-68h-102v68q0 143 -93 221
t-237 78t-244 -79t-100 -220v-264z" />
    <glyph glyph-name="seven.tosf" 
d="M168 1229h866v-88q-555 -653 -555 -1346h-112q1 349 151 703t410 643h-760v88z" />
    <glyph glyph-name="eight.tosf" 
d="M926 365v26q0 133 -100 215t-243 82q-141 0 -243 -82t-102 -215v-26q0 -141 99 -219t245 -78t244 78q100 78 100 219zM254 1077v-10q0 -125 95 -208t233 -83t233 83q96 83 96 208v10q0 137 -93 213t-235 76q-141 0 -235 -76t-94 -213zM1012 1085v-12q0 -125 -73 -213
t-191 -127q130 -37 208 -125t78 -221v-29q0 -184 -132 -281t-320 -97t-320 97q-131 97 -131 281v29q0 133 80 221t209 125q-119 39 -193 129t-73 211v12q0 178 121 274q123 95 307 95t307 -96t123 -273z" />
    <glyph glyph-name="nine.tosf" 
d="M565 514h344v348q0 141 -99 220q-100 79 -244 79t-244 -79t-101 -220v-49q-1 -143 99 -221t245 -78zM115 813v49q0 184 132 286t318 101q185 0 319 -101t134 -286v-700q0 -184 -133 -286t-317 -101q-184 0 -309 100q-124 100 -124 287v67h103v-67q0 -143 93 -221t236 -78
t243 79q99 79 99 220v264h-344q-186 0 -318 100t-132 287z" />
    <glyph glyph-name="zero.dnom" horiz-adv-x="718" 
d="M158 639v-418q0 -82 59 -129t143 -47t143 47q58 47 58 129v418q0 82 -58 129q-59 47 -143 47t-143 -47t-59 -129zM633 639v-418q0 -111 -80 -172t-194 -61q-113 0 -193 61t-80 172v418q0 111 80 172t194 61t193 -61q80 -61 80 -172z" />
    <glyph glyph-name="one.dnom" horiz-adv-x="534" 
d="M317 57h191v-57h-451v57h191v746h-191v57h260v-803z" />
    <glyph glyph-name="two.dnom" horiz-adv-x="681" 
d="M612 639v-12q0 -76 -49 -142q-49 -65 -119 -111t-140 -91q-168 -108 -167 -215v-11h475v-57h-546v68q0 76 49 142t119 111q70 46 139 91q168 108 168 215v12q-1 82 -59 129t-142 47t-139 -47t-56 -129v-41h-67v41q0 113 75 173t187 60t192 -61t80 -172z" />
    <glyph glyph-name="three.dnom" horiz-adv-x="688" 
d="M600 659v-10q0 -145 -147 -194q160 -53 159 -207v-33q0 -111 -78 -169t-193 -58q-114 0 -194 61t-79 172v41h69v-41q-1 -82 59 -129t145 -47t143 46t59 130v29q1 78 -59 127t-144 49h-61v57h61q82 0 137 44t55 118v8q0 80 -54 121t-138 41t-138 -46t-55 -130v-41h-67v41
q0 113 74 173t188 60t186 -54t72 -159z" />
    <glyph glyph-name="four.dnom" horiz-adv-x="694" 
d="M453 299v459l-342 -459h342zM655 299v-57h-131v-242h-71v242h-420v57l420 561h71v-561h131z" />
    <glyph glyph-name="five.dnom" horiz-adv-x="677" 
d="M162 530h180q115 0 195 -61t79 -172v-76q0 -111 -80 -172t-193 -61t-191 61t-78 172v41h67v-41q1 -82 59 -129t143 -47t144 47t60 129v76q1 84 -59 130t-146 46h-248v387h481v-57h-413v-273z" />
    <glyph glyph-name="six.dnom" horiz-adv-x="700" 
d="M561 221v29q0 84 -58 130t-143 46h-202v-205q0 -82 59 -129t143 -47t143 47q58 47 58 129zM158 483h202q113 0 193 -61t80 -172v-29q0 -111 -80 -172t-194 -61q-113 0 -193 61t-80 172v418q0 111 80 172t192 61t188 -61q75 -61 75 -172v-41h-68v41q0 82 -55 129
q-54 47 -138 47t-143 -47t-59 -129v-156z" />
    <glyph glyph-name="seven.dnom" horiz-adv-x="573" 
d="M35 860h524v-57q-330 -391 -330 -803h-73q0 209 89 420t242 383h-452v57z" />
    <glyph glyph-name="eight.dnom" horiz-adv-x="694" 
d="M551 221v15q0 78 -59 126q-60 48 -144 48t-143 -48t-60 -126v-15q1 -84 59 -130t144 -46t145 46q58 46 58 130zM154 645v-6q0 -74 56 -123t138 -49t137 49t56 123v6q-1 80 -55 125t-138 45t-139 -45t-55 -125zM606 651v-8q0 -74 -43 -127t-112 -76q170 -51 170 -209v-16
q0 -111 -80 -169t-194 -58q-113 0 -193 58t-80 169v16q0 79 47 133t125 76q-72 25 -115 78t-43 125v8q0 105 74 163t186 58t184 -58q74 -58 74 -163z" />
    <glyph glyph-name="nine.dnom" horiz-adv-x="700" 
d="M342 434h203v205q1 82 -59 129t-144 47t-143 -47t-60 -129v-29q1 -84 59 -130t144 -46zM70 610v29q0 111 80 172t192 61t193 -61q80 -61 79 -172v-418q0 -111 -80 -172t-192 -61t-186 60t-74 173v41h68v-41q0 -84 54 -130t138 -46t143 47t60 129v156h-203q-112 0 -192 61
t-80 172z" />
    <glyph glyph-name="zero.numr" horiz-adv-x="718" 
d="M158 1212v-417q0 -82 59 -129q59 -48 143 -48t142 48t59 129v417q0 82 -58 129q-59 47 -143 47t-143 -46q-59 -48 -59 -130zM633 1212v-417q0 -111 -80 -172t-194 -61q-113 0 -193 60q-80 62 -80 173v417q0 111 80 172q80 62 194 62t193 -62q80 -62 80 -172z" />
    <glyph glyph-name="one.numr" horiz-adv-x="534" 
d="M317 631h191v-58h-451v58h191v745h-191v58h260v-803z" />
    <glyph glyph-name="two.numr" horiz-adv-x="681" 
d="M612 1212v-12q0 -76 -49 -142t-119 -111q-70 -46 -140 -91q-168 -108 -167 -215v-10h475v-58h-546v68q0 75 49 141t119 112t139 91q168 108 168 215v12q-1 82 -59 129t-142 47t-139 -46q-55 -48 -56 -130v-41h-67v41q0 113 75 173q75 61 187 61t192 -62t80 -172z" />
    <glyph glyph-name="three.numr" horiz-adv-x="688" 
d="M600 1233v-10q0 -145 -147 -195q160 -53 159 -207v-33q0 -110 -78 -168t-193 -58q-114 0 -194 60q-80 62 -79 173v41h69v-41q-1 -82 59 -129q60 -48 145 -48t143 46t59 131v28q1 78 -59 127t-144 49h-61v58h61q82 0 137 44t55 118v8q0 80 -54 121t-138 41
q-84 -1 -138 -47t-55 -130v-41h-67v41q0 113 74 173q74 61 188 61t186 -54t72 -159z" />
    <glyph glyph-name="four.numr" horiz-adv-x="694" 
d="M453 872v459l-342 -459h342zM655 872v-57h-131v-242h-71v242h-420v57l420 562h71v-562h131z" />
    <glyph glyph-name="five.numr" horiz-adv-x="677" 
d="M162 1104h180q115 0 195 -62t79 -172v-75q0 -111 -80 -172t-193 -61t-191 60q-78 62 -78 173v41h67v-41q1 -82 59 -129q58 -48 143 -48t144 48t60 129v75q1 84 -59 130t-146 47h-248v387h481v-58h-413v-272z" />
    <glyph glyph-name="six.numr" horiz-adv-x="700" 
d="M561 795v28q0 84 -58 130t-143 46h-202v-204q0 -82 59 -129q59 -48 143 -48t142 48t59 129zM158 1057h202q113 1 193 -61t80 -173v-28q0 -111 -80 -172t-194 -61q-113 0 -193 60q-80 62 -80 173v417q0 111 80 172q80 62 192 62t188 -62q75 -62 75 -172v-41h-68v41
q0 82 -55 129q-54 47 -138 47t-143 -46q-59 -48 -59 -130v-155z" />
    <glyph glyph-name="seven.numr" horiz-adv-x="573" 
d="M35 1434h524v-58q-330 -391 -330 -803h-73q0 209 89 420t242 383h-452v58z" />
    <glyph glyph-name="eight.numr" horiz-adv-x="694" 
d="M551 795v14q0 78 -59 126q-60 48 -144 48t-143 -48t-60 -126v-14q1 -84 59 -130q58 -47 144 -47t144 46t59 131zM154 1219v-7q0 -74 56 -122t138 -50q82 0 137 50t56 122v7q-1 81 -55 125t-138 44t-139 -44q-55 -45 -55 -125zM606 1225v-8q0 -74 -43 -127t-112 -76
q170 -51 170 -209v-17q0 -110 -80 -168t-194 -58q-113 0 -193 58t-80 168v17q0 80 47 133t125 76q-72 25 -115 78t-43 125v8q0 105 74 163t186 58t184 -58q74 -58 74 -163z" />
    <glyph glyph-name="nine.numr" horiz-adv-x="700" 
d="M342 1008h203v204q1 82 -59 129t-144 47t-143 -46q-59 -48 -60 -130v-28q1 -84 59 -130t144 -46zM70 1184v28q0 111 80 172q80 62 192 62t193 -62q80 -62 79 -172v-417q0 -111 -80 -172t-192 -61t-186 60t-74 173v41h68v-41q0 -84 54 -130q54 -47 138 -47t143 48t60 129
v155h-203q-112 0 -192 62t-80 172z" />
    <glyph glyph-name="colonmonetary.osf" horiz-adv-x="1155" 
d="M242 438l667 750q-31 68 -92 110l-575 -653v-207zM573 1366q-131 0 -231 -79t-100 -220v-369l549 617q-88 51 -218 51zM1036 922h-102v145q0 47 -12 86l-680 -764v-22q0 -143 99 -221t245 -78t247 77q101 78 101 222v145h102v-145q0 -183 -132 -285t-318 -102t-319 101
q-132 101 -132 286v700q0 183 132 285q133 102 319 102t318 -101t132 -286v-145z" />
    <glyph glyph-name="colonmonetary.tf" 
d="M246 438l669 752q-29 61 -92 108l-577 -653v-207zM577 1366q-131 0 -231 -79t-100 -220v-369l549 619q-88 49 -218 49zM1042 922h-102v145q0 47 -12 86l-682 -766v-20q0 -143 99 -221t245 -78t249 77q101 78 101 222v145h102v-145q0 -183 -133 -285t-319 -102t-319 101
q-132 101 -132 286v700q0 183 132 285q133 102 319 102t319 -101t133 -286v-145z" />
    <glyph glyph-name="colonmonetary.tosf" 
d="M246 438l669 752q-29 61 -92 108l-577 -653v-207zM577 1366q-131 0 -231 -79t-100 -220v-369l549 619q-88 49 -218 49zM1042 922h-102v145q0 47 -12 86l-682 -766v-20q0 -143 99 -221t245 -78t249 77q101 78 101 222v145h102v-145q0 -183 -133 -285t-319 -102t-319 101
q-132 101 -132 286v700q0 183 132 285q133 102 319 102t319 -101t133 -286v-145z" />
    <glyph glyph-name="cent.osf" horiz-adv-x="903" 
d="M502 -205h-62v185q-326 14 -325 329v406q0 315 325 329v185h62v-185q143 -6 297 -61l-19 -80q-154 61 -288 62q-274 0 -275 -258v-390q0 -258 275 -258q134 1 288 62l19 -80q-154 -55 -297 -61v-185z" />
    <glyph glyph-name="currency.osf" horiz-adv-x="913" 
d="M141 532v-40q0 -162 92 -235q91 -73 225 -73t226 73t92 235v40q0 162 -92 235t-225 73t-225 -73t-93 -235zM797 532v-40q0 -199 -146 -281l74 -119h-20l-68 111q-80 -39 -178 -39t-178 39l-68 -111h-20l71 119q-143 84 -143 281v40q0 197 143 281l-71 119h20l68 -111
q80 39 178 39t178 -39l68 111h20l-74 -119q146 -86 146 -281z" />
    <glyph glyph-name="dollar.osf" horiz-adv-x="1087" 
d="M219 1108v-18q0 -88 57 -153q58 -65 144 -99q224 -89 375 -163q86 -42 143 -121t57 -187v-21q0 -174 -121 -266t-301 -100v-185h-59v185q-178 8 -300 108t-122 279v145h103v-145q0 -143 101 -221t249 -78t245 68t97 206v18q0 102 -80 174t-194 114q-113 42 -227 90
t-194 135t-79 214v21q0 158 114 248q115 90 287 98v184h59v-184q174 -10 288 -109t114 -278v-145h-103v145q0 143 -93 221t-234 78t-233 -70t-93 -188z" />
    <glyph glyph-name="Euro.osf" horiz-adv-x="1222" 
d="M1102 922h-103v145q0 141 -101 220q-102 79 -246 79t-244 -79t-101 -220v-178h299v-64h-299v-198h299v-64h-299v-196q-1 -143 99 -221t245 -78t247 77q101 78 101 222v145h103v-145q0 -183 -132 -285t-318 -102t-319 101q-132 101 -132 286v196h-119v64h119v198h-119v64
h119v178q0 183 132 285t318 102q187 0 319 -101t132 -286v-145z" />
    <glyph glyph-name="percent.osf" horiz-adv-x="1574" 
d="M997 639v-418q-1 -82 59 -129t144 -47t143 47t60 129v418q1 82 -59 129t-144 47t-144 -47t-59 -129zM1473 639v-418q0 -111 -80 -172t-194 -61q-113 0 -193 61t-80 172v418q0 111 80 172t194 61t193 -61q80 -61 80 -172zM174 1219v-416q0 -84 58 -130t144 -46t143 46
q58 46 59 130v416q0 84 -58 130t-144 46t-144 -46t-58 -130zM426 0h-61l778 1434h61zM649 1219v-416q0 -113 -80 -174q-79 -61 -193 -61t-194 60q-80 62 -80 175v416q0 111 81 173t194 62t193 -62t79 -173z" />
    <glyph glyph-name="perthousand.osf" horiz-adv-x="2265" 
d="M1690 639v-418q0 -82 59 -129t143 -47t143 47q58 47 58 129v418q0 82 -58 129q-59 47 -143 47t-143 -47t-59 -129zM997 639v-418q-1 -82 59 -129t144 -47t143 47t60 129v418q1 82 -59 129t-144 47t-144 -47t-59 -129zM2165 639v-418q0 -111 -80 -172t-194 -61
q-113 0 -193 61t-80 172v418q0 111 80 172t194 61t193 -61q80 -61 80 -172zM1473 639v-418q0 -111 -80 -172t-194 -61q-113 0 -193 61t-80 172v418q0 111 80 172t194 61t193 -61q80 -61 80 -172zM174 1219v-416q0 -84 58 -130t144 -46t143 46q58 46 59 130v416q0 84 -58 130
t-144 46t-144 -46t-58 -130zM426 0h-61l778 1434h61zM649 1219v-416q0 -113 -80 -174q-79 -61 -193 -61t-194 60q-80 62 -80 175v416q0 111 81 173t194 62t193 -62t79 -173z" />
    <glyph glyph-name="uni20A8.osf" horiz-adv-x="1329" 
d="M1247 1434v-78h-291q92 -70 117 -197h174v-78h-166v-65q0 -274 -258 -338q180 -47 224 -307l57 -371h-107l-55 362q-28 181 -121 231q-49 26 -96 33t-125 7h-453v80h525q143 1 223 69t80 209v90h-828v78h820q-49 197 -295 197h-525v78h1100z" />
    <glyph glyph-name="sterling.osf" horiz-adv-x="1163" 
d="M293 88h758v-88h-949v88h82v487h-82v89h82v444q0 164 124 255t307 91t307 -100t125 -287v-145h-103v145q0 143 -93 221t-235 78t-232 -70q-91 -70 -91 -188v-444h321v-89h-321v-487z" />
    <glyph glyph-name="yen.osf" horiz-adv-x="1157" 
d="M936 592v-84h-307v-508h-107v508h-307v84h287l-453 842h115l414 -777l415 777h115l-459 -842h287z" />
    <glyph glyph-name="cent.tf" 
d="M631 -205h-60v185q-328 14 -327 329v406q0 315 327 329v185h60v-185q143 -4 297 -61l-19 -80q-150 61 -288 62q-274 0 -275 -258v-390q0 -258 275 -258q138 1 288 62l19 -80q-154 -57 -297 -61v-185z" />
    <glyph glyph-name="currency.tf" 
d="M264 532v-40q0 -162 92 -235t226 -73t225 73q92 73 92 235v40q0 162 -92 235t-225 73q-134 0 -226 -73t-92 -235zM920 532v-40q0 -199 -146 -281l74 -119h-21l-67 111q-80 -39 -178 -39t-179 39l-67 -111h-21l72 119q-143 84 -143 281v40q0 197 143 281l-72 119h21
l67 -111q81 39 179 39t178 -39l67 111h21l-74 -119q146 -86 146 -281z" />
    <glyph glyph-name="dollar.tf" 
d="M258 1108v-18q0 -88 57 -153t143 -99q224 -89 376 -163q86 -42 143 -121t57 -187v-21q0 -174 -121 -266t-301 -100v-185h-59v185q-178 8 -300 108t-122 279v145h102v-145q-1 -143 101 -221t250 -78t244 68t98 206v18q0 102 -80 174t-194 114t-228 90t-193 135
q-80 87 -79 214v21q0 158 114 248q115 90 287 98v184h59v-184q174 -10 288 -109t114 -278v-145h-103v145q0 143 -93 221t-234 78q-142 0 -234 -70t-92 -188z" />
    <glyph glyph-name="Euro.tf" 
d="M1073 922h-102v145q1 141 -101 220t-246 79t-244 -79t-101 -220v-178h301v-64h-301v-198h301v-64h-301v-196q0 -143 99 -221q98 -78 244 -78t247 78t102 221v145h102v-145q0 -183 -132 -285t-318 -102t-319 101q-132 101 -132 286v196h-119v64h119v198h-119v64h119v178
q0 183 132 285t318 102t319 -101q132 -101 132 -286v-145z" />
    <glyph glyph-name="uni20A8.tf" 
d="M1100 1434v-78h-289q92 -70 117 -197h172v-78h-164v-65q0 -276 -260 -338q184 -47 223 -307l59 -371h-108l-55 362q-28 181 -121 231q-49 26 -96 33t-125 7h-332v80h403q303 0 303 278v90h-706v78h698q-45 197 -295 197h-403v78h979z" />
    <glyph glyph-name="sterling.tf" 
d="M293 88h758v-88h-949v88h82v487h-82v89h82v444q0 164 124 255t307 91t307 -100t125 -287v-145h-103v145q0 143 -93 221t-235 78t-232 -70q-91 -70 -91 -188v-444h321v-89h-321v-487z" />
    <glyph glyph-name="yen.tf" 
d="M940 592v-84h-307v-508h-107v508h-307v84h287l-449 842h115l410 -777l411 777h115l-455 -842h287z" />
    <glyph glyph-name="cent.tosf" 
d="M631 -205h-60v185q-328 14 -327 329v406q0 315 327 329v185h60v-185q143 -4 297 -61l-19 -80q-150 61 -288 62q-274 0 -275 -258v-390q0 -258 275 -258q138 1 288 62l19 -80q-154 -57 -297 -61v-185z" />
    <glyph glyph-name="currency.tosf" 
d="M264 532v-40q0 -162 92 -235t226 -73t225 73q92 73 92 235v40q0 162 -92 235t-225 73q-134 0 -226 -73t-92 -235zM920 532v-40q0 -199 -146 -281l74 -119h-21l-67 111q-80 -39 -178 -39t-179 39l-67 -111h-21l72 119q-143 84 -143 281v40q0 197 143 281l-72 119h21
l67 -111q81 39 179 39t178 -39l67 111h21l-74 -119q146 -86 146 -281z" />
    <glyph glyph-name="dollar.tosf" 
d="M258 1108v-18q0 -88 57 -153t143 -99q224 -89 376 -163q86 -42 143 -121t57 -187v-21q0 -174 -121 -266t-301 -100v-185h-59v185q-178 8 -300 108t-122 279v145h102v-145q-1 -143 101 -221t250 -78t244 68t98 206v18q0 102 -80 174t-194 114t-228 90t-193 135
q-80 87 -79 214v21q0 158 114 248q115 90 287 98v184h59v-184q174 -10 288 -109t114 -278v-145h-103v145q0 143 -93 221t-234 78q-142 0 -234 -70t-92 -188z" />
    <glyph glyph-name="Euro.tosf" 
d="M1073 922h-102v145q1 141 -101 220t-246 79t-244 -79t-101 -220v-178h301v-64h-301v-198h301v-64h-301v-196q0 -143 99 -221q98 -78 244 -78t247 78t102 221v145h102v-145q0 -183 -132 -285t-318 -102t-319 101q-132 101 -132 286v196h-119v64h119v198h-119v64h119v178
q0 183 132 285t318 102t319 -101q132 -101 132 -286v-145z" />
    <glyph glyph-name="uni20A8.tosf" 
d="M1100 1434v-78h-289q92 -70 117 -197h172v-78h-164v-65q0 -276 -260 -338q184 -47 223 -307l59 -371h-108l-55 362q-28 181 -121 231q-49 26 -96 33t-125 7h-332v80h403q303 0 303 278v90h-706v78h698q-45 197 -295 197h-403v78h979z" />
    <glyph glyph-name="sterling.tosf" 
d="M293 88h758v-88h-949v88h82v487h-82v89h82v444q0 164 124 255t307 91t307 -100t125 -287v-145h-103v145q0 143 -93 221t-235 78t-232 -70q-91 -70 -91 -188v-444h321v-89h-321v-487z" />
    <glyph glyph-name="yen.tosf" 
d="M940 592v-84h-307v-508h-107v508h-307v84h287l-449 842h115l410 -777l411 777h115l-455 -842h287z" />
    <glyph glyph-name="uaccute.sups" horiz-adv-x="626" 
d="M156 1448v-424q0 -63 39 -106q39 -44 109 -44t117 50q46 50 46 116v408h70v-614h-60l-6 110q-29 -61 -82 -92t-106 -31q-95 -1 -145 57t-50 138v432h68zM342 1509h-49l121 172h57z" />
    <glyph glyph-name="florin.osf" horiz-adv-x="600" 
d="M193 950h-148v74h148v246q0 129 56 177q57 48 147 48t177 -20l-8 -78q-71 18 -139 18t-100 -38t-31 -117v-236h260v-74h-260v-1155q0 -129 -56 -177q-57 -48 -147 -48t-178 20l8 78q72 -18 140 -18t100 38q31 38 31 117v1145z" />
    <glyph glyph-name="a.sups" horiz-adv-x="587" 
d="M432 1067v88q-313 -2 -313 -149v-13q0 -49 36 -84q35 -35 107 -35t121 48t49 145zM285 1460q215 0 215 -192v-434h-58l-8 116q-51 -129 -198 -129q-92 0 -139 49q-46 49 -46 113v14q0 89 85 143t296 56v68q0 141 -156 141q-88 0 -186 -41l-14 49q94 47 209 47z" />
    <glyph glyph-name="b.sups" horiz-adv-x="608" 
d="M160 1040q0 -70 46 -118t117 -48t109 44t39 106v233q0 63 -39 107q-40 44 -110 43q-70 0 -116 -48t-46 -118v-201zM92 834v884h68v-377q29 59 81 89t103 30q96 0 145 -57t50 -137v-250q1 -80 -49 -137t-146 -58q-53 0 -106 31t-82 92l-6 -110h-58z" />
    <glyph glyph-name="c.sups" horiz-adv-x="536" 
d="M70 1262q0 199 215 198q88 0 198 -37l-12 -53q-84 37 -172 37q-162 0 -162 -154v-225q0 -154 162 -154q88 0 172 37l12 -53q-111 -37 -198 -37q-215 0 -215 199v242z" />
    <glyph glyph-name="d.sups" horiz-adv-x="608" 
d="M449 1040v201q-1 68 -47 117t-116 49t-110 -43q-39 -43 -39 -107v-233q0 -63 39 -106q39 -44 110 -44t117 49t46 117zM264 821q-96 -1 -145 57t-49 138v250q0 80 49 137t145 57q53 0 106 -29q52 -30 79 -90v377h69v-884h-59l-6 110q-29 -61 -82 -92t-107 -31z" />
    <glyph glyph-name="e.sups" horiz-adv-x="577" 
d="M449 1178v82q1 76 -45 112t-112 37q-66 0 -112 -38q-45 -38 -45 -114v-79h314zM300 821q-95 0 -164 47t-68 162v223q0 109 65 158q66 49 158 49t155 -49t64 -156v-125h-375v-100q0 -156 170 -156q107 0 195 37l12 -53q-117 -37 -212 -37z" />
    <glyph glyph-name="egrave.sups" horiz-adv-x="577" 
d="M449 1178v82q1 76 -45 112t-112 37q-66 0 -112 -38q-45 -38 -45 -114v-79h314zM300 821q-95 0 -164 47t-68 162v223q0 109 65 158q66 49 158 49t155 -49t64 -156v-125h-375v-100q0 -156 170 -156q107 0 195 37l12 -53q-117 -37 -212 -37zM315 1509h-49l-129 172h58z" />
    <glyph glyph-name="f.sups" horiz-adv-x="356" 
d="M180 1448h156v-49h-156v-565h-67v565h-86v49h86v143q0 80 34 110q35 30 89 30t110 -13l-6 -51q-41 10 -82 10q-41 -1 -59 -23t-19 -69v-137z" />
    <glyph glyph-name="g.sups" horiz-adv-x="608" 
d="M453 1241q0 68 -46 117t-117 49t-110 -43t-39 -107v-208q0 -63 39 -107t110 -43q71 0 117 49t46 117v176zM522 778q0 -203 -233 -203q-98 0 -203 37l10 54q92 -37 187 -37q170 0 170 149v187q-27 -59 -79 -89t-106 -30q-96 0 -145 57t-49 137v226q0 80 49 137t145 57
q53 0 107 -30q53 -31 82 -93l6 111h59v-670z" />
    <glyph glyph-name="h.sups" horiz-adv-x="628" 
d="M471 834v423q0 63 -39 107q-40 44 -110 43q-70 0 -116 -48t-46 -118v-407h-68v884h68v-377q29 59 81 89t103 30q96 0 145 -57t50 -137v-432h-68z" />
    <glyph glyph-name="i.sups" horiz-adv-x="249" 
d="M160 834h-68v614h68v-614zM160 1540h-68v156h68v-156z" />
    <glyph glyph-name="j.sups" horiz-adv-x="249" 
d="M92 1448h68v-733q0 -80 -35 -110t-87 -30t-112 13l6 51q41 -10 82 -10t60 22q18 23 18 70v727zM160 1540h-68v156h68v-156z" />
    <glyph glyph-name="k.sups" horiz-adv-x="552" 
d="M160 834h-68v884h68v-561l311 291h82l-324 -299l332 -315h-84l-317 303v-303z" />
    <glyph glyph-name="l.sups" horiz-adv-x="249" 
d="M160 834h-68v884h68v-884z" />
    <glyph glyph-name="m.sups" horiz-adv-x="1007" 
d="M725 1460q94 0 144 -57t51 -137v-432h-68v423q0 63 -39 107t-110 43q-71 0 -117 -49t-47 -117v-407h-68v423q0 63 -39 107q-40 44 -110 43q-70 0 -116 -48t-46 -118v-407h-68v614h58l6 -111q29 61 82 93t106 30q150 0 186 -133q29 69 84 101t111 32z" />
    <glyph glyph-name="n.sups" horiz-adv-x="628" 
d="M471 834v423q0 63 -39 107q-40 44 -110 43q-70 0 -116 -48t-46 -118v-407h-68v614h58l6 -111q29 61 82 93t106 30q96 0 145 -57t50 -137v-432h-68z" />
    <glyph glyph-name="o.sups" horiz-adv-x="583" 
d="M135 1257v-233q0 -76 45 -114t112 -38q68 0 112 38t45 114v233q1 76 -45 114t-112 38t-112 -38q-45 -38 -45 -114zM516 1253v-225q0 -109 -66 -158t-158 -49q-93 0 -159 49t-65 158v225q0 109 65 158q66 49 159 49q92 0 158 -49t66 -158z" />
    <glyph glyph-name="p.sups" horiz-adv-x="608" 
d="M160 1241v-201q0 -70 46 -118t117 -48t109 44t39 106v233q0 63 -39 107q-40 44 -110 43q-70 0 -116 -48t-46 -118zM539 1016q1 -80 -49 -137t-146 -58q-51 0 -103 30t-81 89v-352h-68v860h58l6 -111q29 61 82 93t106 30q96 0 145 -57t50 -137v-250z" />
    <glyph glyph-name="q.sups" horiz-adv-x="608" 
d="M449 1241q-1 68 -47 117t-116 49t-110 -43q-39 -43 -39 -107v-233q0 -63 39 -106q39 -44 110 -44q70 0 116 50t47 116v201zM518 1448v-860h-69v352q-27 -59 -79 -89t-106 -30q-96 -1 -145 57t-49 138v250q0 80 49 137t145 57q53 0 107 -30q53 -31 82 -93l6 111h59z" />
    <glyph glyph-name="r.sups" horiz-adv-x="364" 
d="M344 1395q-82 0 -133 -46t-51 -116v-399h-68v614h58l6 -123q25 67 80 101t108 34v-65z" />
    <glyph glyph-name="s.sups" horiz-adv-x="548" 
d="M426 999q0 53 -56 84t-125 43t-125 54t-57 114v13q1 69 55 111t151 42t208 -37l-12 -53q-95 39 -171 39t-118 -27t-43 -75v-11q0 -53 56 -84t125 -43t125 -53t57 -112v-15q0 -78 -62 -123t-168 -45q-105 0 -209 37l13 53q94 -39 185 -39t131 33t40 86v8z" />
    <glyph glyph-name="t.sups" horiz-adv-x="352" 
d="M178 967q0 -93 76 -93q39 0 84 11l6 -51q-59 -12 -111 -12t-88 29q-35 30 -34 110v438h-86v49h86v123h67v-123h154v-49h-154v-432z" />
    <glyph glyph-name="u.sups" horiz-adv-x="626" 
d="M156 1448v-424q0 -63 39 -106q39 -44 109 -44t117 50q46 50 46 116v408h70v-614h-60l-6 110q-29 -61 -82 -92t-106 -31q-95 -1 -145 57t-50 138v432h68z" />
    <glyph glyph-name="v.sups" horiz-adv-x="524" 
d="M444 1448h66l-215 -621h-66l-215 621h70l180 -539z" />
    <glyph glyph-name="w.sups" horiz-adv-x="806" 
d="M715 1448h67l-170 -621h-71l-138 537l-139 -537h-71l-170 621h67l139 -537l140 537h67l139 -541z" />
    <glyph glyph-name="x.sups" horiz-adv-x="552" 
d="M524 1448l-215 -307l215 -307h-65l-180 256l-181 -256h-69l213 307l-213 307h69l181 -256l180 256h65z" />
    <glyph glyph-name="y.sups" horiz-adv-x="524" 
d="M100 575q-49 0 -104 13l4 53q43 -12 85 -12q42 -1 68 21t46 77l37 100h-9l-213 621h68l182 -541l178 541h68l-250 -717q-33 -92 -72 -124t-88 -32z" />
    <glyph glyph-name="z.sups" horiz-adv-x="536" 
d="M489 883v-49h-442v49l356 516h-344v49h418v-49l-358 -516h370z" />
    <glyph glyph-name="florin.tf" horiz-adv-x="600" 
d="M193 950h-148v74h148v246q0 129 56 177q57 48 147 48t177 -20l-8 -78q-71 18 -139 18t-100 -38t-31 -117v-236h260v-74h-260v-1155q0 -129 -56 -177q-57 -48 -147 -48t-178 20l8 78q72 -18 140 -18t100 38q31 38 31 117v1145z" />
    <glyph glyph-name="florin.tosf" horiz-adv-x="600" 
d="M193 950h-148v74h148v246q0 129 56 177q57 48 147 48t177 -20l-8 -78q-71 18 -139 18t-100 -38t-31 -117v-236h260v-74h-260v-1155q0 -129 -56 -177q-57 -48 -147 -48t-178 20l8 78q72 -18 140 -18t100 38q31 38 31 117v1145z" />
    <glyph glyph-name="numbersign.oldstyle" horiz-adv-x="1255" 
d="M836 543v370h-416v-370h416zM1161 913h-264v-370h264v-62h-264v-481h-61v481h-416v-481h-60v481h-266v62h266v370h-266v60h266v461h60v-461h416v461h61v-461h264v-60z" />
    <glyph glyph-name="numbersign.tab" 
d="M791 543v370h-414v-370h414zM1116 913h-264v-370h264v-62h-264v-481h-61v481h-414v-481h-62v481h-266v62h266v370h-266v60h266v461h62v-461h414v461h61v-461h264v-60z" />
    <glyph glyph-name="numbersign.taboldstyle" 
d="M791 543v370h-414v-370h414zM1116 913h-264v-370h264v-62h-264v-481h-61v481h-414v-481h-62v481h-266v62h266v370h-266v60h266v461h62v-461h414v461h61v-461h264v-60z" />
    <glyph glyph-name="AT" horiz-adv-x="1325" 
d="M819 590v201q0 69 -46 117t-117 48q-72 0 -110 -43t-38 -106v-234q0 -63 39 -106t109 -43t117 48q46 48 46 118zM131 422v590q0 198 143 320q142 122 394 122t395 -122t143 -320v-631h-377l-10 102q-53 -113 -184 -112q-96 0 -146 57q-49 57 -49 137v250q0 80 49 137
t146 58q135 0 188 -117l6 104h58v-561h246v576q0 170 -123 271t-341 101t-341 -101t-123 -271v-590q0 -170 123 -271t342 -102v-69q-252 0 -396 121q-143 122 -143 321z" />
    <glyph glyph-name="Ampersand" horiz-adv-x="1302" 
d="M219 451v-84q0 -143 99 -221t245 -78q254 0 324 168l-527 475q-141 -96 -141 -260zM1016 627v-281q0 -49 -8 -84l206 -186v-76h-67l-180 162q-55 -90 -165 -136t-241 -46q-186 0 -317 101t-131 286v84q0 115 48 189t134 130q-143 147 -143 317v21q0 164 122 255
q124 91 308 91t307 -100t123 -287v-145h-105v145q0 143 -92 221t-232 78q-141 0 -233 -70t-92 -188v-18q0 -74 41 -150t100 -131l508 -457v363h307v-88h-198z" />
    <glyph glyph-name="Braceleft" horiz-adv-x="581" 
d="M516 -238v-69q-162 0 -241 61t-78 238l20 428q0 189 -61 226q-31 19 -82 28v86q51 8 82 27q61 37 61 227l-20 428q0 176 78 237q79 61 241 62v-70q-144 0 -192 -55t-50 -176l21 -479q0 -115 -40 -169t-122 -73v-4q82 -19 122 -73t40 -169l-21 -479q0 -124 52 -178
q37 -42 120 -52q27 -2 70 -2z" />
    <glyph glyph-name="Braceright" horiz-adv-x="581" 
d="M63 1671v70q162 1 242 -61t80 -238l-20 -428q0 -188 61 -227q31 -19 82 -27v-86q-51 -8 -82 -28q-61 -38 -61 -226l20 -428q0 -176 -80 -238t-242 -61v69q181 0 223 102q20 50 21 130l-20 479q0 115 40 169t122 73v4q-82 19 -122 73t-40 169l20 479q0 161 -82 200
q-64 31 -162 31z" />
    <glyph glyph-name="Bracketleft" horiz-adv-x="598" 
d="M535 1671h-299v-1909h299v-69h-377v2048h377v-70z" />
    <glyph glyph-name="Bracketright" horiz-adv-x="598" 
d="M63 1741h377v-2048h-377v69h297v1909h-297v70z" />
    <glyph glyph-name="Emdash" horiz-adv-x="1433" 
d="M1321 686h-1208v82h1208v-82z" />
    <glyph glyph-name="Endash" horiz-adv-x="1228" 
d="M1116 686h-1003v82h1003v-82z" />
    <glyph glyph-name="Exclamdown" horiz-adv-x="440" 
d="M166 0v614l14 473h80l14 -473v-614h-108zM166 1434h108v-183h-108v183z" />
    <glyph glyph-name="Guillemotleft" horiz-adv-x="1202" 
d="M1085 377v-92l-505 401v78l505 405v-92l-407 -350v-4zM569 377v-92l-506 401v78l506 405v-92l-407 -350v-4z" />
    <glyph glyph-name="Guillemotright" horiz-adv-x="1202" 
d="M633 377l407 346v4l-407 350v92l506 -405v-78l-506 -401v92zM117 377l407 346v4l-407 350v92l506 -405v-78l-506 -401v92z" />
    <glyph glyph-name="Guilsinglleft" horiz-adv-x="686" 
d="M569 377v-92l-506 401v78l506 405v-92l-407 -350v-4z" />
    <glyph glyph-name="Guilsinglright" horiz-adv-x="686" 
d="M117 377l407 346v4l-407 350v92l506 -405v-78l-506 -401v92z" />
    <glyph glyph-name="Hyphen" horiz-adv-x="921" 
d="M809 686h-696v82h696v-82z" />
    <glyph glyph-name="Parenleft" horiz-adv-x="559" 
d="M197 717q0 -520 317 -1024h-72q-158 213 -250 491t-92 533t92 533t250 491h72q-317 -504 -317 -1024z" />
    <glyph glyph-name="Parenright" horiz-adv-x="559" 
d="M459 716q0 -254 -92 -532q-92 -279 -250 -491h-72q315 504 315 1024t-315 1024h72q158 -213 250 -492t92 -533z" />
    <glyph glyph-name="Periodcentered" horiz-adv-x="376" 
d="M236 639h-93v182h93v-182z" />
    <glyph glyph-name="Questiondown" horiz-adv-x="1044" 
d="M870 434h103v-67q0 -187 -124 -287t-309 -100t-318 101q-132 101 -132 286v100q0 170 114 270t281 115l15 246h84v-332h-43q-143 0 -243 -79t-101 -220v-100q0 -141 100 -221q99 -80 243 -78q144 0 237 78t93 221v67zM594 1434v-183h-107v183h107z" />
    <glyph glyph-name="litre" horiz-adv-x="923" 
d="M403 1112v-395q274 317 275 495q0 84 -39 134t-98 49q-59 1 -99 -57t-39 -226zM403 317q0 -276 170 -276q72 0 132 59q66 59 110 211h37q-43 -170 -129 -251q-85 -80 -183 -80t-168 50t-98 126q-27 76 -26 227v106l-168 -170l-25 23l193 203v497q0 208 84 310t203 102
q90 0 143 -55t53 -153t-63 -226q-63 -127 -265 -358v-345z" />
    </font>
</defs>
</svg>
