<?xml version="1.0" standalone="no"?>
<!DOCTYPE svg PUBLIC "-//W3C//DTD SVG 1.1//EN" "http://www.w3.org/Graphics/SVG/1.1/DTD/svg11.dtd" >
<svg xmlns="http://www.w3.org/2000/svg">
<metadata>
Created by FontPrep 20130207 at Mon Nov 30 14:56:19 2015
 By Menglin Xu
Copyright (c) 2012 by Dino dos Santos. All rights reserved.
</metadata>
<defs>
<font id="d416fb359c839ea97e3f19ca18da5251" horiz-adv-x='1024' >
  <font-face 
    font-family="Solido-Medium"
    font-weight="500"
    font-stretch="normal"
    units-per-em="2048"
    panose-1="0 0 6 0 0 0 0 0 0 0"
    ascent="1536"
    descent="-512"
    x-height="1024"
    cap-height="1434"
    bbox="-254 -659 2261 1884"
    underline-thickness="102"
    underline-position="-102"
    unicode-range="U+0020-FB02"
  />
<missing-glyph horiz-adv-x="880" 
d="M123 532v-40q0 -162 92 -235t225 -73t226 73q92 73 92 235v40q0 162 -92 235t-226 73t-225 -73q-92 -73 -92 -235zM778 532v-40q0 -199 -145 -281l74 -119h-21l-68 111q-80 -39 -178 -39t-178 39l-67 -111h-21l72 119q-143 84 -144 281v40q0 197 144 281l-72 119h21
l67 -111q80 39 178 39t178 -39l68 111h21l-74 -119q145 -86 145 -281z" />
    <glyph glyph-name="fi" unicode="fi" horiz-adv-x="1064" 
d="M756 0v1024h184v-1024h-184zM428 1475h512v-306h-184v164h-267q-73 0 -101 -33t-28 -102v-174h236v-127h-236v-897h-184v897h-129v127h129v193q0 141 64 199t188 59z" />
    <glyph glyph-name="fl" unicode="fl" horiz-adv-x="1064" 
d="M428 1475h512v-1475h-184v1333h-267q-73 0 -101 -33t-28 -102v-174h236v-127h-236v-897h-184v897h-129v127h129v193q0 141 64 199t188 59z" />
    <glyph glyph-name="f_f" unicode="ff" horiz-adv-x="1214" 
d="M940 1219v-195h236v-127h-236v-897h-184v897h-396v-897h-184v897h-129v127h129v213q0 141 65 199t169 59q104 0 200 -20l-12 -136q-51 15 -116 15q-66 0 -94 -33t-28 -102v-195h396v213q0 141 64 200q66 58 170 58t200 -20l-12 -136q-51 15 -116 15q-66 0 -94 -33
t-28 -102z" />
    <glyph glyph-name="f_f_i" unicode="ffi" horiz-adv-x="1644" 
d="M1335 0v1024h185v-1024h-185zM1008 1475h512v-306h-185v164h-266q-73 0 -101 -33t-28 -102v-174h236v-127h-236v-897h-184v897h-396v-897h-184v897h-129v127h129v213q0 141 65 199t169 59q104 0 200 -20l-12 -136q-51 15 -116 15q-66 0 -94 -33t-28 -102v-195h396v193
q0 141 64 199t188 59z" />
    <glyph glyph-name="f_f_l" unicode="ffl" horiz-adv-x="1644" 
d="M1008 1475h512v-1475h-185v1333h-266q-73 0 -101 -33t-28 -102v-174h236v-127h-236v-897h-184v897h-396v-897h-184v897h-129v127h129v213q0 141 65 199t169 59q104 0 200 -20l-12 -136q-51 15 -116 15q-66 0 -94 -33t-28 -102v-195h396v193q0 141 64 199t188 59z" />
    <glyph glyph-name=".notdef" horiz-adv-x="880" 
d="M123 532v-40q0 -162 92 -235t225 -73t226 73q92 73 92 235v40q0 162 -92 235t-226 73t-225 -73q-92 -73 -92 -235zM778 532v-40q0 -199 -145 -281l74 -119h-21l-68 111q-80 -39 -178 -39t-178 39l-67 -111h-21l72 119q-143 84 -144 281v40q0 197 144 281l-72 119h21
l67 -111q80 39 178 39t178 -39l68 111h21l-74 -119q145 -86 145 -281z" />
    <glyph glyph-name=".null" horiz-adv-x="0" 
 />
    <glyph glyph-name="nonmarkingreturn" horiz-adv-x="681" 
 />
    <glyph glyph-name="space" unicode=" " horiz-adv-x="409" 
 />
    <glyph glyph-name="exclam" unicode="!" horiz-adv-x="497" 
d="M346 0h-194v221h194v-221zM346 1434v-615l-29 -434h-137l-28 434v615h194z" />
    <glyph glyph-name="quotedbl" unicode="&#x22;" horiz-adv-x="862" 
d="M741 1434v-222l-28 -284h-107l-28 284v222h163zM285 1434v-222l-29 -284h-106l-29 284v222h164z" />
    <glyph glyph-name="numbersign" unicode="#" horiz-adv-x="1290" 
d="M838 551v352h-381v-352h381zM1200 903h-262v-352h262v-100h-262v-451h-100v451h-381v-451h-101v451h-266v100h266v352h-266v103h266v428h101v-428h381v428h100v-428h262v-103z" />
    <glyph glyph-name="dollar" unicode="$" horiz-adv-x="1140" 
d="M303 1087v-14q0 -76 55 -131q56 -55 140 -87t180 -72t180 -82q84 -43 139 -123t56 -191v-20q0 -173 -121 -273t-311 -112v-187h-101v187q-188 12 -310 120t-122 285v125h184v-125q0 -123 86 -187t212 -65q126 0 207 56t81 165v17q0 88 -77 148q-77 59 -187 101t-222 89
q-110 47 -187 137t-76 219v20q0 162 112 258q113 95 299 107v186h101v-186q184 -12 298 -121t113 -284v-125h-184v125q0 119 -78 185t-199 66t-195 -56t-73 -155z" />
    <glyph glyph-name="percent" unicode="%" horiz-adv-x="1648" 
d="M1094 627v-394q0 -69 49 -109t121 -40t120 40t50 109v394q0 69 -50 109t-120 40q-72 0 -121 -40t-49 -109zM1554 627v-394q0 -113 -83 -179t-207 -66t-208 66q-83 66 -83 179v394q0 113 83 179t208 66q126 0 208 -66t82 -179zM215 1208v-395q0 -67 49 -107t121 -40
t121 40t49 107v395q0 68 -49 108t-121 40t-121 -40t-49 -108zM483 0h-102l778 1434h103zM676 1208v-395q0 -113 -83 -179t-208 -67q-125 0 -208 67t-83 179v395q0 113 83 180q83 66 208 66t208 -66t83 -180z" />
    <glyph glyph-name="ampersand" unicode="&#x26;" horiz-adv-x="1339" 
d="M281 451v-64q0 -123 84 -187t208 -65q205 0 271 125l-459 402q-104 -82 -104 -211zM1051 598v-231q0 -31 -2 -48l206 -178v-141h-114l-162 141q-127 -162 -406 -161q-205 0 -341 110t-136 297v64q0 186 176 313q-135 141 -135 303v20q0 171 126 269t330 98t329 -110
t125 -297v-125h-181v125q0 119 -74 185t-196 66q-121 0 -196 -56t-74 -155v-14q0 -127 133 -244l407 -352v277h389v-156h-204z" />
    <glyph glyph-name="quotesingle" unicode="'" horiz-adv-x="405" 
d="M285 1434v-222l-29 -284h-106l-29 284v222h164z" />
    <glyph glyph-name="parenleft" unicode="(" horiz-adv-x="593" 
d="M262 717q0 -537 295 -1024h-119q-164 211 -257 489t-93 535t93 535t257 489h119q-295 -487 -295 -1024z" />
    <glyph glyph-name="parenright" unicode=")" horiz-adv-x="591" 
d="M506 716q0 -256 -93 -534q-93 -279 -257 -489h-119q293 483 293 1024t-293 1024h119q164 -211 257 -490t93 -535z" />
    <glyph glyph-name="asterisk" unicode="*" horiz-adv-x="706" 
d="M315 1247l-14 205h102l-12 -205l172 113l51 -88l-186 -90l186 -92l-51 -89l-172 115l12 -207h-102l14 207l-170 -115l-51 89l182 92l-182 90l51 88z" />
    <glyph glyph-name="plus" unicode="+" horiz-adv-x="913" 
d="M823 801v-148h-295v-293h-145v293h-295v148h295v293h145v-293h295z" />
    <glyph glyph-name="comma" unicode="," horiz-adv-x="419" 
d="M127 221h166v-221l-111 -285h-135l80 285v221z" />
    <glyph glyph-name="hyphen" unicode="-" horiz-adv-x="909" 
d="M803 438h-697v148h697v-148z" />
    <glyph glyph-name="period" unicode="." horiz-adv-x="419" 
d="M293 0h-166v221h166v-221z" />
    <glyph glyph-name="slash" unicode="/" horiz-adv-x="972" 
d="M150 0h-103l778 1434h103z" />
    <glyph glyph-name="zero" unicode="0" horiz-adv-x="1210" 
d="M315 1047v-660q0 -119 83 -185t206 -67q123 0 206 67t83 185v660q0 119 -83 185t-206 66t-206 -66t-83 -185zM1087 1047v-660q0 -186 -138 -297q-138 -110 -345 -110t-344 110t-137 297v660q0 187 137 297t344 110t345 -110t138 -297z" />
    <glyph glyph-name="one" unicode="1" horiz-adv-x="937" 
d="M586 156h309v-156h-811v156h309v1122h-309v156h502v-1278z" />
    <glyph glyph-name="two" unicode="2" horiz-adv-x="1155" 
d="M1057 1047v-21q0 -129 -80 -235q-80 -105 -193 -177q-112 -72 -226 -136q-272 -155 -273 -306v-16h772v-156h-967v166q0 131 80 237q80 107 192 179t227 138q273 157 273 312v15q0 119 -83 185t-206 66t-201 -66t-77 -185v-72h-184v72q0 188 129 298q128 109 334 109
t344 -110t139 -297z" />
    <glyph glyph-name="three" unicode="3" horiz-adv-x="1153" 
d="M113 975v72q0 188 128 298q129 109 333 109t330 -98t128 -275q-4 -233 -221 -329q246 -96 246 -338v-47q0 -183 -136 -285q-135 -102 -345 -102t-347 110t-137 297v72h193v-72q0 -119 83 -185q82 -66 206 -67q124 0 206 65t82 181v43q0 112 -84 180t-205 68h-102v155h102
q119 0 198 67t81 169q-2 113 -80 174t-199 61t-199 -66t-77 -185v-72h-184z" />
    <glyph glyph-name="four" unicode="4" horiz-adv-x="1202" 
d="M737 528v629l-475 -629h475zM1147 528v-155h-215v-373h-195v373h-688v155l688 908v-2h195v-906h215z" />
    <glyph glyph-name="five" unicode="5" horiz-adv-x="1142" 
d="M319 930h259q207 0 344 -109t137 -295v-139q0 -186 -137 -297q-137 -110 -343 -110t-340 110t-135 297v72h185v-72q0 -119 83 -185t206 -67q124 0 206 67t82 185v139q0 117 -83 183t-205 65h-443v660h852v-156h-668v-348z" />
    <glyph glyph-name="six" unicode="6" horiz-adv-x="1181" 
d="M893 387v37q0 116 -82 182t-207 66h-289v-285q0 -119 83 -185t206 -67q123 1 206 67t83 185zM315 827h289q209 -1 346 -109t137 -294v-37q0 -186 -138 -297q-138 -110 -345 -110t-344 110t-137 297v660q0 187 137 297t343 110t335 -110t129 -297v-72h-184v72
q0 119 -78 185t-201 66t-206 -66t-83 -185v-220z" />
    <glyph glyph-name="seven" unicode="7" horiz-adv-x="1011" 
d="M53 1434h916v-156q-516 -610 -516 -1278h-205q0 332 139 669t387 609h-721v156z" />
    <glyph glyph-name="eight" unicode="8" horiz-adv-x="1159" 
d="M868 381v22q0 111 -83 179t-205 68t-205 -68q-84 -68 -84 -179v-22q0 -117 83 -181t207 -65q123 1 205 65t82 181zM303 1057v-10q0 -103 79 -173t198 -70q118 0 198 70q80 68 80 173v10q0 115 -78 178t-200 63t-199 -63q-78 -63 -78 -178zM1036 1077v-16q0 -115 -59 -201
t-162 -129q248 -96 248 -338v-26q0 -183 -137 -285t-346 -102t-346 101q-136 101 -136 286v26q0 123 68 210t184 130q-106 47 -167 133q-60 86 -60 195v16q0 177 126 277t331 100q204 0 330 -100t126 -277z" />
    <glyph glyph-name="nine" unicode="9" horiz-adv-x="1181" 
d="M575 762h289v285q0 119 -83 185t-206 66t-205 -66t-83 -185v-37q1 -116 83 -182t205 -66zM94 1010v37q0 187 137 297t344 110t345 -111t139 -296v-660q0 -186 -138 -297q-139 -110 -345 -110t-334 110t-127 297v72h184v-72q0 -119 78 -185q77 -66 199 -67q122 0 205 67
t83 185v219h-289q-207 0 -344 109t-137 295z" />
    <glyph glyph-name="colon" unicode=":" horiz-adv-x="428" 
d="M297 129h-166v221h166v-221zM297 612h-166v222h166v-222z" />
    <glyph glyph-name="semicolon" unicode=";" horiz-adv-x="497" 
d="M178 221h164v-221l-109 -285h-137l82 285v221zM342 612h-164v222h164v-222z" />
    <glyph glyph-name="less" unicode="&#x3c;" horiz-adv-x="837" 
d="M702 582v-148l-614 219v135l614 222v-148l-403 -139v-4z" />
    <glyph glyph-name="equal" unicode="=" horiz-adv-x="958" 
d="M827 494h-696v145h696v-145zM827 815h-696v146h696v-146z" />
    <glyph glyph-name="greater" unicode="&#x3e;" horiz-adv-x="837" 
d="M135 582l404 137v4l-404 139v148l613 -222v-135l-613 -219v148z" />
    <glyph glyph-name="question" unicode="?" horiz-adv-x="1097" 
d="M436 0v221h195v-221h-195zM72 975v72q0 188 128 298q128 109 334 109t344 -111t138 -296v-74q0 -165 -108 -271t-279 -131l-23 -206h-145v356h71q123 1 206 67t83 185v74q0 119 -83 185t-205 66q-121 0 -199 -66t-78 -185v-72h-184z" />
    <glyph glyph-name="at" unicode="@" horiz-adv-x="1370" 
d="M817 393v185q0 59 -37 99t-96 40t-90 -34t-31 -87v-221q0 -53 31 -87t90 -34t96 40t37 99zM119 252v520q0 207 143 342t431 135t430 -134t143 -343v-596h-430l-19 86q-57 -96 -165 -96t-155 56q-48 56 -48 134v258q0 78 48 134t144 57q123 0 182 -103l13 91h96v-527h209
v506q0 164 -114 262t-335 98t-334 -96q-113 -98 -112 -264v-520q0 -166 112 -263t334 -98v-116q-287 0 -430 135t-143 342z" />
    <glyph glyph-name="A" unicode="A" horiz-adv-x="1185" 
d="M389 528h404l-201 658zM954 0l-114 373h-498l-115 -373h-204l477 1444h192l467 -1444h-205z" />
    <glyph glyph-name="B" unicode="B" horiz-adv-x="1210" 
d="M940 387v31q0 117 -77 174t-191 57h-328v-493h328q120 0 194 55t74 176zM621 1278h-277v-473h277q111 0 185 53t73 168v31q1 115 -73 168t-185 53zM1073 1071v-20q0 -217 -199 -306q119 -39 190 -123t71 -214v-31q0 -185 -127 -281t-336 -96h-522v1434h479q199 0 321 -90
t123 -273z" />
    <glyph glyph-name="C" unicode="C" horiz-adv-x="1179" 
d="M1081 512v-125q0 -186 -137 -297q-137 -110 -344 -110t-345 110t-138 297v660q0 187 138 297t345 110t344 -111t137 -296v-125h-184v125q0 117 -87 185t-210 66q-123 0 -206 -66t-83 -185v-660q0 -125 81 -188t208 -63t212 64q85 65 85 187v125h184z" />
    <glyph glyph-name="D" unicode="D" horiz-adv-x="1230" 
d="M920 408v618q0 120 -80 186t-199 66h-297v-1122h297q121 0 200 64t79 188zM150 1434h491q207 0 340 -110t133 -298v-618q0 -188 -133 -298t-340 -110h-491v1434z" />
    <glyph glyph-name="E" unicode="E" horiz-adv-x="1091" 
d="M1020 1278h-676v-473h541v-156h-541v-493h676v-156h-870v1434h870v-156z" />
    <glyph glyph-name="F" unicode="F" horiz-adv-x="1071" 
d="M1020 1278h-676v-524h541v-156h-541v-598h-194v1434h870v-156z" />
    <glyph glyph-name="G" unicode="G" horiz-adv-x="1187" 
d="M1081 922h-184v125q0 117 -87 185t-210 66q-123 0 -206 -66t-83 -185v-660q0 -125 81 -188t208 -63t212 64q85 65 85 187v182h-301v156h485v-338q0 -186 -137 -297q-137 -110 -344 -110t-345 110t-138 297v660q0 187 138 297t345 110t344 -111t137 -296v-125z" />
    <glyph glyph-name="H" unicode="H" horiz-adv-x="1284" 
d="M940 1434h195v-1434h-195v649h-596v-649h-194v1434h194v-629h596v629z" />
    <glyph glyph-name="I" unicode="I" horiz-adv-x="493" 
d="M150 0v1434h194v-1434h-194z" />
    <glyph glyph-name="J" unicode="J" horiz-adv-x="657" 
d="M45 156q152 0 213 42t61 167v1069h195v-1084q0 -210 -114 -280t-355 -70v156z" />
    <glyph glyph-name="K" unicode="K" horiz-adv-x="1120" 
d="M344 0h-194v1434h194v-672l545 672h225l-582 -697l598 -737h-237l-549 690v-690z" />
    <glyph glyph-name="L" unicode="L" horiz-adv-x="1048" 
d="M346 156h658v-156h-850v1434h192v-1278z" />
    <glyph glyph-name="M" unicode="M" horiz-adv-x="1435" 
d="M1286 1434v-1434h-192v735q0 135 10 387l-313 -567h-156l-313 582q12 -244 12 -402v-735h-184v1434h204l371 -660l367 660h194z" />
    <glyph glyph-name="N" unicode="N" horiz-adv-x="1325" 
d="M991 1434h185v-1434h-195l-659 1104q12 -215 12 -369v-735h-184v1434h202l649 -1102q-10 231 -10 366v736z" />
    <glyph glyph-name="O" unicode="O" horiz-adv-x="1198" 
d="M887 1047q0 119 -82 185t-205 66t-206 -66t-83 -185v-660q0 -119 83 -185t206 -67q123 0 205 67t82 185v660zM117 1047q0 187 138 297t345 110t344 -111t137 -296v-660q0 -186 -137 -297q-137 -110 -344 -110t-345 110t-138 297v660z" />
    <glyph glyph-name="P" unicode="P" horiz-adv-x="1150" 
d="M899 932v94q0 120 -80 186t-198 66h-277v-598h277q121 0 199 64t79 188zM150 1434h471q207 0 340 -110t133 -298v-94q0 -188 -133 -298t-340 -110h-277v-524h-194v1434z" />
    <glyph glyph-name="Q" unicode="Q" horiz-adv-x="1198" 
d="M887 387v660q0 119 -82 185t-205 66t-206 -66t-83 -185v-660q0 -119 83 -185t206 -67q123 1 205 67t82 185zM117 387v660q0 187 138 297t345 110t344 -111t137 -296v-660q1 -164 -107 -270t-278 -131v-52q0 -116 60 -152t215 -36v-156q-240 0 -355 70t-114 260v66
q-172 25 -279 131q-106 106 -106 270z" />
    <glyph glyph-name="R" unicode="R" horiz-adv-x="1202" 
d="M653 1278h-309v-512h309q246 0 246 229v52q0 109 -63 170q-64 61 -183 61zM586 610h-242v-610h-194v1434h522q198 0 310 -100t112 -277v-31q0 -268 -242 -336q166 -55 205 -301l61 -389h-192l-58 375q-23 147 -88 191q-66 44 -194 44z" />
    <glyph glyph-name="S" unicode="S" horiz-adv-x="1140" 
d="M1053 367q-1 -183 -139 -285t-346 -102t-344 110t-136 297v125h184v-125q0 -123 85 -187t212 -65q127 0 208 56t81 165v17q0 88 -77 148q-77 59 -187 101t-222 89q-110 47 -187 137t-76 219v20q0 171 128 269q129 98 333 98t333 -110t129 -297v-125h-184v125
q0 119 -78 185t-199 66t-195 -56t-73 -155v-14q0 -76 55 -131q56 -55 140 -87t180 -72t180 -82q84 -43 139 -123t56 -191v-20z" />
    <glyph glyph-name="T" unicode="T" horiz-adv-x="956" 
d="M911 1434v-156h-329v-1278h-195v1278h-340v156h864z" />
    <glyph glyph-name="U" unicode="U" horiz-adv-x="1249" 
d="M913 1434h195v-1047q0 -186 -138 -297q-138 -110 -345 -110t-345 110t-139 297v1047h195v-1047q0 -125 82 -188t207 -63t207 62q82 64 81 189v1047z" />
    <glyph glyph-name="V" unicode="V" horiz-adv-x="1185" 
d="M961 1434h204l-477 -1444h-194l-467 1444h204l365 -1198z" />
    <glyph glyph-name="W" unicode="W" horiz-adv-x="1771" 
d="M1544 1434h195l-379 -1444h-195l-278 1143l-281 -1143h-194l-381 1444h205l272 -1158l285 1158h198l279 -1155z" />
    <glyph glyph-name="X" unicode="X" horiz-adv-x="1136" 
d="M1137 0h-209l-359 569l-358 -569h-211l465 727l-455 707h211l348 -549l349 549h208l-454 -707z" />
    <glyph glyph-name="Y" unicode="Y" horiz-adv-x="1155" 
d="M672 0h-195v545l-467 889h207l358 -711l367 711h205l-475 -889v-545z" />
    <glyph glyph-name="Z" unicode="Z" horiz-adv-x="1042" 
d="M983 156v-156h-926v156l691 1122h-670v156h895v-156l-690 -1122h700z" />
    <glyph glyph-name="bracketleft" unicode="[" horiz-adv-x="632" 
d="M573 1624h-286v-1814h286v-117h-423v2048h423v-117z" />
    <glyph glyph-name="backslash" unicode="\" horiz-adv-x="972" 
d="M823 0l-778 1434h102l779 -1434h-103z" />
    <glyph glyph-name="bracketright" unicode="]" horiz-adv-x="632" 
d="M59 1741h424v-2048h-424v117h289v1814h-289v117z" />
    <glyph glyph-name="asciicircum" unicode="^" horiz-adv-x="1001" 
d="M500 782l-135 -188h-142l205 287h143l207 -287h-143z" />
    <glyph glyph-name="underscore" unicode="_" horiz-adv-x="907" 
d="M803 -186h-697v145h697v-145z" />
    <glyph glyph-name="grave" unicode="`" horiz-adv-x="790" 
d="M438 1126l-215 287h154l192 -287h-131z" />
    <glyph glyph-name="a" unicode="a" horiz-adv-x="985" 
d="M680 389v121q-246 -2 -339 -57t-93 -148v-16q0 -72 49 -120t150 -48q101 1 167 67t66 201zM479 1044q385 0 385 -331v-713h-153l-21 168q-92 -188 -319 -188q-154 0 -231 84t-77 190v27q0 328 617 331v90q0 197 -219 197q-140 0 -318 -76l-39 131q184 90 375 90z" />
    <glyph glyph-name="b" unicode="b" horiz-adv-x="1024" 
d="M309 356q1 -100 63 -168t162 -68t154 59q53 58 53 147v372q0 88 -53 146t-153 59q-100 0 -163 -67q-62 -68 -63 -168v-312zM125 0v1475h184v-603q51 88 133 130t160 42q162 0 243 -94t81 -223v-430q0 -129 -81 -223t-243 -94q-80 0 -166 44t-137 138l-18 -162h-156z" />
    <glyph glyph-name="c" unicode="c" horiz-adv-x="882" 
d="M96 694q0 350 385 350q162 0 346 -61l-24 -141q-150 61 -283 61q-240 0 -239 -229v-324q0 -229 239 -229q133 0 283 61l24 -141q-184 -61 -346 -61q-385 0 -385 350v364z" />
    <glyph glyph-name="d" unicode="d" horiz-adv-x="1024" 
d="M715 356v312q-1 100 -63 168t-162 68t-153 -59q-54 -58 -54 -147v-372q0 -88 54 -146t153 -59t162 67t63 168zM422 -20q-160 0 -242 94t-82 223v430q0 129 82 223t242 94q78 0 160 -42t133 -130v603h184v-1475h-154l-20 162q-51 -94 -137 -138t-166 -44z" />
    <glyph glyph-name="e" unicode="e" horiz-adv-x="966" 
d="M713 592v110q-1 102 -61 154t-156 53q-96 0 -156 -54t-61 -157v-106h434zM877 469h-598v-123q0 -225 251 -225q176 0 326 61l27 -141q-189 -61 -371 -61t-300 85t-118 275v348q0 180 113 268t285 88t278 -85t107 -267v-223z" />
    <glyph glyph-name="f" unicode="f" horiz-adv-x="634" 
d="M360 1024h236v-127h-236v-897h-184v897h-129v127h129v213q0 141 65 199t169 59q104 0 200 -20l-12 -136q-51 15 -116 15q-66 0 -94 -33t-28 -102v-195z" />
    <glyph glyph-name="g" unicode="g" horiz-adv-x="1024" 
d="M715 668q1 100 -63 168t-164 68t-152 -59q-53 -58 -53 -147v-331q0 -89 53 -147t152 -58t163 67q63 68 64 168v271zM899 -70q0 -102 -36 -176q-90 -184 -380 -184q-180 0 -364 61l24 142q150 -61 316 -62q256 0 256 219v263q-51 -89 -134 -131t-161 -42q-160 0 -241 94
t-81 224v389q0 129 81 223t241 94q82 0 168 -44t137 -138l18 162h156v-1094z" />
    <glyph glyph-name="h" unicode="h" horiz-adv-x="1044" 
d="M741 0v698q0 88 -53 146t-153 59q-100 0 -163 -67q-62 -68 -63 -168v-668h-184v1475h184v-603q51 88 133 130t160 42q162 0 243 -94t81 -223v-727h-185z" />
    <glyph glyph-name="i" unicode="i" horiz-adv-x="434" 
d="M309 0h-184v1024h184v-1024zM309 1169h-184v275h184v-275z" />
    <glyph glyph-name="j" unicode="j" horiz-adv-x="434" 
d="M125 1024h184v-1196q0 -142 -63 -200t-169 -58t-202 20l12 136q51 -14 116 -14t93 32q28 33 29 102v1178zM309 1169h-184v275h184v-275z" />
    <glyph glyph-name="k" unicode="k" horiz-adv-x="1001" 
d="M309 0h-184v1475h184v-924l463 473h213l-491 -492l505 -532h-223l-467 492v-492z" />
    <glyph glyph-name="l" unicode="l" horiz-adv-x="434" 
d="M309 0h-184v1475h184v-1475z" />
    <glyph glyph-name="m" unicode="m" horiz-adv-x="1662" 
d="M622 1044q100 0 177 -54q76 -54 106 -142q51 104 143 150t173 46q161 0 241 -94t80 -223v-727h-184v698q0 88 -53 146t-153 59q-100 0 -163 -67q-63 -68 -63 -168v-668h-185v698q0 88 -53 146t-153 59q-100 0 -163 -67q-62 -68 -63 -168v-668h-184v1024h156l18 -162
q51 94 137 138t186 44z" />
    <glyph glyph-name="n" unicode="n" horiz-adv-x="1044" 
d="M741 0v698q0 88 -53 146t-153 59q-100 0 -163 -67q-62 -68 -63 -168v-668h-184v1024h156l18 -162q51 94 137 138t166 44q162 0 243 -94t81 -223v-727h-185z" />
    <glyph glyph-name="o" unicode="o" horiz-adv-x="991" 
d="M279 698v-372q0 -102 60 -156q61 -54 157 -55q96 0 156 54t61 157v372q-1 102 -61 156t-156 55q-96 0 -157 -54q-60 -55 -60 -157zM897 688v-352q0 -180 -113 -268q-112 -88 -288 -88t-289 88t-113 268v352q0 180 113 268t289 88t288 -88t113 -268z" />
    <glyph glyph-name="p" unicode="p" horiz-adv-x="1024" 
d="M309 668v-312q1 -100 63 -168t162 -68t154 59q53 58 53 147v372q0 88 -53 146t-153 59t-163 -67t-63 -168zM602 1044q162 0 243 -94t81 -223v-430q0 -129 -81 -223t-243 -94q-78 0 -160 42t-133 130v-562h-184v1434h156l18 -162q51 94 137 138t166 44z" />
    <glyph glyph-name="q" unicode="q" horiz-adv-x="1024" 
d="M715 668q-1 100 -63 168t-162 68t-153 -59q-54 -58 -54 -147v-372q0 -88 54 -146t153 -59q99 0 162 67q62 68 63 168v312zM899 1024v-1434h-184v562q-51 -88 -133 -130t-160 -42q-160 0 -242 94t-82 223v430q0 129 82 223t242 94q80 0 166 -44t137 -138l20 162h154z" />
    <glyph glyph-name="r" unicode="r" horiz-adv-x="649" 
d="M602 864q-135 0 -214 -62t-79 -163v-639h-184v1024h156l18 -199q39 113 129 166t174 53v-180z" />
    <glyph glyph-name="s" unicode="s" horiz-adv-x="919" 
d="M664 283q0 53 -43 89t-108 52q-140 35 -281 93q-66 28 -108 87t-42 146v26q0 117 98 193q98 75 278 75t363 -61l-24 -141q-166 68 -322 67q-94 0 -149 -36t-56 -101v-12q0 -62 60 -100t146 -60q85 -22 170 -48t146 -90q60 -65 60 -167v-25q0 -135 -110 -213
q-110 -77 -298 -77t-372 61l28 141q166 -68 346 -67q106 0 162 44q55 44 56 111v13z" />
    <glyph glyph-name="t" unicode="t" horiz-adv-x="643" 
d="M362 897v-641q0 -70 29 -102t93 -33q64 0 116 14l12 -135q-96 -20 -200 -20t-170 58q-64 58 -64 200v659h-129v127h129v205h184v-205h230v-127h-230z" />
    <glyph glyph-name="u" unicode="u" horiz-adv-x="1044" 
d="M303 1024v-698q0 -88 54 -146q53 -58 153 -59q100 0 164 67q63 68 63 168v668h185v-1024h-156l-21 162q-51 -94 -137 -138t-166 -44q-160 0 -242 94t-81 223v727h184z" />
    <glyph glyph-name="v" unicode="v" horiz-adv-x="937" 
d="M729 1024h182l-354 -1034h-180l-348 1034h184l258 -819z" />
    <glyph glyph-name="w" unicode="w" horiz-adv-x="1388" 
d="M1171 1024h183l-275 -1034h-198l-187 821l-186 -821h-201l-272 1034h180l195 -829l190 829h184l195 -829z" />
    <glyph glyph-name="x" unicode="x" horiz-adv-x="915" 
d="M899 1024l-352 -512l352 -512h-180l-258 373l-258 -373h-185l349 512l-349 512h185l258 -373l258 373h180z" />
    <glyph glyph-name="y" unicode="y" horiz-adv-x="933" 
d="M170 -430q-70 0 -166 20l14 140q66 -18 143 -18t115 32q38 33 72 119l47 127h-20l-348 1034h184l266 -819l250 819h182l-395 -1147q-59 -183 -136 -245t-208 -62z" />
    <glyph glyph-name="z" unicode="z" horiz-adv-x="882" 
d="M827 127v-127h-774v127l553 770h-528v127h729v-127l-553 -770h573z" />
    <glyph glyph-name="braceleft" unicode="{" horiz-adv-x="604" 
d="M541 -190v-117q-158 0 -248 49q-107 59 -107 250l21 428q0 61 -2 91t-16 66q-13 36 -44 52t-82 24v127q51 8 82 24q51 27 60 118q2 29 2 92l-21 428q0 191 107 250q90 49 248 49v-117q-105 0 -161 -38t-56 -161l20 -464q0 -115 -44 -167t-134 -75v-4q90 -23 134 -75
t44 -167l-20 -465q0 -129 61 -164q61 -34 156 -34z" />
    <glyph glyph-name="bar" unicode="|" horiz-adv-x="401" 
d="M150 -307v2048h102v-2048h-102z" />
    <glyph glyph-name="braceright" unicode="}" horiz-adv-x="604" 
d="M63 1624v117q158 0 248 -49q107 -59 107 -250l-21 -428q0 -63 2 -92q1 -29 15 -65t45 -52t82 -25v-127q-51 -8 -82 -24q-51 -26 -60 -118q-2 -30 -2 -91l21 -428q0 -191 -107 -250q-90 -49 -248 -49v117q95 0 139 24t61 66t18 108l-21 465q0 115 44 167t134 75v4
q-90 23 -134 75t-44 167l21 464q-1 123 -57 161t-161 38z" />
    <glyph glyph-name="asciitilde" unicode="~" horiz-adv-x="862" 
d="M639 838h106q0 -109 -44 -160t-108 -51q-65 0 -159 47t-125 47q-78 0 -78 -94h-108q0 109 45 159q44 50 108 52q64 0 158 -47t127 -47t55 23q22 24 23 71z" />
    <glyph glyph-name="exclamdown" unicode="&#xa1;" horiz-adv-x="462" 
d="M328 -410h-195v265l31 784h135l29 -784v-265zM328 1024v-221h-195v221h195z" />
    <glyph glyph-name="cent" unicode="&#xa2;" horiz-adv-x="931" 
d="M541 -205h-103v187q-334 23 -334 348v364q0 326 334 348v187h103v-187q135 -6 295 -59l-25 -141q-154 61 -283 61q-240 0 -239 -229v-324q0 -229 239 -229q129 0 283 61l25 -141q-160 -53 -295 -59v-187z" />
    <glyph glyph-name="sterling" unicode="&#xa3;" horiz-adv-x="1220" 
d="M377 156h741v-156h-1016v156h82v381h-84v155h84v395q0 171 128 269t333 98t334 -110t129 -297v-125h-184v125q0 119 -78 185t-199 66t-195 -56t-75 -155v-395h319v-155h-319v-381z" />
    <glyph glyph-name="currency" unicode="&#xa4;" horiz-adv-x="890" 
d="M129 532v-40q0 -162 92 -235t225 -73t226 73q92 73 92 235v40q0 162 -92 235t-226 73t-225 -73q-92 -73 -92 -235zM784 532v-40q0 -199 -145 -281l74 -119h-21l-67 111q-81 -39 -179 -39t-178 39l-67 -111h-21l72 119q-143 84 -143 281v40q0 197 143 281l-72 119h21
l67 -111q80 39 178 39t179 -39l67 111h21l-74 -119q145 -86 145 -281z" />
    <glyph glyph-name="yen" unicode="&#xa5;" horiz-adv-x="1234" 
d="M985 602v-145h-274v-457h-195v457h-274v145h243l-436 832h207l358 -709l367 709h205l-445 -832h244z" />
    <glyph glyph-name="brokenbar" unicode="&#xa6;" horiz-adv-x="405" 
d="M152 -307v921h102v-921h-102zM152 819v922h102v-922h-102z" />
    <glyph glyph-name="section" unicode="&#xa7;" horiz-adv-x="1169" 
d="M121 588v98h926v-336q0 -172 -128 -268t-333 -96t-334 108t-129 297v92h184v-92q0 -119 78 -185t199 -65q122 1 196 57t74 152v238h-733zM315 856h732v-96h-926v327q0 171 129 269t334 98q204 0 332 -110t128 -297v-97h-184v97q0 119 -78 185t-198 66t-195 -56
q-74 -56 -74 -155v-231z" />
    <glyph glyph-name="dieresis" unicode="&#xa8;" horiz-adv-x="1069" 
d="M846 1169h-184v275h184v-275zM408 1169h-185v275h185v-275z" />
    <glyph glyph-name="copyright" unicode="&#xa9;" horiz-adv-x="1607" 
d="M1094 594v-74q0 -114 -83 -180t-208 -66t-208 67t-83 179v393q0 113 83 180t208 67t208 -68q83 -66 83 -179v-73h-115v73q0 70 -51 110t-124 40t-122 -40t-49 -110v-393q0 -74 48 -112t122 -37q74 0 125 38t51 111v74h115zM131 716q0 -308 195 -501q194 -193 478 -193
t478 194q194 192 195 500q0 308 -195 501q-194 193 -478 193t-478 -194q-194 -192 -195 -500zM1520 716q0 -312 -205 -524t-512 -212t-512 212t-205 524t206 525t511 213t511 -213t206 -525z" />
    <glyph glyph-name="ordfeminine" unicode="&#xaa;" horiz-adv-x="753" 
d="M610 637h-483v88h483v-88zM496 1061v72q-254 -2 -254 -121v-11q0 -41 28 -69t89 -29q60 0 99 39q38 39 38 119zM379 1454q231 0 231 -201v-426h-96l-12 101q-53 -113 -191 -113q-92 0 -138 50t-46 116v14q0 199 369 201v51q0 117 -129 117q-89 0 -191 -47l-24 82
q111 55 227 55z" />
    <glyph glyph-name="guillemotleft" unicode="&#xab;" horiz-adv-x="1228" 
d="M1120 207v-158l-520 393v138l520 395v-158l-344 -305v-4zM582 207v-158l-521 393v138l521 395v-158l-346 -305v-4z" />
    <glyph glyph-name="logicalnot" unicode="&#xac;" horiz-adv-x="1021" 
d="M137 801h752v-324h-195v176h-557v148z" />
    <glyph glyph-name="softhyphen" unicode="&#xad;" horiz-adv-x="909" 
d="M803 438h-697v148h697v-148z" />
    <glyph glyph-name="registered" unicode="&#xae;" horiz-adv-x="1607" 
d="M846 1049h-184v-304h184q145 0 145 138v30q1 63 -37 99t-108 37zM1112 920v-19q0 -158 -145 -201q100 -33 123 -180l36 -233h-120l-33 223q-14 88 -52 114t-116 25h-143v-362h-121v860h315q124 -1 190 -61t66 -166zM131 716q1 -308 195 -500t478 -193q284 1 478 193
t195 500q0 308 -195 501q-194 193 -478 193t-478 -194q-194 -192 -195 -500zM803 1454q305 0 511 -213t206 -525t-205 -524t-512 -212t-512 212t-205 524t206 525t511 213z" />
    <glyph glyph-name="macron" unicode="&#xaf;" horiz-adv-x="1093" 
d="M872 1180h-649v116h649v-116z" />
    <glyph glyph-name="degree" unicode="&#xb0;" horiz-adv-x="548" 
d="M162 1271q0 -50 32 -82t80 -32t82 32q33 32 33 82t-33 83q-33 32 -82 32q-48 0 -80 -32t-32 -83zM92 1272q0 76 53 129t129 53t129 -53t53 -129t-52 -129q-54 -53 -131 -53t-129 53t-52 129z" />
    <glyph glyph-name="plusminus" unicode="&#xb1;" horiz-adv-x="915" 
d="M100 322v147h715v-147h-715zM530 961h285v-146h-285v-285h-145v285h-285v146h285v286h145v-286z" />
    <glyph glyph-name="twosuperior" unicode="&#xb2;" horiz-adv-x="712" 
d="M643 1460v-12q0 -78 -47 -141t-115 -105q-69 -42 -137 -81q-162 -90 -162 -181v-10h461v-96h-582v102q-1 78 47 142t116 108q68 43 136 82q162 93 162 184v8q0 70 -48 110t-121 40t-119 -40t-46 -110v-43h-114v43q0 114 78 180t202 66t206 -66q83 -66 83 -180z" />
    <glyph glyph-name="threesuperior" unicode="&#xb3;" horiz-adv-x="714" 
d="M629 1485v-10q0 -137 -129 -193q145 -55 145 -201v-26q0 -111 -83 -172t-209 -61t-209 66q-83 67 -83 179v43h121v-43q0 -70 49 -110q49 -39 122 -39t122 38t49 107v24q0 66 -49 107t-121 41h-61v96h61q70 0 116 37t46 98v7q0 69 -45 103t-118 34t-119 -40t-46 -110v-43
h-114v43q0 114 78 180t202 66t199 -58q76 -58 76 -163z" />
    <glyph glyph-name="acute" unicode="&#xb4;" horiz-adv-x="790" 
d="M354 1126h-131l191 287h155z" />
    <glyph glyph-name="paragraph" unicode="&#xb6;" horiz-adv-x="1265" 
d="M1186 1317h-205v-1200h205v-117h-342v1434h342v-117zM123 408v618q0 186 134 297t339 111h158v-1434h-158q-205 0 -339 111t-134 297z" />
    <glyph glyph-name="periodcentered" unicode="&#xb7;" horiz-adv-x="428" 
d="M297 422h-166v221h166v-221z" />
    <glyph glyph-name="cedilla" unicode="&#xb8;" horiz-adv-x="882" 
d="M434 -94h21q205 0 204 -168v-21q0 -86 -58 -137t-172 -51t-206 41l23 78q86 -35 182 -35q115 0 115 104v11q0 96 -127 96h-60v184h78v-102z" />
    <glyph glyph-name="onesuperior" unicode="&#xb9;" horiz-adv-x="575" 
d="M365 930h184v-96h-492v96h187v667h-187v97h308v-764z" />
    <glyph glyph-name="ordmasculine" unicode="&#xba;" horiz-adv-x="759" 
d="M623 637h-486v88h486v-88zM252 1245v-221q0 -61 36 -93t92 -32t91 32t35 93v221q0 61 -35 93t-91 32t-92 -32t-36 -93zM623 1239v-209q0 -109 -68 -162t-174 -53t-175 53t-69 162v209q0 109 69 162t175 53t174 -53t68 -162z" />
    <glyph glyph-name="guillemotright" unicode="&#xbb;" horiz-adv-x="1228" 
d="M647 207l346 301v4l-346 305v158l520 -395v-138l-520 -393v158zM106 207l347 301v4l-347 305v158l523 -395v-138l-523 -393v158z" />
    <glyph glyph-name="onequarter" unicode="&#xbc;" horiz-adv-x="1601" 
d="M1315 319v369l-281 -369h281zM1565 319v-98h-129v-221h-121v221h-412v98l412 541h121v-541h129zM1100 1434h102l-778 -1434h-102zM549 573h-492v97h187v667h-187v97h308v-764h184v-97z" />
    <glyph glyph-name="onehalf" unicode="&#xbd;" horiz-adv-x="1658" 
d="M1589 627v-13q0 -78 -47 -141t-115 -105q-69 -42 -137 -80q-161 -89 -162 -182v-10h461v-96h-581v102q0 78 47 143t115 107t136 82q162 92 162 184v9q0 69 -48 109t-121 40t-119 -40t-45 -109v-43h-115v43q0 113 78 179t202 66t206 -66q83 -66 83 -179zM1100 1434h102
l-778 -1434h-102zM549 573h-492v97h187v667h-187v97h308v-764h184v-97z" />
    <glyph glyph-name="threequarters" unicode="&#xbe;" horiz-adv-x="1740" 
d="M1452 319v369l-281 -369h281zM1702 319v-98h-129v-221h-121v221h-412v98l412 541h121v-541h129zM1239 1434h102l-778 -1434h-102zM645 821v-26q0 -111 -83 -172t-209 -61t-209 66q-83 67 -83 179v43h121v-43q0 -70 49 -110t122 -40t122 39t49 107v24q0 66 -49 107
t-121 41h-61v96h61q70 0 116 37t46 98v6q0 68 -45 103t-118 35t-119 -40t-46 -110v-43h-114v43q0 114 78 180t202 66t199 -57q76 -57 76 -164v-11q0 -137 -129 -192q145 -56 145 -201z" />
    <glyph glyph-name="questiondown" unicode="&#xbf;" horiz-adv-x="1085" 
d="M838 49h184v-72q0 -188 -129 -298q-129 -109 -335 -109t-343 111t-137 296v74q0 166 107 272q108 105 280 130l22 206h146v-356h-74q-123 -1 -205 -67t-82 -185v-74q0 -119 82 -185t205 -66t201 66t78 185v72zM657 1024v-221h-194v221h194z" />
    <glyph glyph-name="Agrave" unicode="&#xc0;" horiz-adv-x="1185" 
d="M389 528h404l-201 658zM954 0l-114 373h-498l-115 -373h-204l477 1444h192l467 -1444h-205zM532 1536l-215 287h154l193 -287h-132z" />
    <glyph glyph-name="Aacute" unicode="&#xc1;" horiz-adv-x="1185" 
d="M389 528h404l-201 658zM954 0l-114 373h-498l-115 -373h-204l477 1444h192l467 -1444h-205zM657 1536h-131l191 287h155z" />
    <glyph glyph-name="Acircumflex" unicode="&#xc2;" horiz-adv-x="1185" 
d="M389 528h404l-201 658zM954 0l-114 373h-498l-115 -373h-204l477 1444h192l467 -1444h-205zM594 1724l-135 -188h-142l205 287h144l206 -287h-143z" />
    <glyph glyph-name="Atilde" unicode="&#xc3;" horiz-adv-x="1185" 
d="M389 528h404l-201 658zM954 0l-114 373h-498l-115 -373h-204l477 1444h192l467 -1444h-205zM797 1759h106q0 -109 -44 -161q-43 -52 -107 -52t-158 47t-127 47q-78 0 -78 -94h-106q0 109 44 161t108 52q65 0 159 -48t125 -48q78 0 78 96z" />
    <glyph glyph-name="Adieresis" unicode="&#xc4;" horiz-adv-x="1185" 
d="M389 528h404l-201 658zM954 0l-114 373h-498l-115 -373h-204l477 1444h192l467 -1444h-205zM905 1579h-184v274h184v-274zM467 1579h-184v274h184v-274z" />
    <glyph glyph-name="Aring" unicode="&#xc5;" horiz-adv-x="1185" 
d="M389 528h404l-201 658zM954 0l-114 373h-498l-115 -373h-204l477 1444h192l467 -1444h-205zM594 1815q-131 0 -131 -115t131 -115q66 0 100 31t33 84q1 53 -33 84t-100 31zM834 1700q0 -184 -239 -184t-239 184t239 184t239 -184z" />
    <glyph glyph-name="AE" unicode="&#xc6;" horiz-adv-x="1689" 
d="M748 528v684l-299 -684h299zM1618 1278h-676v-473h541v-156h-541v-493h676v-156h-870v373h-367l-162 -373h-205l633 1434h971v-156z" />
    <glyph glyph-name="Ccedilla" unicode="&#xc7;" horiz-adv-x="1179" 
d="M1081 922h-184v125q0 117 -87 185t-210 66q-123 0 -206 -66t-83 -185v-660q0 -125 81 -188t208 -63t212 64q85 65 85 187v125h184v-125q0 -178 -125 -287t-317 -118v-84h20q205 0 205 -168v-21q0 -86 -58 -137t-172 -51t-206 41l23 78q86 -35 182 -35q115 0 115 104v10
q0 96 -127 97h-60v166q-193 10 -319 118t-125 287v660q0 187 138 297t345 110t344 -111t137 -296v-125z" />
    <glyph glyph-name="Egrave" unicode="&#xc8;" horiz-adv-x="1091" 
d="M1020 1278h-676v-473h541v-156h-541v-493h676v-156h-870v1434h870v-156zM504 1536l-215 287h153l193 -287h-131z" />
    <glyph glyph-name="Eacute" unicode="&#xc9;" horiz-adv-x="1091" 
d="M1020 1278h-676v-473h541v-156h-541v-493h676v-156h-870v1434h870v-156zM631 1536h-131l190 287h156z" />
    <glyph glyph-name="Ecircumflex" unicode="&#xca;" horiz-adv-x="1091" 
d="M1020 1278h-676v-473h541v-156h-541v-493h676v-156h-870v1434h870v-156zM565 1724l-135 -188h-141l205 287h143l207 -287h-144z" />
    <glyph glyph-name="Edieresis" unicode="&#xcb;" horiz-adv-x="1091" 
d="M1020 1278h-676v-473h541v-156h-541v-493h676v-156h-870v1434h870v-156zM879 1579h-185v274h185v-274zM440 1579h-184v274h184v-274z" />
    <glyph glyph-name="Igrave" unicode="&#xcc;" horiz-adv-x="493" 
d="M150 0v1434h194v-1434h-194zM184 1536l-215 287h154l192 -287h-131z" />
    <glyph glyph-name="Iacute" unicode="&#xcd;" horiz-adv-x="493" 
d="M150 0v1434h194v-1434h-194zM311 1536h-131l191 287h155z" />
    <glyph glyph-name="Icircumflex" unicode="&#xce;" horiz-adv-x="493" 
d="M150 0v1434h194v-1434h-194zM246 1724l-135 -188h-142l205 287h143l207 -287h-143z" />
    <glyph glyph-name="Idieresis" unicode="&#xcf;" horiz-adv-x="493" 
d="M150 0v1434h194v-1434h-194zM557 1579h-184v274h184v-274zM119 1579h-185v274h185v-274z" />
    <glyph glyph-name="Eth" unicode="&#xd0;" horiz-adv-x="1249" 
d="M940 408v618q0 120 -80 186t-198 66h-300v-473h197v-156h-197v-493h300q122 0 200 64t78 188zM170 1434h492q204 0 338 -111t135 -297v-618q-1 -186 -135 -297t-338 -111h-492v649h-156v156h156v629z" />
    <glyph glyph-name="Ntilde" unicode="&#xd1;" horiz-adv-x="1325" 
d="M991 1434h185v-1434h-195l-659 1104q12 -215 12 -369v-735h-184v1434h202l649 -1102q-10 231 -10 366v736zM866 1759h107q0 -109 -44 -161q-43 -52 -107 -52t-158 47t-127 47q-78 0 -78 -94h-107q0 109 44 161t108 52t160 -48q94 -48 124 -48q78 0 78 96z" />
    <glyph glyph-name="Ograve" unicode="&#xd2;" horiz-adv-x="1198" 
d="M887 1047q0 119 -82 185t-205 66t-206 -66t-83 -185v-660q0 -119 83 -185t206 -67q123 0 205 67t82 185v660zM117 1047q0 187 138 297t345 110t344 -111t137 -296v-660q0 -186 -137 -297q-137 -110 -344 -110t-345 110t-138 297v660zM537 1536l-215 287h153l193 -287
h-131z" />
    <glyph glyph-name="Oacute" unicode="&#xd3;" horiz-adv-x="1198" 
d="M887 1047q0 119 -82 185t-205 66t-206 -66t-83 -185v-660q0 -119 83 -185t206 -67q123 0 205 67t82 185v660zM117 1047q0 187 138 297t345 110t344 -111t137 -296v-660q0 -186 -137 -297q-137 -110 -344 -110t-345 110t-138 297v660zM664 1536h-132l191 287h156z" />
    <glyph glyph-name="Ocircumflex" unicode="&#xd4;" horiz-adv-x="1198" 
d="M887 1047q0 119 -82 185t-205 66t-206 -66t-83 -185v-660q0 -119 83 -185t206 -67q123 0 205 67t82 185v660zM117 1047q0 187 138 297t345 110t344 -111t137 -296v-660q0 -186 -137 -297q-137 -110 -344 -110t-345 110t-138 297v660zM598 1724l-135 -188h-141l204 287
h144l207 -287h-144z" />
    <glyph glyph-name="Otilde" unicode="&#xd5;" horiz-adv-x="1198" 
d="M887 1047q0 119 -82 185t-205 66t-206 -66t-83 -185v-660q0 -119 83 -185t206 -67q123 0 205 67t82 185v660zM117 1047q0 187 138 297t345 110t344 -111t137 -296v-660q0 -186 -137 -297q-137 -110 -344 -110t-345 110t-138 297v660zM803 1759h106q0 -109 -44 -161
t-107 -52q-64 0 -158 47t-127 47q-78 0 -78 -94h-106q0 109 44 161q45 52 109 52t158 -48t125 -48q78 0 78 96z" />
    <glyph glyph-name="Odieresis" unicode="&#xd6;" horiz-adv-x="1198" 
d="M887 1047q0 119 -82 185t-205 66t-206 -66t-83 -185v-660q0 -119 83 -185t206 -67q123 0 205 67t82 185v660zM117 1047q0 187 138 297t345 110t344 -111t137 -296v-660q0 -186 -137 -297q-137 -110 -344 -110t-345 110t-138 297v660zM911 1579h-184v274h184v-274z
M473 1579h-184v274h184v-274z" />
    <glyph glyph-name="multiply" unicode="&#xd7;" horiz-adv-x="917" 
d="M825 991l-630 -631l-103 103l631 631z" />
    <glyph glyph-name="Oslash" unicode="&#xd8;" horiz-adv-x="1198" 
d="M887 387v660q0 41 -8 67l-504 -895q80 -84 214 -84q134 1 216 67t82 185zM311 1047v-660q0 -43 13 -80l505 899q-76 92 -214 92t-221 -66t-83 -185zM1081 1047v-660q0 -186 -137 -297q-138 -110 -332 -110t-325 86l-60 -107h-100l92 164q-102 109 -102 264v660
q0 187 138 297q139 110 335 110t328 -90l63 111h100l-96 -170q96 -106 96 -258z" />
    <glyph glyph-name="Ugrave" unicode="&#xd9;" horiz-adv-x="1249" 
d="M913 1434h195v-1047q0 -186 -138 -297q-138 -110 -345 -110t-345 110t-139 297v1047h195v-1047q0 -125 82 -188t207 -63t207 62q82 64 81 189v1047zM563 1536l-215 287h154l192 -287h-131z" />
    <glyph glyph-name="Uacute" unicode="&#xda;" horiz-adv-x="1249" 
d="M913 1434h195v-1047q0 -186 -138 -297q-138 -110 -345 -110t-345 110t-139 297v1047h195v-1047q0 -125 82 -188t207 -63t207 62q82 64 81 189v1047zM688 1536h-131l191 287h155z" />
    <glyph glyph-name="Ucircumflex" unicode="&#xdb;" horiz-adv-x="1249" 
d="M913 1434h195v-1047q0 -186 -138 -297q-138 -110 -345 -110t-345 110t-139 297v1047h195v-1047q0 -125 82 -188t207 -63t207 62q82 64 81 189v1047zM625 1724l-136 -188h-141l205 287h143l207 -287h-143z" />
    <glyph glyph-name="Udieresis" unicode="&#xdc;" horiz-adv-x="1249" 
d="M913 1434h195v-1047q0 -186 -138 -297q-138 -110 -345 -110t-345 110t-139 297v1047h195v-1047q0 -125 82 -188t207 -63t207 62q82 64 81 189v1047zM936 1579h-184v274h184v-274zM498 1579h-185v274h185v-274z" />
    <glyph glyph-name="Yacute" unicode="&#xdd;" horiz-adv-x="1155" 
d="M672 0h-195v545l-467 889h207l358 -711l367 711h205l-475 -889v-545zM641 1536h-131l190 287h156z" />
    <glyph glyph-name="Thorn" unicode="&#xde;" horiz-adv-x="1150" 
d="M899 682v92q0 120 -80 186t-198 66h-277v-596h277q121 0 199 64t79 188zM344 1182h277q207 0 340 -110t133 -298v-92q0 -188 -133 -298t-340 -110h-277v-274h-194v1434h194v-252z" />
    <glyph glyph-name="germandbls" unicode="&#xdf;" horiz-adv-x="1161" 
d="M987 1139v-76q0 -205 -166 -289q268 -78 269 -344v-53q0 -185 -123 -281t-312 -96h-200v156h192q119 0 194 55t74 176v53q0 115 -76 173q-77 58 -192 59h-192v155h90q111 -1 185 53t73 169v100q1 103 -61 157t-160 54t-160 -54t-62 -157v-1149h-184v897h-129v127h129v115
q0 180 114 268t293 88t291 -87t113 -269z" />
    <glyph glyph-name="agrave" unicode="&#xe0;" horiz-adv-x="985" 
d="M680 389v121q-246 -2 -339 -57t-93 -148v-16q0 -72 49 -120t150 -48q101 1 167 67t66 201zM479 1044q385 0 385 -331v-713h-153l-21 168q-92 -188 -319 -188q-154 0 -231 84t-77 190v27q0 328 617 331v90q0 197 -219 197q-140 0 -318 -76l-39 131q184 90 375 90z
M418 1126l-215 287h153l193 -287h-131z" />
    <glyph glyph-name="aacute" unicode="&#xe1;" horiz-adv-x="985" 
d="M680 389v121q-246 -2 -339 -57t-93 -148v-16q0 -72 49 -120t150 -48q101 1 167 67t66 201zM479 1044q385 0 385 -331v-713h-153l-21 168q-92 -188 -319 -188q-154 0 -231 84t-77 190v27q0 328 617 331v90q0 197 -219 197q-140 0 -318 -76l-39 131q184 90 375 90z
M543 1126h-131l190 287h156z" />
    <glyph glyph-name="acircumflex" unicode="&#xe2;" horiz-adv-x="985" 
d="M680 389v121q-246 -2 -339 -57t-93 -148v-16q0 -72 49 -120t150 -48q101 1 167 67t66 201zM479 1044q385 0 385 -331v-713h-153l-21 168q-92 -188 -319 -188q-154 0 -231 84t-77 190v27q0 328 617 331v90q0 197 -219 197q-140 0 -318 -76l-39 131q184 90 375 90z
M479 1315l-135 -189h-141l205 287h143l207 -287h-144z" />
    <glyph glyph-name="atilde" unicode="&#xe3;" horiz-adv-x="985" 
d="M680 389v121q-246 -2 -339 -57t-93 -148v-16q0 -72 49 -120t150 -48q101 1 167 67t66 201zM479 1044q385 0 385 -331v-713h-153l-21 168q-92 -188 -319 -188q-154 0 -231 84t-77 190v27q0 328 617 331v90q0 197 -219 197q-140 0 -318 -76l-39 131q184 90 375 90z
M684 1350h107q-1 -109 -45 -161t-107 -52t-157 47t-128 47q-78 0 -78 -94h-106q0 109 44 161t108 52t159 -48q94 -48 125 -49q78 1 78 97z" />
    <glyph glyph-name="adieresis" unicode="&#xe4;" horiz-adv-x="985" 
d="M680 389v121q-246 -2 -339 -57t-93 -148v-16q0 -72 49 -120t150 -48q101 1 167 67t66 201zM479 1044q385 0 385 -331v-713h-153l-21 168q-92 -188 -319 -188q-154 0 -231 84t-77 190v27q0 328 617 331v90q0 197 -219 197q-140 0 -318 -76l-39 131q184 90 375 90z
M791 1169h-185v275h185v-275zM352 1169h-184v275h184v-275z" />
    <glyph glyph-name="aring" unicode="&#xe5;" horiz-adv-x="985" 
d="M680 389v121q-246 -2 -339 -57t-93 -148v-16q0 -72 49 -120t150 -48q101 1 167 67t66 201zM479 1044q385 0 385 -331v-713h-153l-21 168q-92 -188 -319 -188q-154 0 -231 84t-77 190v27q0 328 617 331v90q0 197 -219 197q-140 0 -318 -76l-39 131q184 90 375 90z
M479 1405q-131 0 -131 -115t131 -114q66 0 100 30t33 84q0 53 -33 84q-34 31 -100 31zM719 1290q0 -184 -239 -184t-238 184q0 184 238 184t239 -184z" />
    <glyph glyph-name="ae" unicode="&#xe6;" horiz-adv-x="1550" 
d="M680 389v117q-246 -4 -339 -60t-93 -147v-10q0 -72 49 -120t150 -48q101 1 167 67t66 201zM1298 608v94q0 102 -60 154t-156 53q-96 0 -157 -54q-60 -54 -61 -157v-90h434zM63 254v20q0 140 121 231q139 101 496 103v94q0 197 -219 197q-139 0 -318 -76l-39 131
q184 90 383 90t295 -96q109 96 288 96q180 0 286 -85t106 -267v-186h-598v-160q0 -225 252 -225q176 0 326 61l26 -141q-190 -61 -377 -61t-296 85q-63 48 -90 123q-94 -209 -334 -208q-154 0 -231 84t-77 190z" />
    <glyph glyph-name="ccedilla" unicode="&#xe7;" horiz-adv-x="882" 
d="M520 -102h21q205 0 204 -168v-21q0 -86 -58 -137t-172 -51t-206 41l23 78q86 -35 182 -35q115 0 115 104v10q0 96 -127 97h-60v164q-346 18 -346 350v364q0 350 385 350q162 0 346 -61l-24 -141q-150 61 -283 61q-240 0 -239 -229v-324q0 -229 239 -229q133 0 283 61
l24 -141q-166 -55 -307 -61v-82z" />
    <glyph glyph-name="egrave" unicode="&#xe8;" horiz-adv-x="966" 
d="M713 592v110q-1 102 -61 154t-156 53q-96 0 -156 -54t-61 -157v-106h434zM877 469h-598v-123q0 -225 251 -225q176 0 326 61l27 -141q-189 -61 -371 -61t-300 85t-118 275v348q0 180 113 268t285 88t278 -85t107 -267v-223zM434 1126l-215 287h154l192 -287h-131z" />
    <glyph glyph-name="eacute" unicode="&#xe9;" horiz-adv-x="966" 
d="M713 592v110q-1 102 -61 154t-156 53q-96 0 -156 -54t-61 -157v-106h434zM877 469h-598v-123q0 -225 251 -225q176 0 326 61l27 -141q-189 -61 -371 -61t-300 85t-118 275v348q0 180 113 268t285 88t278 -85t107 -267v-223zM559 1126h-131l190 287h156z" />
    <glyph glyph-name="ecircumflex" unicode="&#xea;" horiz-adv-x="966" 
d="M713 592v110q-1 102 -61 154t-156 53q-96 0 -156 -54t-61 -157v-106h434zM877 469h-598v-123q0 -225 251 -225q176 0 326 61l27 -141q-189 -61 -371 -61t-300 85t-118 275v348q0 180 113 268t285 88t278 -85t107 -267v-223zM496 1315l-136 -189h-141l205 287h143
l207 -287h-143z" />
    <glyph glyph-name="edieresis" unicode="&#xeb;" horiz-adv-x="966" 
d="M713 592v110q-1 102 -61 154t-156 53q-96 0 -156 -54t-61 -157v-106h434zM877 469h-598v-123q0 -225 251 -225q176 0 326 61l27 -141q-189 -61 -371 -61t-300 85t-118 275v348q0 180 113 268t285 88t278 -85t107 -267v-223zM807 1169h-184v275h184v-275zM369 1169h-185
v275h185v-275z" />
    <glyph glyph-name="igrave" unicode="&#xec;" horiz-adv-x="434" 
d="M309 0h-184v1024h184v-1024zM154 1126l-215 287h153l193 -287h-131z" />
    <glyph glyph-name="iacute" unicode="&#xed;" horiz-adv-x="434" 
d="M309 0h-184v1024h184v-1024zM281 1126h-131l190 287h156z" />
    <glyph glyph-name="icircumflex" unicode="&#xee;" horiz-adv-x="434" 
d="M309 0h-184v1024h184v-1024zM215 1315l-135 -189h-141l204 287h144l207 -287h-144z" />
    <glyph glyph-name="idieresis" unicode="&#xef;" horiz-adv-x="434" 
d="M309 0h-184v1024h184v-1024zM528 1169h-184v275h184v-275zM90 1169h-184v275h184v-275z" />
    <glyph glyph-name="eth" unicode="&#xf0;" horiz-adv-x="1130" 
d="M252 424v-37q0 -119 82 -185t205 -67q123 0 205 67t83 185v285h-288q-123 0 -205 -66t-82 -182zM578 1638v-186q192 -10 318 -119t126 -286v-660q0 -186 -138 -297q-138 -110 -345 -110t-344 110t-138 297v37q-1 186 137 295t345 108h288v220q-1 109 -71 175t-178 74
v-174h-101v176h-327v156h327v184h101z" />
    <glyph glyph-name="ntilde" unicode="&#xf1;" horiz-adv-x="1044" 
d="M741 0v698q0 88 -53 146t-153 59q-100 0 -163 -67q-62 -68 -63 -168v-668h-184v1024h156l18 -162q51 94 137 138t166 44q162 0 243 -94t81 -223v-727h-185zM733 1350h107q0 -109 -44 -161t-108 -52t-158 47t-127 47q-78 0 -77 -94h-107q0 109 44 161q45 52 109 52
t158 -48t125 -49q78 1 78 97z" />
    <glyph glyph-name="ograve" unicode="&#xf2;" horiz-adv-x="991" 
d="M279 698v-372q0 -102 60 -156q61 -54 157 -55q96 0 156 54t61 157v372q-1 102 -61 156t-156 55q-96 0 -157 -54q-60 -55 -60 -157zM897 688v-352q0 -180 -113 -268q-112 -88 -288 -88t-289 88t-113 268v352q0 180 113 268t289 88t288 -88t113 -268zM434 1126l-215 287
h154l192 -287h-131z" />
    <glyph glyph-name="oacute" unicode="&#xf3;" horiz-adv-x="991" 
d="M279 698v-372q0 -102 60 -156q61 -54 157 -55q96 0 156 54t61 157v372q-1 102 -61 156t-156 55q-96 0 -157 -54q-60 -55 -60 -157zM897 688v-352q0 -180 -113 -268q-112 -88 -288 -88t-289 88t-113 268v352q0 180 113 268t289 88t288 -88t113 -268zM559 1126h-131
l190 287h156z" />
    <glyph glyph-name="ocircumflex" unicode="&#xf4;" horiz-adv-x="991" 
d="M279 698v-372q0 -102 60 -156q61 -54 157 -55q96 0 156 54t61 157v372q-1 102 -61 156t-156 55q-96 0 -157 -54q-60 -55 -60 -157zM897 688v-352q0 -180 -113 -268q-112 -88 -288 -88t-289 88t-113 268v352q0 180 113 268t289 88t288 -88t113 -268zM496 1315l-136 -189
h-141l205 287h143l207 -287h-143z" />
    <glyph glyph-name="otilde" unicode="&#xf5;" horiz-adv-x="991" 
d="M279 698v-372q0 -102 60 -156q61 -54 157 -55q96 0 156 54t61 157v372q-1 102 -61 156t-156 55q-96 0 -157 -54q-60 -55 -60 -157zM897 688v-352q0 -180 -113 -268q-112 -88 -288 -88t-289 88t-113 268v352q0 180 113 268t289 88t288 -88t113 -268zM698 1350h107
q0 -109 -44 -161q-43 -52 -107 -52t-158 47t-127 47q-78 0 -78 -94h-107q0 109 44 161t108 52t160 -48q94 -48 125 -49q77 1 77 97z" />
    <glyph glyph-name="odieresis" unicode="&#xf6;" horiz-adv-x="991" 
d="M279 698v-372q0 -102 60 -156q61 -54 157 -55q96 0 156 54t61 157v372q-1 102 -61 156t-156 55q-96 0 -157 -54q-60 -55 -60 -157zM897 688v-352q0 -180 -113 -268q-112 -88 -288 -88t-289 88t-113 268v352q0 180 113 268t289 88t288 -88t113 -268zM807 1169h-184v275
h184v-275zM369 1169h-185v275h185v-275z" />
    <glyph glyph-name="divide" unicode="&#xf7;" horiz-adv-x="966" 
d="M565 330h-164v219h164v-219zM850 653h-733v148h733v-148zM565 905h-164v219h164v-219z" />
    <glyph glyph-name="oslash" unicode="&#xf8;" horiz-adv-x="991" 
d="M713 326v372q0 39 -8 64l-371 -588q58 -59 158 -59q100 1 160 55t61 156zM279 698v-372q0 -39 8 -64l370 588q-59 59 -158 59t-160 -54q-60 -55 -60 -157zM897 688v-352q0 -180 -113 -268t-274 -88t-262 59l-51 -80h-103l86 135q-86 90 -86 242v352q0 180 113 268t275 88
t261 -59l52 80h102l-86 -135q86 -90 86 -242z" />
    <glyph glyph-name="ugrave" unicode="&#xf9;" horiz-adv-x="1044" 
d="M303 1024v-698q0 -88 54 -146q53 -58 153 -59q100 0 164 67q63 68 63 168v668h185v-1024h-156l-21 162q-51 -94 -137 -138t-166 -44q-160 0 -242 94t-81 223v727h184zM461 1126l-215 287h153l193 -287h-131z" />
    <glyph glyph-name="uacute" unicode="&#xfa;" horiz-adv-x="1044" 
d="M303 1024v-698q0 -88 54 -146q53 -58 153 -59q100 0 164 67q63 68 63 168v668h185v-1024h-156l-21 162q-51 -94 -137 -138t-166 -44q-160 0 -242 94t-81 223v727h184zM588 1126h-131l190 287h156z" />
    <glyph glyph-name="ucircumflex" unicode="&#xfb;" horiz-adv-x="1044" 
d="M303 1024v-698q0 -88 54 -146q53 -58 153 -59q100 0 164 67q63 68 63 168v668h185v-1024h-156l-21 162q-51 -94 -137 -138t-166 -44q-160 0 -242 94t-81 223v727h184zM522 1315l-135 -189h-141l205 287h143l207 -287h-144z" />
    <glyph glyph-name="udieresis" unicode="&#xfc;" horiz-adv-x="1044" 
d="M303 1024v-698q0 -88 54 -146q53 -58 153 -59q100 0 164 67q63 68 63 168v668h185v-1024h-156l-21 162q-51 -94 -137 -138t-166 -44q-160 0 -242 94t-81 223v727h184zM836 1169h-185v275h185v-275zM397 1169h-184v275h184v-275z" />
    <glyph glyph-name="yacute" unicode="&#xfd;" horiz-adv-x="933" 
d="M170 -430q-70 0 -166 20l14 140q66 -18 143 -18t115 32q38 33 72 119l47 127h-20l-348 1034h184l266 -819l250 819h182l-395 -1147q-59 -183 -136 -245t-208 -62zM532 1126h-131l191 287h156z" />
    <glyph glyph-name="thorn" unicode="&#xfe;" horiz-adv-x="1024" 
d="M309 668v-312q1 -100 63 -168t162 -68t154 59q53 58 53 147v372q0 88 -53 146t-153 59t-163 -67t-63 -168zM309 1475v-603q51 88 133 130t160 42q162 0 243 -94t81 -223v-430q0 -129 -81 -223t-243 -94q-78 0 -160 42t-133 130v-562h-184v1885h184z" />
    <glyph glyph-name="ydieresis" unicode="&#xff;" horiz-adv-x="933" 
d="M170 -430q-70 0 -166 20l14 140q66 -18 143 -18t115 32q38 33 72 119l47 127h-20l-348 1034h184l266 -819l250 819h182l-395 -1147q-59 -183 -136 -245t-208 -62zM780 1169h-184v275h184v-275zM342 1169h-184v275h184v-275z" />
    <glyph glyph-name="Amacron" unicode="&#x100;" horiz-adv-x="1185" 
d="M389 528h404l-201 658zM954 0l-114 373h-498l-115 -373h-204l477 1444h192l467 -1444h-205zM920 1589h-650v117h650v-117z" />
    <glyph glyph-name="amacron" unicode="&#x101;" horiz-adv-x="985" 
d="M680 389v121q-246 -2 -339 -57t-93 -148v-16q0 -72 49 -120t150 -48q101 1 167 67t66 201zM479 1044q385 0 385 -331v-713h-153l-21 168q-92 -188 -319 -188q-154 0 -231 84t-77 190v27q0 328 617 331v90q0 197 -219 197q-140 0 -318 -76l-39 131q184 90 375 90z
M805 1180h-649v116h649v-116z" />
    <glyph glyph-name="Abreve" unicode="&#x102;" horiz-adv-x="1185" 
d="M389 528h404l-201 658zM954 0l-114 373h-498l-115 -373h-204l477 1444h192l467 -1444h-205zM416 1823q0 -72 44 -126q44 -55 134 -55t133 54t43 127h88q0 -131 -72 -209t-192 -78t-193 78q-72 78 -71 209h86z" />
    <glyph glyph-name="abreve" unicode="&#x103;" horiz-adv-x="985" 
d="M680 389v121q-246 -2 -339 -57t-93 -148v-16q0 -72 49 -120t150 -48q101 1 167 67t66 201zM479 1044q385 0 385 -331v-713h-153l-21 168q-92 -188 -319 -188q-154 0 -231 84t-77 190v27q0 328 617 331v90q0 197 -219 197q-140 0 -318 -76l-39 131q184 90 375 90z
M301 1413q0 -72 44 -126t134 -54t133 53t43 127h88q1 -131 -71 -209t-193 -78t-193 78t-71 209h86z" />
    <glyph glyph-name="Aogonek" unicode="&#x104;" horiz-adv-x="1185" 
d="M389 528h404l-201 658zM848 -271q0 71 48 145t128 126h-70l-114 373h-498l-115 -373h-204l477 1444h192l467 -1444h-47q-55 -45 -95 -112t-40 -119q0 -100 100 -101q41 0 115 37l18 -65q-76 -60 -167 -60t-143 39t-52 110z" />
    <glyph glyph-name="aogonek" unicode="&#x105;" horiz-adv-x="985" 
d="M680 389v121q-246 -2 -339 -57t-93 -148v-16q0 -72 49 -120t150 -48q101 1 167 67t66 201zM371 -20q-154 0 -231 84t-77 190v27q0 328 617 331v90q0 197 -219 197q-139 0 -318 -76l-39 131q184 90 375 90q385 0 385 -331v-713h-28q-56 -45 -96 -112t-40 -119
q0 -100 101 -101q40 0 114 37l19 -65q-76 -60 -167 -60t-143 39t-52 110t48 145t128 126h-37l-21 168q-92 -188 -319 -188z" />
    <glyph glyph-name="Cacute" unicode="&#x106;" horiz-adv-x="1179" 
d="M1081 512v-125q0 -186 -137 -297q-137 -110 -344 -110t-345 110t-138 297v660q0 187 138 297t345 110t344 -111t137 -296v-125h-184v125q0 117 -87 185t-210 66q-123 0 -206 -66t-83 -185v-660q0 -125 81 -188t208 -63t212 64q85 65 85 187v125h184zM664 1536h-132
l191 287h156z" />
    <glyph glyph-name="cacute" unicode="&#x107;" horiz-adv-x="882" 
d="M96 694q0 350 385 350q162 0 346 -61l-24 -141q-150 61 -283 61q-240 0 -239 -229v-324q0 -229 239 -229q133 0 283 61l24 -141q-184 -61 -346 -61q-385 0 -385 350v364zM541 1126h-131l190 287h156z" />
    <glyph glyph-name="Ccircumflex" unicode="&#x108;" horiz-adv-x="1179" 
d="M1081 512v-125q0 -186 -137 -297q-137 -110 -344 -110t-345 110t-138 297v660q0 187 138 297t345 110t344 -111t137 -296v-125h-184v125q0 117 -87 185t-210 66q-123 0 -206 -66t-83 -185v-660q0 -125 81 -188t208 -63t212 64q85 65 85 187v125h184zM598 1724l-135 -188
h-141l204 287h144l207 -287h-144z" />
    <glyph glyph-name="ccircumflex" unicode="&#x109;" horiz-adv-x="882" 
d="M96 694q0 350 385 350q162 0 346 -61l-24 -141q-150 61 -283 61q-240 0 -239 -229v-324q0 -229 239 -229q133 0 283 61l24 -141q-184 -61 -346 -61q-385 0 -385 350v364zM475 1315l-135 -189h-141l204 287h144l207 -287h-144z" />
    <glyph glyph-name="Cdotaccent" unicode="&#x10a;" horiz-adv-x="1179" 
d="M1081 512v-125q0 -186 -137 -297q-137 -110 -344 -110t-345 110t-138 297v660q0 187 138 297t345 110t344 -111t137 -296v-125h-184v125q0 117 -87 185t-210 66q-123 0 -206 -66t-83 -185v-660q0 -125 81 -188t208 -63t212 64q85 65 85 187v125h184zM692 1579h-184v274
h184v-274z" />
    <glyph glyph-name="cdotaccent" unicode="&#x10b;" horiz-adv-x="882" 
d="M96 694q0 350 385 350q162 0 346 -61l-24 -141q-150 61 -283 61q-240 0 -239 -229v-324q0 -229 239 -229q133 0 283 61l24 -141q-184 -61 -346 -61q-385 0 -385 350v364zM569 1169h-184v275h184v-275z" />
    <glyph glyph-name="Ccaron" unicode="&#x10c;" horiz-adv-x="1179" 
d="M1081 512v-125q0 -186 -137 -297q-137 -110 -344 -110t-345 110t-138 297v660q0 187 138 297t345 110t344 -111t137 -296v-125h-184v125q0 117 -87 185t-210 66q-123 0 -206 -66t-83 -185v-660q0 -125 81 -188t208 -63t212 64q85 65 85 187v125h184zM598 1634l135 189
h144l-207 -287h-144l-204 287h141z" />
    <glyph glyph-name="ccaron" unicode="&#x10d;" horiz-adv-x="882" 
d="M96 694q0 350 385 350q162 0 346 -61l-24 -141q-150 61 -283 61q-240 0 -239 -229v-324q0 -229 239 -229q133 0 283 61l24 -141q-184 -61 -346 -61q-385 0 -385 350v364zM475 1225l135 188h144l-207 -287h-144l-204 287h141z" />
    <glyph glyph-name="Dcaron" unicode="&#x10e;" horiz-adv-x="1230" 
d="M920 408v618q0 120 -80 186t-199 66h-297v-1122h297q121 0 200 64t79 188zM150 1434h491q207 0 340 -110t133 -298v-618q0 -188 -133 -298t-340 -110h-491v1434zM623 1634l135 189h143l-207 -287h-143l-205 287h141z" />
    <glyph glyph-name="dcaron" unicode="&#x10f;" horiz-adv-x="1247" 
d="M715 356v312q-1 100 -63 168t-162 68t-153 -59q-54 -58 -54 -147v-372q0 -88 54 -146t153 -59t162 67t63 168zM1192 1475v-447h-88l-60 236v211h148zM422 -20q-160 0 -242 94t-82 223v430q0 129 82 223t242 94q78 0 160 -42t133 -130v603h184v-1475h-154l-20 162
q-51 -94 -137 -138t-166 -44z" />
    <glyph glyph-name="Dcroat" unicode="&#x110;" horiz-adv-x="1249" 
d="M940 408v618q0 120 -80 186t-198 66h-300v-473h197v-156h-197v-493h300q122 0 200 64t78 188zM170 1434h492q204 0 338 -111t135 -297v-618q-1 -186 -135 -297t-338 -111h-492v649h-156v156h156v629z" />
    <glyph glyph-name="dcroat" unicode="&#x111;" horiz-adv-x="1024" 
d="M715 356v312q-1 100 -63 168t-162 68t-153 -59q-54 -58 -54 -147v-372q0 -88 54 -146t153 -59t162 67t63 168zM1055 1296v-116h-156v-1180h-154l-20 162q-51 -94 -137 -138t-166 -44q-160 0 -242 94t-82 223v430q0 129 82 223t242 94q78 0 160 -42t133 -130v308h-164v116
h164v179h184v-179h156z" />
    <glyph glyph-name="Emacron" unicode="&#x112;" horiz-adv-x="1091" 
d="M1020 1278h-676v-473h541v-156h-541v-493h676v-156h-870v1434h870v-156zM893 1589h-649v117h649v-117z" />
    <glyph glyph-name="emacron" unicode="&#x113;" horiz-adv-x="966" 
d="M713 592v110q-1 102 -61 154t-156 53q-96 0 -156 -54t-61 -157v-106h434zM877 469h-598v-123q0 -225 251 -225q176 0 326 61l27 -141q-189 -61 -371 -61t-300 85t-118 275v348q0 180 113 268t285 88t278 -85t107 -267v-223zM821 1180h-649v116h649v-116z" />
    <glyph glyph-name="Ebreve" unicode="&#x114;" horiz-adv-x="1091" 
d="M1020 1278h-676v-473h541v-156h-541v-493h676v-156h-870v1434h870v-156zM379 1823q0 -72 44 -126q44 -55 134 -55t133 54t43 127h88q1 -131 -71 -209t-193 -78t-193 78t-71 209h86z" />
    <glyph glyph-name="ebreve" unicode="&#x115;" horiz-adv-x="966" 
d="M713 592v110q-1 102 -61 154t-156 53q-96 0 -156 -54t-61 -157v-106h434zM877 469h-598v-123q0 -225 251 -225q176 0 326 61l27 -141q-189 -61 -371 -61t-300 85t-118 275v348q0 180 113 268t285 88t278 -85t107 -267v-223zM317 1413q0 -72 44 -126q45 -54 135 -54
t133 53t43 127h88q0 -131 -72 -209t-192 -78t-193 78q-72 78 -72 209h86z" />
    <glyph glyph-name="Edotaccent" unicode="&#x116;" horiz-adv-x="1091" 
d="M1020 1278h-676v-473h541v-156h-541v-493h676v-156h-870v1434h870v-156zM659 1579h-184v274h184v-274z" />
    <glyph glyph-name="edotaccent" unicode="&#x117;" horiz-adv-x="966" 
d="M713 592v110q-1 102 -61 154t-156 53q-96 0 -156 -54t-61 -157v-106h434zM877 469h-598v-123q0 -225 251 -225q176 0 326 61l27 -141q-189 -61 -371 -61t-300 85t-118 275v348q0 180 113 268t285 88t278 -85t107 -267v-223zM588 1169h-185v275h185v-275z" />
    <glyph glyph-name="Eogonek" unicode="&#x118;" horiz-adv-x="1091" 
d="M756 -271q0 71 48 145t128 126h-782v1434h870v-156h-676v-473h541v-156h-541v-493h676v-156q-55 -45 -95 -112t-40 -119q0 -100 100 -101q41 0 115 37l18 -65q-76 -60 -167 -60t-143 39t-52 110z" />
    <glyph glyph-name="eogonek" unicode="&#x119;" horiz-adv-x="966" 
d="M279 698v-106h434v110q-1 102 -61 154t-156 53q-96 0 -157 -54q-60 -55 -60 -157zM94 340v348q0 180 113 268t285 88t278 -85t107 -267v-223h-598v-123q0 -225 251 -225q176 0 326 61l27 -141q-55 -45 -95 -112t-40 -119q0 -100 100 -101q41 0 115 37l18 -65
q-76 -59 -167 -59t-143 38q-52 39 -53 109q0 127 130 235q-135 -25 -246 -24q-172 0 -290 85t-118 275z" />
    <glyph glyph-name="Ecaron" unicode="&#x11a;" horiz-adv-x="1091" 
d="M1020 1278h-676v-473h541v-156h-541v-493h676v-156h-870v1434h870v-156zM565 1634l135 189h144l-207 -287h-143l-205 287h141z" />
    <glyph glyph-name="ecaron" unicode="&#x11b;" horiz-adv-x="966" 
d="M713 592v110q-1 102 -61 154t-156 53q-96 0 -156 -54t-61 -157v-106h434zM877 469h-598v-123q0 -225 251 -225q176 0 326 61l27 -141q-189 -61 -371 -61t-300 85t-118 275v348q0 180 113 268t285 88t278 -85t107 -267v-223zM496 1225l135 188h143l-207 -287h-143
l-205 287h141z" />
    <glyph glyph-name="Gcircumflex" unicode="&#x11c;" horiz-adv-x="1187" 
d="M1081 922h-184v125q0 117 -87 185t-210 66q-123 0 -206 -66t-83 -185v-660q0 -125 81 -188t208 -63t212 64q85 65 85 187v182h-301v156h485v-338q0 -186 -137 -297q-137 -110 -344 -110t-345 110t-138 297v660q0 187 138 297t345 110t344 -111t137 -296v-125zM598 1724
l-135 -188h-141l204 287h144l207 -287h-144z" />
    <glyph glyph-name="gcircumflex" unicode="&#x11d;" horiz-adv-x="1024" 
d="M715 668q1 100 -63 168t-164 68t-152 -59q-53 -58 -53 -147v-331q0 -89 53 -147t152 -58t163 67q63 68 64 168v271zM899 -70q0 -102 -36 -176q-90 -184 -380 -184q-180 0 -364 61l24 142q150 -61 316 -62q256 0 256 219v263q-51 -89 -134 -131t-161 -42q-160 0 -241 94
t-81 224v389q0 129 81 223t241 94q82 0 168 -44t137 -138l18 162h156v-1094zM487 1315l-135 -189h-141l205 287h143l207 -287h-143z" />
    <glyph glyph-name="Gbreve" unicode="&#x11e;" horiz-adv-x="1187" 
d="M1081 922h-184v125q0 117 -87 185t-210 66q-123 0 -206 -66t-83 -185v-660q0 -125 81 -188t208 -63t212 64q85 65 85 187v182h-301v156h485v-338q0 -186 -137 -297q-137 -110 -344 -110t-345 110t-138 297v660q0 187 138 297t345 110t344 -111t137 -296v-125zM422 1823
q0 -72 44 -126q44 -55 134 -55t133 54t43 127h88q0 -131 -72 -209t-192 -78t-192 78t-72 209h86z" />
    <glyph glyph-name="gbreve" unicode="&#x11f;" horiz-adv-x="1024" 
d="M715 668q1 100 -63 168t-164 68t-152 -59q-53 -58 -53 -147v-331q0 -89 53 -147t152 -58t163 67q63 68 64 168v271zM899 -70q0 -102 -36 -176q-90 -184 -380 -184q-180 0 -364 61l24 142q150 -61 316 -62q256 0 256 219v263q-51 -89 -134 -131t-161 -42q-160 0 -241 94
t-81 224v389q0 129 81 223t241 94q82 0 168 -44t137 -138l18 162h156v-1094zM309 1413q0 -72 44 -126t134 -54t134 53q43 53 43 127h88q0 -131 -72 -209t-193 -78t-193 78t-71 209h86z" />
    <glyph glyph-name="Gdotaccent" unicode="&#x120;" horiz-adv-x="1187" 
d="M1081 922h-184v125q0 117 -87 185t-210 66q-123 0 -206 -66t-83 -185v-660q0 -125 81 -188t208 -63t212 64q85 65 85 187v182h-301v156h485v-338q0 -186 -137 -297q-137 -110 -344 -110t-345 110t-138 297v660q0 187 138 297t345 110t344 -111t137 -296v-125zM692 1579
h-184v274h184v-274z" />
    <glyph glyph-name="gdotaccent" unicode="&#x121;" horiz-adv-x="1024" 
d="M715 668q1 100 -63 168t-164 68t-152 -59q-53 -58 -53 -147v-331q0 -89 53 -147t152 -58t163 67q63 68 64 168v271zM899 -70q0 -102 -36 -176q-90 -184 -380 -184q-180 0 -364 61l24 142q150 -61 316 -62q256 0 256 219v263q-51 -89 -134 -131t-161 -42q-160 0 -241 94
t-81 224v389q0 129 81 223t241 94q82 0 168 -44t137 -138l18 162h156v-1094zM582 1169h-185v275h185v-275z" />
    <glyph glyph-name="Gcommaaccent" unicode="&#x122;" horiz-adv-x="1187" 
d="M516 -154h164v-221l-109 -284h-137l82 284v221zM1081 922h-184v125q0 117 -87 185t-210 66q-123 0 -206 -66t-83 -185v-660q0 -125 81 -188t208 -63t212 64q85 65 85 187v182h-301v156h485v-338q0 -186 -137 -297q-137 -110 -344 -110t-345 110t-138 297v660
q0 187 138 297t345 110t344 -111t137 -296v-125z" />
    <glyph glyph-name="gcommaaccent" unicode="&#x123;" horiz-adv-x="1024" 
d="M715 668q1 100 -63 168t-164 68t-152 -59q-53 -58 -53 -147v-331q0 -89 53 -147t152 -58t163 67q63 68 64 168v271zM899 -70q0 -102 -36 -176q-90 -184 -380 -184q-180 0 -364 61l24 142q150 -61 316 -62q256 0 256 219v263q-51 -89 -134 -131t-161 -42q-160 0 -241 94
t-81 224v389q0 129 81 223t241 94q82 0 168 -44t137 -138l18 162h156v-1094zM575 1169h-165v222l110 284h135l-80 -284v-222z" />
    <glyph glyph-name="Hcircumflex" unicode="&#x124;" horiz-adv-x="1284" 
d="M940 1434h195v-1434h-195v649h-596v-649h-194v1434h194v-629h596v629zM641 1724l-135 -188h-141l204 287h144l207 -287h-144z" />
    <glyph glyph-name="hcircumflex" unicode="&#x125;" horiz-adv-x="1044" 
d="M741 0v698q0 88 -53 146t-153 59q-100 0 -163 -67q-62 -68 -63 -168v-668h-184v1475h184v-603q51 88 133 130t160 42q162 0 243 -94t81 -223v-727h-185zM211 1765l-135 -188h-142l205 287h144l206 -287h-143z" />
    <glyph glyph-name="Hbar" unicode="&#x126;" horiz-adv-x="1284" 
d="M940 805v242h-596v-242h596zM1212 1163v-116h-77v-1047h-195v649h-596v-649h-194v1047h-78v116h78v271h194v-271h596v271h195v-271h77z" />
    <glyph glyph-name="hbar" unicode="&#x127;" horiz-adv-x="1044" 
d="M309 1180v-308q51 88 133 130t160 42q162 0 243 -94t81 -223v-727h-185v698q0 88 -53 146t-153 59q-100 0 -163 -67q-62 -68 -63 -168v-668h-184v1180h-160v116h160v179h184v-179h160v-116h-160z" />
    <glyph glyph-name="Itilde" unicode="&#x128;" horiz-adv-x="493" 
d="M150 0v1434h194v-1434h-194zM451 1759h106q0 -109 -44 -161q-43 -52 -107 -52t-158 47t-127 47q-78 0 -78 -94h-106q0 109 44 161t108 52q65 0 159 -48t125 -48q78 0 78 96z" />
    <glyph glyph-name="itilde" unicode="&#x129;" horiz-adv-x="434" 
d="M309 0h-184v1024h184v-1024zM420 1350h106q0 -109 -44 -161t-107 -52t-157 47t-128 47q-78 0 -78 -94h-106q0 109 44 161t108 52t159 -48q94 -48 125 -49q78 1 78 97z" />
    <glyph glyph-name="Imacron" unicode="&#x12a;" horiz-adv-x="493" 
d="M150 0v1434h194v-1434h-194zM571 1589h-649v117h649v-117z" />
    <glyph glyph-name="imacron" unicode="&#x12b;" horiz-adv-x="434" 
d="M309 0h-184v1024h184v-1024zM543 1180h-649v116h649v-116z" />
    <glyph glyph-name="Ibreve" unicode="&#x12c;" horiz-adv-x="493" 
d="M150 0v1434h194v-1434h-194zM68 1823q0 -72 44 -126q44 -55 134 -55t133 54t43 127h88q0 -131 -72 -209t-192 -78t-193 78q-72 78 -71 209h86z" />
    <glyph glyph-name="ibreve" unicode="&#x12d;" horiz-adv-x="434" 
d="M309 0h-184v1024h184v-1024zM39 1413q0 -72 44 -126t134 -54t133 53t43 127h88q1 -131 -71 -209t-193 -78t-193 78t-71 209h86z" />
    <glyph glyph-name="Iogonek" unicode="&#x12e;" horiz-adv-x="493" 
d="M41 -271q0 71 48 145t128 126h-67v1434h194v-1434h-39q-55 -45 -95 -112t-40 -119q0 -100 100 -101q41 0 115 37l18 -65q-76 -60 -167 -60t-143 39t-52 110z" />
    <glyph glyph-name="iogonek" unicode="&#x12f;" horiz-adv-x="434" 
d="M6 -271q0 71 48 145t128 126h-57v1024h184v-1024h-39q-55 -45 -95 -112t-40 -119q0 -100 101 -101q40 0 114 37l19 -65q-75 -60 -167 -60t-144 39t-52 110zM309 1444v-275h-184v275h184z" />
    <glyph glyph-name="Idotaccent" unicode="&#x130;" horiz-adv-x="493" 
d="M150 0v1434h194v-1434h-194zM340 1579h-184v274h184v-274z" />
    <glyph glyph-name="dotlessi" unicode="&#x131;" horiz-adv-x="434" 
d="M309 0h-184v1024h184v-1024z" />
    <glyph glyph-name="IJ" unicode="&#x132;" horiz-adv-x="1150" 
d="M539 156q152 0 213 42t61 167v1069h195v-1084q0 -210 -114 -280t-355 -70v156zM150 0v1434h194v-1434h-194z" />
    <glyph glyph-name="ij" unicode="&#x133;" horiz-adv-x="868" 
d="M559 1024h184v-1196q0 -142 -63 -200q-62 -58 -168 -58t-203 20l13 136q52 -14 116 -14t92 32q28 33 29 102v1178zM309 0h-184v1024h184v-1024zM743 1169h-184v275h184v-275zM309 1169h-184v275h184v-275z" />
    <glyph glyph-name="Jcircumflex" unicode="&#x134;" horiz-adv-x="657" 
d="M45 156q152 0 213 42t61 167v1069h195v-1084q0 -210 -114 -280t-355 -70v156zM365 1724l-136 -188h-141l205 287h143l207 -287h-143z" />
    <glyph glyph-name="jcircumflex" unicode="&#x135;" horiz-adv-x="434" 
d="M125 1024h184v-1196q0 -142 -63 -200t-169 -58t-202 20l12 136q51 -14 116 -14t93 32q28 33 29 102v1178zM215 1315l-135 -189h-141l204 287h144l207 -287h-144z" />
    <glyph glyph-name="Kcommaaccent" unicode="&#x136;" horiz-adv-x="1120" 
d="M479 -154h164v-221l-108 -284h-138l82 284v221zM344 0h-194v1434h194v-672l545 672h225l-582 -697l598 -737h-237l-549 690v-690z" />
    <glyph glyph-name="kcommaaccent" unicode="&#x137;" horiz-adv-x="1001" 
d="M420 -154h164v-221l-109 -284h-137l82 284v221zM309 0h-184v1475h184v-924l463 473h213l-491 -492l505 -532h-223l-467 492v-492z" />
    <glyph glyph-name="Lacute" unicode="&#x139;" horiz-adv-x="1048" 
d="M346 156h658v-156h-850v1434h192v-1278zM313 1536h-131l191 287h155z" />
    <glyph glyph-name="lacute" unicode="&#x13a;" horiz-adv-x="434" 
d="M309 0h-184v1475h184v-1475zM281 1536h-131l190 287h156z" />
    <glyph glyph-name="Lcommaaccent" unicode="&#x13b;" horiz-adv-x="1048" 
d="M442 -154h164v-221l-108 -284h-138l82 284v221zM346 156h658v-156h-850v1434h192v-1278z" />
    <glyph glyph-name="lcommaaccent" unicode="&#x13c;" horiz-adv-x="434" 
d="M135 -154h164v-221l-109 -284h-137l82 284v221zM309 0h-184v1475h184v-1475z" />
    <glyph glyph-name="Lcaron" unicode="&#x13d;" horiz-adv-x="1048" 
d="M723 1434v-506h-107l-59 284v222h166zM346 156h658v-156h-850v1434h192v-1278z" />
    <glyph glyph-name="lcaron" unicode="&#x13e;" horiz-adv-x="655" 
d="M600 1475v-447h-88l-57 236v211h145zM309 0h-184v1475h184v-1475z" />
    <glyph glyph-name="Ldot" unicode="&#x13f;" horiz-adv-x="1048" 
d="M754 655h-166v222h166v-222zM346 156h658v-156h-850v1434h192v-1278z" />
    <glyph glyph-name="ldot" unicode="&#x140;" horiz-adv-x="593" 
d="M582 571h-164v220h164v-220zM309 0h-184v1475h184v-1475z" />
    <glyph glyph-name="Lslash" unicode="&#x141;" horiz-adv-x="1050" 
d="M350 156h656v-156h-850v610l-136 -43v156l136 43v668h194v-607l187 60v-156l-187 -59v-516z" />
    <glyph glyph-name="lslash" unicode="&#x142;" horiz-adv-x="479" 
d="M332 0h-185v612l-124 -45v156l124 45v707h185v-644l125 46v-156l-125 -45v-676z" />
    <glyph glyph-name="Nacute" unicode="&#x143;" horiz-adv-x="1325" 
d="M991 1434h185v-1434h-195l-659 1104q12 -215 12 -369v-735h-184v1434h202l649 -1102q-10 231 -10 366v736zM727 1536h-131l190 287h156z" />
    <glyph glyph-name="nacute" unicode="&#x144;" horiz-adv-x="1044" 
d="M741 0v698q0 88 -53 146t-153 59q-100 0 -163 -67q-62 -68 -63 -168v-668h-184v1024h156l18 -162q51 94 137 138t166 44q162 0 243 -94t81 -223v-727h-185zM594 1126h-131l190 287h156z" />
    <glyph glyph-name="Ncommaaccent" unicode="&#x145;" horiz-adv-x="1325" 
d="M580 -154h163v-221l-108 -284h-137l82 284v221zM991 1434h185v-1434h-195l-659 1104q12 -215 12 -369v-735h-184v1434h202l649 -1102q-10 231 -10 366v736z" />
    <glyph glyph-name="ncommaaccent" unicode="&#x146;" horiz-adv-x="1044" 
d="M440 -154h164v-221l-108 -284h-138l82 284v221zM741 0v698q0 88 -53 146t-153 59q-100 0 -163 -67q-62 -68 -63 -168v-668h-184v1024h156l18 -162q51 94 137 138t166 44q162 0 243 -94t81 -223v-727h-185z" />
    <glyph glyph-name="Ncaron" unicode="&#x147;" horiz-adv-x="1325" 
d="M991 1434h185v-1434h-195l-659 1104q12 -215 12 -369v-735h-184v1434h202l649 -1102q-10 231 -10 366v736zM662 1634l135 189h143l-207 -287h-143l-205 287h141z" />
    <glyph glyph-name="ncaron" unicode="&#x148;" horiz-adv-x="1044" 
d="M741 0v698q0 88 -53 146t-153 59q-100 0 -163 -67q-62 -68 -63 -168v-668h-184v1024h156l18 -162q51 94 137 138t166 44q162 0 243 -94t81 -223v-727h-185zM528 1225l136 188h143l-207 -287h-143l-205 287h141z" />
    <glyph glyph-name="Eng" unicode="&#x14a;" horiz-adv-x="1325" 
d="M991 1434h185v-1514q0 -210 -114 -280t-353 -70v156q147 0 210 38q62 39 62 150v86l-659 1104q12 -215 12 -369v-735h-184v1434h202l649 -1102q-10 231 -10 366v736z" />
    <glyph glyph-name="eng" unicode="&#x14b;" horiz-adv-x="1044" 
d="M602 1044q162 0 243 -94t81 -223v-899q0 -142 -64 -200t-168 -58q-106 0 -202 20l14 136q50 -14 114 -14t93 32q29 33 28 102v852q0 88 -53 146t-153 59q-100 0 -163 -67q-62 -68 -63 -168v-668h-184v1024h156l18 -162q51 94 137 138t166 44z" />
    <glyph glyph-name="Omacron" unicode="&#x14c;" horiz-adv-x="1198" 
d="M887 1047q0 119 -82 185t-205 66t-206 -66t-83 -185v-660q0 -119 83 -185t206 -67q123 0 205 67t82 185v660zM117 1047q0 187 138 297t345 110t344 -111t137 -296v-660q0 -186 -137 -297q-137 -110 -344 -110t-345 110t-138 297v660zM924 1589h-650v117h650v-117z" />
    <glyph glyph-name="omacron" unicode="&#x14d;" horiz-adv-x="991" 
d="M279 698v-372q0 -102 60 -156q61 -54 157 -55q96 0 156 54t61 157v372q-1 102 -61 156t-156 55q-96 0 -157 -54q-60 -55 -60 -157zM897 688v-352q0 -180 -113 -268q-112 -88 -288 -88t-289 88t-113 268v352q0 180 113 268t289 88t288 -88t113 -268zM821 1180h-649v116
h649v-116z" />
    <glyph glyph-name="Obreve" unicode="&#x14e;" horiz-adv-x="1198" 
d="M887 1047q0 119 -82 185t-205 66t-206 -66t-83 -185v-660q0 -119 83 -185t206 -67q123 0 205 67t82 185v660zM117 1047q0 187 138 297t345 110t344 -111t137 -296v-660q0 -186 -137 -297q-137 -110 -344 -110t-345 110t-138 297v660zM422 1823q0 -72 44 -126
q44 -55 134 -55t133 54t43 127h88q0 -131 -72 -209t-192 -78t-192 78t-72 209h86z" />
    <glyph glyph-name="obreve" unicode="&#x14f;" horiz-adv-x="991" 
d="M279 698v-372q0 -102 60 -156q61 -54 157 -55q96 0 156 54t61 157v372q-1 102 -61 156t-156 55q-96 0 -157 -54q-60 -55 -60 -157zM897 688v-352q0 -180 -113 -268q-112 -88 -288 -88t-289 88t-113 268v352q0 180 113 268t289 88t288 -88t113 -268zM317 1413
q0 -72 44 -126q45 -54 135 -54t133 53t43 127h88q0 -131 -72 -209t-192 -78t-193 78q-72 78 -72 209h86z" />
    <glyph glyph-name="Ohungarumlaut" unicode="&#x150;" horiz-adv-x="1198" 
d="M887 1047q0 119 -82 185t-205 66t-206 -66t-83 -185v-660q0 -119 83 -185t206 -67q123 0 205 67t82 185v660zM117 1047q0 187 138 297t345 110t344 -111t137 -296v-660q0 -186 -137 -297q-137 -110 -344 -110t-345 110t-138 297v660zM768 1536h-102l190 287h127z
M526 1536h-102l190 287h127z" />
    <glyph glyph-name="ohungarumlaut" unicode="&#x151;" horiz-adv-x="991" 
d="M279 698v-372q0 -102 60 -156q61 -54 157 -55q96 0 156 54t61 157v372q-1 102 -61 156t-156 55q-96 0 -157 -54q-60 -55 -60 -157zM897 688v-352q0 -180 -113 -268q-112 -88 -288 -88t-289 88t-113 268v352q0 180 113 268t289 88t288 -88t113 -268zM664 1126h-103
l191 287h127zM422 1126h-103l191 287h127z" />
    <glyph glyph-name="OE" unicode="&#x152;" horiz-adv-x="1830" 
d="M889 387v660q0 119 -83 185t-206 66t-206 -66t-83 -185v-660q0 -119 83 -185t206 -67q123 1 206 67t83 185zM1759 1278h-676v-473h541v-156h-541v-493h676v-156h-792v186q-94 -207 -385 -206q-205 0 -335 110t-130 297v660q0 188 130 298t335 109q291 0 385 -207v187h792
v-156z" />
    <glyph glyph-name="oe" unicode="&#x153;" horiz-adv-x="1585" 
d="M1329 592v110q0 102 -60 154q-59 52 -155 53q-96 0 -156 -54t-61 -157v-106h432zM713 326v372q-1 102 -61 156t-156 55q-96 0 -156 -54t-61 -157v-372q0 -102 60 -156q61 -54 157 -55q96 1 156 55t61 156zM1111 -20q-198 0 -306 106q-105 -106 -295 -106t-303 88
t-113 268v352q0 180 113 268t301 88t297 -106q107 106 291 106t290 -85t107 -267v-223h-596v-123q0 -225 250 -225q174 0 328 61l24 -141q-190 -61 -388 -61z" />
    <glyph glyph-name="Racute" unicode="&#x154;" horiz-adv-x="1202" 
d="M653 1278h-309v-512h309q246 0 246 229v52q0 109 -63 170q-64 61 -183 61zM586 610h-242v-610h-194v1434h522q198 0 310 -100t112 -277v-31q0 -268 -242 -336q166 -55 205 -301l61 -389h-192l-58 375q-23 147 -88 191q-66 44 -194 44zM664 1536h-132l191 287h156z" />
    <glyph glyph-name="racute" unicode="&#x155;" horiz-adv-x="649" 
d="M602 864q-135 0 -214 -62t-79 -163v-639h-184v1024h156l18 -199q39 113 129 166t174 53v-180zM389 1126h-131l191 287h155z" />
    <glyph glyph-name="Rcommaaccent" unicode="&#x156;" horiz-adv-x="1202" 
d="M526 -154h164v-221l-108 -284h-138l82 284v221zM653 1278h-309v-512h309q246 0 246 229v52q0 109 -63 170q-64 61 -183 61zM586 610h-242v-610h-194v1434h522q198 0 310 -100t112 -277v-31q0 -268 -242 -336q166 -55 205 -301l61 -389h-192l-58 375q-23 147 -88 191
q-66 44 -194 44z" />
    <glyph glyph-name="rcommaaccent" unicode="&#x157;" horiz-adv-x="649" 
d="M135 -154h164v-221l-109 -284h-137l82 284v221zM602 864q-135 0 -214 -62t-79 -163v-639h-184v1024h156l18 -199q39 113 129 166t174 53v-180z" />
    <glyph glyph-name="Rcaron" unicode="&#x158;" horiz-adv-x="1202" 
d="M653 1278h-309v-512h309q246 0 246 229v52q0 109 -63 170q-64 61 -183 61zM586 610h-242v-610h-194v1434h522q198 0 310 -100t112 -277v-31q0 -268 -242 -336q166 -55 205 -301l61 -389h-192l-58 375q-23 147 -88 191q-66 44 -194 44zM600 1634l135 189h144l-207 -287
h-144l-204 287h141z" />
    <glyph glyph-name="rcaron" unicode="&#x159;" horiz-adv-x="649" 
d="M602 864q-135 0 -214 -62t-79 -163v-639h-184v1024h156l18 -199q39 113 129 166t174 53v-180zM324 1225l135 188h143l-207 -287h-143l-205 287h141z" />
    <glyph glyph-name="Sacute" unicode="&#x15a;" horiz-adv-x="1140" 
d="M1053 367q-1 -183 -139 -285t-346 -102t-344 110t-136 297v125h184v-125q0 -123 85 -187t212 -65q127 0 208 56t81 165v17q0 88 -77 148q-77 59 -187 101t-222 89q-110 47 -187 137t-76 219v20q0 171 128 269q129 98 333 98t333 -110t129 -297v-125h-184v125
q0 119 -78 185t-199 66t-195 -56t-73 -155v-14q0 -76 55 -131q56 -55 140 -87t180 -72t180 -82q84 -43 139 -123t56 -191v-20zM635 1536h-131l190 287h156z" />
    <glyph glyph-name="sacute" unicode="&#x15b;" horiz-adv-x="919" 
d="M664 283q0 53 -43 89t-108 52q-140 35 -281 93q-66 28 -108 87t-42 146v26q0 117 98 193q98 75 278 75t363 -61l-24 -141q-166 68 -322 67q-94 0 -149 -36t-56 -101v-12q0 -62 60 -100t146 -60q85 -22 170 -48t146 -90q60 -65 60 -167v-25q0 -135 -110 -213
q-110 -77 -298 -77t-372 61l28 141q166 -68 346 -67q106 0 162 44q55 44 56 111v13zM530 1126h-131l191 287h155z" />
    <glyph glyph-name="Scircumflex" unicode="&#x15c;" horiz-adv-x="1140" 
d="M1053 367q-1 -183 -139 -285t-346 -102t-344 110t-136 297v125h184v-125q0 -123 85 -187t212 -65q127 0 208 56t81 165v17q0 88 -77 148q-77 59 -187 101t-222 89q-110 47 -187 137t-76 219v20q0 171 128 269q129 98 333 98t333 -110t129 -297v-125h-184v125
q0 119 -78 185t-199 66t-195 -56t-73 -155v-14q0 -76 55 -131q56 -55 140 -87t180 -72t180 -82q84 -43 139 -123t56 -191v-20zM569 1724l-135 -188h-141l205 287h143l207 -287h-143z" />
    <glyph glyph-name="scircumflex" unicode="&#x15d;" horiz-adv-x="919" 
d="M664 283q0 53 -43 89t-108 52q-140 35 -281 93q-66 28 -108 87t-42 146v26q0 117 98 193q98 75 278 75t363 -61l-24 -141q-166 68 -322 67q-94 0 -149 -36t-56 -101v-12q0 -62 60 -100t146 -60q85 -22 170 -48t146 -90q60 -65 60 -167v-25q0 -135 -110 -213
q-110 -77 -298 -77t-372 61l28 141q166 -68 346 -67q106 0 162 44q55 44 56 111v13zM465 1315l-135 -189h-142l205 287h144l206 -287h-143z" />
    <glyph glyph-name="Scedilla" unicode="&#x15e;" horiz-adv-x="1142" 
d="M303 1087v-14q0 -76 55 -131q56 -55 140 -87t180 -72t180 -82q84 -43 139 -123t56 -191v-20q0 -177 -127 -277t-322 -110v-74h21q205 0 204 -168v-21q0 -86 -58 -137t-172 -51t-206 41l23 78q88 -35 182 -35q115 0 115 104v11q0 96 -127 96h-60v158q-190 10 -314 118
t-124 287v125h184v-125q0 -123 85 -187t212 -65q127 0 208 56t81 165v17q0 88 -77 148q-77 59 -187 101t-222 89q-110 47 -187 137t-76 219v20q0 171 128 269q129 98 333 98t333 -110t129 -297v-125h-184v125q0 119 -78 185t-199 66t-195 -56t-73 -155z" />
    <glyph glyph-name="scedilla" unicode="&#x15f;" horiz-adv-x="919" 
d="M270 772v-12q0 -62 60 -100t146 -60q85 -22 170 -48t146 -90q60 -65 60 -167v-25q0 -128 -98 -204t-258 -84v-84h20q205 0 205 -168v-21q0 -86 -58 -137t-172 -51t-206 41l22 78q86 -35 182 -35q115 0 115 104v10q0 96 -127 97h-59v164q-184 8 -346 61l28 141
q166 -68 346 -67q106 0 162 44q55 44 56 111v13q0 53 -43 89t-108 52q-140 35 -281 93q-66 28 -108 87t-42 146v26q0 117 98 193q98 75 278 75t363 -61l-24 -141q-166 68 -322 67q-93 1 -149 -35t-56 -102z" />
    <glyph glyph-name="Scaron" unicode="&#x160;" horiz-adv-x="1140" 
d="M1053 367q-1 -183 -139 -285t-346 -102t-344 110t-136 297v125h184v-125q0 -123 85 -187t212 -65q127 0 208 56t81 165v17q0 88 -77 148q-77 59 -187 101t-222 89q-110 47 -187 137t-76 219v20q0 171 128 269q129 98 333 98t333 -110t129 -297v-125h-184v125
q0 119 -78 185t-199 66t-195 -56t-73 -155v-14q0 -76 55 -131q56 -55 140 -87t180 -72t180 -82q84 -43 139 -123t56 -191v-20zM569 1634l136 189h143l-207 -287h-143l-205 287h141z" />
    <glyph glyph-name="scaron" unicode="&#x161;" horiz-adv-x="919" 
d="M664 283q0 53 -43 89t-108 52q-140 35 -281 93q-66 28 -108 87t-42 146v26q0 117 98 193q98 75 278 75t363 -61l-24 -141q-166 68 -322 67q-94 0 -149 -36t-56 -101v-12q0 -62 60 -100t146 -60q85 -22 170 -48t146 -90q60 -65 60 -167v-25q0 -135 -110 -213
q-110 -77 -298 -77t-372 61l28 141q166 -68 346 -67q106 0 162 44q55 44 56 111v13zM465 1225l135 188h143l-206 -287h-144l-205 287h142z" />
    <glyph glyph-name="Tcedilla" unicode="&#x162;" horiz-adv-x="956" 
d="M582 0h-60v-102h21q205 0 205 -168v-21q0 -86 -58 -137t-172 -51t-207 41l23 78q88 -35 182 -35q115 0 115 104v10q0 96 -127 97h-60v184h-57v1278h-340v156h864v-156h-329v-1278z" />
    <glyph glyph-name="tcedilla" unicode="&#x163;" horiz-adv-x="643" 
d="M469 -102h20q205 0 205 -168v-21q0 -86 -58 -137t-172 -51t-206 41l23 78q88 -35 182 -35q115 0 115 104v10q0 96 -127 97h-60v166q12 -2 39 -2h39v-82zM469 0h-78v-18q-104 8 -159 66q-54 58 -54 190v659h-129v127h129v205h184v-205h230v-127h-230v-641q0 -70 29 -102
t93 -33q64 0 116 14l12 -135q-82 -18 -143 -20v20z" />
    <glyph glyph-name="Tcaron" unicode="&#x164;" horiz-adv-x="956" 
d="M911 1434v-156h-329v-1278h-195v1278h-340v156h864zM477 1634l135 189h144l-207 -287h-143l-205 287h141z" />
    <glyph glyph-name="tcaron" unicode="&#x165;" horiz-adv-x="827" 
d="M362 897v-641q0 -70 29 -102t93 -33q64 0 116 14l12 -135q-96 -20 -200 -20t-170 58q-64 58 -64 200v659h-129v127h129v205h184v-205h230v-127h-230zM786 1475v-447h-88l-57 236v211h145z" />
    <glyph glyph-name="Tbar" unicode="&#x166;" horiz-adv-x="960" 
d="M913 1278h-329v-473h278v-156h-278v-649h-195v649h-289v156h289v473h-340v156h864v-156z" />
    <glyph glyph-name="tbar" unicode="&#x167;" horiz-adv-x="647" 
d="M412 -20q-104 0 -166 58q-63 58 -64 200v278h-125v117h125v264h-131v127h131v205h185v-205h229v-127h-229v-264h163v-117h-163v-260q-1 -70 27 -102t92 -33q64 0 116 14l14 -135q-100 -20 -204 -20z" />
    <glyph glyph-name="Utilde" unicode="&#x168;" horiz-adv-x="1249" 
d="M913 1434h195v-1047q0 -186 -138 -297q-138 -110 -345 -110t-345 110t-139 297v1047h195v-1047q0 -125 82 -188t207 -63t207 62q82 64 81 189v1047zM827 1759h107q0 -109 -44 -161t-108 -52t-157 47q-94 47 -127 47q-78 0 -78 -94h-107q0 109 44 161q45 52 109 52
t158 -48t126 -48q77 0 77 96z" />
    <glyph glyph-name="utilde" unicode="&#x169;" horiz-adv-x="1044" 
d="M303 1024v-698q0 -88 54 -146q53 -58 153 -59q100 0 164 67q63 68 63 168v668h185v-1024h-156l-21 162q-51 -94 -137 -138t-166 -44q-160 0 -242 94t-81 223v727h184zM727 1350h107q0 -109 -44 -161t-108 -52t-158 47t-127 47q-78 0 -78 -94h-106q0 109 44 161
q45 52 109 52t158 -48t125 -49q78 1 78 97z" />
    <glyph glyph-name="Umacron" unicode="&#x16a;" horiz-adv-x="1249" 
d="M913 1434h195v-1047q0 -186 -138 -297q-138 -110 -345 -110t-345 110t-139 297v1047h195v-1047q0 -125 82 -188t207 -63t207 62q82 64 81 189v1047zM950 1589h-649v117h649v-117z" />
    <glyph glyph-name="umacron" unicode="&#x16b;" horiz-adv-x="1044" 
d="M303 1024v-698q0 -88 54 -146q53 -58 153 -59q100 0 164 67q63 68 63 168v668h185v-1024h-156l-21 162q-51 -94 -137 -138t-166 -44q-160 0 -242 94t-81 223v727h184zM848 1180h-649v116h649v-116z" />
    <glyph glyph-name="Ubreve" unicode="&#x16c;" horiz-adv-x="1249" 
d="M913 1434h195v-1047q0 -186 -138 -297q-138 -110 -345 -110t-345 110t-139 297v1047h195v-1047q0 -125 82 -188t207 -63t207 62q82 64 81 189v1047zM446 1823q0 -72 44 -126q44 -55 134 -55t134 54q43 54 43 127h88q0 -131 -72 -209q-73 -78 -193 -78t-192 78t-72 209h86
z" />
    <glyph glyph-name="ubreve" unicode="&#x16d;" horiz-adv-x="1044" 
d="M303 1024v-698q0 -88 54 -146q53 -58 153 -59q100 0 164 67q63 68 63 168v668h185v-1024h-156l-21 162q-51 -94 -137 -138t-166 -44q-160 0 -242 94t-81 223v727h184zM346 1413q0 -72 44 -126t134 -54t133 53t43 127h88q0 -131 -72 -209t-192 -78t-192 78t-72 209h86z
" />
    <glyph glyph-name="Uring" unicode="&#x16e;" horiz-adv-x="1249" 
d="M913 1434h195v-1047q0 -186 -138 -297q-138 -110 -345 -110t-345 110t-139 297v1047h195v-1047q0 -125 82 -188t207 -63t207 62q82 64 81 189v1047zM625 1815q-131 0 -131 -115t131 -115q65 0 99 31t34 84t-34 84t-99 31zM626 1516q-239 0 -239 184t239 184t238 -184
q1 -184 -238 -184z" />
    <glyph glyph-name="uring" unicode="&#x16f;" horiz-adv-x="1044" 
d="M303 1024v-698q0 -88 54 -146q53 -58 153 -59q100 0 164 67q63 68 63 168v668h185v-1024h-156l-21 162q-51 -94 -137 -138t-166 -44q-160 0 -242 94t-81 223v727h184zM522 1405q-131 0 -131 -115t131 -114q66 0 100 30t33 84q0 53 -33 84q-34 31 -100 31zM762 1290
q0 -184 -239 -184t-238 184t239 184t238 -184z" />
    <glyph glyph-name="Uhungarumlaut" unicode="&#x170;" horiz-adv-x="1249" 
d="M913 1434h195v-1047q0 -186 -138 -297q-138 -110 -345 -110t-345 110t-139 297v1047h195v-1047q0 -125 82 -188t207 -63t207 62q82 64 81 189v1047zM793 1536h-103l191 287h127zM551 1536h-102l190 287h127z" />
    <glyph glyph-name="uhungarumlaut" unicode="&#x171;" horiz-adv-x="1044" 
d="M303 1024v-698q0 -88 54 -146q53 -58 153 -59q100 0 164 67q63 68 63 168v668h185v-1024h-156l-21 162q-51 -94 -137 -138t-166 -44q-160 0 -242 94t-81 223v727h184zM692 1126h-102l190 287h127zM451 1126h-103l191 287h127z" />
    <glyph glyph-name="Uogonek" unicode="&#x172;" horiz-adv-x="1249" 
d="M913 1434h195v-1047q0 -176 -123 -285t-313 -120q-51 -48 -88 -110t-37 -114q0 -100 100 -100q41 0 115 37l18 -66q-76 -59 -167 -59t-143 39t-52 109t44 140q44 71 120 124q-190 10 -316 119q-125 110 -125 286v1047h195v-1047q0 -125 82 -188t207 -63t207 62
q82 64 81 189v1047z" />
    <glyph glyph-name="uogonek" unicode="&#x173;" horiz-adv-x="1044" 
d="M627 -271q0 71 48 145t128 126h-37l-21 162q-51 -94 -137 -138t-166 -44q-160 0 -242 94t-81 223v727h184v-698q0 -88 54 -146q53 -58 153 -59q100 0 164 67q63 68 63 168v668h185v-1024h-31q-55 -45 -95 -112t-40 -119q0 -100 100 -101q41 0 115 37l18 -65
q-76 -60 -167 -60t-143 39t-52 110z" />
    <glyph glyph-name="Wcircumflex" unicode="&#x174;" horiz-adv-x="1771" 
d="M1544 1434h195l-379 -1444h-195l-278 1143l-281 -1143h-194l-381 1444h205l272 -1158l285 1158h198l279 -1155zM885 1724l-135 -188h-142l205 287h143l207 -287h-143z" />
    <glyph glyph-name="wcircumflex" unicode="&#x175;" horiz-adv-x="1388" 
d="M1171 1024h183l-275 -1034h-198l-187 821l-186 -821h-201l-272 1034h180l195 -829l190 829h184l195 -829zM694 1315l-135 -189h-141l205 287h143l207 -287h-144z" />
    <glyph glyph-name="Ycircumflex" unicode="&#x176;" horiz-adv-x="1155" 
d="M672 0h-195v545l-467 889h207l358 -711l367 711h205l-475 -889v-545zM575 1724l-135 -188h-141l205 287h143l207 -287h-143z" />
    <glyph glyph-name="ycircumflex" unicode="&#x177;" horiz-adv-x="933" 
d="M170 -430q-70 0 -166 20l14 140q66 -18 143 -18t115 32q38 33 72 119l47 127h-20l-348 1034h184l266 -819l250 819h182l-395 -1147q-59 -183 -136 -245t-208 -62zM467 1315l-135 -189h-142l205 287h144l206 -287h-143z" />
    <glyph glyph-name="Ydieresis" unicode="&#x178;" horiz-adv-x="1155" 
d="M672 0h-195v545l-467 889h207l358 -711l367 711h205l-475 -889v-545zM889 1579h-184v274h184v-274zM451 1579h-185v274h185v-274z" />
    <glyph glyph-name="Zacute" unicode="&#x179;" horiz-adv-x="1042" 
d="M983 156v-156h-926v156l691 1122h-670v156h895v-156l-690 -1122h700zM586 1536h-131l190 287h156z" />
    <glyph glyph-name="zacute" unicode="&#x17a;" horiz-adv-x="882" 
d="M827 127v-127h-774v127l553 770h-528v127h729v-127l-553 -770h573zM506 1126h-131l190 287h156z" />
    <glyph glyph-name="Zdotaccent" unicode="&#x17b;" horiz-adv-x="1042" 
d="M983 156v-156h-926v156l691 1122h-670v156h895v-156l-690 -1122h700zM614 1579h-184v274h184v-274z" />
    <glyph glyph-name="zdotaccent" unicode="&#x17c;" horiz-adv-x="882" 
d="M827 127v-127h-774v127l553 770h-528v127h729v-127l-553 -770h573zM535 1169h-185v275h185v-275z" />
    <glyph glyph-name="Zcaron" unicode="&#x17d;" horiz-adv-x="1042" 
d="M983 156v-156h-926v156l691 1122h-670v156h895v-156l-690 -1122h700zM520 1634l135 189h144l-207 -287h-143l-205 287h141z" />
    <glyph glyph-name="zcaron" unicode="&#x17e;" horiz-adv-x="882" 
d="M827 127v-127h-774v127l553 770h-528v127h729v-127l-553 -770h573zM440 1225l135 188h144l-207 -287h-143l-205 287h141z" />
    <glyph glyph-name="Schwa" unicode="&#x18f;" horiz-adv-x="1189" 
d="M291 629v-242q0 -117 87 -185t211 -67q124 0 207 67t83 185v242h-588zM106 922v125q0 187 138 297t346 110q207 0 345 -111t138 -296v-660q0 -186 -138 -297q-138 -110 -345 -110t-345 110t-139 297v379h773v281q0 125 -82 188t-208 63t-212 -64t-86 -187v-125h-185z" />
    <glyph glyph-name="florin" unicode="&#x192;" horiz-adv-x="634" 
d="M176 897h-129v127h129v213q0 141 65 199t169 59q104 0 200 -20l-12 -136q-51 15 -116 15q-66 0 -94 -33t-28 -102v-195h236v-127h-236v-1069q0 -142 -63 -200t-167 -58t-202 20l13 136q51 -14 115 -14t92 32q28 33 28 102v1051z" />
    <glyph glyph-name="AEacute" unicode="&#x1fc;" horiz-adv-x="1689" 
d="M748 528v684l-299 -684h299zM1618 1278h-676v-473h541v-156h-541v-493h676v-156h-870v373h-367l-162 -373h-205l633 1434h971v-156zM879 1536h-131l190 287h156z" />
    <glyph glyph-name="aeacute" unicode="&#x1fd;" horiz-adv-x="1550" 
d="M680 389v117q-246 -4 -339 -60t-93 -147v-10q0 -72 49 -120t150 -48q101 1 167 67t66 201zM1298 608v94q0 102 -60 154t-156 53q-96 0 -157 -54q-60 -54 -61 -157v-90h434zM63 254v20q0 140 121 231q139 101 496 103v94q0 197 -219 197q-139 0 -318 -76l-39 131
q184 90 383 90t295 -96q109 96 288 96q180 0 286 -85t106 -267v-186h-598v-160q0 -225 252 -225q176 0 326 61l26 -141q-190 -61 -377 -61t-296 85q-63 48 -90 123q-94 -209 -334 -208q-154 0 -231 84t-77 190zM840 1126h-131l190 287h156z" />
    <glyph glyph-name="Oslashacute" unicode="&#x1fe;" horiz-adv-x="1198" 
d="M887 387v660q0 45 -13 81l-495 -913q80 -80 212 -80q132 1 214 67t82 185zM311 1047v-660q0 -47 13 -84l497 914q-82 81 -213 81t-214 -66t-83 -185zM1081 1047v-660q0 -186 -137 -297q-136 -110 -328 -110t-321 81l-33 -61h-102l63 119q-106 111 -106 268v660
q0 187 138 297q137 110 329 110t321 -82l33 62h102l-65 -119q106 -106 106 -268zM879 1823l-215 -287h-132l191 287h156z" />
    <glyph glyph-name="oslashacute" unicode="&#x1ff;" horiz-adv-x="991" 
d="M713 326v372q0 39 -8 64l-371 -588q58 -59 158 -59q100 1 160 55t61 156zM279 698v-372q0 -39 8 -64l370 588q-59 59 -158 59t-160 -54q-60 -55 -60 -157zM897 688v-352q0 -180 -113 -268t-274 -88t-262 59l-51 -80h-103l86 135q-86 90 -86 242v352q0 180 113 268t275 88
t261 -59l52 80h102l-86 -135q86 -90 86 -242zM559 1126h-131l190 287h156z" />
    <glyph glyph-name="Scommaaccent" unicode="&#x218;" horiz-adv-x="1140" 
d="M483 -154h164v-221l-108 -284h-138l82 284v221zM1053 367q-1 -183 -139 -285t-346 -102t-344 110t-136 297v125h184v-125q0 -123 85 -187t212 -65q127 0 208 56t81 165v17q0 88 -77 148q-77 59 -187 101t-222 89q-110 47 -187 137t-76 219v20q0 171 128 269
q129 98 333 98t333 -110t129 -297v-125h-184v125q0 119 -78 185t-199 66t-195 -56t-73 -155v-14q0 -76 55 -131q56 -55 140 -87t180 -72t180 -82q84 -43 139 -123t56 -191v-20z" />
    <glyph glyph-name="scommaaccent" unicode="&#x219;" horiz-adv-x="919" 
d="M379 -154h164v-221l-109 -284h-137l82 284v221zM664 283q0 53 -43 89t-108 52q-140 35 -281 93q-66 28 -108 87t-42 146v26q0 117 98 193q98 75 278 75t363 -61l-24 -141q-166 68 -322 67q-94 0 -149 -36t-56 -101v-12q0 -62 60 -100t146 -60q85 -22 170 -48t146 -90
q60 -65 60 -167v-25q0 -135 -110 -213q-110 -77 -298 -77t-372 61l28 141q166 -68 346 -67q106 0 162 44q55 44 56 111v13z" />
    <glyph glyph-name="uni021A" unicode="&#x21a;" horiz-adv-x="956" 
d="M401 -154h164v-221l-108 -284h-138l82 284v221zM911 1434v-156h-329v-1278h-195v1278h-340v156h864z" />
    <glyph glyph-name="uni021B" unicode="&#x21b;" horiz-adv-x="643" 
d="M348 -154h164v-221l-109 -284h-137l82 284v221zM362 897v-641q0 -70 29 -102t93 -33q64 0 116 14l12 -135q-96 -20 -200 -20t-170 58q-64 58 -64 200v659h-129v127h129v205h184v-205h230v-127h-230z" />
    <glyph glyph-name="dotlessj" unicode="&#x237;" horiz-adv-x="434" 
d="M125 1024h184v-1196q0 -142 -63 -200t-169 -58t-202 20l12 136q51 -14 116 -14t93 32q28 33 29 102v1178z" />
    <glyph glyph-name="schwa" unicode="&#x259;" horiz-adv-x="968" 
d="M256 432v-110q0 -102 60 -154t156 -53q96 0 156 54t60 157v106h-432zM458 1044q182 0 298 -85q117 -85 116 -275v-348q0 -180 -112 -268t-283 -88q-172 0 -278 85t-107 267v223h596v123q0 225 -250 225q-173 0 -327 -61l-25 141q190 61 372 61z" />
    <glyph glyph-name="circumflex" unicode="&#x2c6;" horiz-adv-x="1001" 
d="M500 1315l-135 -189h-142l205 287h143l207 -287h-143z" />
    <glyph glyph-name="caron" unicode="&#x2c7;" horiz-adv-x="1001" 
d="M500 1225l135 188h143l-207 -287h-143l-205 287h142z" />
    <glyph glyph-name="breve" unicode="&#x2d8;" horiz-adv-x="974" 
d="M309 1413q0 -72 44 -126t134 -54t134 53q43 53 43 127h88q0 -131 -72 -209t-193 -78t-193 78t-71 209h86z" />
    <glyph glyph-name="dotaccent" unicode="&#x2d9;" horiz-adv-x="628" 
d="M408 1169h-185v275h185v-275z" />
    <glyph glyph-name="ring" unicode="&#x2da;" horiz-adv-x="923" 
d="M461 1405q-131 0 -131 -115t131 -114q65 0 99 30t34 84q0 53 -34 84t-99 31zM462 1106q-239 0 -239 184t239 184t238 -184q1 -184 -238 -184z" />
    <glyph glyph-name="ogonek" unicode="&#x2db;" horiz-adv-x="808" 
d="M223 -271q0 71 48 145t128 126h88q-55 -45 -95 -112t-40 -119q0 -100 101 -101q40 0 114 37l19 -65q-76 -60 -168 -60t-143 39q-52 39 -52 110z" />
    <glyph glyph-name="tilde" unicode="&#x2dc;" horiz-adv-x="663" 
d="M629 1350h106q0 -109 -44 -161q-43 -52 -107 -52t-158 47t-127 47q-78 0 -78 -94h-106q0 109 44 161t108 52q65 0 159 -48t125 -49q78 1 78 97z" />
    <glyph glyph-name="hungarumlaut" unicode="&#x2dd;" horiz-adv-x="1003" 
d="M567 1126h-102l190 287h127zM326 1126h-103l191 287h127z" />
    <glyph glyph-name="commaaccentcomb" unicode="&#x326;" horiz-adv-x="0" 
d="M156 -154h163v-221l-108 -284h-137l82 284v221z" />
    <glyph glyph-name="uni037E" unicode="&#x37e;" horiz-adv-x="497" 
d="M178 221h164v-221l-109 -285h-137l82 285v221zM342 612h-164v222h164v-222z" />
    <glyph glyph-name="Delta" unicode="&#x394;" horiz-adv-x="1241" 
d="M303 156h635l-317 1030zM723 1444l467 -1444h-1137l475 1444h195z" />
    <glyph glyph-name="Omega" unicode="&#x3a9;" 
d="M1085 1047v-414q0 -234 -207 -342q-42 -23 -81 -33v-131h288v-127h-405v350q80 14 146 74t65 170v453q0 119 -83 185t-206 66t-206 -66t-83 -185v-453q0 -111 67 -170t144 -74v-350h-403v127h287v131q-80 22 -171 98q-50 43 -83 115t-33 162v414q0 187 137 297t344 110
t345 -110t138 -297z" />
    <glyph glyph-name="mu" unicode="&#x3bc;" horiz-adv-x="1220" 
d="M918 1024h184v-1024h-156l-18 162q-51 -94 -137 -138t-177 -44t-168 43v-195q0 -142 -54 -200t-148 -58t-193 20l15 136q52 -14 116 -14t92 32q28 33 27 102v1178h184v-698q1 -88 55 -146t153 -59q99 0 162 67q62 68 63 168v668z" />
    <glyph glyph-name="pi" unicode="&#x3c0;" horiz-adv-x="1155" 
d="M360 897v-897h-184v897h-129v127h1061v-127h-129v-897h-184v897h-435z" />
    <glyph glyph-name="sigma" unicode="&#x3c3;" horiz-adv-x="1054" 
d="M729 326v352q0 102 -60 156q-59 54 -155 55q-96 0 -156 -54t-61 -157v-352q0 -102 60 -156q59 -54 155 -55q96 0 157 54q60 55 60 157zM965 1024v-135h-156q104 -100 104 -242v-311q-1 -180 -113 -268t-288 -88t-288 88t-111 268v332q0 180 111 268q112 88 288 88h453z
" />
    <glyph glyph-name="Wgrave" unicode="&#x1e80;" horiz-adv-x="1771" 
d="M1544 1434h195l-379 -1444h-195l-278 1143l-281 -1143h-194l-381 1444h205l272 -1158l285 1158h198l279 -1155zM823 1536l-215 287h154l192 -287h-131z" />
    <glyph glyph-name="wgrave" unicode="&#x1e81;" horiz-adv-x="1388" 
d="M1171 1024h183l-275 -1034h-198l-187 821l-186 -821h-201l-272 1034h180l195 -829l190 829h184l195 -829zM633 1126l-215 287h153l193 -287h-131z" />
    <glyph glyph-name="Wacute" unicode="&#x1e82;" horiz-adv-x="1771" 
d="M1544 1434h195l-379 -1444h-195l-278 1143l-281 -1143h-194l-381 1444h205l272 -1158l285 1158h198l279 -1155zM950 1536h-131l191 287h155z" />
    <glyph glyph-name="wacute" unicode="&#x1e83;" horiz-adv-x="1388" 
d="M1171 1024h183l-275 -1034h-198l-187 821l-186 -821h-201l-272 1034h180l195 -829l190 829h184l195 -829zM760 1126h-131l190 287h156z" />
    <glyph glyph-name="Wdieresis" unicode="&#x1e84;" horiz-adv-x="1771" 
d="M1544 1434h195l-379 -1444h-195l-278 1143l-281 -1143h-194l-381 1444h205l272 -1158l285 1158h198l279 -1155zM1198 1579h-184v274h184v-274zM760 1579h-185v274h185v-274z" />
    <glyph glyph-name="wdieresis" unicode="&#x1e85;" horiz-adv-x="1388" 
d="M1171 1024h183l-275 -1034h-198l-187 821l-186 -821h-201l-272 1034h180l195 -829l190 829h184l195 -829zM1008 1169h-185v275h185v-275zM569 1169h-184v275h184v-275z" />
    <glyph glyph-name="Germandbls" unicode="&#x1e9e;" horiz-adv-x="1169" 
d="M991 1139v-76q0 -205 -166 -289q268 -78 269 -344v-53q0 -185 -123 -281t-312 -96h-200v156h192q119 0 194 55t75 176v53q0 115 -77 173t-192 59h-192v155h90q111 -1 185 53t73 169v100q1 103 -61 157t-160 54t-160 -54t-61 -157v-1149h-185v897h-129v127h129v115
q0 180 114 268t293 88t291 -87t113 -269z" />
    <glyph glyph-name="Ygrave" unicode="&#x1ef2;" horiz-adv-x="1155" 
d="M672 0h-195v545l-467 889h207l358 -711l367 711h205l-475 -889v-545zM514 1536l-215 287h154l192 -287h-131z" />
    <glyph glyph-name="ygrave" unicode="&#x1ef3;" horiz-adv-x="933" 
d="M170 -430q-70 0 -166 20l14 140q66 -18 143 -18t115 32q38 33 72 119l47 127h-20l-348 1034h184l266 -819l250 819h182l-395 -1147q-59 -183 -136 -245t-208 -62zM406 1126l-216 287h154l193 -287h-131z" />
    <glyph glyph-name="figuredash" unicode="&#x2012;" horiz-adv-x="1224" 
d="M1114 653h-1003v148h1003v-148z" />
    <glyph glyph-name="endash" unicode="&#x2013;" horiz-adv-x="1216" 
d="M1110 438h-1004v148h1004v-148z" />
    <glyph glyph-name="emdash" unicode="&#x2014;" horiz-adv-x="1421" 
d="M1315 438h-1209v148h1209v-148z" />
    <glyph glyph-name="quoteleft" unicode="&#x2018;" horiz-adv-x="413" 
d="M129 1434h107l59 -285v-221h-166v506z" />
    <glyph glyph-name="quoteright" unicode="&#x2019;" horiz-adv-x="409" 
d="M281 1434v-506h-107l-59 284v222h166z" />
    <glyph glyph-name="quotesinglbase" unicode="&#x201a;" horiz-adv-x="419" 
d="M293 221v-506h-109l-57 285v221h166z" />
    <glyph glyph-name="quotedblleft" unicode="&#x201c;" horiz-adv-x="870" 
d="M586 928v506h106l60 -285v-221h-166zM129 928v506h107l59 -285v-221h-166z" />
    <glyph glyph-name="quotedblright" unicode="&#x201d;" horiz-adv-x="866" 
d="M737 1434v-506h-106l-60 284v222h166zM281 1434v-506h-107l-59 284v222h166z" />
    <glyph glyph-name="quotedblbase" unicode="&#x201e;" horiz-adv-x="876" 
d="M750 221v-506h-109l-57 285v221h166zM293 221v-506h-109l-57 285v221h166z" />
    <glyph glyph-name="dagger" unicode="&#x2020;" horiz-adv-x="774" 
d="M698 1169v-137h-215v-1032h-194v1032h-213v137h213v265h194v-265h215z" />
    <glyph glyph-name="daggerdbl" unicode="&#x2021;" horiz-adv-x="813" 
d="M717 1032h-213v-631h213v-137h-213v-264h-195v264h-215v137h215v631h-215v137h215v265h195v-265h213v-137z" />
    <glyph glyph-name="bullet" unicode="&#x2022;" horiz-adv-x="446" 
d="M315 616h-184v242h184v-242z" />
    <glyph glyph-name="onedotenleader" unicode="&#x2024;" horiz-adv-x="419" 
d="M293 0h-166v221h166v-221z" />
    <glyph glyph-name="twodotenleader" unicode="&#x2025;" horiz-adv-x="876" 
d="M750 0h-166v221h166v-221zM293 0h-166v221h166v-221z" />
    <glyph glyph-name="ellipsis" unicode="&#x2026;" horiz-adv-x="1333" 
d="M1206 0h-166v221h166v-221zM750 0h-166v221h166v-221zM293 0h-166v221h166v-221z" />
    <glyph glyph-name="perthousand" unicode="&#x2030;" horiz-adv-x="2353" 
d="M1798 627v-394q0 -69 49 -109t122 -40t122 40t49 109v394q0 69 -49 109t-122 40t-122 -40t-49 -109zM1094 627v-394q0 -69 49 -109t121 -40t120 40t50 109v394q0 69 -50 109t-120 40q-72 0 -121 -40t-49 -109zM2261 627v-394q0 -113 -84 -179t-208 -66t-208 66t-84 179
v394q0 113 84 179t208 66t208 -66t84 -179zM1554 627v-394q0 -113 -83 -179t-207 -66t-208 66q-83 66 -83 179v394q0 113 83 179t208 66q126 0 208 -66t82 -179zM215 1208v-395q0 -67 49 -107t121 -40t121 40t49 107v395q0 68 -49 108t-121 40t-121 -40t-49 -108zM483 0
h-102l778 1434h103zM676 1208v-395q0 -113 -83 -179t-208 -67q-125 0 -208 67t-83 179v395q0 113 83 180q83 66 208 66t208 -66t83 -180z" />
    <glyph glyph-name="guilsinglleft" unicode="&#x2039;" horiz-adv-x="688" 
d="M582 207v-158l-521 393v138l521 395v-158l-346 -305v-4z" />
    <glyph glyph-name="guilsinglright" unicode="&#x203a;" horiz-adv-x="688" 
d="M106 207l347 301v4l-347 305v158l523 -395v-138l-523 -393v158z" />
    <glyph glyph-name="exclamdbl" unicode="&#x203c;" horiz-adv-x="962" 
d="M811 0h-193v221h193v-221zM346 0h-194v221h194v-221zM811 1434v-615l-29 -434h-135l-29 434v615h193zM346 1434v-615l-29 -434h-137l-28 434v615h194z" />
    <glyph glyph-name="fraction" unicode="&#x2044;" horiz-adv-x="368" 
d="M-152 0h-102l778 1434h103z" />
    <glyph glyph-name="zerosuperior" unicode="&#x2070;" horiz-adv-x="743" 
d="M201 1460v-393q0 -70 49 -110q49 -39 122 -39t122 40t49 109v393q0 70 -49 110t-122 40t-122 -40t-49 -110zM664 1460v-393q0 -113 -84 -179t-208 -67q-124 0 -208 67t-84 179v393q0 114 84 180t208 66t208 -66t84 -180z" />
    <glyph glyph-name="foursuperior" unicode="&#x2074;" horiz-adv-x="733" 
d="M444 1153v369l-280 -369h280zM694 1153v-98h-129v-221h-121v221h-411v98l411 541h121v-541h129z" />
    <glyph glyph-name="fivesuperior" unicode="&#x2075;" horiz-adv-x="704" 
d="M205 1378h151q125 0 208 -66t83 -177v-68q0 -113 -83 -179t-208 -67q-124 0 -204 67t-80 179v43h114v-43q0 -70 48 -110q48 -39 121 -39t122 40t49 109v68q0 71 -49 109t-121 38h-266v412h514v-97h-399v-219z" />
    <glyph glyph-name="sixsuperior" unicode="&#x2076;" horiz-adv-x="727" 
d="M543 1067v20q0 70 -49 109t-121 39h-172v-168q0 -70 49 -110q49 -39 122 -39t122 40t49 109zM201 1331h172q125 1 208 -65t83 -179v-20q0 -113 -84 -179t-208 -67q-124 0 -208 67t-84 179v393q0 114 84 180t208 66t202 -67t77 -179v-43h-114v43q-1 70 -47 110t-118 40
t-122 -40q-49 -40 -49 -110v-129z" />
    <glyph glyph-name="sevensuperior" unicode="&#x2077;" horiz-adv-x="604" 
d="M35 1694h551v-97q-307 -367 -307 -763h-127q0 198 82 398t231 365h-430v97z" />
    <glyph glyph-name="eightsuperior" unicode="&#x2078;" horiz-adv-x="720" 
d="M530 1063v14q0 63 -49 103t-121 41q-72 0 -120 -40t-50 -104v-14q0 -68 50 -107q50 -38 120 -38q72 0 121 38t49 107zM197 1466v-6q0 -61 47 -102q46 -41 116 -41t117 41t47 102v6q0 68 -46 106t-118 38t-118 -38t-45 -106zM637 1479v-11q0 -139 -131 -196
q145 -59 145 -203v-14q0 -111 -82 -172t-209 -61q-126 0 -208 60q-82 62 -82 173v14q0 147 149 203q-135 63 -135 196v11q0 107 76 167t200 60t201 -60q76 -60 76 -167z" />
    <glyph glyph-name="ninesuperior" unicode="&#x2079;" horiz-adv-x="727" 
d="M356 1292h170v168q0 70 -49 110t-122 40t-122 -40t-49 -110v-20q0 -70 49 -109t123 -39zM63 1440v20q0 114 83 180t208 66t209 -67t84 -179v-393q0 -113 -84 -179t-208 -67q-123 0 -201 67t-78 179v43h114v-43q0 -70 46 -110q46 -39 120 -39q72 0 121 40t49 109v129h-170
q-127 0 -210 66t-83 178z" />
    <glyph glyph-name="colonmonetary" unicode="&#x20a1;" horiz-adv-x="1193" 
d="M315 487l566 666q-29 55 -78 88l-488 -579v-175zM315 1047v-310l447 529q-68 32 -174 32t-190 -66q-83 -66 -83 -185zM1087 922h-184v125q0 31 -6 55l-582 -688v-27q0 -125 82 -188t208 -63t212 64q86 65 86 187v125h184v-125q0 -186 -138 -297q-138 -110 -345 -110
t-344 110t-137 297v660q0 187 137 297t344 110t345 -111t138 -296v-125z" />
    <glyph glyph-name="uni20A8" unicode="&#x20a8;" horiz-adv-x="1372" 
d="M1294 1298h-256q55 -63 72 -168h184v-137h-178v-6q0 -262 -237 -334q168 -55 208 -303l56 -350h-195l-51 336q-23 147 -88 191q-66 44 -195 44h-483v136h545q248 0 248 231v55h-793v137h787q-37 168 -242 168h-545v136h1163v-136z" />
    <glyph glyph-name="Euro" unicode="&#x20ac;" horiz-adv-x="1269" 
d="M1159 922h-184v125q0 117 -87 185t-210 66q-123 0 -206 -66t-83 -185v-129h252v-107h-252v-172h252v-109h-252v-143q0 -125 81 -188t208 -63t212 64q85 65 85 187v125h184v-125q0 -186 -137 -297q-137 -110 -344 -110t-345 110t-138 297v143h-113v109h113v172h-113v107
h113v129q0 187 138 297t345 110t344 -111t137 -296v-125z" />
    <glyph glyph-name="afii61352" unicode="&#x2116;" horiz-adv-x="2021" 
d="M1909 637h-486v88h486v-88zM1538 1245v-221q0 -61 36 -93t92 -32t91 32t35 93v221q0 61 -35 93t-91 32t-92 -32t-36 -93zM991 1434h185v-1434h-195l-659 1104q12 -215 12 -369v-735h-184v1434h202l649 -1102q-10 231 -10 366v736zM1909 1239v-209q0 -109 -68 -162
t-174 -53t-175 53t-69 162v209q0 109 69 162t175 53t174 -53t68 -162z" />
    <glyph glyph-name="trademark" unicode="&#x2122;" horiz-adv-x="1566" 
d="M1423 1434v-861h-120v435q0 111 8 231l-187 -334h-96l-184 342q8 -129 8 -239v-435h-115v861h127l221 -394l218 394h120zM104 1337v97h521v-97h-197v-764h-121v764h-203z" />
    <glyph glyph-name="estimated" unicode="&#x212e;" horiz-adv-x="1556" 
d="M397 813h779v387q-168 158 -392 158t-387 -158v-387zM397 715v-482q166 -160 389 -159q334 0 517 321l94 -53q-137 -197 -271 -280t-340 -82q-308 0 -500 210t-192 526q0 318 194 528t492 210t491 -194q194 -194 208 -545h-1082z" />
    <glyph glyph-name="oneeighth" unicode="&#x215b;" horiz-adv-x="1665" 
d="M1475 229v15q1 63 -49 103t-122 40t-120 -40q-49 -40 -49 -103v-15q0 -69 49 -107t121 -38t121 38t49 107zM1141 633v-6q0 -61 47 -103t117 -41q71 0 117 41t46 103v6q0 67 -46 105t-118 38t-117 -38q-46 -38 -46 -105zM1581 645v-10q0 -139 -131 -197q145 -59 145 -202
v-15q0 -111 -82 -172q-83 -61 -209 -61t-208 61t-82 172v15q0 147 149 202q-135 63 -135 197v10q0 107 76 167t201 60t201 -60t75 -167zM1100 1434h102l-778 -1434h-102zM549 573h-492v97h187v667h-187v97h308v-764h184v-97z" />
    <glyph glyph-name="threeeighths" unicode="&#x215c;" horiz-adv-x="1804" 
d="M1614 229v15q0 63 -49 103t-121 40t-121 -40t-49 -103v-15q0 -69 49 -107t121 -38t121 38t49 107zM1280 633v-6q0 -61 47 -103t117 -41q70 0 117 41t47 103v6q0 67 -46 105t-118 38t-118 -38t-46 -105zM1720 645v-10q0 -139 -131 -197q145 -59 146 -202v-15
q0 -111 -82 -172t-209 -61t-209 61t-82 172v15q0 147 150 202q-135 63 -136 197v10q0 107 76 167t201 60t201 -60q75 -61 75 -167zM1239 1434h102l-778 -1434h-102zM645 821v-26q0 -111 -83 -172t-209 -61t-209 66q-83 67 -83 179v43h121v-43q0 -70 49 -110t122 -40t122 39
t49 107v24q0 66 -49 107t-121 41h-61v96h61q70 0 116 37t46 98v6q0 68 -45 103t-118 35t-119 -40t-46 -110v-43h-114v43q0 114 78 180t202 66t199 -57q76 -57 76 -164v-11q0 -137 -129 -192q145 -56 145 -201z" />
    <glyph glyph-name="fiveeighths" unicode="&#x215d;" horiz-adv-x="1792" 
d="M1602 229v15q0 63 -50 103t-120 40q-72 0 -121 -40t-49 -103v-15q0 -69 49 -107t121 -38t121 38t49 107zM1268 633v-6q0 -61 47 -103t117 -41q70 0 116 41t47 103v6q0 67 -46 105q-45 38 -117 38t-118 -38t-46 -105zM1708 645v-10q0 -139 -131 -197q145 -59 145 -202v-15
q0 -111 -82 -172t-208 -61t-209 61q-82 61 -82 172v15q0 147 149 202q-135 63 -135 197v10q0 107 76 167t201 60q124 0 200 -60t76 -167zM1227 1434h102l-778 -1434h-102zM647 874v-67q0 -113 -83 -179t-208 -67q-124 0 -204 67t-80 179v43h114v-43q0 -70 48 -110t121 -40
t122 40t49 110v67q0 70 -49 109t-121 39h-266v412h514v-97h-399v-219h151q125 0 208 -66t83 -178z" />
    <glyph glyph-name="seveneighths" unicode="&#x215e;" horiz-adv-x="1613" 
d="M1423 229v15q0 63 -49 103t-121 40q-73 0 -121 -40t-49 -103v-15q-1 -69 49 -107t122 -38t120 38q49 38 49 107zM1090 633v-6q0 -61 47 -103t117 -41q70 0 116 41q47 41 47 103v6q0 67 -46 105t-118 38q-71 0 -117 -38t-46 -105zM1530 645v-10q0 -139 -131 -197
q145 -59 145 -202v-15q0 -111 -82 -172t-209 -61t-209 61t-81 172v15q0 147 149 202q-135 63 -135 197v10q0 107 76 167q77 60 201 60t200 -60t76 -167zM1049 1434h102l-778 -1434h-103zM279 573h-127q0 197 82 398q83 201 231 366h-430v97h551v-97q-307 -367 -307 -764z
" />
    <glyph glyph-name="partialdiff" unicode="&#x2202;" horiz-adv-x="1261" 
d="M518 135q122 0 217 67q94 67 115 185l65 367h-288q-123 0 -217 -66t-115 -182l-23 -119q-18 -119 53 -185t193 -67zM733 1454q243 0 353 -108t75 -299l-117 -660q-32 -186 -190 -297q-158 -110 -365 -110t-325 110t-84 297l20 119q33 186 190 295t363 108h289l25 138
q20 119 -51 185t-193 66h-391l26 156h375z" />
    <glyph glyph-name="emptyset" unicode="&#x2205;" horiz-adv-x="1210" 
d="M893 387v660q0 45 -12 81l-496 -913q80 -80 211 -80q131 1 214 67t83 185zM315 1047v-660q0 -41 15 -88l497 918q-82 81 -214 81t-215 -66t-83 -185zM1087 1047v-660q0 -186 -138 -297q-137 -110 -329 -110t-319 81l-33 -61h-100l63 117q-109 109 -108 270v660
q0 187 137 297q138 110 332 110t319 -84l35 64h101l-66 -119q106 -106 106 -268z" />
    <glyph glyph-name="product" unicode="&#x220f;" horiz-adv-x="1294" 
d="M154 1434h985v-1434h-193v1278h-598v-1278h-194v1434z" />
    <glyph glyph-name="summation" unicode="&#x2211;" horiz-adv-x="1050" 
d="M956 1434v-156h-675l321 -551l-321 -571h675v-156h-870v156l330 571l-330 551v156h870z" />
    <glyph glyph-name="minus" unicode="&#x2212;" horiz-adv-x="917" 
d="M807 653h-696v148h696v-148z" />
    <glyph glyph-name="radical" unicode="&#x221a;" horiz-adv-x="1402" 
d="M72 801h565l174 -561l363 1194h204l-477 -1444h-192l-217 663h-420v148z" />
    <glyph glyph-name="infinity" unicode="&#x221e;" horiz-adv-x="1482" 
d="M400 702q-86 0 -138 -56t-53 -137t49 -137t144 -57t164 59t106 132q-35 76 -110 136q-76 60 -162 60zM1274 513q0 81 -50 139t-141 57q-93 -1 -163 -61t-111 -138q35 -76 111 -133t164 -57t138 56q52 56 52 137zM382 213q-126 0 -206 82t-80 216t86 217t234 83
q193 0 332 -223q137 223 346 223q135 0 215 -82t80 -213t-85 -217t-231 -86q-209 0 -338 221q-47 -90 -137 -156t-216 -65z" />
    <glyph glyph-name="integral" unicode="&#x222b;" horiz-adv-x="745" 
d="M281 1237q0 141 63 199q62 58 168 59q106 0 203 -20l-13 -136q-56 15 -118 15t-90 -33t-29 -102v-1391q1 -142 -63 -200t-170 -58t-201 20l12 136q55 -14 118 -14t91 32q28 33 29 102v1391z" />
    <glyph glyph-name="approxequal" unicode="&#x2248;" horiz-adv-x="878" 
d="M647 672h109q0 -109 -45 -160t-109 -51t-158 47t-125 47q-78 0 -77 -94h-109q0 109 44 160q45 51 109 51t158 -47t125 -47q78 0 78 94zM647 999h109q0 -109 -45 -159t-109 -52q-64 0 -158 48t-125 47q-78 0 -77 -95h-109q0 109 44 160q45 51 109 51t158 -47t125 -47
q78 0 78 94z" />
    <glyph glyph-name="notequal" unicode="&#x2260;" horiz-adv-x="954" 
d="M827 815h-256l-84 -176h340v-145h-407l-127 -269h-103l127 269h-186v145h256l82 176h-338v146h408l127 268h100l-127 -268h188v-146z" />
    <glyph glyph-name="lessequal" unicode="&#x2264;" horiz-adv-x="884" 
d="M743 322h-612v147h612v-147zM743 750v-148l-612 219v135l612 222v-148l-403 -139v-4z" />
    <glyph glyph-name="greaterequal" unicode="&#x2265;" horiz-adv-x="884" 
d="M141 322v147h613v-147h-613zM141 750l402 137v4l-402 139v148l613 -222v-135l-613 -219v148z" />
    <glyph glyph-name="lozenge" unicode="&#x25ca;" horiz-adv-x="985" 
d="M496 135l315 582l-315 581h-4l-316 -581l316 -582h4zM455 -10l-400 727l400 727h77l400 -727l-400 -727h-77z" />
    <glyph glyph-name="a.ss01" horiz-adv-x="985" 
d="M680 389v121q-246 -2 -339 -57t-93 -148v-16q0 -72 49 -120t150 -48q101 1 167 67t66 201zM864 723v-723h-153l-21 168q-92 -188 -319 -188q-154 0 -231 84t-77 190v27q0 328 617 331v111q0 98 -60 142t-150 44t-149 -44q-60 -44 -61 -142v-47h-166v47q0 166 106 244
q106 77 273 77q166 0 279 -77q112 -78 112 -244z" />
    <glyph glyph-name="aacute.ss01" horiz-adv-x="985" 
d="M680 389v121q-246 -2 -339 -57t-93 -148v-16q0 -72 49 -120t150 -48q101 1 167 67t66 201zM864 723v-723h-153l-21 168q-92 -188 -319 -188q-154 0 -231 84t-77 190v27q0 328 617 331v111q0 98 -60 142t-150 44t-149 -44q-60 -44 -61 -142v-47h-166v47q0 166 106 244
q106 77 273 77q166 0 279 -77q112 -78 112 -244zM535 1126h-132l191 287h156z" />
    <glyph glyph-name="abreve.ss01" horiz-adv-x="985" 
d="M680 389v121q-246 -2 -339 -57t-93 -148v-16q0 -72 49 -120t150 -48q101 1 167 67t66 201zM864 723v-723h-153l-21 168q-92 -188 -319 -188q-154 0 -231 84t-77 190v27q0 328 617 331v111q0 98 -60 142t-150 44t-149 -44q-60 -44 -61 -142v-47h-166v47q0 166 106 244
q106 77 273 77q166 0 279 -77q112 -78 112 -244zM293 1413q0 -72 44 -126t134 -54t133 53t43 127h88q1 -131 -71 -209t-193 -78t-193 78t-71 209h86z" />
    <glyph glyph-name="acircumflex.ss01" horiz-adv-x="985" 
d="M680 389v121q-246 -2 -339 -57t-93 -148v-16q0 -72 49 -120t150 -48q101 1 167 67t66 201zM864 723v-723h-153l-21 168q-92 -188 -319 -188q-154 0 -231 84t-77 190v27q0 328 617 331v111q0 98 -60 142t-150 44t-149 -44q-60 -44 -61 -142v-47h-166v47q0 166 106 244
q106 77 273 77q166 0 279 -77q112 -78 112 -244zM469 1315l-135 -189h-141l204 287h144l207 -287h-144z" />
    <glyph glyph-name="adieresis.ss01" horiz-adv-x="985" 
d="M680 389v121q-246 -2 -339 -57t-93 -148v-16q0 -72 49 -120t150 -48q101 1 167 67t66 201zM864 723v-723h-153l-21 168q-92 -188 -319 -188q-154 0 -231 84t-77 190v27q0 328 617 331v111q0 98 -60 142t-150 44t-149 -44q-60 -44 -61 -142v-47h-166v47q0 166 106 244
q106 77 273 77q166 0 279 -77q112 -78 112 -244zM782 1169h-184v275h184v-275zM344 1169h-184v275h184v-275z" />
    <glyph glyph-name="agrave.ss01" horiz-adv-x="985" 
d="M680 389v121q-246 -2 -339 -57t-93 -148v-16q0 -72 49 -120t150 -48q101 1 167 67t66 201zM864 723v-723h-153l-21 168q-92 -188 -319 -188q-154 0 -231 84t-77 190v27q0 328 617 331v111q0 98 -60 142t-150 44t-149 -44q-60 -44 -61 -142v-47h-166v47q0 166 106 244
q106 77 273 77q166 0 279 -77q112 -78 112 -244zM408 1126l-215 287h153l193 -287h-131z" />
    <glyph glyph-name="amacron.ss01" horiz-adv-x="985" 
d="M680 389v121q-246 -2 -339 -57t-93 -148v-16q0 -72 49 -120t150 -48q101 1 167 67t66 201zM864 723v-723h-153l-21 168q-92 -188 -319 -188q-154 0 -231 84t-77 190v27q0 328 617 331v111q0 98 -60 142t-150 44t-149 -44q-60 -44 -61 -142v-47h-166v47q0 166 106 244
q106 77 273 77q166 0 279 -77q112 -78 112 -244zM795 1180h-650v116h650v-116z" />
    <glyph glyph-name="aogonek.ss01" horiz-adv-x="985" 
d="M680 389v121q-246 -2 -339 -57t-93 -148v-16q0 -72 49 -120t150 -48q101 1 167 67t66 201zM371 -20q-154 0 -231 84t-77 190v27q0 328 617 331v111q0 98 -60 142t-150 44t-149 -44q-60 -44 -61 -142v-47h-166v47q0 166 106 244q106 77 273 77q166 0 279 -78t112 -243
v-723h-28q-56 -45 -96 -112t-40 -119q0 -100 101 -101q40 0 114 37l19 -65q-76 -60 -167 -60t-143 39t-52 110t48 145t128 126h-37l-21 168q-92 -188 -319 -188z" />
    <glyph glyph-name="aring.ss01" horiz-adv-x="985" 
d="M680 389v121q-246 -2 -339 -57t-93 -148v-16q0 -72 49 -120t150 -48q101 1 167 67t66 201zM864 723v-723h-153l-21 168q-92 -188 -319 -188q-154 0 -231 84t-77 190v27q0 328 617 331v111q0 98 -60 142t-150 44t-149 -44q-60 -44 -61 -142v-47h-166v47q0 166 106 244
q106 77 273 77q166 0 279 -77q112 -78 112 -244zM469 1405q-131 0 -131 -115t131 -114q65 0 99 30t34 84q0 53 -34 84t-99 31zM231 1290q0 184 239 184t239 -184t-239 -184t-239 184z" />
    <glyph glyph-name="atilde.ss01" horiz-adv-x="985" 
d="M680 389v121q-246 -2 -339 -57t-93 -148v-16q0 -72 49 -120t150 -48q101 1 167 67t66 201zM864 723v-723h-153l-21 168q-92 -188 -319 -188q-154 0 -231 84t-77 190v27q0 328 617 331v111q0 98 -60 142t-150 44t-149 -44q-60 -44 -61 -142v-47h-166v47q0 166 106 244
q106 77 273 77q166 0 279 -77q112 -78 112 -244zM674 1350h106q0 -109 -44 -161t-107 -52t-157 47t-128 47q-78 0 -78 -94h-106q0 109 44 161t108 52t159 -48q94 -48 125 -49q78 1 78 97z" />
    <glyph glyph-name="c.ss01" horiz-adv-x="948" 
d="M879 348v-26q1 -180 -105 -262t-279 -80q-173 0 -286 88t-113 268v352q0 180 113 268t286 88t278 -80t106 -262v-26h-166v26q-1 102 -61 154t-155 53q-95 0 -155 -54t-61 -157v-372q0 -102 60 -156q59 -54 155 -55q96 0 156 52t61 155v26h166z" />
    <glyph glyph-name="cacute.ss01" horiz-adv-x="948" 
d="M879 348v-26q1 -180 -105 -262t-279 -80q-173 0 -286 88t-113 268v352q0 180 113 268t286 88t278 -80t106 -262v-26h-166v26q-1 102 -61 154t-155 53q-95 0 -155 -54t-61 -157v-372q0 -102 60 -156q59 -54 155 -55q96 0 156 52t61 155v26h166zM561 1126h-131l191 287h155
z" />
    <glyph glyph-name="ccaron.ss01" horiz-adv-x="948" 
d="M879 348v-26q1 -180 -105 -262t-279 -80q-173 0 -286 88t-113 268v352q0 180 113 268t286 88t278 -80t106 -262v-26h-166v26q-1 102 -61 154t-155 53q-95 0 -155 -54t-61 -157v-372q0 -102 60 -156q59 -54 155 -55q96 0 156 52t61 155v26h166zM496 1225l135 188h143
l-207 -287h-143l-205 287h141z" />
    <glyph glyph-name="ccedilla.ss01" horiz-adv-x="948" 
d="M879 676h-166v26q-1 102 -61 154t-155 53q-95 0 -155 -54t-61 -157v-372q0 -102 60 -156q59 -54 155 -55q96 0 156 52t61 155v26h166v-26q-1 -168 -95 -250t-247 -90v-84h20q205 0 205 -168v-21q0 -86 -58 -137t-172 -51t-206 41l22 78q86 -35 182 -35q115 0 115 104v10
q0 96 -127 97h-59v166q-160 8 -261 96t-102 258v352q0 180 113 268t286 88t278 -80t106 -262v-26z" />
    <glyph glyph-name="ccircumflex.ss01" horiz-adv-x="948" 
d="M879 348v-26q1 -180 -105 -262t-279 -80q-173 0 -286 88t-113 268v352q0 180 113 268t286 88t278 -80t106 -262v-26h-166v26q-1 102 -61 154t-155 53q-95 0 -155 -54t-61 -157v-372q0 -102 60 -156q59 -54 155 -55q96 0 156 52t61 155v26h166zM496 1315l-136 -189h-141
l205 287h143l207 -287h-143z" />
    <glyph glyph-name="cdotaccent.ss01" horiz-adv-x="948" 
d="M879 348v-26q1 -180 -105 -262t-279 -80q-173 0 -286 88t-113 268v352q0 180 113 268t286 88t278 -80t106 -262v-26h-166v26q-1 102 -61 154t-155 53q-95 0 -155 -54t-61 -157v-372q0 -102 60 -156q59 -54 155 -55q96 0 156 52t61 155v26h166zM590 1169h-184v275h184
v-275z" />
    <glyph glyph-name="e.ss01" horiz-adv-x="966" 
d="M713 596v106q-1 102 -61 154t-156 53q-96 0 -156 -54t-61 -157v-102h434zM877 475h-598v-149q0 -102 60 -156q61 -54 157 -55q96 0 156 52t61 155v26h164v-26q1 -180 -105 -262t-279 -80q-173 0 -286 88t-113 268v352q0 180 113 268t285 88t278 -85t107 -267v-217z" />
    <glyph glyph-name="eacute.ss01" horiz-adv-x="966" 
d="M713 596v106q-1 102 -61 154t-156 53q-96 0 -156 -54t-61 -157v-102h434zM877 475h-598v-149q0 -102 60 -156q61 -54 157 -55q96 0 156 52t61 155v26h164v-26q1 -180 -105 -262t-279 -80q-173 0 -286 88t-113 268v352q0 180 113 268t285 88t278 -85t107 -267v-217z
M547 1126h-131l190 287h156z" />
    <glyph glyph-name="ebreve.ss01" horiz-adv-x="966" 
d="M713 596v106q-1 102 -61 154t-156 53q-96 0 -156 -54t-61 -157v-102h434zM877 475h-598v-149q0 -102 60 -156q61 -54 157 -55q96 0 156 52t61 155v26h164v-26q1 -180 -105 -262t-279 -80q-173 0 -286 88t-113 268v352q0 180 113 268t285 88t278 -85t107 -267v-217z
M305 1413q0 -72 44 -126t134 -54t133 53t43 127h89q0 -131 -72 -209t-193 -78t-193 78t-71 209h86z" />
    <glyph glyph-name="ecaron.ss01" horiz-adv-x="966" 
d="M713 596v106q-1 102 -61 154t-156 53q-96 0 -156 -54t-61 -157v-102h434zM877 475h-598v-149q0 -102 60 -156q61 -54 157 -55q96 0 156 52t61 155v26h164v-26q1 -180 -105 -262t-279 -80q-173 0 -286 88t-113 268v352q0 180 113 268t285 88t278 -85t107 -267v-217z
M483 1225l135 188h144l-207 -287h-143l-205 287h141z" />
    <glyph glyph-name="ecircumflex.ss01" horiz-adv-x="966" 
d="M713 596v106q-1 102 -61 154t-156 53q-96 0 -156 -54t-61 -157v-102h434zM877 475h-598v-149q0 -102 60 -156q61 -54 157 -55q96 0 156 52t61 155v26h164v-26q1 -180 -105 -262t-279 -80q-173 0 -286 88t-113 268v352q0 180 113 268t285 88t278 -85t107 -267v-217z
M483 1315l-135 -189h-141l205 287h143l207 -287h-144z" />
    <glyph glyph-name="edieresis.ss01" horiz-adv-x="966" 
d="M713 596v106q-1 102 -61 154t-156 53q-96 0 -156 -54t-61 -157v-102h434zM877 475h-598v-149q0 -102 60 -156q61 -54 157 -55q96 0 156 52t61 155v26h164v-26q1 -180 -105 -262t-279 -80q-173 0 -286 88t-113 268v352q0 180 113 268t285 88t278 -85t107 -267v-217z
M795 1169h-185v275h185v-275zM356 1169h-184v275h184v-275z" />
    <glyph glyph-name="edotaccent.ss01" horiz-adv-x="966" 
d="M713 596v106q-1 102 -61 154t-156 53q-96 0 -156 -54t-61 -157v-102h434zM877 475h-598v-149q0 -102 60 -156q61 -54 157 -55q96 0 156 52t61 155v26h164v-26q1 -180 -105 -262t-279 -80q-173 0 -286 88t-113 268v352q0 180 113 268t285 88t278 -85t107 -267v-217z
M578 1169h-185v275h185v-275z" />
    <glyph glyph-name="egrave.ss01" horiz-adv-x="966" 
d="M713 596v106q-1 102 -61 154t-156 53q-96 0 -156 -54t-61 -157v-102h434zM877 475h-598v-149q0 -102 60 -156q61 -54 157 -55q96 0 156 52t61 155v26h164v-26q1 -180 -105 -262t-279 -80q-173 0 -286 88t-113 268v352q0 180 113 268t285 88t278 -85t107 -267v-217z
M422 1126l-215 287h153l193 -287h-131z" />
    <glyph glyph-name="emacron.ss01" horiz-adv-x="966" 
d="M713 596v106q-1 102 -61 154t-156 53q-96 0 -156 -54t-61 -157v-102h434zM877 475h-598v-149q0 -102 60 -156q61 -54 157 -55q96 0 156 52t61 155v26h164v-26q1 -180 -105 -262t-279 -80q-173 0 -286 88t-113 268v352q0 180 113 268t285 88t278 -85t107 -267v-217z
M809 1180h-649v116h649v-116z" />
    <glyph glyph-name="eogonek.ss01" horiz-adv-x="966" 
d="M279 698v-102h434v106q-1 102 -61 154t-156 53q-96 0 -157 -54q-60 -55 -60 -157zM877 475h-598v-149q0 -102 60 -156q61 -54 157 -55q96 0 156 52t61 155v26h164v-26q1 -168 -93 -250t-247 -90q-113 -113 -113 -213t100 -101q41 0 115 37l18 -65q-76 -60 -167 -60
t-143 39t-52 109q0 139 149 254q-156 12 -253 99t-97 255v352q0 180 113 268t285 88t278 -85t107 -267v-217z" />
    <glyph glyph-name="g.ss01" horiz-adv-x="1019" 
d="M713 668q1 100 -63 168t-164 68t-153 -59q-54 -58 -54 -147v-331q0 -89 54 -147t153 -58t163 67q63 68 64 168v271zM418 20q-160 0 -242 94t-82 224v389q0 129 82 223t242 94q80 0 166 -44t137 -138l20 162h156v-1098q0 -180 -113 -268q-114 -88 -286 -88t-278 81
q-105 81 -105 261v27h164v-27q0 -102 60 -154q61 -52 157 -53q96 0 156 54t61 157v277q-51 -89 -134 -131t-161 -42z" />
    <glyph glyph-name="gbreve.ss01" horiz-adv-x="1019" 
d="M713 668q1 100 -63 168t-164 68t-153 -59q-54 -58 -54 -147v-331q0 -89 54 -147t153 -58t163 67q63 68 64 168v271zM418 20q-160 0 -242 94t-82 224v389q0 129 82 223t242 94q80 0 166 -44t137 -138l20 162h156v-1098q0 -180 -113 -268q-114 -88 -286 -88t-278 81
q-105 81 -105 261v27h164v-27q0 -102 60 -154q61 -52 157 -53q96 0 156 54t61 157v277q-51 -89 -134 -131t-161 -42zM334 1413q0 -72 44 -126t134 -54t133 53t43 127h88q0 -131 -72 -209t-192 -78q-121 0 -193 78t-71 209h86z" />
    <glyph glyph-name="gcircumflex.ss01" horiz-adv-x="1019" 
d="M713 668q1 100 -63 168t-164 68t-153 -59q-54 -58 -54 -147v-331q0 -89 54 -147t153 -58t163 67q63 68 64 168v271zM418 20q-160 0 -242 94t-82 224v389q0 129 82 223t242 94q80 0 166 -44t137 -138l20 162h156v-1098q0 -180 -113 -268q-114 -88 -286 -88t-278 81
q-105 81 -105 261v27h164v-27q0 -102 60 -154q61 -52 157 -53q96 0 156 54t61 157v277q-51 -89 -134 -131t-161 -42zM510 1315l-135 -189h-142l205 287h144l206 -287h-143z" />
    <glyph glyph-name="gdotaccent.ss01" horiz-adv-x="1019" 
d="M713 668q1 100 -63 168t-164 68t-153 -59q-54 -58 -54 -147v-331q0 -89 54 -147t153 -58t163 67q63 68 64 168v271zM418 20q-160 0 -242 94t-82 224v389q0 129 82 223t242 94q80 0 166 -44t137 -138l20 162h156v-1098q0 -180 -113 -268q-114 -88 -286 -88t-278 81
q-105 81 -105 261v27h164v-27q0 -102 60 -154q61 -52 157 -53q96 0 156 54t61 157v277q-51 -89 -134 -131t-161 -42zM604 1169h-184v275h184v-275z" />
    <glyph glyph-name="m.ss01" horiz-adv-x="1656" 
d="M119 0v684q0 182 107 271q108 89 276 89q233 0 327 -194q45 94 130 144t198 50q169 0 275 -88t106 -268v-688h-184v698q0 102 -60 156t-156 55q-96 0 -156 -54t-60 -157v-698h-185v698q0 102 -61 156q-60 54 -156 55q-96 0 -156 -54t-61 -157v-698h-184z" />
    <glyph glyph-name="n.ss01" horiz-adv-x="1040" 
d="M119 0v688q0 180 112 268q113 88 289 88t289 -88t113 -268v-688h-185v698q0 102 -61 156q-60 54 -156 55q-96 0 -156 -54t-61 -157v-698h-184z" />
    <glyph glyph-name="nacute.ss01" horiz-adv-x="1040" 
d="M119 0v688q0 180 112 268q113 88 289 88t289 -88t113 -268v-688h-185v698q0 102 -61 156q-60 54 -156 55q-96 0 -156 -54t-61 -157v-698h-184zM584 1126h-131l190 287h156z" />
    <glyph glyph-name="ncaron.ss01" horiz-adv-x="1040" 
d="M119 0v688q0 180 112 268q113 88 289 88t289 -88t113 -268v-688h-185v698q0 102 -61 156q-60 54 -156 55q-96 0 -156 -54t-61 -157v-698h-184zM520 1225l135 188h144l-207 -287h-143l-205 287h141z" />
    <glyph glyph-name="ntilde.ss01" horiz-adv-x="1040" 
d="M119 0v688q0 180 112 268q113 88 289 88t289 -88t113 -268v-688h-185v698q0 102 -61 156q-60 54 -156 55q-96 0 -156 -54t-61 -157v-698h-184zM723 1350h106q0 -109 -44 -161t-107 -52q-64 0 -158 47t-127 47q-78 0 -78 -94h-106q0 109 44 161q45 52 109 52t158 -48
t125 -49q78 1 78 97z" />
    <glyph glyph-name="s.ss01" horiz-adv-x="917" 
d="M88 756q0 143 101 216q101 72 271 72t270 -80q101 -80 101 -262v-26h-157v26q0 102 -58 154t-155 53q-193 0 -193 -151v-8q0 -114 206 -165q85 -21 170 -47q86 -26 146 -88t60 -161v-15q0 -145 -110 -220q-110 -74 -282 -74t-281 82q-110 82 -109 260v26h165v-26
q0 -102 65 -154t158 -53q93 0 151 39t59 116v13q0 108 -204 154q-85 19 -170 46t-145 92q-59 66 -59 170v11z" />
    <glyph glyph-name="sacute.ss01" horiz-adv-x="917" 
d="M88 756q0 143 101 216q101 72 271 72t270 -80q101 -80 101 -262v-26h-157v26q0 102 -58 154t-155 53q-193 0 -193 -151v-8q0 -114 206 -165q85 -21 170 -47q86 -26 146 -88t60 -161v-15q0 -145 -110 -220q-110 -74 -282 -74t-281 82q-110 82 -109 260v26h165v-26
q0 -102 65 -154t158 -53q93 0 151 39t59 116v13q0 108 -204 154q-85 19 -170 46t-145 92q-59 66 -59 170v11zM522 1126h-131l191 287h155z" />
    <glyph glyph-name="scaron.ss01" horiz-adv-x="917" 
d="M88 756q0 143 101 216q101 72 271 72t270 -80q101 -80 101 -262v-26h-157v26q0 102 -58 154t-155 53q-193 0 -193 -151v-8q0 -114 206 -165q85 -21 170 -47q86 -26 146 -88t60 -161v-15q0 -145 -110 -220q-110 -74 -282 -74t-281 82q-110 82 -109 260v26h165v-26
q0 -102 65 -154t158 -53q93 0 151 39t59 116v13q0 108 -204 154q-85 19 -170 46t-145 92q-59 66 -59 170v11zM457 1225l135 188h143l-207 -287h-143l-205 287h142z" />
    <glyph glyph-name="scedilla.ss01" horiz-adv-x="917" 
d="M268 758v-8q0 -114 206 -165q85 -21 170 -47q86 -26 146 -88t60 -161v-15q0 -137 -97 -211t-255 -83v-82h20q205 0 205 -168v-21q0 -86 -58 -137t-172 -51t-206 41l22 78q88 -35 183 -35q115 0 114 104v10q0 96 -127 97h-59v166q-156 8 -254 90t-98 250v26h165v-26
q0 -102 65 -154t158 -53q93 0 151 39t59 116v13q0 108 -204 154q-85 19 -170 46t-145 92q-59 66 -59 170v11q0 143 101 216q101 72 271 72t270 -80q101 -80 101 -262v-26h-157v26q0 102 -58 154t-155 53q-193 1 -193 -151z" />
    <glyph glyph-name="scircumflex.ss01" horiz-adv-x="917" 
d="M88 756q0 143 101 216q101 72 271 72t270 -80q101 -80 101 -262v-26h-157v26q0 102 -58 154t-155 53q-193 0 -193 -151v-8q0 -114 206 -165q85 -21 170 -47q86 -26 146 -88t60 -161v-15q0 -145 -110 -220q-110 -74 -282 -74t-281 82q-110 82 -109 260v26h165v-26
q0 -102 65 -154t158 -53q93 0 151 39t59 116v13q0 108 -204 154q-85 19 -170 46t-145 92q-59 66 -59 170v11zM457 1315l-135 -189h-142l205 287h143l207 -287h-143z" />
    <glyph glyph-name="t.ss01" horiz-adv-x="645" 
d="M416 897v-897h-185v897h-182v127h182v205h185v-205h180v-127h-180z" />
    <glyph glyph-name="tbar.ss01" horiz-adv-x="643" 
d="M598 897h-180v-264h176v-117h-176v-516h-185v516h-178v117h178v264h-182v127h182v205h185v-205h180v-127z" />
    <glyph glyph-name="tcaron.ss01" horiz-adv-x="827" 
d="M416 897v-897h-185v897h-182v127h182v205h185v-205h180v-127h-180zM786 1475v-447h-88l-57 236v211h145z" />
    <glyph glyph-name="tcedilla.ss01" horiz-adv-x="645" 
d="M416 0h-54v-102h21q205 0 205 -168v-21q0 -86 -58 -137t-172 -51t-206 41l22 78q88 -35 182 -35q115 0 115 104v10q0 96 -127 97h-59v184h-54v897h-182v127h182v205h185v-205h180v-127h-180v-897z" />
    <glyph glyph-name="u.ss01" horiz-adv-x="1040" 
d="M119 1024h184v-698q1 -102 61 -156t155 -55q95 0 157 54q61 54 61 157v698h185v-688q0 -180 -113 -268t-289 -88t-289 88t-112 268v688z" />
    <glyph glyph-name="uacute.ss01" horiz-adv-x="1040" 
d="M119 1024h184v-698q1 -102 61 -156t155 -55q95 0 157 54q61 54 61 157v698h185v-688q0 -180 -113 -268t-289 -88t-289 88t-112 268v688zM584 1126h-131l190 287h156z" />
    <glyph glyph-name="ubreve.ss01" horiz-adv-x="1040" 
d="M119 1024h184v-698q1 -102 61 -156t155 -55q95 0 157 54q61 54 61 157v698h185v-688q0 -180 -113 -268t-289 -88t-289 88t-112 268v688zM342 1413q0 -72 44 -126t134 -54t133 53t43 127h88q0 -131 -72 -209t-192 -78t-192 78t-72 209h86z" />
    <glyph glyph-name="ucircumflex.ss01" horiz-adv-x="1040" 
d="M119 1024h184v-698q1 -102 61 -156t155 -55q95 0 157 54q61 54 61 157v698h185v-688q0 -180 -113 -268t-289 -88t-289 88t-112 268v688zM520 1315l-135 -189h-141l205 287h143l207 -287h-144z" />
    <glyph glyph-name="udieresis.ss01" horiz-adv-x="1040" 
d="M119 1024h184v-698q1 -102 61 -156t155 -55q95 0 157 54q61 54 61 157v698h185v-688q0 -180 -113 -268t-289 -88t-289 88t-112 268v688zM831 1169h-184v275h184v-275zM393 1169h-184v275h184v-275z" />
    <glyph glyph-name="ugrave.ss01" horiz-adv-x="1040" 
d="M119 1024h184v-698q1 -102 61 -156t155 -55q95 0 157 54q61 54 61 157v698h185v-688q0 -180 -113 -268t-289 -88t-289 88t-112 268v688zM459 1126l-215 287h153l193 -287h-131z" />
    <glyph glyph-name="uhungarumlaut.ss01" horiz-adv-x="1040" 
d="M119 1024h184v-698q1 -102 61 -156t155 -55q95 0 157 54q61 54 61 157v698h185v-688q0 -180 -113 -268t-289 -88t-289 88t-112 268v688zM688 1126h-102l190 287h127zM446 1126h-102l191 287h127z" />
    <glyph glyph-name="umacron.ss01" horiz-adv-x="1040" 
d="M119 1024h184v-698q1 -102 61 -156t155 -55q95 0 157 54q61 54 61 157v698h185v-688q0 -180 -113 -268t-289 -88t-289 88t-112 268v688zM846 1180h-649v116h649v-116z" />
    <glyph glyph-name="uogonek.ss01" horiz-adv-x="1040" 
d="M737 1024h185v-688q0 -170 -102 -258t-261 -96q-113 -113 -113 -213t101 -101q41 0 115 37l18 -65q-76 -60 -167 -60t-143 39t-53 109q0 139 150 254q-156 14 -252 101t-96 253v688h184v-698q1 -102 61 -156t155 -55q95 0 157 54q61 54 61 157v698z" />
    <glyph glyph-name="uring.ss01" horiz-adv-x="1040" 
d="M119 1024h184v-698q1 -102 61 -156t155 -55q95 0 157 54q61 54 61 157v698h185v-688q0 -180 -113 -268t-289 -88t-289 88t-112 268v688zM520 1405q-131 0 -131 -115t131 -114q66 0 100 30t33 84q0 53 -33 84q-34 31 -100 31zM760 1290q0 -184 -239 -184t-238 184t239 184
t238 -184z" />
    <glyph glyph-name="utilde.ss01" horiz-adv-x="1040" 
d="M119 1024h184v-698q1 -102 61 -156t155 -55q95 0 157 54q61 54 61 157v698h185v-688q0 -180 -113 -268t-289 -88t-289 88t-112 268v688zM723 1350h106q0 -109 -44 -161t-107 -52q-64 0 -158 47t-127 47q-78 0 -78 -94h-106q0 109 44 161q45 52 109 52t158 -48t125 -49
q78 1 78 97z" />
    <glyph glyph-name="w.ss01" horiz-adv-x="1656" 
d="M1354 1024h184v-688q0 -180 -106 -268t-275 -88q-113 0 -198 50t-130 144q-94 -195 -327 -194q-168 0 -276 89t-107 271v684h184v-698q1 -102 61 -156t155 -55q95 0 157 54q61 54 61 157v698h185v-698q0 -102 60 -156t156 -55q96 0 155 54q60 54 61 157v698z" />
    <glyph glyph-name="wacute.ss01" horiz-adv-x="1656" 
d="M1354 1024h184v-688q0 -180 -106 -268t-275 -88q-113 0 -198 50t-130 144q-94 -195 -327 -194q-168 0 -276 89t-107 271v684h184v-698q1 -102 61 -156t155 -55q95 0 157 54q61 54 61 157v698h185v-698q0 -102 60 -156t156 -55q96 0 155 54q60 54 61 157v698zM893 1126
h-131l190 287h156z" />
    <glyph glyph-name="wcircumflex.ss01" horiz-adv-x="1656" 
d="M1354 1024h184v-688q0 -180 -106 -268t-275 -88q-113 0 -198 50t-130 144q-94 -195 -327 -194q-168 0 -276 89t-107 271v684h184v-698q1 -102 61 -156t155 -55q95 0 157 54q61 54 61 157v698h185v-698q0 -102 60 -156t156 -55q96 0 155 54q60 54 61 157v698zM827 1315
l-135 -189h-141l205 287h143l207 -287h-143z" />
    <glyph glyph-name="wdieresis.ss01" horiz-adv-x="1656" 
d="M1354 1024h184v-688q0 -180 -106 -268t-275 -88q-113 0 -198 50t-130 144q-94 -195 -327 -194q-168 0 -276 89t-107 271v684h184v-698q1 -102 61 -156t155 -55q95 0 157 54q61 54 61 157v698h185v-698q0 -102 60 -156t156 -55q96 0 155 54q60 54 61 157v698zM1141 1169
h-185v275h185v-275zM702 1169h-184v275h184v-275z" />
    <glyph glyph-name="wgrave.ss01" horiz-adv-x="1656" 
d="M1354 1024h184v-688q0 -180 -106 -268t-275 -88q-113 0 -198 50t-130 144q-94 -195 -327 -194q-168 0 -276 89t-107 271v684h184v-698q1 -102 61 -156t155 -55q95 0 157 54q61 54 61 157v698h185v-698q0 -102 60 -156t156 -55q96 0 155 54q60 54 61 157v698zM766 1126
l-215 287h154l192 -287h-131z" />
    <glyph glyph-name="y.ss01" horiz-adv-x="1040" 
d="M737 1024h185v-1098q0 -180 -113 -268t-286 -88t-278 81t-106 261v27h164v-27q1 -102 61 -154t155 -53q95 0 157 54q61 54 61 157v277q-51 -89 -134 -131t-161 -42q-160 0 -242 94t-81 224v686h184v-657q0 -89 54 -147q53 -58 153 -58t164 67q63 68 63 168v627z" />
    <glyph glyph-name="yacute.ss01" horiz-adv-x="1040" 
d="M737 1024h185v-1098q0 -180 -113 -268t-286 -88t-278 81t-106 261v27h164v-27q1 -102 61 -154t155 -53q95 0 157 54q61 54 61 157v277q-51 -89 -134 -131t-161 -42q-160 0 -242 94t-81 224v686h184v-657q0 -89 54 -147q53 -58 153 -58t164 67q63 68 63 168v627zM584 1126
h-131l190 287h156z" />
    <glyph glyph-name="ycircumflex.ss01" horiz-adv-x="1040" 
d="M737 1024h185v-1098q0 -180 -113 -268t-286 -88t-278 81t-106 261v27h164v-27q1 -102 61 -154t155 -53q95 0 157 54q61 54 61 157v277q-51 -89 -134 -131t-161 -42q-160 0 -242 94t-81 224v686h184v-657q0 -89 54 -147q53 -58 153 -58t164 67q63 68 63 168v627zM520 1315
l-135 -189h-141l205 287h143l207 -287h-144z" />
    <glyph glyph-name="ydieresis.ss01" horiz-adv-x="1040" 
d="M737 1024h185v-1098q0 -180 -113 -268t-286 -88t-278 81t-106 261v27h164v-27q1 -102 61 -154t155 -53q95 0 157 54q61 54 61 157v277q-51 -89 -134 -131t-161 -42q-160 0 -242 94t-81 224v686h184v-657q0 -89 54 -147q53 -58 153 -58t164 67q63 68 63 168v627zM831 1169
h-184v275h184v-275zM393 1169h-184v275h184v-275z" />
    <glyph glyph-name="ygrave.ss01" horiz-adv-x="1040" 
d="M737 1024h185v-1098q0 -180 -113 -268t-286 -88t-278 81t-106 261v27h164v-27q1 -102 61 -154t155 -53q95 0 157 54q61 54 61 157v277q-51 -89 -134 -131t-161 -42q-160 0 -242 94t-81 224v686h184v-657q0 -89 54 -147q53 -58 153 -58t164 67q63 68 63 168v627zM459 1126
l-215 287h153l193 -287h-131z" />
    <glyph glyph-name="a.ss02" horiz-adv-x="1019" 
d="M713 668q1 100 -63 168t-164 68t-153 -59q-54 -58 -54 -147v-372q0 -88 54 -146t153 -59q99 0 163 67q63 68 64 168v312zM94 727q0 129 82 223t242 94q80 0 166 -44t137 -138l20 162h156v-1024h-156l-20 168q-53 -106 -140 -148t-163 -40q-160 0 -242 94t-82 223v430z
" />
    <glyph glyph-name="aacute.ss02" horiz-adv-x="1019" 
d="M713 668q1 100 -63 168t-164 68t-153 -59q-54 -58 -54 -147v-372q0 -88 54 -146t153 -59q99 0 163 67q63 68 64 168v312zM94 727q0 129 82 223t242 94q80 0 166 -44t137 -138l20 162h156v-1024h-156l-20 168q-53 -106 -140 -148t-163 -40q-160 0 -242 94t-82 223v430z
M575 1126h-131l191 287h156z" />
    <glyph glyph-name="abreve.ss02" horiz-adv-x="1019" 
d="M713 668q1 100 -63 168t-164 68t-153 -59q-54 -58 -54 -147v-372q0 -88 54 -146t153 -59q99 0 163 67q63 68 64 168v312zM94 727q0 129 82 223t242 94q80 0 166 -44t137 -138l20 162h156v-1024h-156l-20 168q-53 -106 -140 -148t-163 -40q-160 0 -242 94t-82 223v430z
M334 1413q0 -72 44 -126t134 -54t133 53t43 127h88q0 -131 -72 -209t-192 -78q-121 0 -193 78t-71 209h86z" />
    <glyph glyph-name="acircumflex.ss02" horiz-adv-x="1019" 
d="M713 668q1 100 -63 168t-164 68t-153 -59q-54 -58 -54 -147v-372q0 -88 54 -146t153 -59q99 0 163 67q63 68 64 168v312zM94 727q0 129 82 223t242 94q80 0 166 -44t137 -138l20 162h156v-1024h-156l-20 168q-53 -106 -140 -148t-163 -40q-160 0 -242 94t-82 223v430z
M510 1315l-135 -189h-142l205 287h144l206 -287h-143z" />
    <glyph glyph-name="adieresis.ss02" horiz-adv-x="1019" 
d="M713 668q1 100 -63 168t-164 68t-153 -59q-54 -58 -54 -147v-372q0 -88 54 -146t153 -59q99 0 163 67q63 68 64 168v312zM94 727q0 129 82 223t242 94q80 0 166 -44t137 -138l20 162h156v-1024h-156l-20 168q-53 -106 -140 -148t-163 -40q-160 0 -242 94t-82 223v430z
M823 1169h-184v275h184v-275zM385 1169h-184v275h184v-275z" />
    <glyph glyph-name="agrave.ss02" horiz-adv-x="1019" 
d="M713 668q1 100 -63 168t-164 68t-153 -59q-54 -58 -54 -147v-372q0 -88 54 -146t153 -59q99 0 163 67q63 68 64 168v312zM94 727q0 129 82 223t242 94q80 0 166 -44t137 -138l20 162h156v-1024h-156l-20 168q-53 -106 -140 -148t-163 -40q-160 0 -242 94t-82 223v430z
M449 1126l-216 287h154l193 -287h-131z" />
    <glyph glyph-name="amacron.ss02" horiz-adv-x="1019" 
d="M713 668q1 100 -63 168t-164 68t-153 -59q-54 -58 -54 -147v-372q0 -88 54 -146t153 -59q99 0 163 67q63 68 64 168v312zM94 727q0 129 82 223t242 94q80 0 166 -44t137 -138l20 162h156v-1024h-156l-20 168q-53 -106 -140 -148t-163 -40q-160 0 -242 94t-82 223v430z
M836 1180h-650v116h650v-116z" />
    <glyph glyph-name="aogonek.ss02" horiz-adv-x="1019" 
d="M713 356v312q1 100 -63 168t-164 68t-153 -59q-54 -58 -54 -147v-372q0 -88 54 -146t153 -59t163 67t64 168zM602 -271q0 71 48 145t128 126h-37l-20 168q-53 -106 -140 -148t-163 -40q-160 0 -242 94t-82 223v430q0 129 82 223t242 94q80 0 166 -44t137 -138l20 162h156
v-1024h-31q-55 -45 -95 -112t-40 -119q0 -100 100 -101q41 0 115 37l19 -65q-75 -60 -167 -60t-144 39t-52 110z" />
    <glyph glyph-name="aring.ss02" horiz-adv-x="1019" 
d="M713 668q1 100 -63 168t-164 68t-153 -59q-54 -58 -54 -147v-372q0 -88 54 -146t153 -59q99 0 163 67q63 68 64 168v312zM94 727q0 129 82 223t242 94q80 0 166 -44t137 -138l20 162h156v-1024h-156l-20 168q-53 -106 -140 -148t-163 -40q-160 0 -242 94t-82 223v430z
M510 1405q-131 0 -131 -115t131 -114q66 0 100 30t33 84q1 53 -33 84t-100 31zM272 1290q0 184 239 184t239 -184t-239 -184t-239 184z" />
    <glyph glyph-name="atilde.ss02" horiz-adv-x="1019" 
d="M713 668q1 100 -63 168t-164 68t-153 -59q-54 -58 -54 -147v-372q0 -88 54 -146t153 -59q99 0 163 67q63 68 64 168v312zM94 727q0 129 82 223t242 94q80 0 166 -44t137 -138l20 162h156v-1024h-156l-20 168q-53 -106 -140 -148t-163 -40q-160 0 -242 94t-82 223v430z
M715 1350h106q0 -109 -44 -161t-107 -52q-64 0 -158 47t-127 47q-78 0 -78 -94h-106q0 109 44 161t108 52q65 0 159 -48t125 -49q78 1 78 97z" />
    <glyph glyph-name="T_h" horiz-adv-x="1998" 
d="M1264 1434v-562q51 88 133 130t159 42q162 0 243 -94t81 -223v-727h-184v698q0 88 -54 146t-154 59q-99 0 -162 -67q-62 -68 -62 -168v-668h-185v1278h-497v-1278h-195v1278h-340v156h1217z" />
    <glyph glyph-name="Tcaron_h" horiz-adv-x="1998" 
d="M1264 1434v-562q51 88 133 130t159 42q162 0 243 -94t81 -223v-727h-184v698q0 88 -54 146t-154 59q-99 0 -162 -67q-62 -68 -62 -168v-668h-185v1278h-497v-1278h-195v1278h-340v156h1217zM551 1536h-143l-207 287h143l135 -189l135 189h144z" />
    <glyph glyph-name="uni021A_h" horiz-adv-x="1996" 
d="M399 -154h166v-221l-110 -284h-136l80 284v221zM1262 1434v-562q51 88 133 130t159 42q162 0 243 -94t81 -223v-727h-184v698q0 88 -54 146t-154 59q-99 0 -162 -67q-62 -68 -62 -168v-668h-185v1278h-497v-1278h-195v1278h-340v156h1217z" />
    <glyph glyph-name="f_f_j" horiz-adv-x="1644" 
d="M1335 -154v1178h185v-1196q0 -142 -64 -200t-168 -58t-201 20l13 136q52 -14 116 -14t92 32t27 102zM1008 1475h512v-306h-185v164h-266q-73 0 -101 -33t-28 -102v-174h236v-127h-236v-897h-184v897h-396v-897h-184v897h-129v127h129v213q0 141 65 199t169 59
q104 0 200 -20l-12 -136q-51 15 -116 15q-66 0 -94 -33t-28 -102v-195h396v193q0 141 64 199t188 59z" />
    <glyph glyph-name="f_j" horiz-adv-x="1064" 
d="M756 -154v1178h184v-1196q0 -142 -63 -200t-168 -58t-201 20l12 136q51 -14 116 -14q64 0 92 32t28 102zM428 1475h512v-306h-184v164h-267q-73 0 -101 -33t-28 -102v-174h236v-127h-236v-897h-184v897h-129v127h129v193q0 141 64 199t188 59z" />
    <glyph glyph-name="zero.lf" horiz-adv-x="1210" 
d="M315 1047v-660q0 -119 83 -185t206 -67q123 0 206 67t83 185v660q0 119 -83 185t-206 66t-206 -66t-83 -185zM1087 1047v-660q0 -186 -138 -297q-138 -110 -345 -110t-344 110t-137 297v660q0 187 137 297t344 110t345 -110t138 -297z" />
    <glyph glyph-name="one.lf" horiz-adv-x="937" 
d="M586 156h309v-156h-811v156h309v1122h-309v156h502v-1278z" />
    <glyph glyph-name="two.lf" horiz-adv-x="1155" 
d="M1057 1047v-21q0 -129 -80 -235q-80 -105 -193 -177q-112 -72 -226 -136q-272 -155 -273 -306v-16h772v-156h-967v166q0 131 80 237q80 107 192 179t227 138q273 157 273 312v15q0 119 -83 185t-206 66t-201 -66t-77 -185v-72h-184v72q0 188 129 298q128 109 334 109
t344 -110t139 -297z" />
    <glyph glyph-name="three.lf" horiz-adv-x="1153" 
d="M113 975v72q0 188 128 298q129 109 333 109t330 -98t128 -275q-4 -233 -221 -329q246 -96 246 -338v-47q0 -183 -136 -285q-135 -102 -345 -102t-347 110t-137 297v72h193v-72q0 -119 83 -185q82 -66 206 -67q124 0 206 65t82 181v43q0 112 -84 180t-205 68h-102v155h102
q119 0 198 67t81 169q-2 113 -80 174t-199 61t-199 -66t-77 -185v-72h-184z" />
    <glyph glyph-name="four.lf" horiz-adv-x="1202" 
d="M737 528v629l-475 -629h475zM1147 528v-155h-215v-373h-195v373h-688v155l688 908v-2h195v-906h215z" />
    <glyph glyph-name="five.lf" horiz-adv-x="1142" 
d="M319 889h259q207 0 344 -109t137 -295v-98q0 -186 -137 -297q-137 -110 -343 -110t-340 110t-135 297v72h185v-72q0 -119 83 -185t206 -67q124 0 206 67t82 185v98q0 117 -83 183t-205 65h-443v701h852v-156h-668v-389z" />
    <glyph glyph-name="six.lf" horiz-adv-x="1181" 
d="M893 387v37q0 116 -82 182t-207 66h-289v-285q0 -119 83 -185t206 -67q123 1 206 67t83 185zM315 827h289q209 -1 346 -109t137 -294v-37q0 -186 -138 -297q-138 -110 -345 -110t-344 110t-137 297v660q0 187 137 297t343 110t335 -110t129 -297v-72h-184v72
q0 119 -78 185t-201 66t-206 -66t-83 -185v-220z" />
    <glyph glyph-name="seven.lf" horiz-adv-x="1011" 
d="M53 1434h916v-156q-516 -610 -516 -1278h-205q0 332 139 669t387 609h-721v156z" />
    <glyph glyph-name="eight.lf" horiz-adv-x="1159" 
d="M868 381v22q0 111 -83 179t-205 68t-205 -68q-84 -68 -84 -179v-22q0 -117 83 -181t207 -65q123 1 205 65t82 181zM303 1057v-10q0 -103 79 -173t198 -70q118 0 198 70q80 68 80 173v10q0 115 -78 178t-200 63t-199 -63q-78 -63 -78 -178zM1036 1077v-16q0 -115 -59 -201
t-162 -129q248 -96 248 -338v-26q0 -183 -137 -285t-346 -102t-346 101q-136 101 -136 286v26q0 123 68 210t184 130q-106 47 -167 133q-60 86 -60 195v16q0 177 126 277t331 100q204 0 330 -100t126 -277z" />
    <glyph glyph-name="nine.lf" horiz-adv-x="1181" 
d="M575 762h289v285q0 119 -83 185t-206 66t-205 -66t-83 -185v-37q1 -116 83 -182t205 -66zM94 1010v37q0 187 137 297t344 110t345 -111t139 -296v-660q0 -186 -138 -297q-139 -110 -345 -110t-334 110t-127 297v72h184v-72q0 -119 78 -185q77 -66 199 -67q122 0 205 67
t83 185v219h-289q-207 0 -344 109t-137 295z" />
    <glyph glyph-name="zero.osf" horiz-adv-x="1210" 
d="M315 842v-455q0 -119 83 -185t206 -67q123 0 206 67t83 185v455q0 120 -83 186t-206 66t-206 -66t-83 -186zM1087 842v-455q0 -186 -138 -297q-138 -110 -345 -110t-344 110t-137 297v455q0 186 137 297t344 111t345 -112q138 -110 138 -296z" />
    <glyph glyph-name="one.osf" horiz-adv-x="962" 
d="M608 156h310v-156h-812v156h308v917h-308v156h502v-1073z" />
    <glyph glyph-name="two.osf" horiz-adv-x="1169" 
d="M1065 852v-21q0 -106 -57 -184q-56 -78 -142 -120q-164 -81 -371 -151q-85 -30 -143 -82t-57 -122v-16h770v-156h-965v166q0 110 58 190t142 120q164 77 371 147q85 29 142 83t57 130v16q0 115 -82 178q-82 64 -204 64t-201 -67q-78 -67 -78 -185v-72h-184v72
q0 188 128 298t335 110t344 -106t137 -292z" />
    <glyph glyph-name="three.osf" horiz-adv-x="1150" 
d="M111 770v72q0 188 128 298q129 110 333 110t330 -99q126 -98 128 -274q-4 -233 -221 -330q246 -96 246 -338v-47q0 -184 -136 -286q-135 -102 -345 -101t-347 111t-137 296v72h193v-72q0 -120 83 -186q82 -66 206 -66t206 65t82 181v43q0 111 -84 179t-205 69h-102v156
h102q119 1 198 67t81 168q-2 113 -80 174q-78 62 -199 62t-199 -67t-77 -185v-72h-184z" />
    <glyph glyph-name="four.osf" horiz-adv-x="1200" 
d="M733 156v796l-495 -796h495zM1143 156v-156h-215v-205h-195v205h-688v156l688 1075v-2h195v-1073h215z" />
    <glyph glyph-name="five.osf" horiz-adv-x="1155" 
d="M319 705h259q207 0 344 -109t137 -295v-119q0 -186 -137 -297t-343 -111t-340 112q-134 110 -135 296v72h185v-72q0 -120 83 -186t206 -66q124 0 206 67t82 185v119q0 117 -83 183t-205 65h-443v680h852v-156h-668v-368z" />
    <glyph glyph-name="six.osf" horiz-adv-x="1181" 
d="M893 387v37q0 116 -82 182t-207 66h-289v-285q0 -119 83 -185t206 -67q123 1 206 67t83 185zM315 827h289q209 -1 346 -109t137 -294v-37q0 -186 -138 -297q-138 -110 -345 -110t-344 110t-137 297v660q0 187 137 297t343 110t335 -110t129 -297v-72h-184v72
q0 119 -78 185t-201 66t-206 -66t-83 -185v-220z" />
    <glyph glyph-name="seven.osf" horiz-adv-x="1052" 
d="M76 1229h915v-156q-518 -608 -518 -1278h-203q0 332 140 669q139 337 387 609h-721v156z" />
    <glyph glyph-name="eight.osf" horiz-adv-x="1159" 
d="M868 381v22q0 111 -83 179t-205 68t-205 -68q-84 -68 -84 -179v-22q0 -117 83 -181t207 -65q123 1 205 65t82 181zM303 1057v-10q0 -103 79 -173t198 -70q118 0 198 70q80 68 80 173v10q0 115 -78 178t-200 63t-199 -63q-78 -63 -78 -178zM1036 1077v-16q0 -115 -59 -201
t-162 -129q248 -96 248 -338v-26q0 -183 -137 -285t-346 -102t-346 101q-136 101 -136 286v26q0 123 68 210t184 130q-106 47 -167 133q-60 86 -60 195v16q0 177 126 277t331 100q204 0 330 -100t126 -277z" />
    <glyph glyph-name="nine.osf" horiz-adv-x="1179" 
d="M575 557h289v285q0 120 -83 186t-206 66t-205 -67t-83 -185v-37q-1 -117 81 -183t207 -65zM92 805v37q0 186 138 297t345 111t345 -111q137 -111 137 -297v-660q0 -186 -137 -297q-138 -111 -344 -111t-334 110t-129 298v72h184v-72q0 -120 78 -186q79 -66 201 -66
t205 67t83 185v219h-289q-207 0 -345 109t-138 295z" />
    <glyph glyph-name="zero.subs" horiz-adv-x="743" 
d="M201 367v-394q0 -69 49 -109t122 -40t122 40t49 109v394q0 69 -49 109t-122 40t-122 -40t-49 -109zM664 367v-394q0 -113 -84 -179t-208 -66t-208 66t-84 179v394q0 113 84 179t208 66t208 -66t84 -179z" />
    <glyph glyph-name="one.subs" horiz-adv-x="575" 
d="M365 -164h184v-96h-492v96h187v668h-187v96h308v-764z" />
    <glyph glyph-name="two.subs" horiz-adv-x="714" 
d="M645 367v-13q0 -78 -47 -141t-115 -105q-69 -42 -137 -80q-162 -90 -162 -182v-10h461v-96h-582v102q-1 78 47 143t116 107t136 82q162 93 162 184v9q0 69 -48 109t-121 40t-119 -40t-46 -109v-43h-114v43q0 113 78 179t202 66t206 -66q83 -66 83 -179z" />
    <glyph glyph-name="three.subs" horiz-adv-x="714" 
d="M629 391v-10q0 -137 -129 -193q145 -55 145 -200v-27q0 -111 -83 -172t-209 -61t-209 66t-83 179v43h121v-43q0 -69 49 -109t122 -40t122 39t49 106v25q0 66 -49 106t-121 41h-61v97h61q70 0 116 36t46 99v6q0 69 -45 103t-118 34t-119 -40t-46 -109v-43h-114v43
q0 113 78 179t202 66t199 -58q76 -58 76 -163z" />
    <glyph glyph-name="four.subs" horiz-adv-x="731" 
d="M442 59v369l-278 -369h278zM694 59v-98h-129v-221h-123v221h-411v98l411 541h123v-541h129z" />
    <glyph glyph-name="five.subs" horiz-adv-x="702" 
d="M205 274h151q125 0 208 -66t83 -177v-58q0 -113 -83 -179t-208 -66q-124 0 -204 66t-80 179v43h114v-43q0 -69 48 -109t121 -40t122 40t49 109v58q0 71 -49 109t-121 38h-266v422h514v-96h-399v-230z" />
    <glyph glyph-name="six.subs" horiz-adv-x="727" 
d="M543 -27v21q0 70 -49 108t-121 39h-172v-168q0 -69 49 -109t122 -40t122 40t49 109zM201 238h172q125 0 208 -66t83 -178v-21q0 -113 -84 -179t-208 -66t-208 66t-84 179v394q0 113 84 179t208 66t202 -66t77 -179v-43h-114v43q-1 69 -47 109t-118 40t-122 -40
q-49 -40 -49 -109v-129z" />
    <glyph glyph-name="seven.subs" horiz-adv-x="604" 
d="M35 600h551v-96q-309 -369 -310 -764h-124q0 198 82 398t231 366h-430v96z" />
    <glyph glyph-name="eight.subs" horiz-adv-x="720" 
d="M530 -31v15q0 63 -49 103t-121 40t-120 -40t-50 -103v-15q0 -69 50 -107t120 -38q72 0 121 38t49 107zM197 373v-6q0 -61 47 -103q46 -42 116 -41q70 0 117 41t47 103v6q0 67 -46 105t-118 38t-118 -38t-45 -105zM637 385v-10q0 -139 -131 -197q145 -59 145 -203v-14
q0 -111 -82 -172t-209 -61q-126 0 -208 61t-82 172v14q0 147 149 203q-135 63 -135 197v10q0 107 76 167t200 60t201 -60q76 -60 76 -167z" />
    <glyph glyph-name="nine.subs" horiz-adv-x="727" 
d="M356 199h170v168q0 69 -49 109t-122 40t-122 -40t-49 -109v-21q0 -70 49 -108t123 -39zM63 346v21q0 113 83 179t208 66t209 -66t84 -179v-394q0 -113 -84 -179t-208 -66q-123 0 -201 66t-78 179v43h114v-43q0 -69 46 -109t120 -40q72 0 121 40t49 109v129h-170
q-127 0 -210 66t-83 178z" />
    <glyph glyph-name="zero.tf" 
d="M313 1047v-660q0 -119 83 -185t206 -67q123 0 206 67t83 185v660q0 119 -83 185t-206 66t-206 -66t-83 -185zM1083 1047v-660q0 -186 -137 -297q-137 -110 -344 -110t-345 110t-138 297v660q0 187 138 297t345 110t344 -110t137 -297z" />
    <glyph glyph-name="one.tf" 
d="M719 156h309v-156h-811v156h307v1122h-307v156h502v-1278z" />
    <glyph glyph-name="two.tf" 
d="M1079 1047v-21q0 -129 -79 -235q-78 -105 -192 -177t-228 -136q-272 -154 -271 -306v-16h770v-156h-964v166q0 131 80 237q81 107 193 179t226 138q274 158 273 312v15q0 119 -83 185t-206 66t-201 -66t-78 -185v-72h-184v72q0 188 129 298q129 109 335 109t343 -110
t137 -297z" />
    <glyph glyph-name="three.tf" 
d="M135 975v72q0 188 129 298q129 109 333 109t330 -98t128 -275q-4 -233 -221 -329q246 -96 245 -338v-47q0 -183 -136 -285t-344 -102t-346 110t-138 297v72h194v-72q0 -119 83 -185t206 -67q123 0 206 65t83 181v43q0 112 -84 180t-205 68h-102v155h102q117 0 196 67
q78 66 78 174t-76 169q-77 61 -199 61t-200 -66t-78 -185v-72h-184z" />
    <glyph glyph-name="four.tf" 
d="M737 528v629l-477 -629h477zM1147 528v-155h-217v-373h-193v373h-688v155l688 908v-2h193v-906h217z" />
    <glyph glyph-name="five.tf" 
d="M350 909h258q207 -1 344 -109t138 -294v-119q0 -186 -138 -297q-138 -110 -343 -110q-206 0 -340 110t-134 297v72h184v-72q0 -119 83 -185t206 -67q123 0 206 67t83 185v119q0 116 -83 182t-206 66h-442v680h852v-156h-668v-369z" />
    <glyph glyph-name="six.tf" 
d="M905 387v37q0 116 -83 182t-206 66h-288v-285q0 -119 83 -185t205 -67q122 1 206 67q83 66 83 185zM328 827h288q207 0 345 -108q137 -109 137 -295v-37q0 -186 -137 -297q-137 -110 -345 -110t-345 110q-138 110 -138 297v660q0 187 138 297t344 110t334 -110t128 -297
v-72h-184v72q0 119 -78 185t-200 66q-123 0 -205 -66t-82 -185v-220z" />
    <glyph glyph-name="seven.tf" 
d="M154 1434h917v-156q-518 -608 -518 -1278h-203q0 332 139 669t388 609h-723v156z" />
    <glyph glyph-name="eight.tf" 
d="M891 381v22q0 111 -84 179t-206 68t-205 -68t-83 -179v-22q0 -117 82 -181t206 -65q124 1 207 65t83 181zM324 1057v-10q0 -104 79 -174q80 -69 199 -69t198 70q79 68 79 173v10q0 115 -78 178t-200 63q-121 0 -199 -63t-78 -178zM1059 1077v-16q1 -115 -59 -201
t-164 -129q248 -96 247 -338v-26q0 -183 -136 -285t-345 -102t-346 101t-137 286v26q0 123 67 210q68 87 187 130q-106 47 -167 133q-60 86 -61 195v16q0 177 126 277t331 100t331 -100t126 -277z" />
    <glyph glyph-name="nine.tf" 
d="M588 762h289v285q0 119 -83 185t-206 66t-206 -66t-83 -185v-37q0 -116 82 -182t207 -66zM104 1010v37q0 187 138 297t346 110q207 0 344 -111t137 -296v-660q0 -186 -137 -297q-137 -110 -343 -110t-335 110t-129 297v72h184v-72q0 -119 78 -185t201 -67q123 0 206 67
t83 185v219h-289q-208 0 -346 109t-138 295z" />
    <glyph glyph-name="zero.tosf" 
d="M313 842v-455q0 -119 83 -185t206 -67q123 0 206 67t83 185v455q0 120 -83 186t-206 66t-206 -66t-83 -186zM1083 842v-455q0 -186 -137 -297q-137 -110 -344 -110t-345 110t-138 297v455q0 186 138 297t345 111t344 -112q137 -110 137 -296z" />
    <glyph glyph-name="one.tosf" 
d="M727 156h309v-156h-811v156h310v917h-310v156h502v-1073z" />
    <glyph glyph-name="two.tosf" 
d="M1081 852v-21q0 -125 -80 -211q-81 -86 -193 -130q-112 -46 -226 -84q-274 -90 -273 -234v-16h772v-156h-964v166q0 110 57 190t142 120q86 40 186 79t185 68t142 83t58 130v16q0 115 -82 178q-82 64 -205 64t-201 -67t-77 -185v-72h-185v72q0 188 128 298t335 110
t344 -106t137 -292z" />
    <glyph glyph-name="three.tosf" 
d="M135 770v72q0 188 129 298t333 110t330 -99q126 -98 128 -274q-4 -233 -221 -330q246 -96 245 -338v-47q0 -184 -136 -286t-344 -101t-346 111t-138 296v72h194v-72q0 -120 83 -186t206 -66t206 65t83 181v43q0 111 -84 179t-205 69h-102v156h102q117 1 196 67
q78 66 78 174t-76 168q-77 62 -199 62t-200 -67t-78 -185v-72h-184z" />
    <glyph glyph-name="four.tosf" 
d="M735 156v796l-495 -796h495zM1145 156v-156h-217v-205h-193v205h-688v156l688 1075v-2h193v-1073h217z" />
    <glyph glyph-name="five.tosf" 
d="M350 705h258q207 0 344 -109t138 -295v-119q0 -186 -138 -297t-343 -111q-206 0 -340 112q-134 110 -134 296v72h184v-72q0 -120 83 -186t206 -66t206 67t83 185v119q0 117 -83 183t-206 65h-442v680h852v-156h-668v-368z" />
    <glyph glyph-name="six.tosf" 
d="M905 387v37q0 116 -83 182t-206 66h-288v-285q0 -119 83 -185t205 -67q122 1 206 67q83 66 83 185zM328 827h288q207 0 345 -108q137 -109 137 -295v-37q0 -186 -137 -297q-137 -110 -345 -110t-345 110q-138 110 -138 297v660q0 187 138 297t344 110t334 -110t128 -297
v-72h-184v72q0 119 -78 185t-200 66q-123 0 -205 -66t-82 -185v-220z" />
    <glyph glyph-name="seven.tosf" 
d="M158 1229h915v-156q-516 -610 -516 -1278h-205q0 332 140 669q139 337 387 609h-721v156z" />
    <glyph glyph-name="eight.tosf" 
d="M891 381v22q0 111 -84 179t-206 68t-205 -68t-83 -179v-22q0 -117 82 -181t206 -65q124 1 207 65t83 181zM324 1057v-10q0 -104 79 -174q80 -69 199 -69t198 70q79 68 79 173v10q0 115 -78 178t-200 63q-121 0 -199 -63t-78 -178zM1059 1077v-16q1 -115 -59 -201
t-164 -129q248 -96 247 -338v-26q0 -183 -136 -285t-345 -102t-346 101t-137 286v26q0 123 67 210q68 87 187 130q-106 47 -167 133q-60 86 -61 195v16q0 177 126 277t331 100t331 -100t126 -277z" />
    <glyph glyph-name="nine.tosf" 
d="M586 557h288v285q0 120 -82 186t-206 66q-123 0 -206 -67t-83 -185v-37q0 -117 82 -183t207 -65zM102 805v37q0 186 138 297t346 111q207 0 344 -112q137 -110 137 -296v-660q0 -186 -137 -297t-343 -111t-335 110t-129 298v72h184v-72q0 -120 78 -186t201 -66t206 67
t82 185v219h-288q-208 0 -346 109t-138 295z" />
    <glyph glyph-name="zero.dnom" horiz-adv-x="743" 
d="M201 627v-394q0 -69 49 -109t122 -40t122 40t49 109v394q0 69 -49 109t-122 40t-122 -40t-49 -109zM664 627v-394q0 -113 -84 -179t-208 -66t-208 66t-84 179v394q0 113 84 179t208 66t208 -66t84 -179z" />
    <glyph glyph-name="one.dnom" horiz-adv-x="575" 
d="M365 96h184v-96h-492v96h187v668h-187v96h308v-764z" />
    <glyph glyph-name="two.dnom" horiz-adv-x="714" 
d="M645 627v-13q0 -78 -47 -141t-115 -105q-69 -42 -137 -80q-162 -90 -162 -182v-10h461v-96h-582v102q-1 78 47 143t116 107t136 82q162 93 162 184v9q0 69 -48 109t-121 40t-119 -40t-46 -109v-43h-114v43q0 113 78 179t202 66t206 -66q83 -66 83 -179z" />
    <glyph glyph-name="three.dnom" horiz-adv-x="714" 
d="M629 651v-10q0 -137 -129 -192q145 -55 145 -201v-27q0 -111 -83 -172t-209 -61t-209 66t-83 179v43h121v-43q0 -69 49 -109t122 -40t122 39t49 106v25q0 66 -49 106t-121 41h-61v97h61q70 0 116 37t46 98v6q0 69 -45 103t-118 34t-119 -40t-46 -109v-43h-114v43
q0 113 78 179t202 66t199 -58q76 -58 76 -163z" />
    <glyph glyph-name="four.dnom" horiz-adv-x="733" 
d="M444 319v369l-280 -369h280zM694 319v-98h-129v-221h-121v221h-411v98l411 541h121v-541h129z" />
    <glyph glyph-name="five.dnom" horiz-adv-x="702" 
d="M205 545h151q125 0 208 -66t83 -178v-68q0 -113 -83 -179t-208 -66q-124 0 -204 66t-80 179v43h114v-43q0 -69 48 -109t121 -40t122 40t49 109v68q0 70 -49 109t-121 39h-266v411h514v-96h-399v-219z" />
    <glyph glyph-name="six.dnom" horiz-adv-x="727" 
d="M543 233v21q0 70 -49 108t-121 39h-172v-168q0 -69 49 -109t122 -40t122 40t49 109zM201 498h172q125 0 208 -66t83 -178v-21q0 -113 -84 -179t-208 -66t-208 66t-84 179v394q0 113 84 179t208 66t202 -66t77 -179v-43h-114v43q-1 69 -47 109t-118 40t-122 -40
q-49 -40 -49 -109v-129z" />
    <glyph glyph-name="seven.dnom" horiz-adv-x="604" 
d="M35 860h551v-96q-307 -367 -307 -764h-127q0 198 82 398t231 366h-430v96z" />
    <glyph glyph-name="eight.dnom" horiz-adv-x="720" 
d="M530 229v15q0 63 -49 103t-121 40t-120 -40t-50 -103v-15q0 -69 50 -107t120 -38q72 0 121 38t49 107zM197 633v-6q0 -61 47 -103q46 -42 116 -41q70 0 117 41t47 103v6q0 67 -46 105t-118 38t-118 -38t-45 -105zM637 645v-10q0 -139 -131 -197q145 -59 145 -202v-15
q0 -111 -82 -172t-209 -61q-126 0 -208 61t-82 172v15q0 147 149 202q-135 63 -135 197v10q0 107 76 167t200 60t201 -60q76 -60 76 -167z" />
    <glyph glyph-name="nine.dnom" horiz-adv-x="727" 
d="M356 459h170v168q0 69 -49 109t-122 40t-122 -40t-49 -109v-21q0 -70 49 -108t123 -39zM63 606v21q0 113 83 179t208 66t209 -66t84 -179v-394q0 -113 -84 -179t-208 -66q-123 0 -201 66t-78 179v43h114v-43q0 -69 46 -109t120 -40q72 0 121 40t49 109v129h-170
q-127 0 -210 66t-83 178z" />
    <glyph glyph-name="zero.numr" horiz-adv-x="743" 
d="M201 1200v-393q0 -70 49 -110t122 -40t122 40t49 110v393q0 70 -49 110t-122 40t-122 -40t-49 -110zM664 1200v-393q0 -113 -84 -179t-208 -67q-124 0 -208 67t-84 179v393q0 114 84 180t208 66t208 -66t84 -180z" />
    <glyph glyph-name="one.numr" horiz-adv-x="575" 
d="M365 670h184v-97h-492v97h187v667h-187v97h308v-764z" />
    <glyph glyph-name="two.numr" horiz-adv-x="714" 
d="M645 1200v-12q0 -78 -47 -141t-115 -105q-69 -42 -137 -81q-162 -90 -162 -181v-10h461v-97h-582v103q-1 78 47 142t116 108q68 43 136 82q162 93 162 184v8q0 70 -48 110t-121 40t-119 -40t-46 -110v-43h-114v43q0 114 78 180t202 66t206 -66q83 -66 83 -180z" />
    <glyph glyph-name="three.numr" horiz-adv-x="714" 
d="M629 1225v-11q0 -137 -129 -192q145 -55 145 -201v-26q0 -111 -83 -172t-209 -61t-209 66q-83 67 -83 179v43h121v-43q0 -70 49 -110t122 -40t122 39t49 107v24q0 66 -49 107t-121 41h-61v96h61q70 0 116 37t46 98v6q0 68 -45 103t-118 35t-119 -40t-46 -110v-43h-114v43
q0 114 78 180t202 66t199 -58q76 -58 76 -163z" />
    <glyph glyph-name="four.numr" horiz-adv-x="733" 
d="M444 893v369l-280 -369h280zM694 893v-98h-129v-222h-121v222h-411v98l411 541h121v-541h129z" />
    <glyph glyph-name="five.numr" horiz-adv-x="702" 
d="M205 1118h151q125 0 208 -66t83 -178v-67q0 -113 -83 -179t-208 -67q-124 0 -204 67t-80 179v43h114v-43q0 -70 48 -110t121 -40t122 40t49 110v67q0 70 -49 109t-121 39h-266v412h514v-97h-399v-219z" />
    <glyph glyph-name="six.numr" horiz-adv-x="727" 
d="M543 807v20q0 70 -49 109t-121 39h-172v-168q0 -70 49 -110t122 -40t122 40t49 110zM201 1071h172q125 1 208 -65t83 -179v-20q0 -113 -84 -179t-208 -67q-124 0 -208 67t-84 179v393q0 114 84 180t208 66t202 -67t77 -179v-43h-114v43q-1 70 -47 110t-118 40t-122 -40
q-49 -40 -49 -110v-129z" />
    <glyph glyph-name="seven.numr" horiz-adv-x="604" 
d="M35 1434h551v-97q-307 -367 -307 -764h-127q0 197 82 398q83 201 231 366h-430v97z" />
    <glyph glyph-name="eight.numr" horiz-adv-x="720" 
d="M530 803v14q0 63 -49 103t-121 41q-72 0 -120 -40t-50 -104v-14q0 -68 50 -107t120 -39q72 0 121 39t49 107zM197 1206v-6q0 -61 47 -102q46 -41 116 -41t117 41t47 102v6q0 68 -46 106t-118 38t-118 -38t-45 -106zM637 1219v-11q0 -139 -131 -196q145 -59 145 -203v-14
q0 -111 -82 -172t-209 -61q-126 0 -208 60q-82 62 -82 173v14q0 147 149 203q-135 63 -135 196v11q0 106 76 166q76 61 200 61t201 -60q76 -60 76 -167z" />
    <glyph glyph-name="nine.numr" horiz-adv-x="727" 
d="M356 1032h170v168q0 70 -49 110t-122 40t-122 -40t-49 -110v-20q0 -70 49 -109t123 -39zM63 1180v20q0 114 83 180t208 66t209 -67t84 -179v-393q0 -113 -84 -179t-208 -67q-123 0 -201 67t-78 179v43h114v-43q0 -70 46 -110t120 -40q72 0 121 40t49 110v129h-170
q-127 0 -210 66t-83 178z" />
    <glyph glyph-name="colonmonetary.osf" horiz-adv-x="1191" 
d="M315 487l566 666q-29 55 -78 88l-488 -579v-175zM315 1047v-310l447 529q-68 32 -174 32t-190 -66q-83 -66 -83 -185zM1087 922h-184v125q0 31 -6 55l-582 -688v-27q0 -125 82 -188t208 -63t212 64q86 65 86 187v125h184v-125q0 -186 -138 -297q-138 -110 -345 -110
t-344 110t-137 297v660q0 187 137 297t344 110t345 -111t138 -296v-125z" />
    <glyph glyph-name="colonmonetary.tf" 
d="M322 487l563 664q-23 53 -78 90l-485 -579v-175zM322 737l444 529q-72 33 -156 32q-123 0 -206 -66t-82 -185v-310zM1092 922h-185v125q0 29 -6 53l-579 -684v-29q0 -125 80 -188t208 -63q127 0 212 64q85 65 85 187v125h185v-125q0 -186 -138 -297q-138 -110 -344 -110
q-207 0 -345 110t-138 297v660q0 187 138 297t345 110t344 -111t138 -296v-125z" />
    <glyph glyph-name="colonmonetary.tosf" 
d="M322 487l563 664q-23 53 -78 90l-485 -579v-175zM322 737l444 529q-72 33 -156 32q-123 0 -206 -66t-82 -185v-310zM1092 922h-185v125q0 29 -6 53l-579 -684v-29q0 -125 80 -188t208 -63q127 0 212 64q85 65 85 187v125h185v-125q0 -186 -138 -297q-138 -110 -344 -110
q-207 0 -345 110t-138 297v660q0 187 138 297t345 110t344 -111t138 -296v-125z" />
    <glyph glyph-name="cent.osf" horiz-adv-x="923" 
d="M535 -205h-103v187q-334 23 -334 348v364q0 326 334 348v187h103v-187q141 -6 294 -59l-24 -141q-150 61 -283 61q-240 0 -239 -229v-324q0 -229 239 -229q133 0 283 61l24 -141q-154 -53 -294 -59v-187z" />
    <glyph glyph-name="currency.osf" horiz-adv-x="890" 
d="M129 532v-40q0 -162 92 -235t225 -73t226 73q92 73 92 235v40q0 162 -92 235t-226 73t-225 -73q-92 -73 -92 -235zM784 532v-40q0 -199 -145 -281l74 -119h-21l-67 111q-81 -39 -179 -39t-178 39l-67 -111h-21l72 119q-143 84 -143 281v40q0 197 143 281l-72 119h21
l67 -111q80 39 178 39t179 -39l67 111h21l-74 -119q145 -86 145 -281z" />
    <glyph glyph-name="dollar.osf" horiz-adv-x="1126" 
d="M295 1087v-14q0 -76 55 -131t139 -87q85 -32 181 -72t180 -82q84 -43 139 -123t55 -191v-20q0 -172 -119 -272q-120 -99 -311 -113v-187h-102v187q-188 12 -310 120t-122 285v125h184v-125q0 -123 86 -187t212 -65q126 0 208 56t82 165v17q0 88 -78 148q-78 59 -188 101
t-220 89t-188 137t-78 219v20q0 160 114 256t298 109v186h102v-186q184 -14 297 -122t113 -283v-125h-184v125q0 119 -78 185t-199 66t-195 -56t-73 -155z" />
    <glyph glyph-name="Euro.osf" horiz-adv-x="1259" 
d="M1153 922h-184v125q0 117 -87 185t-210 66q-123 0 -206 -66t-83 -185v-129h252v-107h-252v-172h252v-109h-252v-143q0 -125 81 -188t208 -63t212 64q85 65 85 187v125h184v-125q0 -186 -137 -297q-137 -110 -344 -110t-345 110t-139 297v143h-112v109h112v172h-112v107
h112v129q0 187 138 297t346 110q207 0 344 -111t137 -296v-125z" />
    <glyph glyph-name="percent.osf" horiz-adv-x="1648" 
d="M1094 627v-394q0 -69 49 -109t121 -40t120 40t50 109v394q0 69 -50 109t-120 40q-72 0 -121 -40t-49 -109zM1554 627v-394q0 -113 -83 -179t-207 -66t-208 66q-83 66 -83 179v394q0 113 83 179t208 66q126 0 208 -66t82 -179zM215 1208v-395q0 -67 49 -107t121 -40
t121 40t49 107v395q0 68 -49 108t-121 40t-121 -40t-49 -108zM483 0h-102l778 1434h103zM676 1208v-395q0 -113 -83 -179t-208 -67q-125 0 -208 67t-83 179v395q0 113 83 180q83 66 208 66t208 -66t83 -180z" />
    <glyph glyph-name="perthousand.osf" horiz-adv-x="2353" 
d="M1798 627v-394q0 -69 49 -109t122 -40t122 40t49 109v394q0 69 -49 109t-122 40t-122 -40t-49 -109zM1094 627v-394q0 -69 49 -109t121 -40t120 40t50 109v394q0 69 -50 109t-120 40q-72 0 -121 -40t-49 -109zM2261 627v-394q0 -113 -84 -179t-208 -66t-208 66t-84 179
v394q0 113 84 179t208 66t208 -66t84 -179zM1554 627v-394q0 -113 -83 -179t-207 -66t-208 66q-83 66 -83 179v394q0 113 83 179t208 66q126 0 208 -66t82 -179zM215 1208v-395q0 -67 49 -107t121 -40t121 40t49 107v395q0 68 -49 108t-121 40t-121 -40t-49 -108zM483 0
h-102l778 1434h103zM676 1208v-395q0 -113 -83 -179t-208 -67q-125 0 -208 67t-83 179v395q0 113 83 180q83 66 208 66t208 -66t83 -180z" />
    <glyph glyph-name="uni20A8.osf" horiz-adv-x="1372" 
d="M1294 1298h-256q55 -63 72 -168h184v-137h-178v-6q0 -262 -237 -334q168 -55 208 -303l56 -350h-195l-51 336q-23 147 -88 191q-66 44 -195 44h-483v136h545q248 0 248 231v55h-793v137h787q-37 168 -242 168h-545v136h1163v-136z" />
    <glyph glyph-name="sterling.osf" horiz-adv-x="1212" 
d="M373 156h739v-156h-1016v156h82v381h-84v155h84v395q0 171 129 269t334 98t334 -110t129 -297v-125h-184v125q0 119 -79 185t-200 66t-195 -56t-73 -155v-395h317v-155h-317v-381z" />
    <glyph glyph-name="yen.osf" horiz-adv-x="1226" 
d="M981 602v-145h-274v-457h-195v457h-274v145h243l-436 832h207l358 -711l367 711h205l-445 -832h244z" />
    <glyph glyph-name="cent.tf" 
d="M676 -205h-103v187q-334 23 -333 348v364q0 326 333 348v187h103v-187q135 -6 295 -59l-25 -141q-154 61 -282 61q-240 0 -240 -229v-324q0 -229 240 -229q128 0 282 61l25 -141q-160 -53 -295 -59v-187z" />
    <glyph glyph-name="currency.tf" 
d="M285 532v-40q0 -162 92 -235t225 -73t225 73t93 235v40q0 162 -92 235t-226 73q-133 0 -225 -73t-92 -235zM940 532v-40q0 -199 -145 -281l73 -119h-20l-68 111q-80 -39 -178 -39t-178 39l-68 -111h-20l72 119q-143 84 -144 281v40q0 197 144 281l-72 119h20l68 -111
q80 39 178 39t178 -39l68 111h20l-73 -119q145 -86 145 -281z" />
    <glyph glyph-name="dollar.tf" 
d="M334 1087v-14q0 -76 55 -131t139 -87t180 -72t181 -82q84 -43 139 -123t55 -191v-20q0 -172 -119 -272q-120 -99 -311 -113v-187h-102v187q-188 12 -310 120t-122 285v125h184v-125q0 -123 86 -187t212 -65q126 0 208 56t82 165v17q0 88 -78 148q-79 59 -189 101t-220 89
t-188 137t-77 219v20q0 160 114 256t298 109v186h102v-186q184 -14 297 -122t113 -283v-125h-184v125q0 119 -78 185t-199 66q-120 0 -194 -56t-74 -155z" />
    <glyph glyph-name="Euro.tf" 
d="M1126 922h-184v125q0 117 -87 185t-211 66q-124 0 -207 -66t-83 -185v-129h252v-107h-252v-172h252v-109h-252v-143q0 -125 82 -188t208 -63t212 64q86 65 86 187v125h184v-125q0 -186 -138 -297q-138 -110 -345 -110t-344 110t-137 297v143h-115v109h115v172h-115v107
h115v129q0 187 137 297t344 110t345 -111t138 -296v-125z" />
    <glyph glyph-name="uni20A8.tf" 
d="M1143 1298h-256q55 -63 71 -168h185v-137h-178v-6q0 -262 -240 -334q170 -55 209 -303l57 -350h-194l-52 336q-23 147 -88 191q-66 44 -196 44h-357v136h420q246 0 246 231v55h-666v137h660q-37 168 -240 168h-420v136h1039v-136z" />
    <glyph glyph-name="sterling.tf" 
d="M369 156h739v-156h-1014v156h82v381h-84v155h84v395q0 171 128 269t333 98t334 -110t129 -297v-125h-185v125q1 119 -77 185t-199 66t-196 -56t-74 -155v-395h319v-155h-319v-381z" />
    <glyph glyph-name="yen.tf" 
d="M969 602v-145h-275v-457h-194v457h-275v145h246l-428 832h205l350 -711l356 711h207l-436 -832h244z" />
    <glyph glyph-name="cent.tosf" 
d="M676 -205h-103v187q-334 23 -333 348v364q0 326 333 348v187h103v-187q135 -6 295 -59l-25 -141q-154 61 -282 61q-240 0 -240 -229v-324q0 -229 240 -229q128 0 282 61l25 -141q-160 -53 -295 -59v-187z" />
    <glyph glyph-name="currency.tosf" 
d="M285 532v-40q0 -162 92 -235t225 -73t225 73t93 235v40q0 162 -92 235t-226 73q-133 0 -225 -73t-92 -235zM940 532v-40q0 -199 -145 -281l73 -119h-20l-68 111q-80 -39 -178 -39t-178 39l-68 -111h-20l72 119q-143 84 -144 281v40q0 197 144 281l-72 119h20l68 -111
q80 39 178 39t178 -39l68 111h20l-73 -119q145 -86 145 -281z" />
    <glyph glyph-name="dollar.tosf" 
d="M334 1087v-14q0 -76 55 -131t139 -87t180 -72t181 -82q84 -43 139 -123t55 -191v-20q0 -172 -119 -272q-120 -99 -311 -113v-187h-102v187q-188 12 -310 120t-122 285v125h184v-125q0 -123 86 -187t212 -65q126 0 208 56t82 165v17q0 88 -78 148q-79 59 -189 101t-220 89
t-188 137t-77 219v20q0 160 114 256t298 109v186h102v-186q184 -14 297 -122t113 -283v-125h-184v125q0 119 -78 185t-199 66q-120 0 -194 -56t-74 -155z" />
    <glyph glyph-name="Euro.tosf" 
d="M1126 922h-184v125q0 117 -87 185t-211 66q-124 0 -207 -66t-83 -185v-129h252v-107h-252v-172h252v-109h-252v-143q0 -125 82 -188t208 -63t212 64q86 65 86 187v125h184v-125q0 -186 -138 -297q-138 -110 -345 -110t-344 110t-137 297v143h-115v109h115v172h-115v107
h115v129q0 187 137 297t344 110t345 -111t138 -296v-125z" />
    <glyph glyph-name="uni20A8.tosf" 
d="M1143 1298h-256q55 -63 71 -168h185v-137h-178v-6q0 -262 -240 -334q170 -55 209 -303l57 -350h-194l-52 336q-23 147 -88 191q-66 44 -196 44h-357v136h420q246 0 246 231v55h-666v137h660q-37 168 -240 168h-420v136h1039v-136z" />
    <glyph glyph-name="sterling.tosf" 
d="M369 156h739v-156h-1014v156h82v381h-84v155h84v395q0 171 128 269t333 98t334 -110t129 -297v-125h-185v125q1 119 -77 185t-199 66t-196 -56t-74 -155v-395h319v-155h-319v-381z" />
    <glyph glyph-name="yen.tosf" 
d="M969 602v-145h-275v-457h-194v457h-275v145h246l-428 832h205l350 -711l356 711h207l-436 -832h244z" />
    <glyph glyph-name="uaccute.sups" horiz-adv-x="653" 
d="M199 1448v-418q1 -53 31 -87t89 -34t97 40q37 40 37 100v399h114v-614h-96l-12 94q-59 -106 -183 -107q-96 1 -144 57t-48 134v436h115zM369 1509h-82l114 172h97z" />
    <glyph glyph-name="florin.osf" horiz-adv-x="634" 
d="M176 897h-129v127h129v213q0 141 65 199t169 59q104 0 200 -20l-12 -136q-51 15 -116 15q-66 0 -94 -33t-28 -102v-195h236v-127h-236v-1069q0 -142 -63 -200t-167 -58t-202 20l13 136q51 -14 115 -14t92 32q28 33 28 102v1051z" />
    <glyph glyph-name="a.sups" horiz-adv-x="612" 
d="M416 1067v72q-254 -2 -254 -121v-10q0 -41 28 -70t89 -29q60 0 99 39q38 39 38 119zM299 1460q233 0 233 -200v-426h-98l-12 100q-53 -113 -191 -113q-92 0 -138 50t-46 116v14q0 199 369 201v51q0 117 -129 117q-89 0 -191 -47l-24 82q111 55 227 55z" />
    <glyph glyph-name="b.sups" horiz-adv-x="634" 
d="M201 1049q0 -59 38 -99t96 -41q58 0 89 35t31 86v221q0 51 -31 86t-89 35t-96 -40t-38 -99v-184zM86 834v884h115v-360q59 102 165 102t156 -56q49 -56 49 -134v-258q0 -78 -49 -134q-50 -56 -158 -56t-167 106l-15 -94h-96z" />
    <glyph glyph-name="c.sups" horiz-adv-x="552" 
d="M63 1249q0 211 232 211q104 0 209 -37l-15 -88q-90 37 -170 37q-141 0 -141 -135v-193q0 -135 141 -135q80 0 170 37l15 -88q-104 -37 -209 -37q-231 0 -232 211v217z" />
    <glyph glyph-name="d.sups" horiz-adv-x="634" 
d="M434 1049v184q0 59 -37 99t-96 40t-90 -34t-31 -87v-221q0 -53 31 -87t90 -34q59 1 96 41t37 99zM66 1012v258q0 78 48 134t154 56t166 -102v360h115v-884h-96l-13 94q-59 -106 -182 -107q-96 1 -144 57t-48 134z" />
    <glyph glyph-name="e.sups" horiz-adv-x="598" 
d="M432 1190v65q0 59 -36 91t-92 30q-56 0 -92 -32t-36 -93v-61h256zM318 821q-115 0 -186 51t-71 166v207q0 109 69 162t172 53t168 -51t65 -162v-133h-359v-72q0 -133 150 -133q106 0 196 37l15 -88q-104 -37 -219 -37z" />
    <glyph glyph-name="egrave.sups" horiz-adv-x="598" 
d="M432 1190v65q0 59 -36 91t-92 30q-56 0 -92 -32t-36 -93v-61h256zM318 821q-115 0 -186 51t-71 166v207q0 109 69 162t172 53t168 -51t65 -162v-133h-359v-72q0 -133 150 -133q106 0 196 37l15 -88q-104 -37 -219 -37zM342 1509h-82l-129 172h96z" />
    <glyph glyph-name="f.sups" horiz-adv-x="385" 
d="M225 1448h140v-80h-140v-534h-114v534h-78v80h78v127q0 86 39 121t100 35t123 -13l-8 -84q-27 8 -67 8t-56 -19t-17 -60v-115z" />
    <glyph glyph-name="g.sups" horiz-adv-x="634" 
d="M438 1233q0 59 -37 99t-96 40t-90 -34t-31 -87v-196q0 -53 31 -87t90 -34t96 40t37 99v160zM553 793q1 -215 -255 -217q-112 0 -216 36l14 88q90 -37 191 -36q152 0 151 129v155q-60 -102 -166 -102t-154 56t-48 134v234q0 78 48 134t144 56q123 0 182 -106l13 94h96
v-655z" />
    <glyph glyph-name="h.sups" horiz-adv-x="653" 
d="M455 834v417q0 51 -31 86t-89 35t-96 -40t-38 -99v-399h-115v884h115v-360q59 102 165 102t156 -56q49 -56 49 -134v-436h-116z" />
    <glyph glyph-name="i.sups" horiz-adv-x="288" 
d="M201 834h-115v614h115v-614zM201 1534h-115v166h115v-166z" />
    <glyph glyph-name="j.sups" horiz-adv-x="288" 
d="M201 731q-1 -156 -139 -156q-62 0 -123 13l8 84q27 -8 67 -8t56 19t16 60v705h115v-717zM201 1534h-115v166h115v-166z" />
    <glyph glyph-name="k.sups" horiz-adv-x="612" 
d="M201 834h-115v884h115v-553l274 283h133l-293 -295l303 -319h-141l-276 292v-292z" />
    <glyph glyph-name="l.sups" horiz-adv-x="288" 
d="M201 834h-115v884h115v-884z" />
    <glyph glyph-name="m.sups" horiz-adv-x="1021" 
d="M386 1460q130 0 171 -114q31 61 86 88t102 26q95 0 145 -56t50 -134v-436h-115v417q0 51 -31 86q-32 35 -90 35t-96 -40t-37 -99v-399h-116v417q0 51 -31 86t-89 35t-96 -40t-38 -99v-399h-115v614h96l15 -94q59 106 189 106z" />
    <glyph glyph-name="n.sups" horiz-adv-x="653" 
d="M455 834v417q0 51 -31 86t-89 35t-96 -40t-38 -99v-399h-115v614h96l15 -94q59 106 180 106q96 0 145 -56t49 -134v-436h-116z" />
    <glyph glyph-name="o.sups" horiz-adv-x="608" 
d="M176 1251v-221q0 -61 36 -93t92 -32t92 33t36 92v221q0 59 -36 92t-92 33t-92 -32t-36 -93zM547 1245v-209q0 -109 -68 -162t-174 -53t-175 53t-69 162v209q0 109 69 162t175 53t174 -53t68 -162z" />
    <glyph glyph-name="p.sups" horiz-adv-x="634" 
d="M201 1233v-184q0 -59 38 -99t96 -41q58 0 89 35t31 86v221q0 51 -31 86t-89 35t-96 -40t-38 -99zM377 1460q96 0 145 -56t49 -134v-258q0 -78 -49 -134q-50 -56 -156 -56t-165 102v-336h-115v860h96l15 -94q59 106 180 106z" />
    <glyph glyph-name="q.sups" horiz-adv-x="634" 
d="M434 1233q0 59 -37 99t-96 40t-90 -34t-31 -87v-221q0 -53 31 -87t90 -34t96 40t37 100v184zM549 1448v-860h-115v336q-60 -102 -166 -102t-154 56t-48 134v258q0 78 48 134t144 56q123 0 182 -106l13 94h96z" />
    <glyph glyph-name="r.sups" horiz-adv-x="399" 
d="M377 1348q-82 0 -129 -37t-47 -94v-383h-115v614h96l15 -119q23 67 75 99t105 32v-112z" />
    <glyph glyph-name="s.sups" horiz-adv-x="573" 
d="M408 1004q0 78 -175 107q-65 11 -119 54t-55 117v16q-1 70 59 116t172 46t216 -37l-17 -88q-96 41 -192 41q-121 0 -121 -80v-8q0 -76 174 -105q66 -11 120 -55t54 -116v-15q0 -82 -66 -129t-182 -47q-118 0 -223 37l17 88q104 -41 189 -41t117 27t32 65v7z" />
    <glyph glyph-name="t.sups" horiz-adv-x="389" 
d="M221 1368v-379q1 -41 17 -60t56 -19t66 8l9 -84q-164 -32 -224 22q-39 35 -39 121v391h-77v80h77v123h115v-123h135v-80h-135z" />
    <glyph glyph-name="u.sups" horiz-adv-x="653" 
d="M199 1448v-418q1 -53 31 -87t89 -34t97 40q37 40 37 100v399h114v-614h-96l-12 94q-59 -106 -183 -107q-96 1 -144 57t-48 134v436h115z" />
    <glyph glyph-name="v.sups" horiz-adv-x="550" 
d="M430 1448h113l-213 -621h-111l-209 621h115l154 -490z" />
    <glyph glyph-name="w.sups" horiz-adv-x="837" 
d="M702 1448h113l-162 -621h-125l-110 492l-109 -492h-125l-161 621h110l115 -490l112 490h115l115 -494z" />
    <glyph glyph-name="x.sups" horiz-adv-x="579" 
d="M557 1448l-211 -307l211 -307h-113l-151 221l-154 -221h-114l208 307l-208 307h114l154 -221l151 221h113z" />
    <glyph glyph-name="y.sups" horiz-adv-x="550" 
d="M96 575q-35 0 -100 13l8 86q45 -10 89 -10t68 19t42 71l28 73h-14l-207 621h115l156 -487l147 487h115l-236 -684q-37 -111 -84 -150t-127 -39z" />
    <glyph glyph-name="z.sups" horiz-adv-x="559" 
d="M512 913v-79h-467v79l330 455h-316v80h441v-80l-330 -455h342z" />
    <glyph glyph-name="florin.tf" horiz-adv-x="634" 
d="M176 897h-129v127h129v213q0 141 65 199t169 59q104 0 200 -20l-12 -136q-51 15 -116 15q-66 0 -94 -33t-28 -102v-195h236v-127h-236v-1069q0 -142 -63 -200t-167 -58t-202 20l13 136q51 -14 115 -14t92 32q28 33 28 102v1051z" />
    <glyph glyph-name="florin.tosf" horiz-adv-x="634" 
d="M176 897h-129v127h129v213q0 141 65 199t169 59q104 0 200 -20l-12 -136q-51 15 -116 15q-66 0 -94 -33t-28 -102v-195h236v-127h-236v-1069q0 -142 -63 -200t-167 -58t-202 20l13 136q51 -14 115 -14t92 32q28 33 28 102v1051z" />
    <glyph glyph-name="numbersign.oldstyle" horiz-adv-x="1284" 
d="M834 551v352h-379v-352h379zM1198 903h-262v-352h262v-100h-262v-451h-102v451h-379v-451h-103v451h-266v100h266v352h-266v103h266v428h103v-428h379v428h102v-428h262v-103z" />
    <glyph glyph-name="numbersign.tab" 
d="M793 551v352h-379v-352h379zM1157 903h-262v-352h262v-100h-262v-451h-102v451h-379v-451h-101v451h-266v100h266v352h-266v103h266v428h101v-428h379v428h102v-428h262v-103z" />
    <glyph glyph-name="numbersign.taboldstyle" 
d="M793 551v352h-379v-352h379zM1157 903h-262v-352h262v-100h-262v-451h-102v451h-379v-451h-101v451h-266v100h266v352h-266v103h266v428h101v-428h379v428h102v-428h262v-103z" />
    <glyph glyph-name="AT" horiz-adv-x="1372" 
d="M817 598v184q0 60 -37 100t-96 40t-90 -34t-31 -87v-221q0 -53 31 -87t90 -34t96 40t37 99zM119 457v520q0 207 143 342t431 135t430 -134t143 -343v-596h-430l-19 86q-57 -96 -165 -96t-155 56q-48 56 -48 134v258q0 78 48 134q47 57 157 57t169 -103l13 90h96v-526h209
v506q0 164 -114 262t-335 98t-334 -97t-112 -263v-520q0 -166 112 -263t334 -98v-116q-287 0 -430 135t-143 342z" />
    <glyph glyph-name="Ampersand" horiz-adv-x="1351" 
d="M293 451v-64q0 -125 81 -188t206 -64q207 0 268 127l-459 393q-96 -81 -96 -204zM1063 598v-231q0 -33 -2 -50l207 -176v-141h-117l-164 141q-133 -162 -412 -161q-205 0 -341 110t-136 297v64q0 184 172 311q-135 141 -135 305v20q0 171 128 269t333 98t334 -110
t129 -297v-125h-191v125q0 119 -74 185t-196 66q-121 0 -196 -56t-74 -155v-14q0 -129 133 -244l407 -348v273h400v-156h-205z" />
    <glyph glyph-name="Braceleft" horiz-adv-x="606" 
d="M545 -307q-157 0 -248 49q-107 59 -107 250l21 428q0 61 -2 91t-15 66t-44 52t-82 24v127q51 8 82 24t44 53q13 36 15 65t2 92l-21 428q0 191 107 250q90 49 248 49v-117q-103 0 -161 -38t-58 -161l20 -464q0 -115 -43 -167t-135 -75v-4q92 -23 135 -75t43 -167l-20 -465
q0 -123 57 -161t162 -37v-117z" />
    <glyph glyph-name="Braceright" horiz-adv-x="606" 
d="M63 1624v117q158 0 248 -49q107 -59 107 -250l-21 -428q0 -63 2 -92q1 -29 15 -65t45 -52t82 -25v-127q-51 -8 -82 -24q-51 -26 -60 -118q-2 -30 -2 -91l21 -428q0 -191 -107 -250q-90 -49 -248 -49v117q95 0 139 24t61 66t18 108l-21 465q0 115 44 167t134 75v4
q-90 23 -134 75t-44 167l21 464q-1 123 -57 161t-161 38z" />
    <glyph glyph-name="Bracketleft" horiz-adv-x="630" 
d="M571 1624h-286v-1814h286v-117h-424v2048h424v-117z" />
    <glyph glyph-name="Bracketright" horiz-adv-x="630" 
d="M59 1741h424v-2048h-424v117h289v1814h-289v117z" />
    <glyph glyph-name="Emdash" horiz-adv-x="1429" 
d="M1319 653h-1208v148h1208v-148z" />
    <glyph glyph-name="Endash" horiz-adv-x="1224" 
d="M1114 653h-1003v148h1003v-148z" />
    <glyph glyph-name="Exclamdown" horiz-adv-x="499" 
d="M154 0v614l28 435h135l31 -435v-614h-194zM154 1434h194v-222h-194v222z" />
    <glyph glyph-name="Guillemotleft" horiz-adv-x="1239" 
d="M1122 422v-158l-520 393v138l520 395v-158l-346 -305v-4zM584 422v-158l-521 393v138l521 395v-158l-346 -305v-4z" />
    <glyph glyph-name="Guillemotright" horiz-adv-x="1239" 
d="M655 422l346 301v4l-346 305v158l521 -395v-138l-521 -393v158zM117 422l344 301v4l-344 305v158l520 -395v-138l-520 -393v158z" />
    <glyph glyph-name="Guilsinglleft" horiz-adv-x="698" 
d="M584 422v-158l-521 393v138l521 395v-158l-346 -305v-4z" />
    <glyph glyph-name="Guilsinglright" horiz-adv-x="698" 
d="M117 422l344 301v4l-344 305v158l520 -395v-138l-520 -393v158z" />
    <glyph glyph-name="Hyphen" horiz-adv-x="917" 
d="M807 653h-696v148h696v-148z" />
    <glyph glyph-name="Parenleft" horiz-adv-x="593" 
d="M262 717q0 -537 295 -1024h-119q-164 211 -257 489t-93 535t93 535t257 489h119q-295 -487 -295 -1024z" />
    <glyph glyph-name="Parenright" horiz-adv-x="593" 
d="M506 716q0 -256 -93 -534q-93 -279 -257 -489h-119q295 481 295 1024t-295 1024h119q164 -211 257 -490t93 -535z" />
    <glyph glyph-name="Periodcentered" horiz-adv-x="428" 
d="M297 612h-166v222h166v-222z" />
    <glyph glyph-name="Questiondown" horiz-adv-x="1097" 
d="M842 459h184v-72q0 -188 -128 -298q-128 -109 -334 -109t-344 110t-138 297v74q0 164 107 270q108 106 280 131l23 207h145v-356h-72q-123 0 -206 -67t-83 -185v-74q0 -119 83 -185t205 -67q122 0 200 67t78 185v72zM662 1434v-222h-195v222h195z" />
    <glyph glyph-name="litre" horiz-adv-x="921" 
d="M403 1112v-395q274 317 275 495q0 84 -39 134t-98 49q-59 1 -99 -57t-39 -226zM403 317q0 -276 170 -276q72 0 132 59q66 59 110 211h37q-43 -170 -129 -251q-85 -80 -183 -80t-168 50t-98 126q-27 76 -26 227v106l-168 -170l-25 23l193 203v497q0 208 84 310t203 102
q90 0 143 -55t53 -153t-63 -226q-63 -127 -265 -358v-345z" />
    </font>
</defs>
</svg>
