<svg 
	version="1.1" 
	id="Layer_1" 
	xmlns="http://www.w3.org/2000/svg" 
	xmlns:xlink="http://www.w3.org/1999/xlink" 
	x="0px" 
	y="0px"
	width="48px" 
	height="48px" 
	viewBox="0 0 48 48" 
	enable-background="new 0 0 48 48" 
	xml:space="preserve"
>
<g>
	<path fill="#F2F2F2" d="M42.667,15.652c-0.045-0.62-0.578-1.088-1.207-1.043l-2.069,0.151v-3.856c0-0.623-0.506-1.128-1.13-1.128
		h-2.799l0.227-2.698c0.052-0.622-0.411-1.167-1.03-1.219L11.521,3.921c-0.296-0.022-0.592,0.07-0.823,0.262
		c-0.227,0.194-0.37,0.47-0.394,0.768L9.899,9.776H5.046c-0.624,0-1.13,0.505-1.13,1.128v25.624c0,0.624,0.506,1.129,1.13,1.129
		h4.087h1.154l0.008,0.098l0.341,4.695c0.021,0.299,0.161,0.576,0.387,0.771c0.206,0.179,0.467,0.274,0.736,0.274
		c0.027,0,0.056,0,0.083-0.002l31.553-2.296c0.298-0.021,0.576-0.16,0.772-0.388c0.196-0.226,0.293-0.521,0.271-0.819L42.667,15.652
		z M12.458,6.264l20.887,1.75l-0.148,1.762H12.165L12.458,6.264z M6.173,35.4V12.033h30.961V35.4H6.173z M12.804,41.162
		l-0.235-3.217l-0.021-0.288h25.712c0.624,0,1.13-0.505,1.13-1.129V17.021l1.108-0.079l1.607,22.088L12.804,41.162z"/>
	<path fill="#F2F2F2" d="M21.085,22.203c-0.125,0-0.198,0-4.815,2.036l0.619-5.092c0.024-0.195-0.071-0.376-0.231-0.472
		c-0.055-0.033-0.119-0.058-0.188-0.066c-0.255-0.031-0.513-0.046-0.768-0.046c-0.687,0-1.349,0.117-1.975,0.326
		c-0.923,0.309-1.755,0.826-2.434,1.501c-0.006,0.007-0.013,0.015-0.02,0.022c-0.395,0.394-0.736,0.838-1.014,1.328
		c-0.4,0.704-0.675,1.491-0.776,2.337c-0.195,1.609,0.245,3.148,1.116,4.377c0.055,0.078,0.106,0.159,0.165,0.234
		c0.351,0.448,0.758,0.845,1.217,1.185c0.845,0.626,1.854,1.054,2.97,1.188c0.255,0.032,0.512,0.048,0.767,0.048
		c3.162,0,5.836-2.371,6.22-5.515c0.125-1.047-0.015-2.114-0.404-3.091C21.458,22.322,21.281,22.203,21.085,22.203z"/>
	<path fill="#F2F2F2" d="M22.59,18.244c-0.288-0.4-0.624-0.758-1.009-1.057c-0.637-0.495-1.391-0.829-2.202-0.972
		c-0.082-0.015-0.165-0.038-0.249-0.047c-0.089-0.011-0.168,0.023-0.227,0.082c-0.043,0.042-0.075,0.094-0.083,0.158L18.7,17.396
		l-0.141,1.142l-0.32,2.57c-0.011,0.098,0.028,0.195,0.109,0.255c0.047,0.036,0.106,0.056,0.165,0.056
		c0.036,0,0.075-0.007,0.108-0.022l4.361-1.844c0.068-0.028,0.121-0.082,0.147-0.151c0.027-0.068,0.025-0.145-0.001-0.213
		C22.983,18.848,22.799,18.538,22.59,18.244z"/>
	<path fill="#F2F2F2" d="M32.949,30.267c0.468,0,0.846-0.378,0.846-0.847c0-0.467-0.378-0.846-0.846-0.846h-1.327H26.65
		c-0.468,0-0.845,0.379-0.845,0.846c0,0.469,0.377,0.847,0.845,0.847h4.829H32.949z"/>
	<path fill="#F2F2F2" d="M26.65,25.363h5.241h1.058c0.468,0,0.846-0.379,0.846-0.847c0-0.467-0.378-0.846-0.846-0.846h-0.916H26.65
		c-0.468,0-0.845,0.379-0.845,0.846C25.806,24.984,26.183,25.363,26.65,25.363z"/>
	<path fill="#F2F2F2" d="M26.65,20.534h5.646h0.652c0.468,0,0.846-0.378,0.846-0.846s-0.378-0.846-0.846-0.846h-0.511H26.65
		c-0.468,0-0.845,0.379-0.845,0.846S26.183,20.534,26.65,20.534z"/>
</g>
</svg>
