<svg 
  version="1.1" 
  id="Layer_1" 
  xmlns="http://www.w3.org/2000/svg" 
  xmlns:xlink="http://www.w3.org/1999/xlink" 
  x="0px" 
  y="0px"
  width="48px" 
  height="48px" 
  viewBox="0 0 48 48" 
  enable-background="new 0 0 48 48" 
  xml:space="preserve"
>
<path fill="#F2F2F2" d="M37.264,3.705H10.737c-3.884,0-7.032,3.148-7.032,7.032v26.525c0,3.884,3.148,7.032,7.032,7.032h7.66
	c0-2.065,0-9.896,0-16.56h-3.375v-6.035h3.375v-3.906c0-2.798,1.33-7.167,7.169-7.167l5.258,0.022v5.857c0,0-3.197,0-3.818,0
	S25.5,16.817,25.5,18.147v3.553h5.412l-0.621,6.035H25.5c0,6.589,0,14.482,0,16.56h11.764c3.883,0,7.031-3.148,7.031-7.032V10.737
	C44.295,6.853,41.146,3.705,37.264,3.705z"/>
</svg>
