<svg 
  version="1.1" 
  id="Layer_1" 
  xmlns="http://www.w3.org/2000/svg" 
  xmlns:xlink="http://www.w3.org/1999/xlink" 
  x="0px" 
  y="0px"
  width="48px" 
  height="48px" 
  viewBox="0 0 48 48" 
  enable-background="new 0 0 48 48" 
  xml:space="preserve"
>
<path fill="#F2F2F2" d="M37.262,3.705H10.737c-3.883,0-7.031,3.148-7.031,7.032v26.525c0,3.884,3.148,7.032,7.031,7.032h26.525
	c3.885,0,7.033-3.148,7.033-7.032V10.737C44.295,6.853,41.146,3.705,37.262,3.705z M30.359,37.72c-0.961,0-6.289-0.121-7.652-0.121
	c-1.357,0-8.451-2.123-8.451-9.615c0-1.339,0-2.677-0.004-4.014c-0.008-1.245-0.033-2.491-0.037-3.727
	c-0.002-0.36-0.004-0.72-0.006-1.081c-0.008-1.887-0.176-4.013,0.457-5.826c0.482-1.38,1.627-1.937,3.037-1.937
	c3.408,0,3.637,3.338,3.646,6.688h9.851c1.561,0,2.727,1.524,2.727,3.848c0,2.322-2.525,2.844-3.848,2.844h-8.841
	c-0.045,1.421-0.092,2.581-0.092,3.284c0,1.483,0.602,3.084,4.365,3.084h5.291c1.324,0,3.283,0.962,3.283,3.646
	C34.086,37.476,31.324,37.72,30.359,37.72z"/>
</svg>
